<svg xmlns="http://www.w3.org/2000/svg" xmlns:xlink="http://www.w3.org/1999/xlink" width="2000" height="2000" preserveAspectRatio="xMidYMid meet" version="1.0" viewBox="0 0 1500 1500" zoomAndPan="magnify"><rect width="1800" height="1800" x="-150" y="-150" fill="#fff" fill-opacity="1"/><rect width="1800" height="1800" x="-150" y="-150" fill="#fff" fill-opacity="1"/><rect width="1800" height="1800" x="-150" y="-150" fill="#fff3fa" fill-opacity="1"/><path fill="#e26959" fill-opacity="1" fill-rule="nonzero" d="M 22.441406 1382.84375 C 43.257812 1424.863281 64.113281 1466.765625 85.515625 1508.210938 L 0.484375 1508.210938 L 0.484375 1337.160156 C 7.871094 1352.894531 15.175781 1368.175781 22.441406 1382.84375 Z M 364.410156 764.554688 C 329.765625 727.140625 256.777344 709.035156 210.308594 694.855469 C 141.382812 673.816406 71.035156 658.390625 0.484375 643.742188 L 0.484375 682.859375 C 24.277344 688.3125 47.957031 694.230469 71.464844 700.90625 C 184.550781 733.007812 261.257812 794.574219 295.613281 905.800781 C 338.457031 1044.496094 307.546875 1217.308594 315.222656 1361.121094 C 318.21875 1417.253906 321.625 1457.707031 337.578125 1508.210938 L 414.523438 1508.210938 C 416.847656 1450.039062 421.417969 1391.929688 425.070312 1334.574219 C 433.613281 1200.527344 447.179688 1062.34375 425.308594 928.851562 C 416.683594 876.195312 402.230469 805.390625 364.410156 764.554688 Z M 646.214844 870.125 C 635.625 732.457031 552.300781 675.554688 427.144531 634.742188 C 288.105469 589.402344 142.628906 567.515625 0.484375 533.519531 L 0.484375 597.25 C 113.261719 622.734375 227.027344 644.5625 336.863281 680.671875 C 461.324219 721.59375 536.242188 770.253906 552.3125 906.667969 C 568.6875 1045.667969 539.628906 1189.464844 518.566406 1326.457031 C 510.410156 1379.507812 498.148438 1442.597656 489.109375 1508.210938 L 550.101562 1508.210938 C 562.417969 1426.941406 581.941406 1347.75 594.300781 1285.457031 C 621.070312 1150.578125 656.867188 1008.625 646.214844 870.125 Z M 720.398438 1095.253906 C 748.050781 951.566406 789.730469 794.847656 769.601562 647.5 C 749.699219 501.816406 637.8125 487.671875 514.753906 450.6875 C 363.648438 405.273438 166.167969 367.375 0.484375 291.378906 L 0.484375 417.851562 C 152.214844 463.5 309.246094 489.136719 461.269531 533.75 C 583.351562 569.570312 689.273438 604.234375 708.042969 743.957031 C 727.78125 890.914062 686.664062 1047.015625 658.65625 1190.246094 C 642.0625 1275.09375 611.324219 1394.09375 603.085938 1508.210938 L 660.832031 1508.210938 C 655.664062 1367.101562 699.621094 1203.222656 720.398438 1095.253906 Z M 833.824219 936.738281 C 863.136719 796.828125 917.648438 624.535156 882.960938 480.980469 C 851.644531 351.386719 711.78125 370.480469 604.992188 334.292969 C 385.078125 259.769531 215.164062 97.453125 14 -9.113281 L 0.484375 -9.113281 L 0.484375 132.347656 C 174.164062 237.210938 360.308594 321.480469 553.683594 382.949219 C 674.476562 421.339844 805.566406 416.257812 828.171875 564.929688 C 850.417969 711.191406 806.308594 869.324219 778.140625 1011.78125 C 752.5 1141.453125 692.585938 1351.539062 722.585938 1508.210938 L 793.578125 1508.210938 C 719.164062 1348.855469 802.761719 1085.011719 833.824219 936.738281 Z M 1062.085938 1486.113281 C 747.515625 1422.679688 896.441406 1010.6875 946.519531 800.136719 C 976.71875 673.160156 1030.410156 518.75 1004.605469 387.402344 C 993.613281 331.449219 971.246094 306.183594 915.058594 294.40625 C 835.617188 277.753906 759.128906 282.402344 682.050781 249.550781 C 559.199219 197.1875 492.832031 95.359375 420.398438 -9.113281 L 253.652344 -9.113281 C 278.742188 11.140625 303.453125 33.570312 328.386719 58.144531 C 420 148.449219 509.644531 236.050781 631.074219 284.925781 C 741.285156 329.285156 917.28125 295.714844 943.511719 438.421875 C 968.964844 576.878906 919.027344 733.144531 889.28125 867.296875 C 849.515625 1046.628906 741.605469 1374.09375 899.71875 1508.207031 L 1517.515625 1508.207031 L 1517.515625 1470.679688 C 1367.167969 1470.386719 1205.320312 1514.996094 1062.085938 1486.113281 Z M 1184.996094 1343.53125 C 857.996094 1284.351562 1017.605469 874.574219 1073.753906 661.210938 C 1103.527344 548.070312 1171.050781 382.378906 1136.183594 263.664062 C 1119.9375 208.355469 1089.015625 203.613281 1035.4375 201.671875 C 941.148438 198.253906 846.003906 201.925781 761.199219 152.984375 C 693.238281 113.769531 658.4375 55.851562 635.097656 -9.113281 L 538.859375 -9.113281 C 577.984375 76.464844 623.792969 156.074219 713.710938 202.363281 C 752.683594 222.421875 795.078125 233.839844 838.027344 241.332031 C 888.007812 250.050781 951.367188 239.777344 998.300781 252.410156 C 1041.8125 264.132812 1060.242188 289.703125 1069.007812 334.078125 C 1093.992188 460.519531 1037.761719 611.527344 1007.34375 732.53125 C 953.429688 947.023438 799.546875 1356.910156 1125.460938 1415.179688 C 1241.09375 1435.851562 1382.523438 1406.078125 1517.519531 1397.277344 L 1517.519531 1338.148438 C 1407.386719 1347.589844 1293.886719 1363.242188 1184.996094 1343.53125 Z M 1359.984375 1207.304688 C 1238.523438 1187.003906 1180.523438 1129.742188 1176.757812 1004.003906 C 1171.773438 837.660156 1227.75 668.320312 1267.34375 508.785156 C 1297.972656 385.375 1354.652344 225.59375 1320.863281 97.371094 C 1305.457031 38.902344 1275.171875 19.71875 1217.609375 14.472656 C 1137.269531 7.15625 1059.722656 15.320312 983.96875 -9.113281 L 751.203125 -9.113281 C 771.339844 24 798.957031 52.960938 838.691406 75.265625 C 940.828125 132.605469 1040.613281 102.617188 1148.703125 117.691406 C 1190.703125 123.550781 1214.144531 138.222656 1225.734375 181.089844 C 1258.605469 302.671875 1190.738281 465.71875 1159.117188 581.21875 C 1117.71875 732.421875 1061.304688 893.789062 1063.003906 1052.402344 C 1064.394531 1182.027344 1130.296875 1248.867188 1255.746094 1271.78125 C 1341.472656 1287.4375 1430.09375 1281.203125 1517.523438 1273.953125 L 1517.523438 1211.25 C 1461.546875 1214.878906 1408.078125 1215.34375 1359.984375 1207.304688 Z M 1430.617188 903.941406 C 1405.210938 743.949219 1453.929688 557.777344 1464.886719 397.609375 C 1473.878906 266.148438 1488.578125 114.410156 1431.816406 -9.113281 L 1364.503906 -9.113281 C 1373.046875 2.644531 1380.402344 16.488281 1386.308594 32.890625 C 1432.4375 160.941406 1392.316406 321.816406 1369.839844 450.671875 C 1342.761719 605.9375 1303.695312 765.144531 1309.574219 923.789062 C 1314.441406 1055.105469 1357.214844 1127.171875 1489.210938 1147.34375 C 1498.515625 1148.769531 1507.957031 1149.890625 1517.519531 1150.753906 L 1517.519531 966.960938 C 1476.277344 977.011719 1438.851562 955.792969 1430.617188 903.941406 Z M 1484.554688 -9.113281 C 1498.339844 20.417969 1509.078125 51.316406 1517.515625 83.027344 L 1517.515625 -9.113281 Z M 0.484375 754.042969 L 0.484375 1117.617188 C 150.699219 1273.140625 184 1508.210938 184 1508.210938 L 281.863281 1508.210938 C 281.863281 1508.210938 242.988281 1398.792969 242.96875 1251.683594 C 245.480469 794.621094 0.484375 754.042969 0.484375 754.042969 Z M 0.484375 754.042969"/></svg>