<svg width="707" height="402" viewBox="0 0 707 402" fill="none" xmlns="http://www.w3.org/2000/svg">
<path d="M691 296.424L677.051 296.747L669.971 296.874C667.6 296.931 665.219 296.874 662.848 296.943H662.38V296.424L662.316 283.504V282.928H662.848L676.924 282.997C681.623 282.997 686.311 283.124 691 283.181H691.297V283.504C691.297 285.692 691.212 287.868 691.159 290.022L691 296.424ZM691 296.424L690.851 289.918C690.798 287.776 690.734 285.657 690.713 283.538L691 283.861C686.311 283.918 681.623 284.045 676.924 284.045L662.848 284.114L663.379 283.538V296.424L662.901 295.918C665.219 295.918 667.536 295.918 669.864 295.975L676.786 296.171L691 296.424Z" fill="#EBEBEB"/>
<path d="M675.297 312.673L661.349 312.996L654.258 313.122C651.897 313.122 649.516 313.122 647.145 313.191H646.677V312.673V299.787V299.211H647.209L661.285 299.292C665.973 299.292 670.672 299.419 675.361 299.476H675.659V299.787C675.659 301.975 675.574 304.151 675.52 306.305L675.297 312.673ZM675.297 312.673L675.148 306.167C675.095 304.025 675.031 301.906 675.01 299.787L675.297 300.11C670.609 300.167 665.91 300.294 661.221 300.294L647.145 300.363L647.677 299.787V312.673L647.198 312.166C649.516 312.166 651.834 312.166 654.162 312.224L661.147 312.362L675.297 312.673Z" fill="#EBEBEB"/>
<path d="M706.702 312.673L692.754 312.996L685.673 313.122C683.303 313.122 680.921 313.122 678.55 313.191H678.082V312.673L678.019 299.787V299.211H678.55L692.626 299.292C697.325 299.292 702.014 299.419 706.702 299.476H707V299.787C707 301.975 706.904 304.151 706.862 306.305L706.702 312.673ZM706.702 312.673L706.553 306.167C706.553 304.025 706.436 301.906 706.415 299.787L706.702 300.11C702.014 300.167 697.325 300.294 692.626 300.294L678.55 300.363L679.082 299.787V312.673L678.603 312.166C680.932 312.166 683.239 312.166 685.567 312.224L692.563 312.362L706.702 312.673Z" fill="#EBEBEB"/>
<path d="M289.579 143.094L275.63 143.416L268.55 143.543C266.179 143.543 263.797 143.543 261.427 143.543H260.959V143.024L260.895 130.138V129.563H261.427L275.503 129.632C280.202 129.632 284.89 129.758 289.579 129.816H289.876V130.127C289.876 132.315 289.781 134.48 289.727 136.633L289.579 143.094ZM289.579 143.094L289.43 136.576C289.43 134.434 289.313 132.315 289.292 130.208L289.579 130.518C284.89 130.518 280.202 130.703 275.503 130.703L261.427 130.783L261.958 130.208L261.905 143.094L261.427 142.575C263.744 142.575 266.062 142.575 268.39 142.644L275.386 142.771L289.579 143.094Z" fill="#EBEBEB"/>
<path d="M273.855 159.342L259.906 159.665L252.815 159.791C250.455 159.791 248.074 159.791 245.703 159.849H245.235V159.331L245.15 146.468V145.892H245.681L259.757 145.961C264.446 145.961 269.145 146.088 273.833 146.145H274.131V146.468C274.131 148.656 274.046 150.821 273.993 152.974L273.855 159.342ZM273.855 159.342L273.706 152.824C273.653 150.682 273.589 148.563 273.568 146.456L273.855 146.767C269.166 146.825 264.467 146.951 259.779 146.951L245.703 147.032L246.234 146.456L246.213 159.342L245.735 158.824C248.052 158.824 250.37 158.824 252.698 158.893L259.683 159.02L273.855 159.342Z" fill="#EBEBEB"/>
<path d="M305.281 159.342L291.333 159.665L284.252 159.791C281.881 159.791 279.511 159.791 277.129 159.849H276.661V159.331L276.598 146.468V145.892H277.129L291.205 145.961C295.904 145.961 300.593 146.088 305.281 146.145H305.579V146.468C305.579 148.656 305.483 150.821 305.441 152.974L305.281 159.342ZM305.281 159.342L305.132 152.824C305.132 150.682 305.015 148.563 304.994 146.456L305.281 146.767C300.593 146.825 295.904 146.951 291.205 146.951L277.129 147.032L277.661 146.456L277.608 159.342L277.129 158.824C279.457 158.824 281.764 158.824 284.093 158.893L291.088 159.02L305.281 159.342Z" fill="#EBEBEB"/>
<path d="M60.0356 228.355L46.0872 228.678L38.996 228.805C36.6359 228.805 34.2544 228.805 31.8836 228.862H31.4584V228.344V215.458V214.882H31.9899L46.0659 214.951C50.7544 214.951 55.4535 215.078 60.1419 215.135H60.4396V215.446C60.4396 217.634 60.3546 219.799 60.3014 221.953L60.0356 228.355ZM60.0356 228.355L59.8868 221.838C59.8868 219.696 59.7698 217.577 59.7486 215.469L60.0356 215.78C55.3472 215.838 50.6481 215.965 45.9596 215.965L31.8836 216.045L32.4152 215.469L32.362 228.355L31.8836 227.837C34.2013 227.837 36.5189 227.837 38.8472 227.906L45.832 228.033L60.0356 228.355Z" fill="#EBEBEB"/>
<path d="M526.734 143.082L512.785 143.404L505.705 143.531C503.334 143.589 500.952 143.531 498.582 143.589H498.114V143.071L498.05 130.184V129.609H498.582L512.658 129.678C517.357 129.678 522.045 129.816 526.734 129.874H527.031V130.184C527.031 132.372 526.946 134.549 526.893 136.691L526.734 143.082ZM526.734 143.082L526.585 136.576C526.532 134.422 526.468 132.303 526.447 130.196L526.734 130.507C522.045 130.565 517.357 130.691 512.658 130.703L498.582 130.772L499.113 130.196L499.06 143.082L498.582 142.564C500.899 142.564 503.217 142.564 505.545 142.633L512.541 142.76L526.734 143.082Z" fill="#EBEBEB"/>
<path d="M689.373 17.9299L675.425 18.2523L668.334 18.379C665.973 18.379 663.592 18.379 661.221 18.4481H660.753V17.9299V5.04386V4.46808H661.285L675.361 4.53717C680.049 4.53717 684.748 4.67536 689.437 4.73294H689.735V5.04386C689.735 7.23184 689.649 9.4083 689.596 11.5502L689.373 17.9299ZM689.373 17.9299L689.224 11.4235C689.171 9.27011 689.107 7.15123 689.086 5.04386L689.373 5.35478C684.685 5.35478 679.986 5.53904 675.297 5.55055L661.221 5.61964L661.753 5.04386L661.7 17.9299L661.221 17.4117C663.539 17.4117 665.856 17.4117 668.185 17.4808L675.169 17.6074L689.373 17.9299Z" fill="#EBEBEB"/>
<path d="M705.076 34.1785L691.127 34.5009L684.047 34.6276C681.676 34.6852 679.295 34.6276 676.924 34.6852H676.456V34.167L676.392 21.2809V20.7052H676.924L691 20.7742C695.699 20.7742 700.387 20.9124 705.076 20.97H705.373V21.2809C705.373 23.4689 705.278 25.6454 705.225 27.7873L705.076 34.1785ZM705.076 34.1785L704.927 27.6721C704.927 25.5187 704.81 23.3998 704.789 21.2925L705.076 21.6034C700.387 21.661 695.699 21.7876 691 21.7991L676.924 21.8682L677.455 21.2925V34.1785L676.977 33.6603C679.295 33.6603 681.612 33.6603 683.94 33.7294L690.936 33.856L705.076 34.1785Z" fill="#EBEBEB"/>
<path d="M28.6304 17.9414L14.6714 18.2638L7.59083 18.3905C5.23066 18.3905 2.84922 18.3905 0.478415 18.4596H0V17.9414V5.05538V4.4796H0.542201L14.6182 4.56021C19.3067 4.56021 23.9951 4.68688 28.6942 4.74446H28.9812V5.05538C28.9812 7.24336 28.8856 9.41981 28.843 11.5732L28.6304 17.9414ZM28.6304 17.9414L28.4709 11.4351C28.4709 9.28163 28.354 7.16275 28.3327 5.05538L28.6304 5.3663C23.9313 5.4354 19.2429 5.55055 14.5544 5.56207L0.478415 5.63116L1.00999 5.05538L0.946196 17.9414L0.478415 17.4923C2.79606 17.4923 5.10308 17.4923 7.43136 17.4923L14.4268 17.619L28.6304 17.9414Z" fill="#EBEBEB"/>
<path d="M373.45 177.779C372.145 179.113 370.527 180.034 368.772 180.439C367.709 180.738 366.529 180.911 365.402 181.13H361.553C359.969 180.865 358.364 180.658 356.822 180.324C351.061 178.984 345.604 176.416 340.769 172.769C328.035 163.651 317.307 151.614 309.342 137.508C306.672 132.854 304.833 127.698 303.92 122.308C303.686 120.891 303.506 119.463 303.304 118.035V113.867C303.623 112.266 303.878 110.642 304.271 109.065C304.659 107.584 305.391 106.236 306.397 105.149C306.589 105.334 306.759 105.483 306.929 105.668C313.053 112.293 319.18 118.918 325.311 125.544C325.509 125.723 325.651 125.964 325.716 126.235C325.781 126.506 325.765 126.791 325.672 127.052C325.206 128.694 325.144 130.439 325.491 132.115C325.837 133.791 326.582 135.341 327.65 136.61C332.879 143.044 338.479 149.114 344.415 154.782C345.599 155.946 347.042 156.755 348.603 157.128C350.164 157.502 351.788 157.428 353.314 156.912C353.76 156.786 354.079 156.705 354.462 157.12C360.721 163.937 366.993 170.739 373.28 177.525C373.312 177.56 373.354 177.664 373.45 177.779Z" fill="#EBEBEB"/>
<path d="M385.485 162.889V164.271C384.93 165.136 384.33 165.967 383.688 166.758C381.796 168.889 379.839 170.95 377.915 173.034L377.32 173.645L358.417 153.181C360.894 150.533 363.361 147.826 365.912 145.189C366.189 144.911 366.514 144.696 366.869 144.557C367.223 144.418 367.6 144.357 367.977 144.378C368.354 144.4 368.723 144.503 369.062 144.682C369.401 144.861 369.704 145.112 369.952 145.42C371.377 146.917 372.759 148.448 374.205 149.957C377.49 153.527 380.796 157.074 384.049 160.666C384.581 161.365 385.061 162.108 385.485 162.889Z" fill="#EBEBEB"/>
<path d="M335.932 113.97C333.593 116.423 331.201 118.819 328.883 121.191L310.129 100.889C310.544 100.486 311.022 100.06 311.458 99.5989C313.18 97.7449 314.871 95.8448 316.625 94.0253C317.337 93.3481 318.086 92.7175 318.868 92.1367H320.155C320.871 92.6136 321.554 93.1487 322.196 93.7374C326.789 98.6661 331.364 103.618 335.921 108.593C337.643 110.458 337.643 112.139 335.932 113.97Z" fill="#EBEBEB"/>
<path d="M21.6349 125.267H144.672V40.7194H21.6349V125.267Z" fill="#EBEBEB"/>
<path d="M167.689 125.267H144.672V99.2995L167.689 125.267Z" fill="#EBEBEB"/>
<path d="M130.426 55.3327H35.8704V56.9449H130.426V55.3327Z" fill="white"/>
<path d="M84.743 64.0155H35.8704V65.6277H84.743V64.0155Z" fill="white"/>
<path d="M112.332 81.3696H35.8704V82.9818H112.332V81.3696Z" fill="white"/>
<path d="M130.426 90.0409H35.8704V91.6531H130.426V90.0409Z" fill="white"/>
<path d="M130.426 98.7122H35.8704V100.324H130.426V98.7122Z" fill="white"/>
<path d="M69.4656 107.395H35.8704V109.007H69.4656V107.395Z" fill="white"/>
<path d="M685.546 159.031H562.508V233.595H685.546V159.031Z" fill="#DBDBDB"/>
<path d="M539.491 233.607H562.508V207.639L539.491 233.607Z" fill="#DBDBDB"/>
<path d="M659.35 197.966H577.031V199.578H659.35V197.966Z" fill="white"/>
<path d="M642.425 206.648H577.031V208.261H642.425V206.648Z" fill="white"/>
<path d="M647.358 180.612H577.031V182.224H647.358V180.612Z" fill="white"/>
<path d="M668.854 171.94H577.031V173.552H668.854V171.94Z" fill="white"/>
<path d="M649.208 215.32H577.031V216.932H649.208V215.32Z" fill="white"/>
<path d="M623.384 79.7805H397.456V90.5131H623.384V79.7805Z" fill="#EBEBEB"/>
<path d="M420.026 90.5246H410.118V126.016H420.026V90.5246Z" fill="#EBEBEB"/>
<path d="M420.026 90.5246H410.118V101.499H420.026V90.5246Z" fill="#DBDBDB"/>
<path d="M610.722 90.5246H600.813V126.016H610.722V90.5246Z" fill="#EBEBEB"/>
<path d="M610.722 90.5246H600.813V101.499H610.722V90.5246Z" fill="#DBDBDB"/>
<path d="M455.535 79.7805V11.389L439.63 11.389V79.7805H455.535Z" fill="#C7C7C7"/>
<path d="M455.535 15.2467V7.72702L439.63 7.72702V15.2467H455.535Z" fill="#DBDBDB"/>
<path d="M455.524 27.6721V24.8853H439.62V27.6721H455.524Z" fill="#DBDBDB"/>
<path d="M457.513 70.8212V63.3015H439.63V70.8212H457.513Z" fill="#DBDBDB"/>
<path d="M466.645 79.7805V0L455.535 0V79.7805H466.645Z" fill="#DBDBDB"/>
<path d="M464.38 38.1859V7.49669H457.714V38.1859H464.38Z" fill="#EBEBEB"/>
<path d="M545.667 71.2585L493.287 15.171L485.476 23.7291L537.857 79.8166L545.667 71.2585Z" fill="#C7C7C7"/>
<path d="M531.845 59.7893L511.695 38.214L507.009 43.3489L527.159 64.9241L531.845 59.7893Z" fill="#DBDBDB"/>
<path d="M485.505 79.8035V19.1966H466.634V79.8035H485.505Z" fill="#A6A6A6"/>
<path d="M485.505 73.3662V67.7236H466.634V73.3662H485.505Z" fill="#C7C7C7"/>
<path d="M485.505 64.027V61.8391H466.634V64.027H485.505Z" fill="#C7C7C7"/>
<path d="M439.63 79.8035V22.8471H426.596V79.8035H439.63Z" fill="#A6A6A6"/>
<path d="M439.63 73.7578V68.449H426.596V73.7578H439.63Z" fill="#C7C7C7"/>
<path d="M439.63 39.8902V34.5815H426.596V39.8902H439.63Z" fill="#C7C7C7"/>
<path d="M439.63 45.5905V43.5292H426.596V45.5905H439.63Z" fill="#C7C7C7"/>
<path d="M599.633 53.2484L598.219 57.3134L597.348 59.7893L595.923 63.8658L590.373 79.792H560.361L554.79 63.8658L553.365 59.7893L552.504 57.3134L551.08 53.2484L562.158 35.7561L556.417 24.2289H594.328L588.555 35.7561L599.633 53.2484Z" fill="#DBDBDB"/>
<path d="M599.633 53.2484L598.219 57.3134H552.504L551.08 53.2484H599.633Z" fill="#A6A6A6"/>
<path d="M597.348 59.7893L595.923 63.8658H554.79L553.365 59.7893H597.348Z" fill="#A6A6A6"/>
<path d="M14.2567 390.173L99.0954 389.897L183.924 389.793L353.59 389.609L523.257 389.793L608.085 389.897L692.924 390.173L608.085 390.461L523.257 390.565L353.59 390.749L183.924 390.565L99.0954 390.461L14.2567 390.173Z" fill="#263238"/>
<path d="M344.384 390.15H474.789L448.795 226.317H351.273L344.384 390.15Z" fill="#DBDBDB"/>
<path d="M344.384 390.15H355.823L362.234 226.317H351.273L344.384 390.15Z" fill="#A6A6A6"/>
<path d="M457.693 258.434C472.45 294.133 508.107 353.381 524.065 338.698C547.933 316.75 564.092 268.2 570.471 248.565C574.054 237.568 522.332 219.166 519.164 229.15C514.656 243.337 507.586 272.99 503.493 277.193C501.367 279.393 484.421 253.632 471.599 241.414C453.09 223.807 452.983 247.034 457.693 258.434Z" fill="#AD6359"/>
<path d="M583.388 232.04C578.785 243.257 561.062 262.223 555.173 265.021C549.283 267.82 518.175 237.384 518.824 230.221C519.472 223.058 538.035 185.54 548.315 179.782C558.596 174.025 588.162 220.41 583.388 232.04Z" fill="#AD6359"/>
<path d="M521.258 222.344C521.258 222.344 522.003 206.384 518.282 192.887C515.156 181.544 509.341 165.088 514.901 163.039C526.34 158.835 540.842 199.889 540.842 199.889C540.842 199.889 544.562 219.12 533.58 224.371C526.691 227.664 521.258 222.344 521.258 222.344Z" fill="#AD6359"/>
<path d="M534.154 192.07C534.899 198.53 541.501 193.878 541.501 193.878C541.501 193.878 533.495 203.09 536.642 209.389C539.704 215.481 547.486 209.55 548.05 209.136C547.624 209.631 540.48 218.268 544.254 224.279C548.177 230.52 555.045 223.127 555.492 222.644C555.226 223.231 551.888 231.188 555.715 235.058C562.285 241.679 571.343 221.596 578.317 219.35C578.317 219.35 583.187 231.706 583.389 232.017C583.389 232.017 592.372 213.086 589.055 203.067C588.59 201.603 587.678 200.355 586.47 199.528C585.263 198.701 583.83 198.345 582.41 198.518C582.41 198.518 585.929 192.761 583.101 187.924C581.634 185.448 576.723 185.771 576.723 185.771C576.723 185.771 579.359 181.038 576.595 176.915C574.394 173.61 569.77 174.451 569.77 174.451C569.77 174.451 570.354 168.624 567.101 166.044C560.488 160.839 532.549 178.239 534.154 192.07Z" fill="#AD6359"/>
<path d="M568.972 174.485C569.068 174.428 568.972 174.278 568.919 174.312C558.437 177.606 547.858 184.677 541.118 194.085C540.895 194.396 541.256 194.914 541.564 194.626C550.272 186.392 558.511 179.863 568.972 174.485Z" fill="#263238"/>
<path d="M576.786 185.621C576.903 185.563 576.786 185.356 576.691 185.391C565.9 188.845 554.195 197.206 547.592 209.009C547.369 209.412 547.539 210.023 547.837 209.585C552.77 202.123 567.346 190.423 576.786 185.621Z" fill="#263238"/>
<path d="M555.29 223.623C562.019 212.567 571.343 204.956 581.964 198.634C582.091 198.553 581.964 198.357 581.847 198.392C575.872 199.946 569.493 204.737 564.837 208.929C560.43 212.721 557.02 217.7 554.949 223.369C554.854 223.623 555.151 223.876 555.29 223.623Z" fill="#263238"/>
<path d="M541.288 193.866C541.022 194.235 541.82 194.246 541.564 194.626C540.501 196.215 534.814 206.407 537.418 209.596C539.544 212.141 544.105 210.852 545.7 209.596L549.687 206.476L546.944 210.955C545.709 212.918 544.776 215.084 544.18 217.37C543.85 218.41 543.727 219.515 543.821 220.611C543.914 221.707 544.221 222.769 544.722 223.726C545.191 224.614 545.929 225.298 546.81 225.666C547.691 226.033 548.662 226.059 549.559 225.741C551.559 224.996 553.349 223.707 554.758 221.999L558.798 217.393L556.374 223.15C555.697 224.743 555.207 226.423 554.918 228.148C554.593 229.77 554.715 231.46 555.268 233.008C555.543 233.689 555.986 234.275 556.549 234.7C557.112 235.125 557.773 235.372 558.458 235.415C560.01 235.244 561.486 234.597 562.71 233.549C565.395 231.327 567.915 228.882 570.248 226.237C571.471 224.947 572.693 223.646 573.98 222.402C575.188 221.092 576.637 220.072 578.232 219.408C576.716 220.24 575.365 221.386 574.256 222.782C573.076 224.106 571.949 225.488 570.822 226.881C568.608 229.758 566.152 232.406 563.486 234.793C562.057 236.106 560.307 236.942 558.447 237.199C557.422 237.21 556.416 236.899 555.55 236.305C554.684 235.71 553.996 234.857 553.567 233.848C552.823 231.949 552.62 229.852 552.983 227.826C553.268 225.899 553.787 224.021 554.524 222.241L556.14 223.392C554.502 225.44 552.399 226.988 550.038 227.883C548.715 228.342 547.286 228.285 545.998 227.722C544.753 227.131 543.701 226.148 542.978 224.901C542.345 223.686 541.957 222.339 541.84 220.949C541.723 219.56 541.879 218.159 542.298 216.84C542.977 214.337 544.037 211.974 545.434 209.85L546.678 211.163C544.552 212.66 539.619 214.709 535.909 211.22C531.805 205.819 539.725 195.616 541.288 193.866Z" fill="#263238"/>
<path d="M541.501 193.878C540.352 194.374 539.14 194.681 537.907 194.787C537.412 194.843 536.912 194.753 536.46 194.529C536.007 194.304 535.619 193.952 535.334 193.509C534.834 192.444 534.63 191.243 534.75 190.054C534.814 188.742 534.941 187.371 535.132 185.955C534.323 187.112 533.75 188.443 533.453 189.859C533.248 190.623 533.185 191.423 533.267 192.213C533.349 193.004 533.575 193.769 533.931 194.465C534.396 195.188 535.052 195.742 535.813 196.054C536.545 196.313 537.329 196.345 538.077 196.146C539.411 195.8 540.609 195.006 541.501 193.878Z" fill="#263238"/>
<path d="M516.017 230.221L569.855 270.837C569.855 270.837 537.695 343.005 517.824 342.81C497.954 342.614 469.25 288.559 459.352 265.194C449.454 241.829 455.354 222.033 475.384 243.314C495.413 264.595 502.59 273.37 503.238 273.082C504.45 272.553 516.017 230.221 516.017 230.221Z" fill="#FFC727"/>
<path d="M569.855 270.837C569.855 270.837 547.529 320.884 528.615 337.512C524.82 340.852 521.173 342.844 517.824 342.798C497.954 342.614 469.25 288.548 459.299 265.194C453.143 250.73 453.09 237.637 458.682 234.816C462.137 233.077 467.719 235.219 475.341 243.349C495.541 264.779 502.537 273.393 503.196 273.105C504.45 272.553 516.028 230.233 516.028 230.233L569.855 270.837Z" fill="#FFC727"/>
<path d="M536.536 328.991C535.877 329.82 535.207 330.626 534.537 331.409C528.479 335.541 521.682 338.237 514.593 339.32C512.637 339.554 510.669 339.639 508.703 339.574L507.48 338.745C509.827 338.898 512.182 338.833 514.518 338.549C517.315 338.218 520.067 337.53 522.715 336.499L524.724 335.785L526.67 334.898C527.318 334.599 527.988 334.346 528.615 334L530.497 332.964C532.591 331.789 534.608 330.461 536.536 328.991ZM495.69 265.413C489.547 268.44 483.943 272.614 479.137 277.746C476.019 281.073 473.137 284.649 470.515 288.444C470.642 288.697 470.78 288.962 470.929 289.216C473.583 285.357 476.508 281.726 479.679 278.356C483.707 274.07 488.296 270.45 493.298 267.612L495.18 266.576C495.525 266.386 495.88 266.217 496.243 266.069L495.69 265.413ZM542.192 269.086C537.086 266.38 531.744 264.231 526.245 262.672C525.671 262.522 525.096 262.373 524.512 262.246C524.14 262.154 523.757 262.062 523.385 261.993C518.738 260.938 513.967 260.674 509.245 261.21C508.554 261.313 507.873 261.428 507.182 261.567C507.108 261.831 507.023 262.108 506.949 262.361C507.735 262.211 508.533 262.085 509.33 261.981C513.713 261.48 518.14 261.678 522.47 262.568L523.629 262.799C524.448 262.983 525.266 263.179 526.085 263.398C531.538 264.92 536.837 267.026 541.905 269.685C549.495 273.719 556.858 278.237 563.954 283.216C564.061 283.02 564.156 282.824 564.241 282.64C557.147 277.651 549.784 273.125 542.192 269.086ZM547.773 254.185C539.154 254.571 530.755 257.252 523.321 261.993L522.407 262.568C520.529 263.787 518.716 265.117 516.974 266.553C507.863 274.061 500.591 283.711 493.67 293.419C490.204 298.29 486.802 303.196 483.209 307.94C482.953 308.286 482.688 308.62 482.422 308.965L482.826 309.598C483.134 309.207 483.443 308.815 483.74 308.447C487.355 303.691 490.768 298.785 494.244 293.926C501.165 284.252 508.426 274.671 517.442 267.267C519.396 265.652 521.441 264.172 523.565 262.833C523.853 262.638 524.15 262.453 524.448 262.281C526.924 260.775 529.504 259.482 532.166 258.411L534.154 257.628C534.814 257.375 535.505 257.202 536.185 256.983L538.216 256.373L540.342 255.924C543.087 255.254 545.895 254.937 548.709 254.98H548.836L547.773 254.185ZM481.699 250.166C477.985 251.954 474.103 253.302 470.121 254.185L468.048 254.623C467.357 254.761 466.655 254.807 465.922 254.911L463.796 255.175L461.669 255.268C459.728 255.414 457.778 255.375 455.843 255.152L456.035 255.912C465.021 256.623 474.028 254.864 482.22 250.799C482.103 250.581 481.901 250.373 481.699 250.166ZM466.368 235.864C462.604 238.634 458.699 241.175 454.674 243.475C454.674 243.786 454.674 244.097 454.674 244.42C458.969 241.987 463.123 239.271 467.113 236.29C466.857 236.14 466.613 235.99 466.368 235.864Z" fill="white"/>
<path d="M557.129 277.608C555.704 276.33 554.269 275.086 552.823 273.842C549.889 271.332 546.955 268.833 544.02 266.346C538.173 261.405 532.198 256.638 526.181 251.951C522.768 249.279 519.409 246.47 515.89 243.971C515.873 243.957 515.854 243.947 515.833 243.941C515.813 243.936 515.792 243.935 515.771 243.938C515.751 243.941 515.731 243.949 515.713 243.96C515.695 243.972 515.679 243.987 515.666 244.005C515.654 244.023 515.645 244.044 515.639 244.066C515.634 244.088 515.633 244.111 515.636 244.133C515.639 244.156 515.646 244.177 515.657 244.197C515.667 244.216 515.681 244.233 515.698 244.247C518.494 246.919 521.492 249.36 524.395 251.905C527.297 254.45 530.178 257.006 533.123 259.494C538.977 264.422 544.903 269.255 550.899 273.992C552.568 275.328 554.216 276.733 555.949 277.988C556.831 278.633 557.671 279.347 558.564 279.969C559.457 280.59 560.414 281.12 561.286 281.823C561.306 281.835 561.329 281.839 561.352 281.834C561.374 281.83 561.394 281.816 561.408 281.797C561.423 281.777 561.43 281.753 561.429 281.728C561.428 281.703 561.418 281.679 561.403 281.661C559.946 280.337 558.585 278.898 557.129 277.608Z" fill="#263238"/>
<path d="M503.653 271.792C501.598 277.808 499.908 283.963 498.592 290.218C497.891 293.304 497.338 296.425 496.796 299.534C496.222 302.623 495.838 305.751 495.647 308.896C495.647 309.011 495.807 309.011 495.828 308.896C496.721 305.89 497.38 302.758 498.018 299.683C498.656 296.609 499.379 293.511 500.017 290.471C501.303 284.275 502.813 278.138 503.929 271.908C503.936 271.888 503.94 271.867 503.939 271.846C503.939 271.825 503.934 271.804 503.926 271.785C503.918 271.766 503.907 271.748 503.893 271.734C503.879 271.719 503.862 271.708 503.844 271.7C503.826 271.693 503.807 271.689 503.787 271.69C503.768 271.69 503.749 271.695 503.731 271.704C503.713 271.712 503.697 271.724 503.684 271.74C503.67 271.755 503.66 271.773 503.653 271.792Z" fill="#263238"/>
<path opacity="0.1" d="M528.615 337.512C524.82 340.852 521.173 342.844 517.824 342.798C497.954 342.614 469.25 288.548 459.299 265.194C453.143 250.73 453.09 237.637 458.682 234.816L528.615 337.512Z" fill="black"/>
<path d="M497.795 390.15H368.549C367.124 387.318 388.302 264.699 431.891 230.163C441.565 222.505 458.724 227.434 463.487 234.885C487.472 272.322 497.795 390.15 497.795 390.15Z" fill="#FFC727"/>
<path d="M491.076 335.716C487.849 334.478 484.687 333.052 481.603 331.444C477.276 329.198 473.098 326.711 468.941 324.085L468.335 323.694C464.083 320.964 459.83 318.074 455.663 315.16L455.067 314.746L452.239 312.765C442.671 306.121 433.252 299.28 423.035 293.96C417.985 291.225 412.622 289.227 407.088 288.018C404.31 287.481 401.483 287.311 398.668 287.511C397.966 287.511 397.275 287.673 396.541 287.776C396.063 287.88 395.584 287.949 395.095 288.053C395.17 287.868 395.234 287.696 395.319 287.511C395.701 287.431 396.095 287.362 396.477 287.27C397.179 287.177 397.891 287.062 398.604 287.005C401.447 286.798 404.303 286.964 407.109 287.5C412.702 288.698 418.122 290.701 423.226 293.453C433.496 298.774 442.979 305.614 452.526 312.235L455.333 314.182L455.939 314.596C460.192 317.556 464.444 320.492 468.856 323.267L469.462 323.659C473.502 326.204 477.616 328.622 481.848 330.799C484.803 332.33 487.83 333.695 490.916 334.887L491.076 335.716ZM479.573 277.251L479.137 277.7C470.94 286.348 464.816 296.897 459.043 307.445C457.824 309.694 456.598 311.94 455.365 314.182C455.269 314.377 455.174 314.562 455.067 314.746C453.504 317.602 451.931 320.446 450.294 323.244C448.858 325.709 447.359 328.139 445.765 330.488C445.616 330.707 445.478 330.925 445.329 331.133C443.715 333.494 441.976 335.751 440.119 337.892C438.185 340.116 436.048 342.122 433.741 343.88L432.879 344.537C432.592 344.756 432.273 344.928 431.976 345.124L430.158 346.276C428.905 346.961 427.612 347.557 426.288 348.061C420.925 349.99 415.311 350.973 409.66 350.974C404.03 350.95 398.418 350.259 392.927 348.913C387.611 347.692 382.455 346.057 377.256 344.422C377.256 344.606 377.171 344.79 377.118 344.963C382.306 346.61 387.515 348.268 392.81 349.5C398.367 350.873 404.046 351.584 409.746 351.619C415.46 351.622 421.138 350.635 426.564 348.694C427.919 348.19 429.241 347.586 430.519 346.886L432.38 345.735C432.694 345.553 432.999 345.353 433.294 345.136L434.176 344.468C436.519 342.692 438.688 340.662 440.651 338.411C442.63 336.116 444.483 333.697 446.201 331.167C446.36 330.948 446.498 330.741 446.637 330.522C448.146 328.288 449.571 325.997 450.889 323.671C452.537 320.872 454.078 318.028 455.673 315.183L455.982 314.619L459.671 307.871C465.454 297.334 471.578 286.878 479.69 278.333L479.828 278.195C479.732 277.861 479.647 277.55 479.573 277.251ZM485.707 304.601C484.888 305.752 484.059 306.835 483.219 307.94C479.699 312.733 475.765 317.152 471.472 321.137C470.621 321.863 469.77 322.588 468.888 323.267L468.335 323.694C467.105 324.634 465.815 325.481 464.476 326.227L463.551 326.768C463.243 326.952 462.903 327.079 462.584 327.24L460.649 328.139C459.33 328.655 457.98 329.074 456.609 329.394C453.314 330.158 449.953 330.544 446.583 330.545H445.765C443.766 330.545 441.767 330.373 439.779 330.142C434.169 329.377 428.653 327.944 423.332 325.87C418.017 323.878 412.775 321.425 407.566 318.961C402.381 316.42 397.055 314.231 391.619 312.408C390.014 311.913 388.43 311.475 386.728 311.153L386.569 311.648C388.227 311.982 389.875 312.408 391.481 312.915C396.885 314.744 402.179 316.936 407.332 319.479C412.542 321.909 417.751 324.373 423.12 326.388C428.487 328.48 434.048 329.931 439.705 330.718C441.576 330.948 443.447 331.098 445.318 331.133C445.595 331.133 445.86 331.133 446.137 331.133C449.707 331.195 453.272 330.832 456.768 330.05C458.166 329.716 459.544 329.289 460.893 328.772L462.871 327.851C463.2 327.689 463.53 327.563 463.849 327.379L464.795 326.826C466.247 326.024 467.64 325.104 468.962 324.074L469.515 323.647C470.323 323.014 471.121 322.346 471.907 321.667C476.245 317.666 480.218 313.223 483.772 308.401C484.481 307.456 485.19 306.501 485.898 305.533C485.835 305.234 485.771 304.912 485.707 304.601ZM472.354 253.644C471.61 253.84 470.866 254.024 470.121 254.185L468.048 254.623C467.357 254.761 466.655 254.807 465.922 254.911L463.796 255.175L461.669 255.268C458.862 255.464 456.043 255.302 453.271 254.784C448.921 253.97 444.708 252.46 440.768 250.304L439.705 249.74C438.961 249.325 438.227 248.888 437.504 248.439C432.637 245.344 428.071 241.725 423.875 237.637L423.407 238.144C427.643 242.275 432.248 245.94 437.153 249.084C437.664 249.406 438.216 249.717 438.705 250.016L439.769 250.592C443.972 252.981 448.49 254.655 453.164 255.555C459.643 256.54 466.237 256.149 472.577 254.404C472.535 254.151 472.439 253.897 472.354 253.644ZM464.784 237.004C459.138 241.106 453.113 244.56 446.807 247.31C444.52 248.275 442.18 249.087 439.801 249.74L438.801 250.016C436.038 250.712 433.23 251.186 430.402 251.433L428.276 251.583C427.574 251.64 426.873 251.583 426.15 251.583H424.023L421.897 251.398C419.336 251.238 416.798 250.778 414.328 250.028C414.179 250.247 414.03 250.466 413.892 250.696C422.382 253.005 431.273 252.97 439.747 250.592L440.811 250.304C442.931 249.696 445.018 248.958 447.062 248.093C453.401 245.325 459.458 241.851 465.135 237.729L464.784 237.004ZM496.583 378.105C495.52 378.105 494.372 378.209 493.266 378.243H493.181L492.532 378.301C487.084 378.918 481.789 380.625 476.915 383.333C473.427 385.306 470.096 387.586 466.953 390.15H467.623C470.621 387.746 473.792 385.604 477.106 383.748C482.022 381.029 487.368 379.337 492.862 378.761H493.255H493.51C494.574 378.761 495.573 378.635 496.594 378.646C496.615 378.439 496.604 378.278 496.583 378.105ZM497.136 383.402C495.98 381.813 494.786 380.251 493.553 378.715C493.436 378.554 493.308 378.404 493.181 378.255L492.745 377.702C489.03 373.012 484.758 368.877 480.04 365.403C477.646 363.711 475.068 362.346 472.365 361.338C471.695 361.096 470.993 360.889 470.313 360.682C469.632 360.475 468.92 360.313 468.186 360.21C466.783 359.922 465.348 359.899 463.934 359.749C458.218 359.523 452.516 360.505 447.147 362.639C441.827 364.83 436.747 367.649 431.997 371.046C423.492 376.976 415.742 383.955 407.46 390.15H407.811C416.05 384.059 423.758 377.207 432.178 371.403C436.91 368.03 441.973 365.238 447.274 363.077C452.59 360.969 458.234 360.003 463.891 360.233C465.284 360.394 466.709 360.417 468.091 360.705C468.792 360.809 469.462 361.027 470.153 361.177C470.844 361.327 471.514 361.58 472.173 361.822C474.837 362.821 477.376 364.175 479.732 365.852C484.409 369.303 488.639 373.416 492.309 378.082C492.373 378.163 492.437 378.232 492.49 378.312L492.862 378.761C494.35 380.638 495.807 382.55 497.21 384.519C497.221 384.151 497.178 383.794 497.114 383.402H497.136Z" fill="white"/>
<path d="M414.732 245.191C388.419 278.161 352.952 336.395 367.443 349.27C391.268 370.436 460.851 382.665 476.819 384.715C483.708 385.613 497.508 336.833 492.904 330.522C488.301 324.212 414.732 319.755 414.232 314.861C413.945 312.086 425.119 287.949 432.305 258.342C440.566 224.21 422.142 235.898 414.732 245.191Z" fill="#AD6359"/>
<path d="M480.848 326.503C480.848 326.503 501.962 326.331 515.773 326.918C523.48 327.24 536.642 329.083 542.202 332.135C550.516 336.683 582.602 361.499 577.222 370.056C572.342 377.794 547.274 352.69 547.274 352.69C547.274 352.69 574.639 375.606 567.186 383.782C559.734 391.958 534.888 359.507 534.888 359.507C534.888 359.507 562.53 383.69 553.61 390.83C546.87 396.185 522.843 368.179 522.843 368.179C522.843 368.179 546.455 389.172 539.746 395.01C532.304 401.459 508.65 377.115 508.65 377.115C489.3 388.838 475.692 385.844 466.124 382.469C463.881 381.606 480.848 326.503 480.848 326.503Z" fill="#AD6359"/>
<path d="M538.279 344.111C541.586 346.679 544.945 349.247 548.028 352.172C551.111 355.097 554.099 358.033 556.927 361.212C563.848 368.996 567.059 375.03 566.814 374.685C561.243 366.405 550.357 355.937 547.274 353.058C544.19 350.18 541.246 347.151 538.173 344.284C538.099 344.157 538.205 344.053 538.279 344.111Z" fill="#263238"/>
<path d="M528.498 355.983C532.581 359.438 536.759 362.732 540.703 366.405C544.648 370.079 549.985 375.376 553.674 379.314C553.95 379.614 553.674 380.189 553.376 379.901C549.549 376.124 543.861 370.965 539.991 367.234C536.121 363.503 532.39 359.622 528.413 356.064C528.35 356.053 528.435 355.926 528.498 355.983Z" fill="#263238"/>
<path d="M518.377 364.528C524.873 369.491 530.518 375.744 535.919 382.02C536.196 382.331 535.919 382.377 535.579 382.078C529.849 376.147 525.383 371.449 518.218 364.804C518.133 364.666 518.271 364.424 518.377 364.528Z" fill="#263238"/>
<path d="M477.882 325.778C487.514 325.709 515.805 325.628 525.415 326.434C533.92 327.137 540.927 329.117 548.06 334.23C563.37 345.193 573.235 358.068 575.702 361.868C577.19 364.171 579.349 367.891 577.382 370.47C574.968 373.602 566.091 370.539 556.725 361.361C556.385 361.027 556.597 360.82 556.948 361.131C570.099 372.647 575.33 371.334 576.701 369.365C577.594 368.086 576.701 365.91 575.936 364.183C574.655 361.738 573.09 359.482 571.279 357.469C565.238 350.469 558.556 344.153 551.335 338.618C543.598 332.363 534.382 328.613 524.756 327.805C514.912 326.929 487.674 327.206 477.84 326.181C477.638 326.112 477.67 325.789 477.882 325.778Z" fill="#263238"/>
<path d="M568.749 379.176C568.207 376.332 566.314 373.729 564.815 371.38C562.994 368.424 560.903 365.673 558.575 363.169C558.479 363.066 558.298 363.169 558.394 363.33C560.377 365.842 562.22 368.48 563.912 371.23C564.811 372.743 565.628 374.312 566.357 375.929C567.048 377.483 567.867 379.28 567.505 381.053C566.825 384.439 562.849 384.358 560.499 383.448C558.977 382.828 557.511 382.057 556.119 381.145C554.223 379.837 552.424 378.37 550.739 376.758C550.601 376.62 550.218 376.677 550.367 376.827C553.876 380.443 560.52 387.962 565.942 385.21C566.983 384.712 567.832 383.838 568.344 382.738C568.855 381.637 568.999 380.378 568.749 379.176Z" fill="#263238"/>
<path d="M481.167 323.544L455.875 385.728C455.875 385.728 367.486 364.114 362.361 345.942C357.237 327.77 384.932 279.151 409.926 248.796C434.506 218.97 438.142 239.203 432.029 262.269C425.916 285.335 415.89 311.925 417.007 313.917C418.123 315.909 481.167 323.544 481.167 323.544Z" fill="#FFC727"/>
<path d="M422.695 293.177C422.631 293.35 422.578 293.534 422.514 293.707C417.604 291.091 412.4 289.179 407.035 288.018C404.257 287.482 401.43 287.311 398.614 287.511C397.913 287.511 397.222 287.673 396.488 287.776C395.755 287.88 395.106 288.007 394.426 288.214C393.044 288.536 391.736 289.112 390.386 289.561C385.176 291.708 380.397 294.922 376.31 299.027L376.98 297.772C380.878 294.043 385.366 291.106 390.226 289.101C391.587 288.64 392.916 288.053 394.319 287.73C395.01 287.523 395.723 287.431 396.446 287.27C397.169 287.108 397.86 287.062 398.572 287.005C401.415 286.798 404.271 286.964 407.077 287.5C412.489 288.649 417.739 290.557 422.695 293.177ZM469.473 323.659L468.867 323.267L466.443 321.713L464.976 321.529C466.039 322.254 467.198 322.991 468.314 323.694L468.92 324.085C472.109 326.1 475.299 328.035 478.573 329.843L478.828 329.21C475.682 327.448 472.567 325.594 469.473 323.659ZM452.218 319.847C451.58 320.999 450.932 322.15 450.273 323.244C448.837 325.709 447.338 328.139 445.744 330.488C445.595 330.707 445.456 330.925 445.308 331.133C443.694 333.494 441.954 335.751 440.098 337.892C438.163 340.116 436.026 342.122 433.719 343.88L432.858 344.537C432.571 344.756 432.252 344.928 431.955 345.124L430.137 346.276C428.884 346.961 427.591 347.557 426.267 348.061C420.904 349.99 415.29 350.973 409.639 350.974C404.016 350.948 398.412 350.257 392.927 348.913C387.388 347.635 381.955 345.896 376.501 344.18C371.664 342.66 366.795 341.128 361.819 340.126C361.819 340.311 361.819 340.495 361.819 340.668C366.741 341.67 371.557 343.213 376.374 344.721C381.817 346.448 387.271 348.176 392.831 349.5C398.388 350.873 404.067 351.584 409.767 351.619C415.481 351.622 421.159 350.635 426.586 348.694C427.94 348.19 429.262 347.586 430.541 346.886L432.401 345.735C432.716 345.553 433.021 345.353 433.315 345.136L434.198 344.468C436.54 342.692 438.709 340.662 440.672 338.411C442.652 336.116 444.505 333.697 446.222 331.167C446.381 330.948 446.52 330.741 446.658 330.522C448.167 328.288 449.592 325.997 450.91 323.671C451.633 322.45 452.335 321.206 453.037 319.974L452.218 319.847ZM470.206 322.15C469.771 322.519 469.324 322.887 468.867 323.233L468.314 323.659C467.084 324.6 465.794 325.446 464.455 326.192L463.53 326.734C463.222 326.918 462.881 327.045 462.562 327.206L460.627 328.104C459.308 328.62 457.959 329.039 456.588 329.359C453.292 330.124 449.932 330.51 446.562 330.511H445.744C443.745 330.511 441.746 330.338 439.758 330.108C434.147 329.343 428.632 327.91 423.311 325.835C417.996 323.843 412.754 321.39 407.545 318.926C402.36 316.385 397.034 314.197 391.598 312.374C386.144 310.681 380.328 309.76 374.683 310.957C372.887 311.348 371.149 312.003 369.516 312.903C369.41 313.134 369.304 313.376 369.208 313.606C370.955 312.597 372.828 311.868 374.768 311.441C380.318 310.289 386.059 311.188 391.459 312.88C396.864 314.709 402.158 316.902 407.311 319.444C412.52 321.874 417.73 324.338 423.099 326.354C428.471 328.458 434.039 329.922 439.705 330.718C441.576 330.948 443.447 331.098 445.318 331.133C445.595 331.133 445.86 331.133 446.137 331.133C449.707 331.195 453.272 330.832 456.768 330.05C458.166 329.716 459.544 329.289 460.893 328.772L462.871 327.851C463.2 327.689 463.53 327.563 463.849 327.379L464.795 326.826C466.247 326.024 467.64 325.104 468.963 324.074L469.515 323.647C470.068 323.21 470.579 322.749 471.174 322.289L470.206 322.15ZM423.917 237.579C423.46 237.142 423.014 236.716 422.567 236.267L421.993 236.67L423.481 238.109C426.942 241.466 430.639 244.527 434.538 247.264C434.538 246.976 434.538 246.688 434.538 246.412C430.806 243.771 427.263 240.83 423.938 237.614L423.917 237.579ZM430.381 251.398L428.255 251.548C427.553 251.606 426.852 251.548 426.129 251.548H424.002L421.876 251.364C419.065 251.182 416.282 250.648 413.583 249.775C412.403 249.395 411.234 248.957 410.086 248.45L409.831 248.761L409.586 249.061C410.825 249.623 412.092 250.111 413.381 250.523C420.115 252.47 427.147 252.894 434.038 251.767C434.038 251.479 434.113 251.203 434.155 250.915C432.975 251.168 431.689 251.329 430.402 251.433L430.381 251.398ZM463.934 359.715C458.216 359.499 452.514 360.493 447.147 362.64C441.827 364.83 436.747 367.649 431.997 371.046C429.339 372.911 426.745 374.869 424.183 376.884L424.598 377.011C427.085 375.065 429.605 373.188 432.188 371.403C436.92 368.03 441.984 365.238 447.285 363.077C452.601 360.969 458.245 360.003 463.902 360.233C464.636 360.313 465.369 360.359 466.103 360.428L466.305 359.945C465.55 359.876 464.742 359.83 463.955 359.749L463.934 359.715Z" fill="white"/>
<path d="M445.733 375.445C446.594 373.671 447.423 371.898 448.252 370.113C449.918 366.497 451.577 362.874 453.228 359.242C456.502 352.034 459.607 344.733 462.594 337.363C464.306 333.194 466.166 329.071 467.708 324.822C467.726 324.779 467.728 324.73 467.713 324.686C467.698 324.642 467.668 324.606 467.628 324.586C467.589 324.566 467.544 324.564 467.503 324.58C467.462 324.597 467.429 324.63 467.41 324.672C465.571 328.185 463.976 331.858 462.275 335.463C460.574 339.067 458.841 342.637 457.204 346.276C453.944 353.485 450.783 360.751 447.721 368.075C446.86 370.125 445.924 372.151 445.148 374.247C444.744 375.318 444.276 376.355 443.883 377.437C443.49 378.52 443.192 379.625 442.82 380.696C442.815 380.707 442.812 380.72 442.812 380.732C442.811 380.745 442.813 380.757 442.817 380.769C442.821 380.781 442.827 380.792 442.835 380.801C442.842 380.81 442.852 380.817 442.862 380.823C442.873 380.828 442.884 380.831 442.896 380.832C442.907 380.832 442.919 380.83 442.93 380.826C442.94 380.822 442.95 380.815 442.959 380.807C442.967 380.798 442.974 380.788 442.979 380.777C443.84 378.992 444.85 377.264 445.733 375.445Z" fill="#263238"/>
<path d="M457.778 381.456L456.003 385.809L455.95 385.947H455.78C447.413 384.266 439.099 382.251 430.838 380.005C422.578 377.76 414.381 375.215 406.269 372.382C398.128 369.595 390.145 366.296 382.359 362.501C378.452 360.598 374.679 358.389 371.068 355.891C369.267 354.619 367.564 353.19 365.976 351.619C364.339 350.098 363.084 348.153 362.329 345.965C363.27 348.02 364.642 349.807 366.337 351.181C368.015 352.578 369.797 353.822 371.664 354.901C375.356 357.124 379.169 359.105 383.082 360.832C390.896 364.344 398.923 367.338 406.992 370.148C415.061 372.958 423.205 375.572 431.37 378.082C439.535 380.592 447.732 383.08 455.939 385.464L455.726 385.579L457.778 381.456Z" fill="#263238"/>
<path d="M480.157 325.962L481.04 323.486L481.136 323.659C472.269 323.026 463.413 322.254 454.557 321.252C445.701 320.25 436.898 319.156 428.095 317.728C425.895 317.36 423.694 316.968 421.493 316.508C420.43 316.266 419.293 316.036 418.155 315.69C417.868 315.598 417.592 315.506 417.283 315.379C417.106 315.317 416.935 315.236 416.773 315.137C416.649 315.065 416.531 314.98 416.422 314.884C416.307 314.78 416.21 314.655 416.135 314.516C416.092 314.426 416.053 314.333 416.018 314.239C416.012 314.193 416.012 314.147 416.018 314.101C415.975 313.663 415.997 313.219 416.082 312.788C416.135 312.477 416.188 312.143 416.263 311.855C417.39 307.076 418.814 302.562 420.26 298.037C423.152 288.928 426.299 279.934 429.616 270.998C427.053 280.21 424.428 289.423 421.812 298.635C420.558 303.242 419.176 307.848 418.208 312.454C418.144 312.742 418.112 313.007 418.059 313.283C418.006 313.56 418.059 313.882 418.006 313.767C417.953 313.652 418.006 313.767 418.006 313.767C417.994 313.706 417.973 313.647 417.942 313.594C417.942 313.479 417.751 313.364 417.794 313.387C417.836 313.41 417.74 313.387 417.794 313.387L418.059 313.502L418.761 313.744C419.824 314.043 420.887 314.262 421.95 314.493C424.077 314.919 426.299 315.287 428.478 315.644C432.858 316.358 437.245 317.03 441.64 317.659L454.833 319.582C463.626 320.849 472.418 322.208 481.21 323.601H481.369L481.306 323.751L480.157 325.962Z" fill="#263238"/>
<path d="M430.562 276.894C429.938 278.519 429.15 280.063 428.212 281.5C427.331 282.97 426.257 284.293 425.023 285.427C425.831 283.895 426.692 282.444 427.606 281.005C428.494 279.555 429.482 278.181 430.562 276.894Z" fill="#263238"/>
<path d="M456.322 255.625C448.816 257.928 435.293 246.032 429.743 236.117C429.36 235.438 430.87 207.431 430.636 201.846C430.636 200.695 463.317 208.756 463.317 208.756C463.317 208.756 460.627 220.617 461.095 230.348C461.127 231.177 463.562 253.39 456.322 255.625Z" fill="#AD6359"/>
<path d="M430.137 219.385C445.435 231.085 460.34 226.594 460.968 226.386C461.219 220.45 461.977 214.552 463.232 208.767C463.232 208.767 430.487 200.706 430.541 201.858C430.732 204.472 430.466 212.026 430.137 219.385Z" fill="#263238"/>
<path d="M463.158 185.69C463.998 193.958 470.111 200.015 476.798 199.209C483.485 198.403 488.237 191.068 487.429 182.811C486.621 174.554 480.487 168.486 473.789 169.292C467.091 170.098 462.318 177.433 463.158 185.69Z" fill="#455A64"/>
<path d="M459.288 186.68C460.224 195.893 467.017 202.606 474.459 201.72C481.901 200.833 487.217 192.668 486.249 183.467C485.282 174.266 478.531 167.541 471.078 168.428C463.626 169.315 458.352 177.491 459.288 186.68Z" fill="#C7C7C7"/>
<path d="M426.107 159.768C422.535 172.182 428.393 208.134 436.505 216.195C448.274 227.883 467.644 229.115 476.83 213.777C485.739 198.898 477.34 152.202 468.261 144.867C454.897 134.042 431.38 141.447 426.107 159.768Z" fill="#AD6359"/>
<path d="M453.685 182.339C453.685 182.258 453.536 182.489 453.558 182.592C454.047 184.987 454.249 187.832 452.378 189.053C452.314 189.053 452.378 189.214 452.378 189.179C454.812 188.292 454.514 184.527 453.685 182.339Z" fill="#263238"/>
<path d="M451.251 180.232C447.615 180.681 448.71 188.534 452.08 188.12C455.45 187.705 454.302 179.863 451.251 180.232Z" fill="#263238"/>
<path d="M466.592 180.45C466.592 180.358 466.783 180.542 466.794 180.646C467.059 183.087 467.751 185.828 469.887 186.312C469.951 186.312 469.972 186.45 469.887 186.45C467.347 186.473 466.485 182.811 466.592 180.45Z" fill="#263238"/>
<path d="M468.24 177.56C471.812 176.673 473.183 184.469 469.877 185.298C466.57 186.128 465.22 178.331 468.24 177.56Z" fill="#263238"/>
<path d="M447.891 177.111C448.803 176.655 449.69 176.144 450.549 175.579C451.553 175.182 452.409 174.437 452.983 173.46C453.108 173.115 453.123 172.734 453.027 172.378C452.931 172.022 452.729 171.71 452.452 171.491C451.847 171.147 451.168 170.985 450.486 171.022C449.803 171.058 449.142 171.292 448.571 171.698C447.29 172.324 446.27 173.445 445.712 174.842C445.6 175.168 445.578 175.523 445.65 175.862C445.722 176.201 445.883 176.51 446.115 176.751C446.346 176.992 446.638 177.154 446.953 177.218C447.269 177.282 447.595 177.245 447.891 177.111Z" fill="#263238"/>
<path d="M470.536 173.172C469.532 173.119 468.531 173.007 467.538 172.838C466.471 172.882 465.42 172.542 464.55 171.871C464.312 171.602 464.162 171.255 464.125 170.884C464.089 170.513 464.167 170.139 464.348 169.821C464.794 169.258 465.368 168.833 466.015 168.588C466.661 168.344 467.355 168.288 468.027 168.428C469.43 168.491 470.761 169.119 471.759 170.19C471.973 170.446 472.113 170.764 472.164 171.105C472.214 171.446 472.172 171.796 472.043 172.112C471.913 172.428 471.702 172.696 471.435 172.884C471.167 173.072 470.855 173.173 470.536 173.172Z" fill="#263238"/>
<path d="M454.918 205.128C455.535 205.612 456.184 206.28 457.045 206.28C457.877 206.128 458.671 205.786 459.373 205.278C459.386 205.261 459.404 205.251 459.424 205.248C459.444 205.246 459.464 205.253 459.479 205.267C459.495 205.28 459.505 205.3 459.507 205.322C459.509 205.343 459.503 205.365 459.49 205.382C459.238 205.915 458.856 206.363 458.385 206.677C457.915 206.992 457.374 207.161 456.821 207.167C456.347 207.114 455.897 206.91 455.529 206.58C455.162 206.25 454.894 205.809 454.759 205.313C454.663 205.197 454.823 205.059 454.918 205.128Z" fill="#263238"/>
<path d="M456.258 197.47C456.962 198.338 457.824 199.038 458.79 199.528C459.756 200.017 460.805 200.285 461.871 200.315C462.805 200.355 463.74 200.25 464.646 200.004C464.821 199.969 464.992 199.915 465.156 199.843C465.318 199.798 465.478 199.744 465.635 199.681C465.751 199.639 465.852 199.556 465.921 199.446C465.99 199.336 466.024 199.204 466.018 199.071C466.011 198.988 465.993 198.907 465.964 198.829V198.622C465.741 196.745 465.178 193.924 465.178 193.924C465.858 194.165 469.303 195.202 469.111 194.235C467.538 186.174 465.784 177.284 462.647 169.672C462.626 169.622 462.589 169.581 462.543 169.558C462.496 169.535 462.444 169.531 462.395 169.546C462.346 169.562 462.304 169.596 462.276 169.642C462.248 169.688 462.237 169.744 462.243 169.798C463.477 177.571 465.964 185.057 467.325 192.83C466.099 192.44 464.829 192.243 463.551 192.242C463.317 192.358 464.731 197.666 464.763 198.518C464.77 198.549 464.77 198.58 464.763 198.611C461.914 199.486 459.596 198.898 456.481 197.252C456.247 197.137 456.098 197.298 456.258 197.47Z" fill="#263238"/>
<path d="M463.487 199.221C462.731 200.711 461.633 201.965 460.298 202.86C459.553 203.319 458.696 203.52 457.842 203.436C455.982 203.217 455.716 201.443 455.801 199.866C455.872 199.027 456.032 198.2 456.279 197.401C458.442 198.823 460.967 199.461 463.487 199.221Z" fill="#263238"/>
<path d="M460.287 202.894C459.542 203.354 458.685 203.555 457.831 203.47C455.971 203.251 455.705 201.478 455.79 199.9C457.778 199.762 459.841 200.868 460.287 202.894Z" fill="#FF99BA"/>
<path opacity="0.2" d="M431.551 172.539C430.243 176.109 427.553 184.492 426.022 185.08C424.566 173.426 424.513 162.854 427.181 156.36C428.284 153.677 429.834 151.237 431.753 149.162C431.976 152.283 432.943 168.808 431.551 172.539Z" fill="#263238"/>
<path d="M460.309 155.876C459.398 157.585 458.098 159.012 456.533 160.02C454.967 161.028 453.188 161.584 451.368 161.634C449.514 161.686 447.679 161.225 446.036 160.294C444.393 159.363 442.997 157.993 441.98 156.314C441.974 156.303 441.967 156.294 441.958 156.286C441.949 156.279 441.939 156.273 441.928 156.27C441.917 156.267 441.906 156.266 441.895 156.267C441.884 156.269 441.873 156.273 441.863 156.279C441.853 156.285 441.845 156.293 441.838 156.303C441.831 156.312 441.826 156.323 441.823 156.335C441.82 156.347 441.819 156.359 441.821 156.371C441.822 156.383 441.826 156.395 441.831 156.406C442.756 158.28 444.136 159.845 445.823 160.931C447.509 162.016 449.438 162.582 451.399 162.567C453.321 162.449 455.181 161.786 456.791 160.644C458.402 159.502 459.706 157.921 460.574 156.06C460.597 156.022 460.605 155.976 460.596 155.931C460.587 155.887 460.562 155.849 460.526 155.824C460.491 155.8 460.448 155.791 460.408 155.801C460.367 155.811 460.331 155.838 460.309 155.876Z" fill="#263238"/>
<path d="M482.486 137.347C480.954 134.287 478.472 131.913 475.48 130.645C471.333 128.872 467.176 130.058 463.062 131.336C463.04 131.336 463.018 131.346 463.002 131.363C462.986 131.38 462.977 131.404 462.977 131.428C462.977 131.453 462.986 131.476 463.002 131.493C463.018 131.511 463.04 131.52 463.062 131.52C466.56 130.449 470.174 129.586 473.747 130.76C476.703 131.718 479.264 133.752 480.997 136.518C482.688 139.382 483.37 142.81 482.919 146.174C482.468 149.538 480.914 152.614 478.541 154.839C477.143 156.082 475.525 157.002 473.786 157.543C472.047 158.084 470.225 158.233 468.431 157.983C468.293 157.983 468.229 158.191 468.378 158.214C470.82 158.662 473.329 158.365 475.624 157.354C477.918 156.343 479.907 154.66 481.367 152.492C482.827 150.325 483.7 147.759 483.889 145.084C484.077 142.408 483.573 139.729 482.433 137.347H482.486Z" fill="#263238"/>
<path d="M425.14 166.942C425.14 166.942 417.453 156.244 421.174 148.517C423.301 144.13 432.454 142.921 432.454 142.921C432.454 142.921 434.581 137.842 441.821 134.549C449.061 131.255 458.831 133.19 458.831 133.19C458.831 133.19 465.327 127.34 472.769 130.242C483.145 134.296 484.463 150.084 475.788 156.878C469.685 161.657 459.607 156.981 459.607 156.981C458.756 157.269 450.783 164.778 442.66 157.442C442.66 157.442 438.036 163.753 432.518 160.989C431.996 162.678 431.009 164.154 429.69 165.218C428.372 166.283 426.784 166.884 425.14 166.942Z" fill="#263238"/>
<path d="M433.028 189.076C433.028 189.076 425.384 177.56 420.558 180.542C415.731 183.525 421.621 200.257 427.319 202.422C428.035 202.763 428.807 202.944 429.588 202.954C430.37 202.964 431.146 202.803 431.868 202.48C432.591 202.158 433.246 201.68 433.795 201.077C434.343 200.473 434.773 199.756 435.059 198.967L433.028 189.076Z" fill="#AD6359"/>
<path d="M422.344 185.31C422.248 185.31 422.237 185.437 422.344 185.471C426.373 187.175 428.531 191.16 430.062 195.306C428.85 193.716 427.224 192.864 425.257 194.43C425.15 194.511 425.257 194.684 425.363 194.661C426.063 194.419 426.815 194.416 427.517 194.653C428.219 194.89 428.837 195.355 429.286 195.985C430.042 197.057 430.688 198.215 431.21 199.44C431.402 199.82 432.04 199.601 431.901 199.163V199.06C431.901 193.463 427.83 185.782 422.344 185.31Z" fill="#263238"/>
<path d="M426.66 181.015C426.66 181.015 422.524 163.165 425.746 152.225C429.329 140.065 442.841 128.158 458.81 133.213C458.81 133.213 441.087 135.689 432.475 151.73C428.521 159.1 432.316 180.381 432.316 180.381L426.66 181.015Z" fill="#C7C7C7"/>
<path d="M443.819 187.026C445.435 196.238 440.725 204.921 433.283 206.464C425.841 208.007 418.485 201.858 416.858 192.645C415.231 183.433 419.952 174.75 427.394 173.207C434.836 171.664 442.193 177.836 443.819 187.026Z" fill="#C7C7C7"/>
<path d="M439.801 187.325C441.257 195.582 437.015 203.447 430.328 204.794C423.641 206.142 417.028 200.591 415.572 192.346C414.115 184.101 418.346 176.224 425.034 174.877C431.721 173.529 438.333 179.057 439.801 187.325Z" fill="#455A64"/>
<path d="M17.9565 390.15H148.361L122.357 226.317H24.8456L17.9565 390.15Z" fill="#DBDBDB"/>
<path d="M17.9565 390.15H29.3853L35.8066 226.317H24.8456L17.9565 390.15Z" fill="#A6A6A6"/>
<path d="M95.2468 154.863C83.1377 167.91 79.6612 189.409 79.6612 189.409C79.6612 189.409 68.0517 211.047 71.2943 222.805C72.1519 226.139 73.7434 229.197 75.9321 231.718C78.1208 234.24 80.8414 236.148 83.8606 237.28L82.7124 230.785C82.7124 230.785 86.6035 239.134 99.6057 242.497C112.608 245.859 129.81 241.529 138.761 236.624C144.067 233.747 148.594 229.43 151.902 224.095L148.553 233.537C148.553 233.537 161.172 233.054 168.667 218.51C176.163 203.965 154.634 183.064 152.805 178.562C150.977 174.059 148.659 141.251 116.797 146.905C116.839 146.825 103.624 145.88 95.2468 154.863Z" fill="#263238"/>
<path d="M79.2998 236.347C75.9828 233.664 72.7083 230.589 70.8797 226.789C68.8857 222.85 68.1777 218.298 68.8703 213.869C69.7527 208.56 72.3362 203.873 74.8452 199.301C77.3542 194.73 80.3735 190.089 82.8932 185.287C83.0314 185.022 82.6593 184.803 82.4892 185.011C79.6582 188.612 77.0174 192.383 74.5794 196.307C72.0852 199.895 69.9872 203.787 68.3281 207.904C66.7775 211.694 66.2681 215.888 66.861 219.984C67.4881 223.313 68.8527 226.427 70.8371 229.058C73.1867 232.225 76.1529 234.251 79.1297 236.635C79.2998 236.785 79.4805 236.497 79.2998 236.347Z" fill="#263238"/>
<path d="M171.4 203.47C167.572 191.39 157.579 183.721 151.445 173.184C148.149 167.484 145.587 161.173 141.292 156.221C141.175 156.083 140.962 156.302 141.068 156.44C144.598 160.897 146.639 166.263 149.191 171.411C151.909 176.476 155.086 181.236 158.674 185.621C164.989 193.82 172.548 203.528 171.102 215.009C170.432 220.306 167.54 226.179 162.522 227.826C162.331 227.895 162.448 228.24 162.639 228.148C164.618 227.287 166.415 225.999 167.919 224.362C169.423 222.725 170.604 220.772 171.389 218.625C173.08 213.74 173.084 208.358 171.4 203.47Z" fill="#263238"/>
<path d="M171.857 206.718C172.202 202.142 171.229 197.564 169.071 193.613C166.871 189.72 163.416 186.911 159.96 184.4C155.974 181.533 151.774 178.804 149.244 174.255C149.138 174.059 148.882 174.255 148.978 174.451C152.997 181.959 160.673 185.46 165.808 191.782C171.708 199.002 171.719 209.516 167.657 217.773C165.076 222.806 161.434 227.107 157.026 230.325C156.952 230.325 157.026 230.497 157.111 230.44C164.627 225.097 171.251 216.874 171.857 206.718Z" fill="#263238"/>
<path d="M123.675 261.751C155.942 280.936 194.566 305.015 218.231 299.349C228.724 296.839 275.843 229.933 277.841 222.195C279.553 215.55 236.889 188.799 232.126 194.039C224.089 202.825 202.358 252.296 199.169 253.126C195.98 253.955 168.891 248.001 140.696 242.485C113.565 237.211 101.275 248.439 123.675 261.751Z" fill="#EB9481"/>
<path d="M273.259 230.532C276.938 225.511 291.949 200.891 294.703 193.025C297.456 185.16 303.899 161.933 298.562 159.008C293.225 156.083 290.865 162.705 290.865 162.705C290.865 162.705 292.151 152.421 286.527 150.037C280.903 147.654 277.501 158.098 277.501 158.098C277.501 158.098 278.107 147.435 272.334 145.431C266.562 143.428 264.775 154.644 264.775 154.644C264.775 154.644 265.754 144.925 260.374 145.431C253.91 146.111 253.995 164.259 250.338 172.689C249.509 174.6 230.978 210.207 230.978 210.207L273.259 230.532Z" fill="#EB9481"/>
<path d="M264.903 153.734C264.903 167.081 262.777 172.931 256.398 184.055C256.27 184.262 256.536 184.515 256.696 184.308C263.925 174.036 267.561 167.127 265.541 153.699C265.403 153.043 264.903 153.101 264.903 153.734Z" fill="#263238"/>
<path d="M277.438 157.051C276.374 170.869 274.099 177.272 268.135 189.467C268.05 189.64 268.316 189.813 268.411 189.64C275.184 178.216 278.671 171.215 278.075 157.223C278.107 156.59 277.491 156.417 277.438 157.051Z" fill="#263238"/>
<path d="M290.503 163.315C288.558 176.65 286.368 183.744 279.181 194.776C279.162 194.801 279.148 194.829 279.139 194.86C279.131 194.891 279.128 194.924 279.131 194.956C279.134 194.988 279.143 195.019 279.157 195.047C279.171 195.076 279.19 195.101 279.213 195.121C279.236 195.142 279.262 195.157 279.291 195.166C279.319 195.176 279.349 195.179 279.379 195.176C279.409 195.172 279.437 195.163 279.464 195.148C279.49 195.132 279.513 195.112 279.532 195.087C287.877 184.607 290.674 175.786 290.876 163.419C290.865 162.59 290.631 162.474 290.503 163.315Z" fill="#263238"/>
<path d="M221.846 214.237C221.846 214.237 220.942 197.551 222.048 190.123C223.153 182.696 236.645 156.647 241.96 159.48C248.881 163.154 243.821 179.851 240.355 187.682C240.355 187.682 256.366 196.135 255.133 208.975C253.9 221.815 221.846 214.237 221.846 214.237Z" fill="#EB9481"/>
<path d="M243.598 161.162C247.68 169.441 242.535 179.402 239.685 187.268C239.639 187.381 239.618 187.505 239.626 187.629C239.633 187.754 239.668 187.874 239.728 187.98C239.787 188.086 239.869 188.176 239.968 188.24C240.066 188.304 240.177 188.342 240.291 188.35C246.787 192.381 254.867 200.119 255.558 208.641C255.558 208.693 255.577 208.742 255.611 208.779C255.645 208.816 255.691 208.836 255.739 208.836C255.787 208.836 255.833 208.816 255.867 208.779C255.9 208.742 255.919 208.693 255.919 208.641C256.323 199.428 248.956 191.091 241.588 187.164C244.608 179.103 249.381 168.912 243.715 161.116C243.64 161.081 243.576 161.116 243.598 161.162Z" fill="#263238"/>
<path d="M191.493 250.396L152.657 285.657C152.657 285.657 128.948 272.299 111.439 256.949C93.9286 241.598 113.32 234.136 143.386 239.606C173.452 245.076 191.493 250.396 191.493 250.396Z" fill="#FFC727"/>
<path d="M145.491 257.479C144.391 255.852 143.117 254.371 141.696 253.068C143.268 256.729 145.54 259.987 148.361 262.626C147.599 260.791 146.636 259.063 145.491 257.479ZM111.47 256.972L111.938 257.363C112.247 257.006 112.555 256.626 112.842 256.212C112.353 256.454 111.896 256.707 111.449 257.018L111.47 256.972ZM176.482 257.202C174.644 256.91 172.782 256.848 170.932 257.018C172.667 257.727 174.472 258.218 176.311 258.48C178.148 258.782 180.011 258.848 181.861 258.676C180.12 257.96 178.307 257.465 176.46 257.202H176.482ZM163.479 243.568C163.455 244.336 163.48 245.106 163.554 245.871C163.813 245.18 164.033 244.472 164.213 243.752L163.479 243.568Z" fill="white"/>
<path d="M143.96 278.126C151.859 269.904 160.301 262.269 168.859 254.83C171.283 252.734 173.749 250.684 176.301 248.715C176.375 248.658 176.471 248.715 176.396 248.819C172.378 252.838 168.2 256.672 164.043 260.53C159.886 264.388 155.676 268.246 151.413 271.988C148.999 274.107 146.597 276.226 144.151 278.287C144.003 278.368 143.864 278.23 143.96 278.126Z" fill="#263238"/>
<path d="M169.157 270.675L152.646 285.646C152.646 285.646 128.938 272.299 111.428 256.949C105.209 251.502 103.646 247.057 105.549 243.821L169.157 270.675Z" fill="#263238"/>
<path d="M161.162 390.012H37.4013C37.4013 390.012 64.2882 277.539 89.1763 245.871C89.7292 245.145 90.3032 244.454 90.8773 243.809C90.9943 243.66 91.1006 243.556 91.2176 243.429C93.1442 241.2 95.3873 239.318 97.8622 237.856C98.2981 237.602 98.734 237.361 99.1911 237.153C108.759 232.374 118.902 236.336 126.206 243.107C128.523 245.249 154.762 282.26 157.037 296.321C159.046 308.769 151.285 322.139 151.285 322.139L161.162 390.012Z" fill="#FFC727"/>
<path d="M132.744 317.325C127.474 317.882 122.251 318.864 117.116 320.262C114.564 320.999 112.076 321.851 109.578 322.761C108.334 323.221 107.09 323.636 105.836 324.039C104.53 324.499 103.177 324.786 101.806 324.891C101.781 324.891 101.757 324.902 101.739 324.922C101.721 324.941 101.711 324.967 101.711 324.995C101.711 325.022 101.721 325.049 101.739 325.068C101.757 325.088 101.781 325.098 101.806 325.098C103.104 325.158 104.405 325.119 105.698 324.983C106.942 324.815 108.175 324.553 109.387 324.2C111.981 323.475 114.532 322.634 117.116 321.897C122.325 320.4 127.524 318.903 132.818 317.809C132.878 317.798 132.93 317.763 132.965 317.71C133 317.657 133.014 317.591 133.004 317.527C132.995 317.463 132.962 317.406 132.913 317.368C132.864 317.33 132.803 317.315 132.744 317.325Z" fill="#263238"/>
<path d="M145.821 322.266C141.471 321.813 137.102 321.624 132.733 321.701C130.607 321.759 128.385 321.943 126.206 322.185C125.142 322.312 124.079 322.45 123.101 322.6C122.123 322.749 120.847 323.095 119.71 323.244C119.593 323.244 119.593 323.463 119.71 323.452C120.773 323.348 121.889 323.452 122.974 323.394L126.237 323.267C128.364 323.198 130.586 323.141 132.765 323.037C137.124 322.841 141.472 322.692 145.831 322.646C146.065 322.657 146.044 322.289 145.821 322.266Z" fill="#263238"/>
<path d="M77.418 272.311C76.8332 271.505 76.2379 270.71 75.5894 270.008L75.1322 271.044C75.5575 271.758 76.0146 272.46 76.4824 273.14C77.5838 274.756 78.8578 276.224 80.2778 277.516C79.5018 275.673 78.5429 273.928 77.418 272.311ZM91.781 242.808C91.5645 244.606 91.5288 246.425 91.6747 248.231C92.3352 246.343 92.7814 244.375 93.0036 242.37C93.0036 242.071 93.078 241.76 93.1099 241.46C92.6634 241.886 92.2169 242.335 91.781 242.808ZM129.342 280.28C128.68 282.166 128.223 284.129 127.981 286.129C127.713 288.123 127.653 290.144 127.8 292.152C128.468 290.27 128.918 288.305 129.14 286.302C129.432 284.311 129.499 282.289 129.342 280.28ZM105.687 345.136C105.032 347.015 104.582 348.97 104.347 350.963C104.078 352.956 104.021 354.977 104.177 356.985C105.441 353.193 105.955 349.156 105.687 345.136ZM65.4789 296.171C64.8297 298.064 64.3804 300.03 64.1393 302.033C63.8687 304.023 63.8117 306.04 63.9692 308.044C64.6199 306.156 65.0658 304.193 65.2981 302.194C65.5768 300.201 65.6374 298.179 65.4789 296.171ZM98.7552 287.949C96.918 287.657 95.0559 287.595 93.2056 287.765C94.9411 288.474 96.7461 288.965 98.5851 289.227C100.421 289.529 102.284 289.595 104.135 289.423C102.405 288.694 100.604 288.184 98.7658 287.903L98.7552 287.949ZM143.28 343.224C141.439 342.932 139.573 342.87 137.719 343.04C141.22 344.409 144.947 344.966 148.659 344.675C146.927 343.964 145.126 343.469 143.29 343.201L143.28 343.224ZM60.1632 337.915C58.3575 337.632 56.5288 337.562 54.7093 337.708H54.6029H54.6986C56.416 338.394 58.1991 338.869 60.0143 339.125C61.8515 339.417 63.7137 339.479 65.5639 339.309C63.8195 338.62 62.0071 338.152 60.1632 337.915ZM106.856 385.464C105.019 385.171 103.157 385.11 101.307 385.279C104.81 386.65 108.542 387.204 112.257 386.903C110.499 386.2 108.673 385.717 106.814 385.464H106.856ZM56.6335 379.637C54.7928 379.344 52.9271 379.283 51.0733 379.452C52.8099 380.153 54.6148 380.636 56.4528 380.892C58.2921 381.201 60.1597 381.263 62.013 381.076C60.2628 380.372 58.4434 379.889 56.591 379.637H56.6335ZM108.068 259.321C106.571 260.527 105.205 261.914 103.997 263.455C105.693 262.619 107.298 261.58 108.781 260.357C110.275 259.155 111.632 257.764 112.821 256.212C111.136 257.056 109.542 258.098 108.068 259.321ZM121.315 320.964C119.821 322.154 118.465 323.534 117.275 325.075C118.966 324.245 120.561 323.201 122.027 321.966C123.524 320.78 124.881 319.399 126.067 317.855C124.377 318.697 122.783 319.749 121.315 320.987V320.964ZM74.8664 358.644C73.3638 359.831 72.0032 361.216 70.8158 362.766C72.5007 361.922 74.0944 360.88 75.5681 359.657C77.0626 358.455 78.4284 357.076 79.6399 355.546C77.9331 356.363 76.3291 357.412 74.8664 358.667V358.644ZM152.008 304.439C150.908 302.812 149.634 301.332 148.213 300.029C149.785 303.69 152.057 306.948 154.878 309.587C154.115 307.76 153.151 306.04 152.008 304.462V304.439ZM136.178 374.19C135.069 372.571 133.796 371.091 132.382 369.779C133.128 371.628 134.089 373.366 135.242 374.95C136.341 376.572 137.615 378.045 139.038 379.337C138.262 377.513 137.303 375.786 136.178 374.19ZM89.5697 319.329C88.4663 317.705 87.1926 316.225 85.7743 314.919C86.5281 316.765 87.4924 318.502 88.6447 320.089C89.74 321.714 91.0146 323.187 92.4402 324.477C91.666 322.649 90.703 320.922 89.5697 319.329Z" fill="white"/>
<path d="M86.6461 246.746C62.8423 267.532 1.88177 349.903 15.6282 368.939C29.3746 387.974 120.741 379.303 147.266 370.297C155.155 367.626 133.637 313.399 125.111 310.9C118.009 308.815 78.63 321.425 77.8645 318.961C77.0034 316.174 87.5923 300.754 101.052 267.347C116.574 228.816 97.1605 237.568 86.6461 246.746Z" fill="#EB9481"/>
<path d="M168.115 306.374C186.305 308.677 190.653 312.259 206.951 305.349C217.646 300.823 224.908 306.27 217.083 316.047C204.325 332.042 180.256 334.472 171.697 332.676L168.115 306.374Z" fill="#EB9481"/>
<path d="M117.094 311.591C117.094 311.591 139.665 305.269 159.269 305.614C172.835 305.856 202.284 309.944 222.271 348.072C227.013 357.112 227.853 373.648 215.148 361.891C206.133 353.565 202.741 345.331 196.681 341.52C196.681 341.52 195.437 362.674 186.89 367.476C179.414 371.663 171.672 375.269 163.724 378.266C162.882 376.817 162.129 375.309 161.47 373.752C161.47 373.752 153.092 377.414 140.207 372.336L117.094 311.591Z" fill="#EB9481"/>
<path d="M172.186 308.09C177.502 313.249 188.474 324.373 194.512 336.879C201.274 350.767 210.842 379.487 201.327 384.796C194.353 388.688 189.803 378.059 189.803 378.059C189.803 378.059 191.451 390.841 184.487 392.857C178.108 394.699 175.036 386.247 175.036 386.247C175.036 386.247 174.802 394.181 168.338 394.676C160.556 395.252 162.32 378.554 153.964 371.748C152.082 370.217 172.186 308.09 172.186 308.09Z" fill="#EB9481"/>
<path d="M179.82 342.234C184.072 347.992 190.568 363.653 190.015 377.852C190.015 378.174 189.771 378.335 189.728 378.036C187.734 365.74 184.368 353.753 179.703 342.337C179.69 342.321 179.684 342.299 179.686 342.277C179.688 342.256 179.698 342.236 179.714 342.222C179.729 342.208 179.749 342.202 179.769 342.204C179.789 342.206 179.807 342.217 179.82 342.234Z" fill="#263238"/>
<path d="M167.073 349.972C170.262 355.327 176.311 371.852 175.291 386.189C175.291 386.511 175.025 386.65 174.993 386.35C173.588 373.953 170.888 361.768 166.945 350.03C166.945 350.014 166.949 349.998 166.957 349.984C166.966 349.971 166.977 349.96 166.991 349.954C167.005 349.948 167.02 349.946 167.034 349.95C167.049 349.953 167.062 349.961 167.073 349.972Z" fill="#263238"/>
<path d="M196.713 341.428C202.029 344.882 204.995 348.947 208.95 353.934C210.883 356.431 212.941 358.81 215.116 361.062C217.115 363.077 220.06 366.106 223.058 364.666C224.727 363.86 225.184 361.695 225.322 359.899C225.453 357.879 225.181 355.852 224.525 353.957C224.525 353.865 224.652 353.795 224.684 353.899C225.337 355.571 225.766 357.336 225.96 359.139C226.213 360.834 225.987 362.572 225.312 364.125C223.653 367.303 219.826 366.705 217.423 365.035C216.002 363.968 214.681 362.754 213.479 361.407C212.299 360.152 211.172 358.839 210.077 357.504C207.834 354.74 205.739 351.849 203.528 349.074C201.361 346.427 199.038 343.935 196.575 341.612C196.479 341.52 196.607 341.359 196.713 341.428Z" fill="#263238"/>
<path d="M203.475 366.601C202.847 362.651 198.34 345.677 196.554 341.543C196.542 341.521 196.539 341.496 196.545 341.472C196.551 341.449 196.566 341.428 196.586 341.416C196.605 341.404 196.629 341.401 196.651 341.407C196.673 341.414 196.691 341.429 196.702 341.451C200.073 347.289 204.325 361.465 205.069 365.829C205.814 370.194 206.526 375.595 205.495 379.89C203.942 386.362 199.69 386.477 198.148 386.385C196.327 386.241 194.606 385.428 193.269 384.082C191.745 382.361 190.559 380.324 189.781 378.094C189.781 377.99 189.877 377.898 189.93 378.001C191.397 381.134 194.236 384.623 197.596 385.072C198.339 385.197 199.099 385.159 199.829 384.962C200.56 384.764 201.246 384.41 201.848 383.92C203.11 382.612 203.892 380.853 204.049 378.969C204.512 374.841 204.318 370.658 203.475 366.601Z" fill="#263238"/>
<path d="M175.291 386.189C175.939 387.191 177.013 390.358 179.597 391.694C180.495 392.248 181.504 392.558 182.538 392.596C183.571 392.634 184.598 392.399 185.529 391.912C187.305 390.718 188.582 388.823 189.09 386.627C189.52 383.817 189.751 380.976 189.781 378.128C189.781 377.99 189.941 377.978 189.952 378.128C190.283 381.217 190.182 384.342 189.654 387.398C189.404 388.596 188.936 389.727 188.277 390.726C187.618 391.724 186.781 392.57 185.816 393.214C184.794 393.818 183.637 394.105 182.474 394.042C181.31 393.979 180.186 393.569 179.224 392.857C178.257 392.131 175.45 388.849 174.972 386.27C174.983 386.189 175.259 386.143 175.291 386.189Z" fill="#263238"/>
<path d="M154.783 370.735C155.551 371.658 156.219 372.674 156.771 373.764C157.398 374.915 157.993 376.009 158.557 377.161C159.677 379.488 160.571 381.935 161.225 384.462C161.906 386.995 162.437 389.759 164.043 391.843C164.794 392.874 165.826 393.622 166.992 393.981C168.158 394.341 169.399 394.294 170.539 393.847C171.745 393.328 172.748 392.371 173.377 391.141C174.106 389.814 174.593 388.348 174.812 386.822C174.808 386.808 174.806 386.793 174.808 386.779C174.809 386.764 174.814 386.75 174.822 386.738C174.83 386.726 174.841 386.716 174.853 386.709C174.865 386.702 174.878 386.698 174.892 386.698C174.906 386.698 174.919 386.702 174.932 386.709C174.944 386.716 174.954 386.726 174.962 386.738C174.97 386.75 174.975 386.764 174.976 386.779C174.978 386.793 174.977 386.808 174.972 386.822C174.881 388.206 174.66 389.576 174.313 390.91C173.911 392.11 173.225 393.174 172.325 393.997C171.381 394.778 170.256 395.262 169.074 395.396C167.893 395.53 166.7 395.309 165.627 394.757C163.245 393.605 161.906 391.003 161.077 388.423C160.152 385.556 159.535 382.596 158.483 379.763C157.94 378.266 157.419 376.769 156.76 375.33C156.101 373.89 155.187 372.393 154.634 370.85C154.57 370.758 154.698 370.631 154.783 370.735Z" fill="#263238"/>
<path d="M146.48 374.305C149.841 374.831 153.24 375.012 156.633 374.846C156.739 374.846 156.803 375.18 156.696 375.203C155.015 375.544 153.304 375.687 151.593 375.629C149.859 375.55 148.146 375.189 146.512 374.558C146.373 374.478 146.373 374.282 146.48 374.305Z" fill="#263238"/>
<path d="M42.0898 331.294C47.773 328.323 53.6461 325.798 59.6635 323.74C65.6181 321.723 71.7015 320.184 77.8645 319.133C81.3835 318.5 84.9131 318.051 88.4959 317.579C88.6022 317.579 88.6235 317.74 88.4959 317.751C82.3033 318.837 76.1732 320.306 70.1355 322.15C64.1252 323.924 58.1503 325.816 52.2109 327.828C48.8514 328.979 45.5344 330.269 42.2067 331.524C42.0898 331.616 41.9835 331.374 42.0898 331.294Z" fill="#263238"/>
<path d="M36.9123 296.758L87.2946 302.689C87.2946 302.689 100.148 277.355 106.835 254.012C113.522 230.67 94.5346 235.207 72.3468 257.835C50.159 280.464 36.9123 296.758 36.9123 296.758Z" fill="#FFC727"/>
<path d="M36.9123 296.758L87.2946 302.689C87.2946 302.689 100.148 277.355 106.835 254.012C113.522 230.67 94.5346 235.207 72.3468 257.835C50.159 280.464 36.9123 296.758 36.9123 296.758Z" fill="#FFC727"/>
<path d="M91.8661 242.048C91.8713 242.105 91.8713 242.163 91.8661 242.22C91.5963 244.214 91.5392 246.235 91.696 248.243C92.3565 246.355 92.8028 244.386 93.0249 242.382C93.0249 242.036 93.11 241.702 93.1419 241.357L91.8661 242.048ZM65.4789 296.171C65.0175 297.427 64.6616 298.726 64.4158 300.052L65.4789 300.167C65.5958 298.838 65.5958 297.5 65.4789 296.171ZM48.0009 283.884L47.5118 284.437C48.0647 284.437 48.575 284.437 49.181 284.333C48.777 284.16 48.3942 284.011 48.0009 283.884ZM93.2163 287.719C93.514 287.845 93.8223 287.972 94.1306 288.076C94.1856 287.925 94.2496 287.779 94.322 287.638C93.9605 287.65 93.5884 287.673 93.2163 287.719ZM77.418 272.311C76.3089 270.692 75.0358 269.212 73.6226 267.9C74.3702 269.751 75.3311 271.493 76.4825 273.082C77.5838 274.698 78.8578 276.167 80.2779 277.458C79.4985 275.636 78.5396 273.91 77.418 272.311Z" fill="white"/>
<path d="M85.2533 302.182C85.5297 302.182 87.3796 302.182 87.3796 302.182C87.6028 301.48 91.9405 290.667 93.0036 288.364C95.1937 283.631 97.6389 279.024 100.02 274.407C100.095 274.257 100.307 274.407 100.233 274.51C98.5532 278.541 96.9372 282.571 95.2256 286.625C95.6508 286.083 96.0761 285.542 96.4907 284.989C97.3306 283.838 98.096 282.686 98.8934 281.466C98.9678 281.362 99.1167 281.466 99.0635 281.592C98.3027 283.258 97.341 284.807 96.2036 286.199C95.7208 286.81 95.1986 287.383 94.6408 287.914C94.5026 288.248 94.3644 288.594 94.2156 288.916C93.1524 291.219 87.9111 302.827 87.7198 302.816L85.2958 302.493C85.1151 302.539 85.1151 302.171 85.2533 302.182Z" fill="#263238"/>
<path d="M46.4061 287.488C57.3352 288.283 68.2324 289.907 79.0658 291.749C82.1419 292.279 85.1966 292.881 88.2301 293.557C88.3152 293.557 88.3152 293.718 88.2301 293.707C82.7868 293.189 77.3542 292.429 71.9215 291.703C66.4889 290.978 61.0137 290.194 55.581 289.262C52.5192 288.755 49.4467 288.248 46.3955 287.684C46.2679 287.696 46.2679 287.477 46.4061 287.488Z" fill="#263238"/>
<path d="M104.315 238.708C104.507 241.103 112.736 257.755 122.591 258.78C125.78 259.102 128.236 240.205 128.236 240.205L128.704 238.858L135.327 219.949L116.084 201.927L113.288 199.509C113.288 199.509 111.789 204.806 109.993 211.427C109.908 211.738 109.812 212.049 109.727 212.372C109.642 212.694 109.514 213.097 109.419 213.443C109.142 214.433 108.855 215.435 108.6 216.448C108.398 217.22 108.196 217.968 108.005 218.751C107.813 219.534 107.622 220.364 107.409 221.17C106.011 226.933 104.977 232.792 104.315 238.708Z" fill="#EB9481"/>
<path d="M109.993 211.427C111.088 217.196 113.329 222.637 116.561 227.374C119.792 232.11 123.935 236.029 128.704 238.858L135.327 219.949L116.084 201.927L113.288 199.509C113.288 199.509 111.789 204.806 109.993 211.427Z" fill="#263238"/>
<path d="M141.153 190.907C142.844 198.967 149.542 204.276 156.112 202.676C162.682 201.075 166.626 193.187 164.936 185.08C163.245 176.973 156.548 171.698 149.977 173.311C143.407 174.923 139.463 182.788 141.153 190.907Z" fill="#455A64"/>
<path d="M137.4 192.358C139.293 201.374 146.735 207.236 154.049 205.451C161.364 203.666 165.744 194.902 163.862 185.874C161.98 176.846 154.528 170.996 147.224 172.781C139.92 174.566 135.519 183.318 137.4 192.358Z" fill="#C7C7C7"/>
<path d="M158.897 180.819C167.828 214.963 149.956 224.578 143.152 226.697C136.975 228.586 115.734 234.159 103.593 201.19C91.4515 168.221 103.284 152.928 117.19 147.803C131.096 142.679 149.967 146.663 158.897 180.819Z" fill="#EB9481"/>
<path d="M147.926 176.523C147.177 176.604 146.424 176.639 145.672 176.627C144.88 176.791 144.062 176.665 143.343 176.27C143.139 176.099 142.992 175.859 142.927 175.588C142.862 175.318 142.881 175.031 142.982 174.773C143.253 174.299 143.637 173.912 144.093 173.652C144.549 173.393 145.061 173.271 145.576 173.299C146.623 173.173 147.677 173.473 148.532 174.14C148.716 174.307 148.852 174.528 148.924 174.777C148.996 175.026 149 175.291 148.936 175.543C148.872 175.794 148.743 176.02 148.564 176.194C148.385 176.368 148.163 176.482 147.926 176.523Z" fill="#263238"/>
<path d="M127.141 184.469C127.864 184.227 128.573 183.942 129.267 183.617C130.055 183.429 130.764 182.968 131.287 182.304C131.412 182.059 131.458 181.776 131.42 181.5C131.381 181.223 131.26 180.968 131.075 180.773C130.653 180.451 130.16 180.257 129.646 180.211C129.132 180.164 128.616 180.267 128.151 180.508C127.143 180.837 126.283 181.559 125.738 182.535C125.626 182.765 125.578 183.025 125.6 183.284C125.621 183.544 125.712 183.79 125.86 183.995C126.009 184.199 126.209 184.353 126.436 184.437C126.663 184.522 126.908 184.533 127.141 184.469Z" fill="#263238"/>
<path d="M133.52 190.492C133.52 190.4 133.382 190.653 133.414 190.745C134.094 193.048 134.477 195.812 132.776 197.183C132.723 197.183 132.776 197.332 132.829 197.309C135.083 196.215 134.487 192.53 133.52 190.492Z" fill="#263238"/>
<path d="M130.947 188.649C127.418 189.433 129.119 197.01 132.393 196.284C135.668 195.559 133.903 187.993 130.947 188.649Z" fill="#263238"/>
<path d="M129.661 189.409C129.15 190.008 128.715 190.918 128.002 191.194C127.29 191.471 126.344 190.884 125.621 190.262C125.546 190.204 125.493 190.262 125.515 190.388C125.823 191.839 126.673 193.198 128.162 193.037C129.65 192.876 130.171 191.356 130.171 189.801C130.182 189.513 129.873 189.179 129.661 189.409Z" fill="#263238"/>
<path d="M145.948 186.335C145.948 186.243 146.15 186.404 146.161 186.496C146.607 188.868 147.479 191.505 149.616 191.782C149.68 191.782 149.701 191.908 149.616 191.92C147.149 192.162 146.023 188.649 145.948 186.335Z" fill="#263238"/>
<path d="M147.341 183.387C150.764 182.235 152.657 189.72 149.467 190.814C146.278 191.908 144.481 184.366 147.341 183.387Z" fill="#263238"/>
<path d="M148.935 183.444C149.584 183.675 150.307 184.239 150.977 184.089C151.647 183.94 152.104 182.938 152.391 182.005C152.391 181.913 152.497 182.005 152.518 182.005C152.922 183.433 152.869 185.057 151.657 185.713C150.445 186.369 149.393 185.333 148.712 183.997C148.585 183.813 148.67 183.318 148.935 183.444Z" fill="#263238"/>
<path d="M138.432 209.424C139.048 209.873 139.707 210.575 140.558 210.426C141.371 210.235 142.139 209.862 142.812 209.332C142.825 209.315 142.843 209.304 142.863 209.302C142.883 209.3 142.903 209.306 142.918 209.32C142.934 209.334 142.943 209.354 142.945 209.375C142.947 209.397 142.941 209.418 142.929 209.435C142.699 209.968 142.34 210.423 141.891 210.753C141.442 211.084 140.919 211.277 140.377 211.312C139.903 211.287 139.446 211.107 139.067 210.797C138.688 210.487 138.404 210.061 138.251 209.573C138.177 209.447 138.336 209.366 138.432 209.424Z" fill="#263238"/>
<path d="M145.565 197.724C145.565 197.724 146.831 201.098 147.224 202.745C147.224 202.906 141.993 205.67 138.612 202.284C138.577 202.258 138.553 202.218 138.545 202.173C138.537 202.127 138.546 202.08 138.57 202.042C138.594 202.004 138.631 201.978 138.673 201.969C138.715 201.96 138.758 201.97 138.793 201.996C141.073 202.896 143.561 202.972 145.884 202.215C145.884 201.731 143.524 196.515 143.758 196.457C144.967 196.242 146.197 196.203 147.415 196.342C144.949 189.237 141.462 182.615 139.112 175.487C139.091 175.434 139.089 175.375 139.107 175.321C139.124 175.267 139.16 175.222 139.206 175.194C139.253 175.167 139.307 175.159 139.358 175.173C139.41 175.187 139.455 175.221 139.484 175.268C143.599 181.936 146.597 190.054 149.308 197.321C149.669 198.207 146.278 197.839 145.565 197.724Z" fill="#263238"/>
<path d="M145.874 203.009C145.309 204.538 144.394 205.885 143.216 206.925C142.554 207.462 141.757 207.768 140.93 207.8C139.112 207.8 138.634 206.176 138.57 204.645C138.544 203.834 138.605 203.022 138.751 202.226C140.986 203.306 143.483 203.581 145.874 203.009Z" fill="#263238"/>
<path d="M143.216 206.925C142.554 207.462 141.757 207.768 140.93 207.8C139.112 207.8 138.634 206.176 138.57 204.645C140.43 204.288 142.557 205.071 143.216 206.925Z" fill="#FF99BA"/>
<path d="M105.113 200.05C111.215 200.476 111.917 185.356 111.917 185.356C111.917 185.356 137.432 178.919 138.347 156.026C138.347 156.026 143.588 170.236 157.483 175.902C157.483 175.902 155.176 151.028 136.656 147.389C136.656 147.389 113.501 139.95 101.86 160.263C90.2182 180.577 101.02 199.762 105.113 200.05Z" fill="#263238"/>
<path d="M138.347 154.333C138.851 157.826 138.658 161.395 137.783 164.801C136.957 168.262 135.472 171.498 133.424 174.301C132.922 175.006 132.379 175.675 131.798 176.305L130.947 177.284C130.65 177.583 130.331 177.859 130.012 178.147C129.374 178.7 128.757 179.299 128.098 179.817C127.439 180.335 126.716 180.761 125.972 181.222C125.621 181.441 125.281 181.682 124.909 181.89L123.845 182.443L121.623 183.537C120.093 184.112 118.54 184.596 116.999 185.057C118.434 184.262 119.922 183.629 121.336 182.834L123.41 181.567L124.473 180.934C124.802 180.704 125.111 180.439 125.429 180.185C126.067 179.679 126.705 179.184 127.354 178.7C128.002 178.216 128.523 177.548 129.108 177.03L129.99 176.19L130.777 175.245C131.318 174.641 131.826 174.002 132.297 173.334C134.229 170.664 135.729 167.658 136.731 164.444C137.244 162.83 137.635 161.174 137.9 159.492C138.183 157.789 138.332 156.063 138.347 154.333Z" fill="#263238"/>
<path d="M109.663 199.693C109.663 199.693 100.711 190.262 96.6396 193.935C92.5678 197.609 100.637 212.28 106.367 213.316C107.093 213.505 107.847 213.533 108.584 213.399C109.32 213.264 110.024 212.969 110.653 212.533C111.281 212.096 111.822 211.526 112.242 210.857C112.662 210.188 112.953 209.434 113.097 208.641L109.663 199.693Z" fill="#EB9481"/>
<path d="M99.0529 198.069C99.0331 198.069 99.0142 198.078 99.0003 198.093C98.9863 198.108 98.9785 198.129 98.9785 198.15C98.9785 198.171 98.9863 198.192 99.0003 198.207C99.0142 198.222 99.0331 198.23 99.0529 198.23C103.103 199.094 105.74 202.457 107.824 206.073C106.442 204.806 104.773 204.299 103.167 206.073C103.082 206.176 103.167 206.314 103.305 206.268C103.926 205.906 104.635 205.76 105.336 205.851C106.036 205.942 106.693 206.264 107.218 206.775C108.091 207.633 108.875 208.59 109.557 209.631C109.791 209.965 110.365 209.631 110.163 209.251L110.11 209.159C109.28 204.046 104.273 197.528 99.0529 198.069Z" fill="#263238"/>
<path d="M103.539 194.891C103.539 194.891 97.7346 178.136 99.7439 167.196C101.977 155.012 115.914 141.113 131.851 146.318C131.851 146.318 112.895 149.393 106.197 165.895C103.114 173.495 108.94 193.613 108.94 193.613L103.539 194.891Z" fill="#C7C7C7"/>
<path d="M112.492 218.77C119.527 216.397 123.205 207.429 120.707 198.739C118.208 190.05 110.479 184.93 103.444 187.304C96.4082 189.677 92.7304 198.645 95.229 207.335C97.7276 216.024 105.456 221.144 112.492 218.77Z" fill="#C7C7C7"/>
<path d="M116.871 199.44C119.114 207.247 115.808 215.308 109.429 217.439C103.05 219.569 96.1611 214.974 93.9073 207.167C91.6534 199.359 94.9704 191.298 101.349 189.156C107.728 187.014 114.628 191.678 116.871 199.44Z" fill="#455A64"/>
<path d="M128.63 238.973L122.782 254.957L104.39 234.862L99.2336 241.357C99.2336 241.357 117.307 273.347 117.371 271.896L123.388 258.077L132.191 267.601L131.394 243.625L128.63 238.973Z" fill="#EBEBEB"/>
<path d="M132.457 255.74C132.191 251.79 132.042 247.782 131.617 243.844C131.617 243.706 131.394 243.648 131.362 243.844C130.65 247.667 131.702 262.81 131.702 266.438C131.341 266.023 123.548 258.054 123.473 258.181C122.166 260.369 117.754 270.411 117.456 271.32C114.596 266.242 102.498 246.216 99.1274 241.38C99.1073 241.358 99.0809 241.343 99.0526 241.34C99.0242 241.336 98.9954 241.342 98.9709 241.358C98.9463 241.374 98.9275 241.399 98.9173 241.427C98.9071 241.456 98.9062 241.488 98.9147 241.518C101.434 246.884 117.063 273.313 117.286 273.243C119.611 268.507 121.711 263.645 123.58 258.676C124.898 260.415 132.765 269.409 132.786 268.821C132.885 264.458 132.775 260.091 132.457 255.74Z" fill="#263238"/>
<path d="M235.029 132.476C234.391 139.1 232.066 145.402 228.313 150.679C224.561 155.955 219.529 159.998 213.779 162.357C208.029 164.716 201.786 165.298 195.749 164.037C189.711 162.777 184.115 159.724 179.586 155.22L162.98 157.857L171.293 142.31C169.412 137.254 168.617 131.8 168.969 126.361C169.321 120.922 170.811 115.642 173.325 110.919C175.84 106.196 179.314 102.155 183.483 99.101C187.653 96.0473 192.41 94.0611 197.393 93.2929C202.376 92.5246 207.455 92.9944 212.246 94.6667C217.037 96.339 221.413 99.1699 225.045 102.945C228.676 106.721 231.467 111.341 233.206 116.457C234.945 121.574 235.586 127.052 235.082 132.476H235.029Z" fill="white"/>
<path d="M235.029 132.476C234.386 139.104 232.069 145.412 228.331 150.705C226.495 153.35 224.302 155.679 221.825 157.615C219.379 159.623 216.684 161.247 213.819 162.44C210.952 163.654 207.943 164.43 204.878 164.743C203.348 164.895 201.809 164.925 200.275 164.835C198.733 164.795 197.198 164.622 195.682 164.317C189.558 163.123 183.863 160.104 179.235 155.6L179.628 155.726L163.043 158.49L161.842 158.686L162.448 157.534L170.73 141.953V142.575C168.783 137.422 167.955 131.853 168.311 126.298C168.667 120.743 170.196 115.351 172.782 110.539C175.364 105.744 178.915 101.646 183.169 98.551C187.419 95.5021 192.252 93.535 197.304 92.7971C202.356 92.0592 207.497 92.5696 212.341 94.2902C217.126 96.0612 221.485 98.9688 225.099 102.8C228.718 106.612 231.491 111.262 233.211 116.403C234.931 121.543 235.553 127.038 235.029 132.476ZM235.029 132.476C235.559 127.063 234.935 121.589 233.204 116.478C231.474 111.367 228.683 106.755 225.047 102.997C221.411 99.2386 217.026 96.4348 212.232 94.8015C207.438 93.1682 202.361 92.749 197.394 93.5762C192.472 94.377 187.785 96.3858 183.69 99.4492C179.634 102.531 176.246 106.531 173.76 111.172C171.314 115.83 169.874 121.029 169.55 126.376C169.226 131.724 170.026 137.081 171.889 142.046L172.006 142.368L171.846 142.656L163.49 158.179L162.895 157.223L179.512 154.701H179.745L179.905 154.874C184.358 159.376 189.879 162.446 195.852 163.741C197.335 164.063 198.838 164.26 200.349 164.328C201.86 164.444 203.377 164.444 204.889 164.328C207.92 164.072 210.904 163.363 213.755 162.221C216.623 161.102 219.322 159.526 221.761 157.546C224.254 155.623 226.456 153.292 228.288 150.636C232.037 145.371 234.37 139.087 235.029 132.476Z" fill="#263238"/>
<path d="M216.509 134.18C218.728 134.18 220.528 132.232 220.528 129.828C220.528 127.423 218.728 125.475 216.509 125.475C214.289 125.475 212.49 127.423 212.49 129.828C212.49 132.232 214.289 134.18 216.509 134.18Z" fill="#263238"/>
<path d="M202.103 134.18C204.323 134.18 206.122 132.232 206.122 129.828C206.122 127.423 204.323 125.475 202.103 125.475C199.884 125.475 198.085 127.423 198.085 129.828C198.085 132.232 199.884 134.18 202.103 134.18Z" fill="#263238"/>
<path d="M187.708 134.18C189.928 134.18 191.727 132.232 191.727 129.828C191.727 127.423 189.928 125.475 187.708 125.475C185.489 125.475 183.69 127.423 183.69 129.828C183.69 132.232 185.489 134.18 187.708 134.18Z" fill="#263238"/>
<path d="M565.156 132.476C564.518 139.1 562.193 145.402 558.44 150.679C554.688 155.955 549.656 159.998 543.906 162.357C538.155 164.716 531.913 165.298 525.875 164.037C519.838 162.777 514.242 159.724 509.713 155.22L493.107 157.857L501.41 142.31C499.52 137.251 498.719 131.792 499.066 126.348C499.414 120.903 500.901 115.615 503.415 110.886C505.93 106.156 509.405 102.109 513.578 99.0505C517.752 95.9921 522.513 94.003 527.501 93.234C532.49 92.4649 537.574 92.9361 542.369 94.6118C547.165 96.2875 551.545 99.1238 555.177 102.906C558.81 106.687 561.601 111.315 563.337 116.439C565.073 121.562 565.71 127.047 565.198 132.476H565.156Z" fill="white"/>
<path d="M565.156 132.476C564.508 139.103 562.191 145.409 558.458 150.705C557.524 152.016 556.519 153.266 555.449 154.448C554.342 155.596 553.17 156.669 551.941 157.661C549.498 159.673 546.802 161.298 543.935 162.486C541.072 163.701 538.066 164.476 535.005 164.789C533.471 164.941 531.929 164.971 530.391 164.881C528.85 164.841 527.314 164.668 525.798 164.363C519.68 163.146 513.996 160.107 509.383 155.588L509.777 155.715L493.192 158.478L491.99 158.674L492.596 157.523L500.857 141.942V142.564C498.91 137.411 498.082 131.843 498.436 126.288C498.79 120.734 500.316 115.342 502.898 110.527C505.484 105.732 509.038 101.634 513.296 98.5395C517.546 95.4906 522.379 93.5235 527.431 92.7856C532.483 92.0477 537.624 92.5581 542.468 94.2787C547.254 96.0483 551.613 98.9561 555.226 102.789C558.848 106.6 561.624 111.252 563.344 116.395C565.064 121.538 565.683 127.036 565.156 132.476ZM565.156 132.476C565.686 127.063 565.062 121.589 563.331 116.478C561.6 111.367 558.81 106.755 555.173 102.997C551.537 99.2386 547.153 96.4348 542.359 94.8015C537.564 93.1682 532.488 92.749 527.52 93.5762C522.599 94.377 517.912 96.3858 513.817 99.4492C509.761 102.531 506.373 106.531 503.887 111.172C501.423 115.828 499.969 121.03 499.634 126.384C499.322 131.728 500.117 137.079 501.962 142.046L502.09 142.368L501.931 142.656L493.574 158.179L492.979 157.223L509.596 154.701H509.83L509.989 154.874C514.427 159.366 519.929 162.436 525.883 163.741C527.366 164.063 528.869 164.26 530.38 164.328C531.892 164.444 533.409 164.444 534.92 164.328C537.951 164.072 540.935 163.363 543.786 162.221C546.654 161.1 549.351 159.524 551.792 157.546C554.279 155.619 556.477 153.288 558.309 150.636C562.1 145.386 564.47 139.099 565.156 132.476Z" fill="#263238"/>
<path d="M546.583 134.18C548.802 134.18 550.601 132.232 550.601 129.828C550.601 127.423 548.802 125.475 546.583 125.475C544.363 125.475 542.564 127.423 542.564 129.828C542.564 132.232 544.363 134.18 546.583 134.18Z" fill="#263238"/>
<path d="M532.188 134.18C534.407 134.18 536.206 132.232 536.206 129.828C536.206 127.423 534.407 125.475 532.188 125.475C529.968 125.475 528.169 127.423 528.169 129.828C528.169 132.232 529.968 134.18 532.188 134.18Z" fill="#263238"/>
<path d="M521.811 129.828C521.813 130.689 521.58 131.532 521.139 132.249C520.699 132.966 520.072 133.526 519.338 133.857C518.604 134.189 517.795 134.276 517.015 134.11C516.235 133.943 515.518 133.529 514.955 132.921C514.392 132.313 514.008 131.537 513.852 130.692C513.696 129.848 513.775 128.972 514.079 128.176C514.383 127.38 514.898 126.699 515.559 126.22C516.22 125.742 516.997 125.486 517.793 125.486C518.857 125.486 519.877 125.943 520.631 126.757C521.384 127.571 521.809 128.675 521.811 129.828Z" fill="#263238"/>
<path d="M180.086 387.341H172.973V392.373H180.086V387.341Z" fill="#455A64"/>
<path d="M189.314 387.007H182.201V392.039H189.314V387.007Z" fill="#455A64"/>
<path d="M198.542 386.673H191.429V391.705H198.542V386.673Z" fill="#455A64"/>
<path d="M207.759 386.339H200.647V391.371H207.759V386.339Z" fill="#455A64"/>
<path d="M216.987 386.005H209.875V391.037H216.987V386.005Z" fill="#455A64"/>
<path d="M226.215 385.682H219.103V390.715H226.215V385.682Z" fill="#455A64"/>
<path d="M235.433 385.348H228.32V390.381H235.433V385.348Z" fill="#455A64"/>
<path d="M244.661 385.014H237.548V390.047H244.661V385.014Z" fill="#455A64"/>
<path d="M253.878 384.68H246.766V389.713H253.878V384.68Z" fill="#455A64"/>
<path d="M255.622 395.263H171.23V389.137L255.622 386.592V395.263Z" fill="#37474F"/>
<path d="M337.994 371.127H198.68L220.836 258.78H360.15L337.994 371.127Z" fill="#455A64"/>
<path d="M343.15 371.127H203.826L225.981 258.78H365.306L343.15 371.127Z" fill="#37474F"/>
<path d="M296.606 308.447C296.179 311.004 294.955 313.326 293.138 315.023C291.321 316.721 289.021 317.692 286.623 317.775C285.541 317.811 284.465 317.581 283.477 317.103C282.488 316.624 281.613 315.909 280.916 315.011C280.219 314.114 279.719 313.057 279.454 311.92C279.188 310.783 279.164 309.595 279.383 308.447C279.806 305.888 281.027 303.564 282.842 301.864C284.658 300.164 286.957 299.191 289.355 299.108C290.44 299.069 291.518 299.298 292.508 299.776C293.499 300.254 294.377 300.97 295.075 301.87C295.773 302.769 296.274 303.828 296.539 304.967C296.804 306.107 296.827 307.296 296.606 308.447Z" fill="#263238"/>
<path d="M303.75 400.468H235.231V394.699L303.75 392.304V400.468Z" fill="#455A64"/>
<path d="M322.377 400.457H285.581L263.425 337.501H300.221L322.377 400.457Z" fill="#455A64"/>
<path d="M328.426 400.457H291.641L269.485 337.501H306.27L328.426 400.457Z" fill="#263238"/>
<path d="M168.604 402H97.9898C91.9618 402 100.68 383.402 122.687 376.274C144.694 369.146 175.567 395.022 168.604 402Z" fill="#37474F"/>
<path d="M140.962 402C141.009 399.881 141.332 397.78 141.919 395.759C142.486 393.715 143.282 391.754 144.29 389.92C145.3 388.075 146.566 386.409 148.043 384.98C149.507 383.562 151.192 382.435 153.018 381.652C152.263 382.32 151.402 382.803 150.711 383.529L149.648 384.531L148.648 385.682C147.343 387.163 146.198 388.802 145.236 390.565C144.258 392.328 143.419 394.177 142.727 396.092C142.018 398.017 141.428 399.99 140.962 402Z" fill="#263238"/>
<path d="M149.276 384.3C153.478 385.741 157.453 387.865 161.066 390.6C162.894 391.968 164.549 393.59 165.988 395.425C167.498 397.249 168.416 399.558 168.604 402C168.018 399.748 166.896 397.703 165.35 396.069C163.844 394.408 162.196 392.904 160.428 391.578C158.674 390.208 156.835 388.976 154.964 387.767C153.092 386.558 151.211 385.417 149.276 384.3Z" fill="#263238"/>
<path d="M506.321 387.341H499.209V392.373H506.321V387.341Z" fill="#455A64"/>
<path d="M515.549 387.007H508.437V392.039H515.549V387.007Z" fill="#455A64"/>
<path d="M524.777 386.673H517.665V391.705H524.777V386.673Z" fill="#455A64"/>
<path d="M533.995 386.339H526.883V391.371H533.995V386.339Z" fill="#455A64"/>
<path d="M543.223 386.005H536.111V391.037H543.223V386.005Z" fill="#455A64"/>
<path d="M552.451 385.682H545.339V390.715H552.451V385.682Z" fill="#455A64"/>
<path d="M561.668 385.348H554.556V390.381H561.668V385.348Z" fill="#455A64"/>
<path d="M570.897 385.014H563.784V390.047H570.897V385.014Z" fill="#455A64"/>
<path d="M580.125 384.68H573.012V389.713H580.125V384.68Z" fill="#455A64"/>
<path d="M581.868 395.263H497.476V389.137L581.868 386.592V395.263Z" fill="#37474F"/>
<path d="M664.23 371.127H524.916L547.072 258.78H686.386L664.23 371.127Z" fill="#455A64"/>
<path d="M669.386 371.127H530.072L552.228 258.78H691.542L669.386 371.127Z" fill="#37474F"/>
<path d="M622.842 308.447C622.415 311.002 621.192 313.322 619.378 315.02C617.563 316.717 615.266 317.69 612.869 317.775C611.786 317.813 610.709 317.584 609.719 317.107C608.73 316.629 607.853 315.914 607.155 315.016C606.457 314.118 605.956 313.061 605.69 311.923C605.424 310.785 605.399 309.596 605.619 308.447C606.043 305.889 607.265 303.566 609.08 301.867C610.895 300.167 613.193 299.193 615.591 299.108C616.675 299.069 617.753 299.298 618.744 299.776C619.735 300.254 620.612 300.97 621.311 301.87C622.009 302.769 622.509 303.828 622.775 304.967C623.04 306.107 623.063 307.296 622.842 308.447Z" fill="#263238"/>
<path d="M629.986 400.468H561.466V394.699L629.986 392.304V400.468Z" fill="#455A64"/>
<path d="M648.612 400.457H611.817L589.661 337.501H626.456L648.612 400.457Z" fill="#455A64"/>
<path d="M654.672 400.457H617.877L595.721 337.501H632.516L654.672 400.457Z" fill="#263238"/>
<path d="M494.871 402H424.226C418.198 402 426.915 383.402 448.922 376.274C470.929 369.146 501.803 395.022 494.871 402Z" fill="#37474F"/>
<path d="M467.145 402C467.197 399.882 467.519 397.781 468.101 395.759C468.673 393.717 469.469 391.756 470.472 389.92C471.489 388.08 472.754 386.415 474.225 384.98C475.69 383.562 477.374 382.435 479.201 381.652C478.446 382.32 477.585 382.803 476.894 383.529L475.83 384.531L474.831 385.682C473.519 387.16 472.37 388.799 471.408 390.565C470.43 392.328 469.591 394.177 468.899 396.092C468.193 398.017 467.607 399.991 467.145 402Z" fill="#263238"/>
<path d="M475.511 384.3C479.713 385.741 483.689 387.865 487.302 390.6C489.131 391.971 490.789 393.593 492.235 395.425C493.74 397.237 494.664 399.527 494.871 401.954C494.282 399.701 493.156 397.656 491.607 396.023C490.101 394.362 488.453 392.858 486.685 391.532C484.942 390.162 483.092 388.93 481.221 387.721C479.349 386.511 477.457 385.417 475.511 384.3Z" fill="#263238"/>
</svg>
