<svg width="575" height="179" viewBox="0 0 575 179" fill="none" xmlns="http://www.w3.org/2000/svg">
<path d="M2.184 32V12.26H15.484V15.088H5.656V20.548H14.84V23.404H5.656V29.144H15.484V32H2.184ZM16.3723 32L22.9523 23.908V25.504L16.7363 17.86H20.8803L24.9403 23.096H23.6803L27.7403 17.86H31.8563L25.6963 25.504V23.908L32.2483 32H28.0763L23.6803 26.372H24.9403L20.5163 32H16.3723ZM33.9235 38.048V21.388C33.9235 20.8093 33.9049 20.2213 33.8675 19.624C33.8302 19.0267 33.7742 18.4387 33.6995 17.86H37.0875L37.3955 20.828H37.0875C37.3675 19.8387 37.9555 19.0547 38.8515 18.476C39.7662 17.8787 40.8209 17.58 42.0155 17.58C43.2662 17.58 44.3582 17.8787 45.2915 18.476C46.2249 19.0547 46.9529 19.8947 47.4755 20.996C47.9982 22.0787 48.2595 23.3853 48.2595 24.916C48.2595 26.4467 47.9982 27.7627 47.4755 28.864C46.9529 29.9653 46.2249 30.8147 45.2915 31.412C44.3582 31.9907 43.2662 32.28 42.0155 32.28C40.8395 32.28 39.8035 31.9907 38.9075 31.412C38.0115 30.8333 37.4142 30.0587 37.1155 29.088H37.4235V38.048H33.9235ZM41.0355 29.592C42.1555 29.592 43.0515 29.2093 43.7235 28.444C44.3955 27.66 44.7315 26.484 44.7315 24.916C44.7315 23.348 44.3955 22.1813 43.7235 21.416C43.0515 20.6507 42.1555 20.268 41.0355 20.268C39.9342 20.268 39.0475 20.6507 38.3755 21.416C37.7035 22.1813 37.3675 23.348 37.3675 24.916C37.3675 26.484 37.7035 27.66 38.3755 28.444C39.0475 29.2093 39.9342 29.592 41.0355 29.592ZM51.2868 32V11.392H54.7868V32H51.2868ZM64.9716 32.28C63.5156 32.28 62.2556 31.9813 61.1916 31.384C60.1276 30.7867 59.2969 29.9373 58.6996 28.836C58.1209 27.7347 57.8316 26.428 57.8316 24.916C57.8316 23.404 58.1209 22.1067 58.6996 21.024C59.2969 19.9227 60.1276 19.0733 61.1916 18.476C62.2556 17.8787 63.5156 17.58 64.9716 17.58C66.4276 17.58 67.6876 17.8787 68.7516 18.476C69.8343 19.0733 70.6649 19.9227 71.2436 21.024C71.8409 22.1067 72.1396 23.404 72.1396 24.916C72.1396 26.428 71.8409 27.7347 71.2436 28.836C70.6649 29.9373 69.8343 30.7867 68.7516 31.384C67.6876 31.9813 66.4276 32.28 64.9716 32.28ZM64.9716 29.592C66.0729 29.592 66.9503 29.2093 67.6036 28.444C68.2569 27.66 68.5836 26.484 68.5836 24.916C68.5836 23.348 68.2569 22.1813 67.6036 21.416C66.9503 20.6507 66.0729 20.268 64.9716 20.268C63.8703 20.268 62.9929 20.6507 62.3396 21.416C61.6863 22.1813 61.3596 23.348 61.3596 24.916C61.3596 26.484 61.6863 27.66 62.3396 28.444C62.9929 29.2093 63.8703 29.592 64.9716 29.592ZM75.1299 32V21.472C75.1299 20.8747 75.1112 20.268 75.0739 19.652C75.0552 19.036 75.0086 18.4387 74.9339 17.86H78.3219L78.7139 21.724H78.1539C78.3406 20.7907 78.6486 20.016 79.0779 19.4C79.5259 18.784 80.0672 18.3267 80.7019 18.028C81.3366 17.7293 82.0272 17.58 82.7739 17.58C83.1099 17.58 83.3806 17.5987 83.5859 17.636C83.7912 17.6547 83.9966 17.7013 84.2019 17.776L84.1739 20.856C83.8192 20.7067 83.5112 20.6133 83.2499 20.576C83.0072 20.5387 82.6992 20.52 82.3259 20.52C81.5232 20.52 80.8419 20.688 80.2819 21.024C79.7406 21.36 79.3299 21.8267 79.0499 22.424C78.7886 23.0213 78.6579 23.7027 78.6579 24.468V32H75.1299ZM92.7633 32.28C90.3927 32.28 88.5353 31.6267 87.1913 30.32C85.8473 29.0133 85.1753 27.2213 85.1753 24.944C85.1753 23.4693 85.4647 22.1813 86.0433 21.08C86.622 19.9787 87.4247 19.12 88.4513 18.504C89.4967 17.888 90.71 17.58 92.0913 17.58C93.454 17.58 94.5927 17.8693 95.5073 18.448C96.422 19.0267 97.1127 19.8387 97.5793 20.884C98.0647 21.9293 98.3073 23.152 98.3073 24.552V25.476H88.0033V23.628H95.8153L95.3393 24.02C95.3393 22.7133 95.0593 21.7147 94.4993 21.024C93.958 20.3333 93.1647 19.988 92.1193 19.988C90.962 19.988 90.066 20.3987 89.4313 21.22C88.8153 22.0413 88.5073 23.1893 88.5073 24.664V25.028C88.5073 26.5587 88.8807 27.7067 89.6273 28.472C90.3927 29.2187 91.466 29.592 92.8473 29.592C93.65 29.592 94.3967 29.4893 95.0873 29.284C95.7967 29.06 96.4687 28.7053 97.1033 28.22L98.1393 30.572C97.4673 31.1133 96.6647 31.5333 95.7313 31.832C94.798 32.1307 93.8087 32.28 92.7633 32.28ZM108.955 32V21.388C108.955 20.8093 108.936 20.2213 108.899 19.624C108.861 19.0267 108.805 18.4387 108.731 17.86H112.119L112.399 20.66H112.063C112.455 19.6893 113.052 18.9333 113.855 18.392C114.676 17.8507 115.647 17.58 116.767 17.58C117.887 17.58 118.811 17.8507 119.539 18.392C120.285 18.9147 120.808 19.736 121.107 20.856H120.659C121.051 19.848 121.695 19.0547 122.591 18.476C123.487 17.8787 124.513 17.58 125.671 17.58C127.257 17.58 128.443 18.0467 129.227 18.98C130.011 19.9133 130.403 21.3693 130.403 23.348V32H126.903V23.488C126.903 22.368 126.716 21.5653 126.343 21.08C125.969 20.576 125.372 20.324 124.551 20.324C123.58 20.324 122.815 20.6693 122.255 21.36C121.695 22.032 121.415 22.9467 121.415 24.104V32H117.915V23.488C117.915 22.368 117.728 21.5653 117.355 21.08C116.981 20.576 116.384 20.324 115.563 20.324C114.592 20.324 113.827 20.6693 113.267 21.36C112.725 22.032 112.455 22.9467 112.455 24.104V32H108.955ZM140.522 32.28C139.066 32.28 137.806 31.9813 136.742 31.384C135.678 30.7867 134.848 29.9373 134.25 28.836C133.672 27.7347 133.382 26.428 133.382 24.916C133.382 23.404 133.672 22.1067 134.25 21.024C134.848 19.9227 135.678 19.0733 136.742 18.476C137.806 17.8787 139.066 17.58 140.522 17.58C141.978 17.58 143.238 17.8787 144.302 18.476C145.385 19.0733 146.216 19.9227 146.794 21.024C147.392 22.1067 147.69 23.404 147.69 24.916C147.69 26.428 147.392 27.7347 146.794 28.836C146.216 29.9373 145.385 30.7867 144.302 31.384C143.238 31.9813 141.978 32.28 140.522 32.28ZM140.522 29.592C141.624 29.592 142.501 29.2093 143.154 28.444C143.808 27.66 144.134 26.484 144.134 24.916C144.134 23.348 143.808 22.1813 143.154 21.416C142.501 20.6507 141.624 20.268 140.522 20.268C139.421 20.268 138.544 20.6507 137.89 21.416C137.237 22.1813 136.91 23.348 136.91 24.916C136.91 26.484 137.237 27.66 137.89 28.444C138.544 29.2093 139.421 29.592 140.522 29.592ZM150.681 32V21.472C150.681 20.8747 150.662 20.268 150.625 19.652C150.606 19.036 150.559 18.4387 150.485 17.86H153.873L154.265 21.724H153.705C153.891 20.7907 154.199 20.016 154.629 19.4C155.077 18.784 155.618 18.3267 156.253 18.028C156.887 17.7293 157.578 17.58 158.325 17.58C158.661 17.58 158.931 17.5987 159.137 17.636C159.342 17.6547 159.547 17.7013 159.753 17.776L159.725 20.856C159.37 20.7067 159.062 20.6133 158.801 20.576C158.558 20.5387 158.25 20.52 157.877 20.52C157.074 20.52 156.393 20.688 155.833 21.024C155.291 21.36 154.881 21.8267 154.601 22.424C154.339 23.0213 154.209 23.7027 154.209 24.468V32H150.681ZM168.314 32.28C165.943 32.28 164.086 31.6267 162.742 30.32C161.398 29.0133 160.726 27.2213 160.726 24.944C160.726 23.4693 161.015 22.1813 161.594 21.08C162.173 19.9787 162.975 19.12 164.002 18.504C165.047 17.888 166.261 17.58 167.642 17.58C169.005 17.58 170.143 17.8693 171.058 18.448C171.973 19.0267 172.663 19.8387 173.13 20.884C173.615 21.9293 173.858 23.152 173.858 24.552V25.476H163.554V23.628H171.366L170.89 24.02C170.89 22.7133 170.61 21.7147 170.05 21.024C169.509 20.3333 168.715 19.988 167.67 19.988C166.513 19.988 165.617 20.3987 164.982 21.22C164.366 22.0413 164.058 23.1893 164.058 24.664V25.028C164.058 26.5587 164.431 27.7067 165.178 28.472C165.943 29.2187 167.017 29.592 168.398 29.592C169.201 29.592 169.947 29.4893 170.638 29.284C171.347 29.06 172.019 28.7053 172.654 28.22L173.69 30.572C173.018 31.1133 172.215 31.5333 171.282 31.832C170.349 32.1307 169.359 32.28 168.314 32.28ZM189.966 32.28C188.734 32.28 187.651 31.9907 186.718 31.412C185.784 30.8147 185.056 29.9653 184.534 28.864C184.011 27.7627 183.75 26.4467 183.75 24.916C183.75 23.3853 184.011 22.0787 184.534 20.996C185.056 19.8947 185.784 19.0547 186.718 18.476C187.651 17.8787 188.734 17.58 189.966 17.58C191.16 17.58 192.206 17.8787 193.102 18.476C194.016 19.0547 194.623 19.8387 194.922 20.828H194.614L194.922 17.86H198.282C198.226 18.4387 198.17 19.0267 198.114 19.624C198.076 20.2213 198.058 20.8093 198.058 21.388V32H194.586L194.558 29.088H194.894C194.595 30.0587 193.988 30.8333 193.074 31.412C192.159 31.9907 191.123 32.28 189.966 32.28ZM190.946 29.592C192.047 29.592 192.934 29.2093 193.606 28.444C194.278 27.66 194.614 26.484 194.614 24.916C194.614 23.348 194.278 22.1813 193.606 21.416C192.934 20.6507 192.047 20.268 190.946 20.268C189.844 20.268 188.958 20.6507 188.286 21.416C187.614 22.1813 187.278 23.348 187.278 24.916C187.278 26.484 187.604 27.66 188.258 28.444C188.93 29.2093 189.826 29.592 190.946 29.592ZM209.961 32.28C208.766 32.28 207.721 31.9907 206.825 31.412C205.929 30.8147 205.332 30.012 205.033 29.004H205.341V32H201.869V11.392H205.369V20.744H205.033C205.35 19.7733 205.957 19.008 206.853 18.448C207.749 17.8693 208.785 17.58 209.961 17.58C211.212 17.58 212.304 17.8787 213.237 18.476C214.17 19.0733 214.898 19.9227 215.421 21.024C215.944 22.1067 216.205 23.4133 216.205 24.944C216.205 26.4747 215.944 27.7907 215.421 28.892C214.898 29.9747 214.161 30.8147 213.209 31.412C212.276 31.9907 211.193 32.28 209.961 32.28ZM208.981 29.592C210.082 29.592 210.969 29.2093 211.641 28.444C212.332 27.6787 212.677 26.512 212.677 24.944C212.677 23.376 212.332 22.2093 211.641 21.444C210.969 20.66 210.082 20.268 208.981 20.268C207.88 20.268 206.993 20.6507 206.321 21.416C205.649 22.1813 205.313 23.348 205.313 24.916C205.313 26.484 205.649 27.66 206.321 28.444C206.993 29.2093 207.88 29.592 208.981 29.592ZM225.616 32.28C224.16 32.28 222.9 31.9813 221.836 31.384C220.772 30.7867 219.941 29.9373 219.344 28.836C218.765 27.7347 218.476 26.428 218.476 24.916C218.476 23.404 218.765 22.1067 219.344 21.024C219.941 19.9227 220.772 19.0733 221.836 18.476C222.9 17.8787 224.16 17.58 225.616 17.58C227.072 17.58 228.332 17.8787 229.396 18.476C230.479 19.0733 231.309 19.9227 231.888 21.024C232.485 22.1067 232.784 23.404 232.784 24.916C232.784 26.428 232.485 27.7347 231.888 28.836C231.309 29.9373 230.479 30.7867 229.396 31.384C228.332 31.9813 227.072 32.28 225.616 32.28ZM225.616 29.592C226.717 29.592 227.595 29.2093 228.248 28.444C228.901 27.66 229.228 26.484 229.228 24.916C229.228 23.348 228.901 22.1813 228.248 21.416C227.595 20.6507 226.717 20.268 225.616 20.268C224.515 20.268 223.637 20.6507 222.984 21.416C222.331 22.1813 222.004 23.348 222.004 24.916C222.004 26.484 222.331 27.66 222.984 28.444C223.637 29.2093 224.515 29.592 225.616 29.592ZM240.898 32.28C239.162 32.28 237.865 31.804 237.006 30.852C236.148 29.9 235.718 28.444 235.718 26.484V17.86H239.218V26.456C239.218 27.5013 239.433 28.276 239.862 28.78C240.292 29.2653 240.945 29.508 241.822 29.508C242.812 29.508 243.614 29.172 244.23 28.5C244.865 27.828 245.182 26.9413 245.182 25.84V17.86H248.682V32H245.266V29.116H245.658C245.248 30.124 244.622 30.908 243.782 31.468C242.961 32.0093 242 32.28 240.898 32.28ZM258.53 32.28C256.85 32.28 255.581 31.8413 254.722 30.964C253.863 30.0867 253.434 28.7707 253.434 27.016V20.492H250.718V17.86H253.434V14.248L256.934 13.352V17.86H260.714V20.492H256.934V26.792C256.934 27.7627 257.121 28.444 257.494 28.836C257.867 29.228 258.381 29.424 259.034 29.424C259.389 29.424 259.687 29.396 259.93 29.34C260.191 29.284 260.443 29.2093 260.686 29.116V31.888C260.369 32.0187 260.014 32.112 259.622 32.168C259.249 32.2427 258.885 32.28 258.53 32.28ZM275.871 32.28C274.135 32.28 272.838 31.804 271.979 30.852C271.12 29.9 270.691 28.444 270.691 26.484V17.86H274.191V26.456C274.191 27.5013 274.406 28.276 274.835 28.78C275.264 29.2653 275.918 29.508 276.795 29.508C277.784 29.508 278.587 29.172 279.203 28.5C279.838 27.828 280.155 26.9413 280.155 25.84V17.86H283.655V32H280.239V29.116H280.631C280.22 30.124 279.595 30.908 278.755 31.468C277.934 32.0093 276.972 32.28 275.871 32.28ZM292.495 32.28C291.281 32.28 290.161 32.14 289.135 31.86C288.127 31.5613 287.277 31.1507 286.587 30.628L287.567 28.276C288.276 28.7613 289.06 29.1347 289.919 29.396C290.777 29.6573 291.645 29.788 292.523 29.788C293.456 29.788 294.147 29.6293 294.595 29.312C295.061 28.9947 295.295 28.5653 295.295 28.024C295.295 27.5947 295.145 27.2587 294.847 27.016C294.567 26.7547 294.109 26.5587 293.475 26.428L290.675 25.896C289.48 25.6347 288.565 25.1867 287.931 24.552C287.315 23.9173 287.007 23.0867 287.007 22.06C287.007 21.1827 287.24 20.408 287.707 19.736C288.192 19.064 288.873 18.5413 289.751 18.168C290.647 17.776 291.692 17.58 292.887 17.58C293.932 17.58 294.912 17.72 295.827 18C296.76 18.28 297.544 18.7 298.179 19.26L297.171 21.528C296.592 21.0613 295.929 20.6973 295.183 20.436C294.436 20.1747 293.708 20.044 292.999 20.044C292.028 20.044 291.319 20.2213 290.871 20.576C290.423 20.912 290.199 21.3507 290.199 21.892C290.199 22.3027 290.329 22.648 290.591 22.928C290.871 23.1893 291.3 23.3853 291.879 23.516L294.679 24.048C295.929 24.2907 296.872 24.72 297.507 25.336C298.16 25.9333 298.487 26.7547 298.487 27.8C298.487 28.7333 298.235 29.536 297.731 30.208C297.227 30.88 296.527 31.3933 295.631 31.748C294.735 32.1027 293.689 32.28 292.495 32.28ZM309.67 26.148L308.578 12.26H312.89L311.798 26.148H309.67ZM308.774 32V28.108H312.694V32H308.774ZM316.615 26.148L315.523 12.26H319.835L318.743 26.148H316.615ZM315.719 32V28.108H319.639V32H315.719ZM2.52 107.236C2.20267 107.236 1.82 107.217 1.372 107.18C0.942667 107.143 0.504 107.077 0.056 106.984V104.128C0.410667 104.203 0.746667 104.259 1.064 104.296C1.4 104.333 1.68 104.352 1.904 104.352C2.76267 104.352 3.37867 104.1 3.752 103.596C4.144 103.092 4.34 102.289 4.34 101.188V82.26H7.952V101.188C7.952 102.532 7.76533 103.652 7.392 104.548C7.01867 105.444 6.43067 106.116 5.628 106.564C4.844 107.012 3.808 107.236 2.52 107.236ZM18.4325 102.28C16.9765 102.28 15.7165 101.981 14.6525 101.384C13.5885 100.787 12.7579 99.9373 12.1605 98.836C11.5819 97.7347 11.2925 96.428 11.2925 94.916C11.2925 93.404 11.5819 92.1067 12.1605 91.024C12.7579 89.9227 13.5885 89.0733 14.6525 88.476C15.7165 87.8787 16.9765 87.58 18.4325 87.58C19.8885 87.58 21.1485 87.8787 22.2125 88.476C23.2952 89.0733 24.1259 89.9227 24.7045 91.024C25.3019 92.1067 25.6005 93.404 25.6005 94.916C25.6005 96.428 25.3019 97.7347 24.7045 98.836C24.1259 99.9373 23.2952 100.787 22.2125 101.384C21.1485 101.981 19.8885 102.28 18.4325 102.28ZM18.4325 99.592C19.5339 99.592 20.4112 99.2093 21.0645 98.444C21.7179 97.66 22.0445 96.484 22.0445 94.916C22.0445 93.348 21.7179 92.1813 21.0645 91.416C20.4112 90.6507 19.5339 90.268 18.4325 90.268C17.3312 90.268 16.4539 90.6507 15.8005 91.416C15.1472 92.1813 14.8205 93.348 14.8205 94.916C14.8205 96.484 15.1472 97.66 15.8005 98.444C16.4539 99.2093 17.3312 99.592 18.4325 99.592ZM28.6188 102V87.86H32.1188V102H28.6188ZM28.4228 85.2V81.784H32.3148V85.2H28.4228ZM35.9196 102V91.388C35.9196 90.8093 35.901 90.2213 35.8636 89.624C35.8263 89.0267 35.7703 88.4387 35.6956 87.86H39.0836L39.3636 90.66H39.0276C39.4756 89.6707 40.1383 88.9147 41.0156 88.392C41.893 87.8507 42.9103 87.58 44.0676 87.58C45.729 87.58 46.9796 88.0467 47.8196 88.98C48.6596 89.9133 49.0796 91.3693 49.0796 93.348V102H45.5796V93.516C45.5796 92.3773 45.3556 91.5653 44.9076 91.08C44.4783 90.576 43.825 90.324 42.9476 90.324C41.865 90.324 41.0063 90.66 40.3716 91.332C39.737 92.004 39.4196 92.9 39.4196 94.02V102H35.9196ZM65.5703 102.28C63.8343 102.28 62.537 101.804 61.6783 100.852C60.8196 99.9 60.3903 98.444 60.3903 96.484V87.86H63.8903V96.456C63.8903 97.5013 64.105 98.276 64.5343 98.78C64.9636 99.2653 65.617 99.508 66.4943 99.508C67.4836 99.508 68.2863 99.172 68.9023 98.5C69.537 97.828 69.8543 96.9413 69.8543 95.84V87.86H73.3543V102H69.9383V99.116H70.3303C69.9196 100.124 69.2943 100.908 68.4543 101.468C67.633 102.009 66.6716 102.28 65.5703 102.28ZM82.194 102.28C80.9807 102.28 79.8607 102.14 78.834 101.86C77.826 101.561 76.9767 101.151 76.286 100.628L77.266 98.276C77.9753 98.7613 78.7593 99.1347 79.618 99.396C80.4767 99.6573 81.3447 99.788 82.222 99.788C83.1553 99.788 83.846 99.6293 84.294 99.312C84.7607 98.9947 84.994 98.5653 84.994 98.024C84.994 97.5947 84.8447 97.2587 84.546 97.016C84.266 96.7547 83.8087 96.5587 83.174 96.428L80.374 95.896C79.1793 95.6347 78.2647 95.1867 77.63 94.552C77.014 93.9173 76.706 93.0867 76.706 92.06C76.706 91.1827 76.9393 90.408 77.406 89.736C77.8913 89.064 78.5727 88.5413 79.45 88.168C80.346 87.776 81.3913 87.58 82.586 87.58C83.6313 87.58 84.6113 87.72 85.526 88C86.4593 88.28 87.2433 88.7 87.878 89.26L86.87 91.528C86.2913 91.0613 85.6287 90.6973 84.882 90.436C84.1353 90.1747 83.4073 90.044 82.698 90.044C81.7273 90.044 81.018 90.2213 80.57 90.576C80.122 90.912 79.898 91.3507 79.898 91.892C79.898 92.3027 80.0287 92.648 80.29 92.928C80.57 93.1893 80.9993 93.3853 81.578 93.516L84.378 94.048C85.6287 94.2907 86.5713 94.72 87.206 95.336C87.8593 95.9333 88.186 96.7547 88.186 97.8C88.186 98.7333 87.934 99.536 87.43 100.208C86.926 100.88 86.226 101.393 85.33 101.748C84.434 102.103 83.3887 102.28 82.194 102.28ZM104.325 102.28C103.093 102.28 102.01 101.991 101.077 101.412C100.144 100.815 99.4156 99.9653 98.8929 98.864C98.3703 97.7627 98.1089 96.4467 98.1089 94.916C98.1089 93.3853 98.3703 92.0787 98.8929 90.996C99.4156 89.8947 100.144 89.0547 101.077 88.476C102.01 87.8787 103.093 87.58 104.325 87.58C105.52 87.58 106.565 87.8787 107.461 88.476C108.376 89.0547 108.982 89.8387 109.281 90.828H108.973L109.281 87.86H112.641C112.585 88.4387 112.529 89.0267 112.473 89.624C112.436 90.2213 112.417 90.8093 112.417 91.388V102H108.945L108.917 99.088H109.253C108.954 100.059 108.348 100.833 107.433 101.412C106.518 101.991 105.482 102.28 104.325 102.28ZM105.305 99.592C106.406 99.592 107.293 99.2093 107.965 98.444C108.637 97.66 108.973 96.484 108.973 94.916C108.973 93.348 108.637 92.1813 107.965 91.416C107.293 90.6507 106.406 90.268 105.305 90.268C104.204 90.268 103.317 90.6507 102.645 91.416C101.973 92.1813 101.637 93.348 101.637 94.916C101.637 96.484 101.964 97.66 102.617 98.444C103.289 99.2093 104.185 99.592 105.305 99.592ZM122.276 102.28C120.596 102.28 119.327 101.841 118.468 100.964C117.61 100.087 117.18 98.7707 117.18 97.016V90.492H114.464V87.86H117.18V84.248L120.68 83.352V87.86H124.46V90.492H120.68V96.792C120.68 97.7627 120.867 98.444 121.24 98.836C121.614 99.228 122.127 99.424 122.78 99.424C123.135 99.424 123.434 99.396 123.676 99.34C123.938 99.284 124.19 99.2093 124.432 99.116V101.888C124.115 102.019 123.76 102.112 123.368 102.168C122.995 102.243 122.631 102.28 122.276 102.28ZM140.569 102.28C138.889 102.28 137.62 101.841 136.761 100.964C135.903 100.087 135.473 98.7707 135.473 97.016V90.492H132.757V87.86H135.473V84.248L138.973 83.352V87.86H142.753V90.492H138.973V96.792C138.973 97.7627 139.16 98.444 139.533 98.836C139.907 99.228 140.42 99.424 141.073 99.424C141.428 99.424 141.727 99.396 141.969 99.34C142.231 99.284 142.483 99.2093 142.725 99.116V101.888C142.408 102.019 142.053 102.112 141.661 102.168C141.288 102.243 140.924 102.28 140.569 102.28ZM145.131 102V81.392H148.631V90.688H148.239C148.668 89.68 149.331 88.9147 150.227 88.392C151.123 87.8507 152.149 87.58 153.307 87.58C154.987 87.58 156.237 88.056 157.059 89.008C157.88 89.9413 158.291 91.3693 158.291 93.292V102H154.791V93.46C154.791 92.3587 154.576 91.5653 154.147 91.08C153.736 90.576 153.073 90.324 152.159 90.324C151.095 90.324 150.236 90.66 149.583 91.332C148.948 91.9853 148.631 92.8627 148.631 93.964V102H145.131ZM168.834 102.28C166.463 102.28 164.606 101.627 163.262 100.32C161.918 99.0133 161.246 97.2213 161.246 94.944C161.246 93.4693 161.535 92.1813 162.114 91.08C162.692 89.9787 163.495 89.12 164.522 88.504C165.567 87.888 166.78 87.58 168.162 87.58C169.524 87.58 170.663 87.8693 171.578 88.448C172.492 89.0267 173.183 89.8387 173.65 90.884C174.135 91.9293 174.378 93.152 174.378 94.552V95.476H164.074V93.628H171.886L171.41 94.02C171.41 92.7133 171.13 91.7147 170.57 91.024C170.028 90.3333 169.235 89.988 168.19 89.988C167.032 89.988 166.136 90.3987 165.502 91.22C164.886 92.0413 164.578 93.1893 164.578 94.664V95.028C164.578 96.5587 164.951 97.7067 165.698 98.472C166.463 99.2187 167.536 99.592 168.918 99.592C169.72 99.592 170.467 99.4893 171.158 99.284C171.867 99.06 172.539 98.7053 173.174 98.22L174.21 100.572C173.538 101.113 172.735 101.533 171.802 101.832C170.868 102.131 169.879 102.28 168.834 102.28ZM190.485 102.28C189.253 102.28 188.17 101.991 187.237 101.412C186.304 100.815 185.576 99.9653 185.053 98.864C184.53 97.7627 184.269 96.4467 184.269 94.916C184.269 93.3853 184.53 92.0787 185.053 90.996C185.576 89.8947 186.304 89.0547 187.237 88.476C188.17 87.8787 189.253 87.58 190.485 87.58C191.68 87.58 192.725 87.8787 193.621 88.476C194.536 89.0547 195.142 89.8387 195.441 90.828H195.133L195.441 87.86H198.801C198.745 88.4387 198.689 89.0267 198.633 89.624C198.596 90.2213 198.577 90.8093 198.577 91.388V102H195.105L195.077 99.088H195.413C195.114 100.059 194.508 100.833 193.593 101.412C192.678 101.991 191.642 102.28 190.485 102.28ZM191.465 99.592C192.566 99.592 193.453 99.2093 194.125 98.444C194.797 97.66 195.133 96.484 195.133 94.916C195.133 93.348 194.797 92.1813 194.125 91.416C193.453 90.6507 192.566 90.268 191.465 90.268C190.364 90.268 189.477 90.6507 188.805 91.416C188.133 92.1813 187.797 93.348 187.797 94.916C187.797 96.484 188.124 97.66 188.777 98.444C189.449 99.2093 190.345 99.592 191.465 99.592ZM206.172 102L200.656 87.86H204.268L208.244 98.864H207.516L211.548 87.86H214.04L218.044 98.864H217.4L221.348 87.86H224.764L219.248 102H216.168L211.94 90.744H213.424L209.28 102H206.172ZM233.529 102.28C231.158 102.28 229.301 101.627 227.957 100.32C226.613 99.0133 225.941 97.2213 225.941 94.944C225.941 93.4693 226.23 92.1813 226.809 91.08C227.388 89.9787 228.19 89.12 229.217 88.504C230.262 87.888 231.476 87.58 232.857 87.58C234.22 87.58 235.358 87.8693 236.273 88.448C237.188 89.0267 237.878 89.8387 238.345 90.884C238.83 91.9293 239.073 93.152 239.073 94.552V95.476H228.769V93.628H236.581L236.105 94.02C236.105 92.7133 235.825 91.7147 235.265 91.024C234.724 90.3333 233.93 89.988 232.885 89.988C231.728 89.988 230.832 90.3987 230.197 91.22C229.581 92.0413 229.273 93.1893 229.273 94.664V95.028C229.273 96.5587 229.646 97.7067 230.393 98.472C231.158 99.2187 232.232 99.592 233.613 99.592C234.416 99.592 235.162 99.4893 235.853 99.284C236.562 99.06 237.234 98.7053 237.869 98.22L238.905 100.572C238.233 101.113 237.43 101.533 236.497 101.832C235.564 102.131 234.574 102.28 233.529 102.28ZM247.077 102.28C245.863 102.28 244.743 102.14 243.717 101.86C242.709 101.561 241.859 101.151 241.169 100.628L242.149 98.276C242.858 98.7613 243.642 99.1347 244.501 99.396C245.359 99.6573 246.227 99.788 247.105 99.788C248.038 99.788 248.729 99.6293 249.177 99.312C249.643 98.9947 249.877 98.5653 249.877 98.024C249.877 97.5947 249.727 97.2587 249.429 97.016C249.149 96.7547 248.691 96.5587 248.057 96.428L245.257 95.896C244.062 95.6347 243.147 95.1867 242.513 94.552C241.897 93.9173 241.589 93.0867 241.589 92.06C241.589 91.1827 241.822 90.408 242.289 89.736C242.774 89.064 243.455 88.5413 244.333 88.168C245.229 87.776 246.274 87.58 247.469 87.58C248.514 87.58 249.494 87.72 250.409 88C251.342 88.28 252.126 88.7 252.761 89.26L251.753 91.528C251.174 91.0613 250.511 90.6973 249.765 90.436C249.018 90.1747 248.29 90.044 247.581 90.044C246.61 90.044 245.901 90.2213 245.453 90.576C245.005 90.912 244.781 91.3507 244.781 91.892C244.781 92.3027 244.911 92.648 245.173 92.928C245.453 93.1893 245.882 93.3853 246.461 93.516L249.261 94.048C250.511 94.2907 251.454 94.72 252.089 95.336C252.742 95.9333 253.069 96.7547 253.069 97.8C253.069 98.7333 252.817 99.536 252.313 100.208C251.809 100.88 251.109 101.393 250.213 101.748C249.317 102.103 248.271 102.28 247.077 102.28ZM262.448 102.28C260.992 102.28 259.732 101.981 258.668 101.384C257.604 100.787 256.773 99.9373 256.176 98.836C255.597 97.7347 255.308 96.428 255.308 94.916C255.308 93.404 255.597 92.1067 256.176 91.024C256.773 89.9227 257.604 89.0733 258.668 88.476C259.732 87.8787 260.992 87.58 262.448 87.58C263.904 87.58 265.164 87.8787 266.228 88.476C267.311 89.0733 268.141 89.9227 268.72 91.024C269.317 92.1067 269.616 93.404 269.616 94.916C269.616 96.428 269.317 97.7347 268.72 98.836C268.141 99.9373 267.311 100.787 266.228 101.384C265.164 101.981 263.904 102.28 262.448 102.28ZM262.448 99.592C263.549 99.592 264.427 99.2093 265.08 98.444C265.733 97.66 266.06 96.484 266.06 94.916C266.06 93.348 265.733 92.1813 265.08 91.416C264.427 90.6507 263.549 90.268 262.448 90.268C261.347 90.268 260.469 90.6507 259.816 91.416C259.163 92.1813 258.836 93.348 258.836 94.916C258.836 96.484 259.163 97.66 259.816 98.444C260.469 99.2093 261.347 99.592 262.448 99.592ZM272.634 102V91.388C272.634 90.8093 272.616 90.2213 272.578 89.624C272.541 89.0267 272.485 88.4387 272.41 87.86H275.798L276.078 90.66H275.742C276.134 89.6893 276.732 88.9333 277.534 88.392C278.356 87.8507 279.326 87.58 280.446 87.58C281.566 87.58 282.49 87.8507 283.218 88.392C283.965 88.9147 284.488 89.736 284.786 90.856H284.338C284.73 89.848 285.374 89.0547 286.27 88.476C287.166 87.8787 288.193 87.58 289.35 87.58C290.937 87.58 292.122 88.0467 292.906 88.98C293.69 89.9133 294.082 91.3693 294.082 93.348V102H290.582V93.488C290.582 92.368 290.396 91.5653 290.022 91.08C289.649 90.576 289.052 90.324 288.23 90.324C287.26 90.324 286.494 90.6693 285.934 91.36C285.374 92.032 285.094 92.9467 285.094 94.104V102H281.594V93.488C281.594 92.368 281.408 91.5653 281.034 91.08C280.661 90.576 280.064 90.324 279.242 90.324C278.272 90.324 277.506 90.6693 276.946 91.36C276.405 92.032 276.134 92.9467 276.134 94.104V102H272.634ZM304.65 102.28C302.279 102.28 300.422 101.627 299.078 100.32C297.734 99.0133 297.062 97.2213 297.062 94.944C297.062 93.4693 297.351 92.1813 297.93 91.08C298.509 89.9787 299.311 89.12 300.338 88.504C301.383 87.888 302.597 87.58 303.978 87.58C305.341 87.58 306.479 87.8693 307.394 88.448C308.309 89.0267 308.999 89.8387 309.466 90.884C309.951 91.9293 310.194 93.152 310.194 94.552V95.476H299.89V93.628H307.702L307.226 94.02C307.226 92.7133 306.946 91.7147 306.386 91.024C305.845 90.3333 305.051 89.988 304.006 89.988C302.849 89.988 301.953 90.3987 301.318 91.22C300.702 92.0413 300.394 93.1893 300.394 94.664V95.028C300.394 96.5587 300.767 97.7067 301.514 98.472C302.279 99.2187 303.353 99.592 304.734 99.592C305.537 99.592 306.283 99.4893 306.974 99.284C307.683 99.06 308.355 98.7053 308.99 98.22L310.026 100.572C309.354 101.113 308.551 101.533 307.618 101.832C306.685 102.131 305.695 102.28 304.65 102.28ZM327.674 102.28C325.303 102.28 323.446 101.627 322.102 100.32C320.758 99.0133 320.086 97.2213 320.086 94.944C320.086 93.4693 320.375 92.1813 320.954 91.08C321.532 89.9787 322.335 89.12 323.362 88.504C324.407 87.888 325.62 87.58 327.002 87.58C328.364 87.58 329.503 87.8693 330.418 88.448C331.332 89.0267 332.023 89.8387 332.49 90.884C332.975 91.9293 333.218 93.152 333.218 94.552V95.476H322.914V93.628H330.726L330.25 94.02C330.25 92.7133 329.97 91.7147 329.41 91.024C328.868 90.3333 328.075 89.988 327.03 89.988C325.872 89.988 324.976 90.3987 324.342 91.22C323.726 92.0413 323.418 93.1893 323.418 94.664V95.028C323.418 96.5587 323.791 97.7067 324.538 98.472C325.303 99.2187 326.376 99.592 327.758 99.592C328.56 99.592 329.307 99.4893 329.998 99.284C330.707 99.06 331.379 98.7053 332.014 98.22L333.05 100.572C332.378 101.113 331.575 101.533 330.642 101.832C329.708 102.131 328.719 102.28 327.674 102.28ZM340.107 102L334.003 87.86H337.727L342.151 98.92H341.283L345.819 87.86H349.319L343.187 102H340.107ZM357.752 102.28C355.381 102.28 353.524 101.627 352.18 100.32C350.836 99.0133 350.164 97.2213 350.164 94.944C350.164 93.4693 350.453 92.1813 351.032 91.08C351.61 89.9787 352.413 89.12 353.44 88.504C354.485 87.888 355.698 87.58 357.08 87.58C358.442 87.58 359.581 87.8693 360.496 88.448C361.41 89.0267 362.101 89.8387 362.568 90.884C363.053 91.9293 363.296 93.152 363.296 94.552V95.476H352.992V93.628H360.804L360.328 94.02C360.328 92.7133 360.048 91.7147 359.488 91.024C358.946 90.3333 358.153 89.988 357.108 89.988C355.95 89.988 355.054 90.3987 354.42 91.22C353.804 92.0413 353.496 93.1893 353.496 94.664V95.028C353.496 96.5587 353.869 97.7067 354.616 98.472C355.381 99.2187 356.454 99.592 357.836 99.592C358.638 99.592 359.385 99.4893 360.076 99.284C360.785 99.06 361.457 98.7053 362.092 98.22L363.128 100.572C362.456 101.113 361.653 101.533 360.72 101.832C359.786 102.131 358.797 102.28 357.752 102.28ZM366.259 102V91.388C366.259 90.8093 366.241 90.2213 366.203 89.624C366.166 89.0267 366.11 88.4387 366.035 87.86H369.423L369.703 90.66H369.367C369.815 89.6707 370.478 88.9147 371.355 88.392C372.233 87.8507 373.25 87.58 374.407 87.58C376.069 87.58 377.319 88.0467 378.159 88.98C378.999 89.9133 379.419 91.3693 379.419 93.348V102H375.919V93.516C375.919 92.3773 375.695 91.5653 375.247 91.08C374.818 90.576 374.165 90.324 373.287 90.324C372.205 90.324 371.346 90.66 370.711 91.332C370.077 92.004 369.759 92.9 369.759 94.02V102H366.259ZM389.179 102.28C387.499 102.28 386.229 101.841 385.371 100.964C384.512 100.087 384.083 98.7707 384.083 97.016V90.492H381.367V87.86H384.083V84.248L387.583 83.352V87.86H391.363V90.492H387.583V96.792C387.583 97.7627 387.769 98.444 388.143 98.836C388.516 99.228 389.029 99.424 389.683 99.424C390.037 99.424 390.336 99.396 390.579 99.34C390.84 99.284 391.092 99.2093 391.335 99.116V101.888C391.017 102.019 390.663 102.112 390.271 102.168C389.897 102.243 389.533 102.28 389.179 102.28ZM398.78 102.28C397.567 102.28 396.447 102.14 395.42 101.86C394.412 101.561 393.563 101.151 392.872 100.628L393.852 98.276C394.561 98.7613 395.345 99.1347 396.204 99.396C397.063 99.6573 397.931 99.788 398.808 99.788C399.741 99.788 400.432 99.6293 400.88 99.312C401.347 98.9947 401.58 98.5653 401.58 98.024C401.58 97.5947 401.431 97.2587 401.132 97.016C400.852 96.7547 400.395 96.5587 399.76 96.428L396.96 95.896C395.765 95.6347 394.851 95.1867 394.216 94.552C393.6 93.9173 393.292 93.0867 393.292 92.06C393.292 91.1827 393.525 90.408 393.992 89.736C394.477 89.064 395.159 88.5413 396.036 88.168C396.932 87.776 397.977 87.58 399.172 87.58C400.217 87.58 401.197 87.72 402.112 88C403.045 88.28 403.829 88.7 404.464 89.26L403.456 91.528C402.877 91.0613 402.215 90.6973 401.468 90.436C400.721 90.1747 399.993 90.044 399.284 90.044C398.313 90.044 397.604 90.2213 397.156 90.576C396.708 90.912 396.484 91.3507 396.484 91.892C396.484 92.3027 396.615 92.648 396.876 92.928C397.156 93.1893 397.585 93.3853 398.164 93.516L400.964 94.048C402.215 94.2907 403.157 94.72 403.792 95.336C404.445 95.9333 404.772 96.7547 404.772 97.8C404.772 98.7333 404.52 99.536 404.016 100.208C403.512 100.88 402.812 101.393 401.916 101.748C401.02 102.103 399.975 102.28 398.78 102.28ZM416.767 105.724L415.339 104.604C415.936 103.988 416.347 103.409 416.571 102.868C416.814 102.345 416.935 101.785 416.935 101.188L417.691 102H415.059V98.108H418.979V100.684C418.979 101.636 418.811 102.504 418.475 103.288C418.158 104.091 417.588 104.903 416.767 105.724ZM430.08 102V81.392H433.58V90.688H433.188C433.617 89.68 434.28 88.9147 435.176 88.392C436.072 87.8507 437.098 87.58 438.256 87.58C439.936 87.58 441.186 88.056 442.008 89.008C442.829 89.9413 443.24 91.3693 443.24 93.292V102H439.74V93.46C439.74 92.3587 439.525 91.5653 439.096 91.08C438.685 90.576 438.022 90.324 437.108 90.324C436.044 90.324 435.185 90.66 434.532 91.332C433.897 91.9853 433.58 92.8627 433.58 93.964V102H430.08ZM453.783 102.28C451.412 102.28 449.555 101.627 448.211 100.32C446.867 99.0133 446.195 97.2213 446.195 94.944C446.195 93.4693 446.484 92.1813 447.063 91.08C447.642 89.9787 448.444 89.12 449.471 88.504C450.516 87.888 451.73 87.58 453.111 87.58C454.474 87.58 455.612 87.8693 456.527 88.448C457.442 89.0267 458.132 89.8387 458.599 90.884C459.084 91.9293 459.327 93.152 459.327 94.552V95.476H449.023V93.628H456.835L456.359 94.02C456.359 92.7133 456.079 91.7147 455.519 91.024C454.978 90.3333 454.184 89.988 453.139 89.988C451.982 89.988 451.086 90.3987 450.451 91.22C449.835 92.0413 449.527 93.1893 449.527 94.664V95.028C449.527 96.5587 449.9 97.7067 450.647 98.472C451.412 99.2187 452.486 99.592 453.867 99.592C454.67 99.592 455.416 99.4893 456.107 99.284C456.816 99.06 457.488 98.7053 458.123 98.22L459.159 100.572C458.487 101.113 457.684 101.533 456.751 101.832C455.818 102.131 454.828 102.28 453.783 102.28ZM462.291 102V81.392H465.791V102H462.291ZM469.592 108.048V91.388C469.592 90.8093 469.573 90.2213 469.535 89.624C469.498 89.0267 469.442 88.4387 469.368 87.86H472.756L473.064 90.828H472.756C473.036 89.8387 473.624 89.0547 474.52 88.476C475.434 87.8787 476.489 87.58 477.684 87.58C478.934 87.58 480.026 87.8787 480.96 88.476C481.893 89.0547 482.621 89.8947 483.144 90.996C483.666 92.0787 483.928 93.3853 483.928 94.916C483.928 96.4467 483.666 97.7627 483.144 98.864C482.621 99.9653 481.893 100.815 480.96 101.412C480.026 101.991 478.934 102.28 477.684 102.28C476.508 102.28 475.472 101.991 474.576 101.412C473.68 100.833 473.082 100.059 472.784 99.088H473.092V108.048H469.592ZM476.704 99.592C477.824 99.592 478.72 99.2093 479.392 98.444C480.064 97.66 480.4 96.484 480.4 94.916C480.4 93.348 480.064 92.1813 479.392 91.416C478.72 90.6507 477.824 90.268 476.704 90.268C475.602 90.268 474.716 90.6507 474.044 91.416C473.372 92.1813 473.036 93.348 473.036 94.916C473.036 96.484 473.372 97.66 474.044 98.444C474.716 99.2093 475.602 99.592 476.704 99.592ZM499.734 102.28C497.998 102.28 496.701 101.804 495.842 100.852C494.984 99.9 494.554 98.444 494.554 96.484V87.86H498.054V96.456C498.054 97.5013 498.269 98.276 498.698 98.78C499.128 99.2653 499.781 99.508 500.658 99.508C501.648 99.508 502.45 99.172 503.066 98.5C503.701 97.828 504.018 96.9413 504.018 95.84V87.86H507.518V102H504.102V99.116H504.494C504.084 100.124 503.458 100.908 502.618 101.468C501.797 102.009 500.836 102.28 499.734 102.28ZM516.358 102.28C515.145 102.28 514.025 102.14 512.998 101.86C511.99 101.561 511.141 101.151 510.45 100.628L511.43 98.276C512.139 98.7613 512.923 99.1347 513.782 99.396C514.641 99.6573 515.509 99.788 516.386 99.788C517.319 99.788 518.01 99.6293 518.458 99.312C518.925 98.9947 519.158 98.5653 519.158 98.024C519.158 97.5947 519.009 97.2587 518.71 97.016C518.43 96.7547 517.973 96.5587 517.338 96.428L514.538 95.896C513.343 95.6347 512.429 95.1867 511.794 94.552C511.178 93.9173 510.87 93.0867 510.87 92.06C510.87 91.1827 511.103 90.408 511.57 89.736C512.055 89.064 512.737 88.5413 513.614 88.168C514.51 87.776 515.555 87.58 516.75 87.58C517.795 87.58 518.775 87.72 519.69 88C520.623 88.28 521.407 88.7 522.042 89.26L521.034 91.528C520.455 91.0613 519.793 90.6973 519.046 90.436C518.299 90.1747 517.571 90.044 516.862 90.044C515.891 90.044 515.182 90.2213 514.734 90.576C514.286 90.912 514.062 91.3507 514.062 91.892C514.062 92.3027 514.193 92.648 514.454 92.928C514.734 93.1893 515.163 93.3853 515.742 93.516L518.542 94.048C519.793 94.2907 520.735 94.72 521.37 95.336C522.023 95.9333 522.35 96.7547 522.35 97.8C522.35 98.7333 522.098 99.536 521.594 100.208C521.09 100.88 520.39 101.393 519.494 101.748C518.598 102.103 517.553 102.28 516.358 102.28ZM541.121 102.28C539.926 102.28 538.881 101.991 537.985 101.412C537.089 100.815 536.492 100.012 536.193 99.004H536.501V102H533.029V81.392H536.529V90.744H536.193C536.51 89.7733 537.117 89.008 538.013 88.448C538.909 87.8693 539.945 87.58 541.121 87.58C542.372 87.58 543.464 87.8787 544.397 88.476C545.33 89.0733 546.058 89.9227 546.581 91.024C547.104 92.1067 547.365 93.4133 547.365 94.944C547.365 96.4747 547.104 97.7907 546.581 98.892C546.058 99.9747 545.321 100.815 544.369 101.412C543.436 101.991 542.353 102.28 541.121 102.28ZM540.141 99.592C541.242 99.592 542.129 99.2093 542.801 98.444C543.492 97.6787 543.837 96.512 543.837 94.944C543.837 93.376 543.492 92.2093 542.801 91.444C542.129 90.66 541.242 90.268 540.141 90.268C539.04 90.268 538.153 90.6507 537.481 91.416C536.809 92.1813 536.473 93.348 536.473 94.916C536.473 96.484 536.809 97.66 537.481 98.444C538.153 99.2093 539.04 99.592 540.141 99.592ZM549.839 108.356L549.027 105.584C549.904 105.397 550.642 105.183 551.239 104.94C551.836 104.697 552.331 104.38 552.723 103.988C553.115 103.596 553.442 103.092 553.703 102.476L554.403 100.824L554.319 102.196L548.159 87.86H551.883L556.307 98.892H555.495L559.947 87.86H563.475L557.035 102.784C556.606 103.792 556.139 104.623 555.635 105.276C555.131 105.948 554.59 106.48 554.011 106.872C553.432 107.283 552.798 107.6 552.107 107.824C551.416 108.048 550.66 108.225 549.839 108.356ZM6.944 137.28C5.73067 137.28 4.61067 137.14 3.584 136.86C2.576 136.561 1.72667 136.151 1.036 135.628L2.016 133.276C2.72533 133.761 3.50933 134.135 4.368 134.396C5.22667 134.657 6.09467 134.788 6.972 134.788C7.90533 134.788 8.596 134.629 9.044 134.312C9.51067 133.995 9.744 133.565 9.744 133.024C9.744 132.595 9.59467 132.259 9.296 132.016C9.016 131.755 8.55867 131.559 7.924 131.428L5.124 130.896C3.92933 130.635 3.01467 130.187 2.38 129.552C1.764 128.917 1.456 128.087 1.456 127.06C1.456 126.183 1.68933 125.408 2.156 124.736C2.64133 124.064 3.32267 123.541 4.2 123.168C5.096 122.776 6.14133 122.58 7.336 122.58C8.38133 122.58 9.36133 122.72 10.276 123C11.2093 123.28 11.9933 123.7 12.628 124.26L11.62 126.528C11.0413 126.061 10.3787 125.697 9.632 125.436C8.88533 125.175 8.15733 125.044 7.448 125.044C6.47733 125.044 5.768 125.221 5.32 125.576C4.872 125.912 4.648 126.351 4.648 126.892C4.648 127.303 4.77867 127.648 5.04 127.928C5.32 128.189 5.74933 128.385 6.328 128.516L9.128 129.048C10.3787 129.291 11.3213 129.72 11.956 130.336C12.6093 130.933 12.936 131.755 12.936 132.8C12.936 133.733 12.684 134.536 12.18 135.208C11.676 135.88 10.976 136.393 10.08 136.748C9.184 137.103 8.13867 137.28 6.944 137.28ZM15.9313 137V116.392H19.4313V125.688H19.0393C19.4687 124.68 20.1313 123.915 21.0273 123.392C21.9233 122.851 22.95 122.58 24.1073 122.58C25.7873 122.58 27.038 123.056 27.8593 124.008C28.6807 124.941 29.0913 126.369 29.0913 128.292V137H25.5913V128.46C25.5913 127.359 25.3767 126.565 24.9473 126.08C24.5367 125.576 23.874 125.324 22.9593 125.324C21.8953 125.324 21.0367 125.66 20.3833 126.332C19.7487 126.985 19.4313 127.863 19.4313 128.964V137H15.9313ZM38.2624 137.28C37.0304 137.28 35.9478 136.991 35.0144 136.412C34.0811 135.815 33.3531 134.965 32.8304 133.864C32.3078 132.763 32.0464 131.447 32.0464 129.916C32.0464 128.385 32.3078 127.079 32.8304 125.996C33.3531 124.895 34.0811 124.055 35.0144 123.476C35.9478 122.879 37.0304 122.58 38.2624 122.58C39.4571 122.58 40.5024 122.879 41.3984 123.476C42.3131 124.055 42.9198 124.839 43.2184 125.828H42.9104L43.2184 122.86H46.5784C46.5224 123.439 46.4664 124.027 46.4104 124.624C46.3731 125.221 46.3544 125.809 46.3544 126.388V137H42.8824L42.8544 134.088H43.1904C42.8918 135.059 42.2851 135.833 41.3704 136.412C40.4558 136.991 39.4198 137.28 38.2624 137.28ZM39.2424 134.592C40.3438 134.592 41.2304 134.209 41.9024 133.444C42.5744 132.66 42.9104 131.484 42.9104 129.916C42.9104 128.348 42.5744 127.181 41.9024 126.416C41.2304 125.651 40.3438 125.268 39.2424 125.268C38.1411 125.268 37.2544 125.651 36.5824 126.416C35.9104 127.181 35.5744 128.348 35.5744 129.916C35.5744 131.484 35.9011 132.66 36.5544 133.444C37.2264 134.209 38.1224 134.592 39.2424 134.592ZM50.1377 137V126.472C50.1377 125.875 50.1191 125.268 50.0817 124.652C50.0631 124.036 50.0164 123.439 49.9417 122.86H53.3297L53.7217 126.724H53.1617C53.3484 125.791 53.6564 125.016 54.0857 124.4C54.5337 123.784 55.0751 123.327 55.7097 123.028C56.3444 122.729 57.0351 122.58 57.7817 122.58C58.1177 122.58 58.3884 122.599 58.5937 122.636C58.7991 122.655 59.0044 122.701 59.2097 122.776L59.1817 125.856C58.8271 125.707 58.5191 125.613 58.2577 125.576C58.0151 125.539 57.7071 125.52 57.3337 125.52C56.5311 125.52 55.8497 125.688 55.2897 126.024C54.7484 126.36 54.3377 126.827 54.0577 127.424C53.7964 128.021 53.6657 128.703 53.6657 129.468V137H50.1377ZM61.1579 137V122.86H64.6579V137H61.1579ZM60.9619 120.2V116.784H64.8539V120.2H60.9619ZM68.4587 137V126.388C68.4587 125.809 68.44 125.221 68.4027 124.624C68.3654 124.027 68.3094 123.439 68.2347 122.86H71.6227L71.9027 125.66H71.5667C72.0147 124.671 72.6774 123.915 73.5547 123.392C74.432 122.851 75.4494 122.58 76.6067 122.58C78.268 122.58 79.5187 123.047 80.3587 123.98C81.1987 124.913 81.6187 126.369 81.6187 128.348V137H78.1187V128.516C78.1187 127.377 77.8947 126.565 77.4467 126.08C77.0174 125.576 76.364 125.324 75.4867 125.324C74.404 125.324 73.5454 125.66 72.9107 126.332C72.276 127.004 71.9587 127.9 71.9587 129.02V137H68.4587ZM91.8818 143.272C90.5751 143.272 89.3898 143.132 88.3258 142.852C87.2804 142.572 86.3471 142.143 85.5258 141.564L86.2818 139.044C86.8231 139.399 87.3831 139.688 87.9618 139.912C88.5404 140.136 89.1378 140.304 89.7538 140.416C90.3698 140.528 90.9951 140.584 91.6298 140.584C92.9364 140.584 93.9071 140.257 94.5418 139.604C95.1951 138.969 95.5218 138.055 95.5218 136.86V133.472H95.8018C95.5031 134.443 94.8964 135.217 93.9818 135.796C93.0858 136.375 92.0498 136.664 90.8738 136.664C89.6044 136.664 88.4938 136.384 87.5418 135.824C86.6084 135.245 85.8804 134.424 85.3578 133.36C84.8351 132.296 84.5738 131.045 84.5738 129.608C84.5738 128.171 84.8351 126.929 85.3578 125.884C85.8804 124.82 86.6084 124.008 87.5418 123.448C88.4938 122.869 89.6044 122.58 90.8738 122.58C92.0684 122.58 93.1044 122.869 93.9818 123.448C94.8778 124.008 95.4751 124.773 95.7738 125.744L95.5218 125.576L95.8018 122.86H99.1898C99.1151 123.439 99.0591 124.027 99.0218 124.624C98.9844 125.221 98.9658 125.809 98.9658 126.388V136.44C98.9658 138.661 98.3591 140.351 97.1458 141.508C95.9511 142.684 94.1964 143.272 91.8818 143.272ZM91.8258 133.976C92.9458 133.976 93.8324 133.603 94.4858 132.856C95.1578 132.091 95.4938 131.008 95.4938 129.608C95.4938 128.208 95.1578 127.135 94.4858 126.388C93.8324 125.641 92.9458 125.268 91.8258 125.268C90.6871 125.268 89.7818 125.641 89.1098 126.388C88.4378 127.135 88.1018 128.208 88.1018 129.608C88.1018 131.008 88.4378 132.091 89.1098 132.856C89.7818 133.603 90.6871 133.976 91.8258 133.976ZM115.471 137.28C114.258 137.28 113.138 137.14 112.111 136.86C111.103 136.561 110.254 136.151 109.563 135.628L110.543 133.276C111.253 133.761 112.037 134.135 112.895 134.396C113.754 134.657 114.622 134.788 115.499 134.788C116.433 134.788 117.123 134.629 117.571 134.312C118.038 133.995 118.271 133.565 118.271 133.024C118.271 132.595 118.122 132.259 117.823 132.016C117.543 131.755 117.086 131.559 116.451 131.428L113.651 130.896C112.457 130.635 111.542 130.187 110.907 129.552C110.291 128.917 109.983 128.087 109.983 127.06C109.983 126.183 110.217 125.408 110.683 124.736C111.169 124.064 111.85 123.541 112.727 123.168C113.623 122.776 114.669 122.58 115.863 122.58C116.909 122.58 117.889 122.72 118.803 123C119.737 123.28 120.521 123.7 121.155 124.26L120.147 126.528C119.569 126.061 118.906 125.697 118.159 125.436C117.413 125.175 116.685 125.044 115.975 125.044C115.005 125.044 114.295 125.221 113.847 125.576C113.399 125.912 113.175 126.351 113.175 126.892C113.175 127.303 113.306 127.648 113.567 127.928C113.847 128.189 114.277 128.385 114.855 128.516L117.655 129.048C118.906 129.291 119.849 129.72 120.483 130.336C121.137 130.933 121.463 131.755 121.463 132.8C121.463 133.733 121.211 134.536 120.707 135.208C120.203 135.88 119.503 136.393 118.607 136.748C117.711 137.103 116.666 137.28 115.471 137.28ZM130.843 137.28C129.387 137.28 128.127 136.981 127.063 136.384C125.999 135.787 125.168 134.937 124.571 133.836C123.992 132.735 123.703 131.428 123.703 129.916C123.703 128.404 123.992 127.107 124.571 126.024C125.168 124.923 125.999 124.073 127.063 123.476C128.127 122.879 129.387 122.58 130.843 122.58C132.299 122.58 133.559 122.879 134.623 123.476C135.705 124.073 136.536 124.923 137.115 126.024C137.712 127.107 138.011 128.404 138.011 129.916C138.011 131.428 137.712 132.735 137.115 133.836C136.536 134.937 135.705 135.787 134.623 136.384C133.559 136.981 132.299 137.28 130.843 137.28ZM130.843 134.592C131.944 134.592 132.821 134.209 133.475 133.444C134.128 132.66 134.455 131.484 134.455 129.916C134.455 128.348 134.128 127.181 133.475 126.416C132.821 125.651 131.944 125.268 130.843 125.268C129.741 125.268 128.864 125.651 128.211 126.416C127.557 127.181 127.231 128.348 127.231 129.916C127.231 131.484 127.557 132.66 128.211 133.444C128.864 134.209 129.741 134.592 130.843 134.592ZM141.029 137V126.388C141.029 125.809 141.01 125.221 140.973 124.624C140.936 124.027 140.88 123.439 140.805 122.86H144.193L144.473 125.66H144.137C144.529 124.689 145.126 123.933 145.929 123.392C146.75 122.851 147.721 122.58 148.841 122.58C149.961 122.58 150.885 122.851 151.613 123.392C152.36 123.915 152.882 124.736 153.181 125.856H152.733C153.125 124.848 153.769 124.055 154.665 123.476C155.561 122.879 156.588 122.58 157.745 122.58C159.332 122.58 160.517 123.047 161.301 123.98C162.085 124.913 162.477 126.369 162.477 128.348V137H158.977V128.488C158.977 127.368 158.79 126.565 158.417 126.08C158.044 125.576 157.446 125.324 156.625 125.324C155.654 125.324 154.889 125.669 154.329 126.36C153.769 127.032 153.489 127.947 153.489 129.104V137H149.989V128.488C149.989 127.368 149.802 126.565 149.429 126.08C149.056 125.576 148.458 125.324 147.637 125.324C146.666 125.324 145.901 125.669 145.341 126.36C144.8 127.032 144.529 127.947 144.529 129.104V137H141.029ZM173.045 137.28C170.674 137.28 168.817 136.627 167.473 135.32C166.129 134.013 165.457 132.221 165.457 129.944C165.457 128.469 165.746 127.181 166.325 126.08C166.903 124.979 167.706 124.12 168.733 123.504C169.778 122.888 170.991 122.58 172.373 122.58C173.735 122.58 174.874 122.869 175.789 123.448C176.703 124.027 177.394 124.839 177.861 125.884C178.346 126.929 178.589 128.152 178.589 129.552V130.476H168.285V128.628H176.097L175.621 129.02C175.621 127.713 175.341 126.715 174.781 126.024C174.239 125.333 173.446 124.988 172.401 124.988C171.243 124.988 170.347 125.399 169.713 126.22C169.097 127.041 168.789 128.189 168.789 129.664V130.028C168.789 131.559 169.162 132.707 169.909 133.472C170.674 134.219 171.747 134.592 173.129 134.592C173.931 134.592 174.678 134.489 175.369 134.284C176.078 134.06 176.75 133.705 177.385 133.22L178.421 135.572C177.749 136.113 176.946 136.533 176.013 136.832C175.079 137.131 174.09 137.28 173.045 137.28ZM189.236 137V116.392H192.736V137H189.236ZM202.921 137.28C201.465 137.28 200.205 136.981 199.141 136.384C198.077 135.787 197.246 134.937 196.649 133.836C196.07 132.735 195.781 131.428 195.781 129.916C195.781 128.404 196.07 127.107 196.649 126.024C197.246 124.923 198.077 124.073 199.141 123.476C200.205 122.879 201.465 122.58 202.921 122.58C204.377 122.58 205.637 122.879 206.701 123.476C207.783 124.073 208.614 124.923 209.193 126.024C209.79 127.107 210.089 128.404 210.089 129.916C210.089 131.428 209.79 132.735 209.193 133.836C208.614 134.937 207.783 135.787 206.701 136.384C205.637 136.981 204.377 137.28 202.921 137.28ZM202.921 134.592C204.022 134.592 204.899 134.209 205.553 133.444C206.206 132.66 206.533 131.484 206.533 129.916C206.533 128.348 206.206 127.181 205.553 126.416C204.899 125.651 204.022 125.268 202.921 125.268C201.819 125.268 200.942 125.651 200.289 126.416C199.635 127.181 199.309 128.348 199.309 129.916C199.309 131.484 199.635 132.66 200.289 133.444C200.942 134.209 201.819 134.592 202.921 134.592ZM216.978 137L210.874 122.86H214.598L219.022 133.92H218.154L222.69 122.86H226.19L220.058 137H216.978ZM234.623 137.28C232.252 137.28 230.395 136.627 229.051 135.32C227.707 134.013 227.035 132.221 227.035 129.944C227.035 128.469 227.324 127.181 227.903 126.08C228.481 124.979 229.284 124.12 230.311 123.504C231.356 122.888 232.569 122.58 233.951 122.58C235.313 122.58 236.452 122.869 237.367 123.448C238.281 124.027 238.972 124.839 239.439 125.884C239.924 126.929 240.167 128.152 240.167 129.552V130.476H229.863V128.628H237.675L237.199 129.02C237.199 127.713 236.919 126.715 236.359 126.024C235.817 125.333 235.024 124.988 233.979 124.988C232.821 124.988 231.925 125.399 231.291 126.22C230.675 127.041 230.367 128.189 230.367 129.664V130.028C230.367 131.559 230.74 132.707 231.487 133.472C232.252 134.219 233.325 134.592 234.707 134.592C235.509 134.592 236.256 134.489 236.947 134.284C237.656 134.06 238.328 133.705 238.963 133.22L239.999 135.572C239.327 136.113 238.524 136.533 237.591 136.832C236.657 137.131 235.668 137.28 234.623 137.28ZM257.198 137.28C255.742 137.28 254.482 136.981 253.418 136.384C252.354 135.787 251.523 134.937 250.926 133.836C250.347 132.735 250.058 131.428 250.058 129.916C250.058 128.404 250.347 127.107 250.926 126.024C251.523 124.923 252.354 124.073 253.418 123.476C254.482 122.879 255.742 122.58 257.198 122.58C258.654 122.58 259.914 122.879 260.978 123.476C262.061 124.073 262.891 124.923 263.47 126.024C264.067 127.107 264.366 128.404 264.366 129.916C264.366 131.428 264.067 132.735 263.47 133.836C262.891 134.937 262.061 135.787 260.978 136.384C259.914 136.981 258.654 137.28 257.198 137.28ZM257.198 134.592C258.299 134.592 259.177 134.209 259.83 133.444C260.483 132.66 260.81 131.484 260.81 129.916C260.81 128.348 260.483 127.181 259.83 126.416C259.177 125.651 258.299 125.268 257.198 125.268C256.097 125.268 255.219 125.651 254.566 126.416C253.913 127.181 253.586 128.348 253.586 129.916C253.586 131.484 253.913 132.66 254.566 133.444C255.219 134.209 256.097 134.592 257.198 134.592ZM267.356 137V126.472C267.356 125.875 267.338 125.268 267.3 124.652C267.282 124.036 267.235 123.439 267.16 122.86H270.548L270.94 126.724H270.38C270.567 125.791 270.875 125.016 271.304 124.4C271.752 123.784 272.294 123.327 272.928 123.028C273.563 122.729 274.254 122.58 275 122.58C275.336 122.58 275.607 122.599 275.812 122.636C276.018 122.655 276.223 122.701 276.428 122.776L276.4 125.856C276.046 125.707 275.738 125.613 275.476 125.576C275.234 125.539 274.926 125.52 274.552 125.52C273.75 125.52 273.068 125.688 272.508 126.024C271.967 126.36 271.556 126.827 271.276 127.424C271.015 128.021 270.884 128.703 270.884 129.468V137H267.356ZM292.892 137.28C290.522 137.28 288.664 136.627 287.32 135.32C285.976 134.013 285.304 132.221 285.304 129.944C285.304 128.469 285.594 127.181 286.172 126.08C286.751 124.979 287.554 124.12 288.58 123.504C289.626 122.888 290.839 122.58 292.22 122.58C293.583 122.58 294.722 122.869 295.636 123.448C296.551 124.027 297.242 124.839 297.708 125.884C298.194 126.929 298.436 128.152 298.436 129.552V130.476H288.132V128.628H295.944L295.468 129.02C295.468 127.713 295.188 126.715 294.628 126.024C294.087 125.333 293.294 124.988 292.248 124.988C291.091 124.988 290.195 125.399 289.56 126.22C288.944 127.041 288.636 128.189 288.636 129.664V130.028C288.636 131.559 289.01 132.707 289.756 133.472C290.522 134.219 291.595 134.592 292.976 134.592C293.779 134.592 294.526 134.489 295.216 134.284C295.926 134.06 296.598 133.705 297.232 133.22L298.268 135.572C297.596 136.113 296.794 136.533 295.86 136.832C294.927 137.131 293.938 137.28 292.892 137.28ZM299.134 137L305.714 128.908V130.504L299.498 122.86H303.642L307.702 128.096H306.442L310.502 122.86H314.618L308.458 130.504V128.908L315.01 137H310.838L306.442 131.372H307.702L303.278 137H299.134ZM316.685 143.048V126.388C316.685 125.809 316.667 125.221 316.629 124.624C316.592 124.027 316.536 123.439 316.461 122.86H319.849L320.157 125.828H319.849C320.129 124.839 320.717 124.055 321.613 123.476C322.528 122.879 323.583 122.58 324.777 122.58C326.028 122.58 327.12 122.879 328.053 123.476C328.987 124.055 329.715 124.895 330.237 125.996C330.76 127.079 331.021 128.385 331.021 129.916C331.021 131.447 330.76 132.763 330.237 133.864C329.715 134.965 328.987 135.815 328.053 136.412C327.12 136.991 326.028 137.28 324.777 137.28C323.601 137.28 322.565 136.991 321.669 136.412C320.773 135.833 320.176 135.059 319.877 134.088H320.185V143.048H316.685ZM323.797 134.592C324.917 134.592 325.813 134.209 326.485 133.444C327.157 132.66 327.493 131.484 327.493 129.916C327.493 128.348 327.157 127.181 326.485 126.416C325.813 125.651 324.917 125.268 323.797 125.268C322.696 125.268 321.809 125.651 321.137 126.416C320.465 127.181 320.129 128.348 320.129 129.916C320.129 131.484 320.465 132.66 321.137 133.444C321.809 134.209 322.696 134.592 323.797 134.592ZM334.049 137V116.392H337.549V137H334.049ZM347.733 137.28C346.277 137.28 345.017 136.981 343.953 136.384C342.889 135.787 342.059 134.937 341.461 133.836C340.883 132.735 340.593 131.428 340.593 129.916C340.593 128.404 340.883 127.107 341.461 126.024C342.059 124.923 342.889 124.073 343.953 123.476C345.017 122.879 346.277 122.58 347.733 122.58C349.189 122.58 350.449 122.879 351.513 123.476C352.596 124.073 353.427 124.923 354.005 126.024C354.603 127.107 354.901 128.404 354.901 129.916C354.901 131.428 354.603 132.735 354.005 133.836C353.427 134.937 352.596 135.787 351.513 136.384C350.449 136.981 349.189 137.28 347.733 137.28ZM347.733 134.592C348.835 134.592 349.712 134.209 350.365 133.444C351.019 132.66 351.345 131.484 351.345 129.916C351.345 128.348 351.019 127.181 350.365 126.416C349.712 125.651 348.835 125.268 347.733 125.268C346.632 125.268 345.755 125.651 345.101 126.416C344.448 127.181 344.121 128.348 344.121 129.916C344.121 131.484 344.448 132.66 345.101 133.444C345.755 134.209 346.632 134.592 347.733 134.592ZM357.892 137V126.472C357.892 125.875 357.873 125.268 357.836 124.652C357.817 124.036 357.77 123.439 357.696 122.86H361.084L361.476 126.724H360.916C361.102 125.791 361.41 125.016 361.84 124.4C362.288 123.784 362.829 123.327 363.464 123.028C364.098 122.729 364.789 122.58 365.536 122.58C365.872 122.58 366.142 122.599 366.348 122.636C366.553 122.655 366.758 122.701 366.964 122.776L366.936 125.856C366.581 125.707 366.273 125.613 366.012 125.576C365.769 125.539 365.461 125.52 365.088 125.52C364.285 125.52 363.604 125.688 363.044 126.024C362.502 126.36 362.092 126.827 361.812 127.424C361.55 128.021 361.42 128.703 361.42 129.468V137H357.892ZM375.525 137.28C373.154 137.28 371.297 136.627 369.953 135.32C368.609 134.013 367.937 132.221 367.937 129.944C367.937 128.469 368.226 127.181 368.805 126.08C369.384 124.979 370.186 124.12 371.213 123.504C372.258 122.888 373.472 122.58 374.853 122.58C376.216 122.58 377.354 122.869 378.269 123.448C379.184 124.027 379.874 124.839 380.341 125.884C380.826 126.929 381.069 128.152 381.069 129.552V130.476H370.765V128.628H378.577L378.101 129.02C378.101 127.713 377.821 126.715 377.261 126.024C376.72 125.333 375.926 124.988 374.881 124.988C373.724 124.988 372.828 125.399 372.193 126.22C371.577 127.041 371.269 128.189 371.269 129.664V130.028C371.269 131.559 371.642 132.707 372.389 133.472C373.154 134.219 374.228 134.592 375.609 134.592C376.412 134.592 377.158 134.489 377.849 134.284C378.558 134.06 379.23 133.705 379.865 133.22L380.901 135.572C380.229 136.113 379.426 136.533 378.493 136.832C377.56 137.131 376.57 137.28 375.525 137.28ZM391.717 137V126.388C391.717 125.809 391.698 125.221 391.66 124.624C391.623 124.027 391.567 123.439 391.493 122.86H394.881L395.161 125.66H394.825C395.217 124.689 395.814 123.933 396.617 123.392C397.438 122.851 398.409 122.58 399.529 122.58C400.649 122.58 401.573 122.851 402.301 123.392C403.047 123.915 403.57 124.736 403.869 125.856H403.421C403.813 124.848 404.457 124.055 405.353 123.476C406.249 122.879 407.275 122.58 408.433 122.58C410.019 122.58 411.205 123.047 411.989 123.98C412.773 124.913 413.165 126.369 413.165 128.348V137H409.665V128.488C409.665 127.368 409.478 126.565 409.105 126.08C408.731 125.576 408.134 125.324 407.312 125.324C406.342 125.324 405.577 125.669 405.017 126.36C404.457 127.032 404.177 127.947 404.177 129.104V137H400.677V128.488C400.677 127.368 400.49 126.565 400.117 126.08C399.743 125.576 399.146 125.324 398.325 125.324C397.354 125.324 396.589 125.669 396.029 126.36C395.487 127.032 395.217 127.947 395.217 129.104V137H391.717ZM423.284 137.28C421.828 137.28 420.568 136.981 419.504 136.384C418.44 135.787 417.609 134.937 417.012 133.836C416.433 132.735 416.144 131.428 416.144 129.916C416.144 128.404 416.433 127.107 417.012 126.024C417.609 124.923 418.44 124.073 419.504 123.476C420.568 122.879 421.828 122.58 423.284 122.58C424.74 122.58 426 122.879 427.064 123.476C428.147 124.073 428.977 124.923 429.556 126.024C430.153 127.107 430.452 128.404 430.452 129.916C430.452 131.428 430.153 132.735 429.556 133.836C428.977 134.937 428.147 135.787 427.064 136.384C426 136.981 424.74 137.28 423.284 137.28ZM423.284 134.592C424.385 134.592 425.263 134.209 425.916 133.444C426.569 132.66 426.896 131.484 426.896 129.916C426.896 128.348 426.569 127.181 425.916 126.416C425.263 125.651 424.385 125.268 423.284 125.268C422.183 125.268 421.305 125.651 420.652 126.416C419.999 127.181 419.672 128.348 419.672 129.916C419.672 131.484 419.999 132.66 420.652 133.444C421.305 134.209 422.183 134.592 423.284 134.592ZM433.442 137V126.472C433.442 125.875 433.424 125.268 433.386 124.652C433.368 124.036 433.321 123.439 433.246 122.86H436.634L437.026 126.724H436.466C436.653 125.791 436.961 125.016 437.39 124.4C437.838 123.784 438.38 123.327 439.014 123.028C439.649 122.729 440.34 122.58 441.086 122.58C441.422 122.58 441.693 122.599 441.898 122.636C442.104 122.655 442.309 122.701 442.514 122.776L442.486 125.856C442.132 125.707 441.824 125.613 441.562 125.576C441.32 125.539 441.012 125.52 440.638 125.52C439.836 125.52 439.154 125.688 438.594 126.024C438.053 126.36 437.642 126.827 437.362 127.424C437.101 128.021 436.97 128.703 436.97 129.468V137H433.442ZM451.076 137.28C448.705 137.28 446.848 136.627 445.504 135.32C444.16 134.013 443.488 132.221 443.488 129.944C443.488 128.469 443.777 127.181 444.356 126.08C444.935 124.979 445.737 124.12 446.764 123.504C447.809 122.888 449.023 122.58 450.404 122.58C451.767 122.58 452.905 122.869 453.82 123.448C454.735 124.027 455.425 124.839 455.892 125.884C456.377 126.929 456.62 128.152 456.62 129.552V130.476H446.316V128.628H454.128L453.652 129.02C453.652 127.713 453.372 126.715 452.812 126.024C452.271 125.333 451.477 124.988 450.432 124.988C449.275 124.988 448.379 125.399 447.744 126.22C447.128 127.041 446.82 128.189 446.82 129.664V130.028C446.82 131.559 447.193 132.707 447.94 133.472C448.705 134.219 449.779 134.592 451.16 134.592C451.963 134.592 452.709 134.489 453.4 134.284C454.109 134.06 454.781 133.705 455.416 133.22L456.452 135.572C455.78 136.113 454.977 136.533 454.044 136.832C453.111 137.131 452.121 137.28 451.076 137.28ZM471.187 137L465.671 122.86H469.283L473.259 133.864H472.531L476.563 122.86H479.055L483.059 133.864H482.415L486.363 122.86H489.779L484.263 137H481.183L476.955 125.744H478.439L474.295 137H471.187ZM491.986 137V122.86H495.486V137H491.986ZM491.79 120.2V116.784H495.682V120.2H491.79ZM505.335 137.28C503.655 137.28 502.385 136.841 501.527 135.964C500.668 135.087 500.239 133.771 500.239 132.016V125.492H497.523V122.86H500.239V119.248L503.739 118.352V122.86H507.519V125.492H503.739V131.792C503.739 132.763 503.925 133.444 504.299 133.836C504.672 134.228 505.185 134.424 505.839 134.424C506.193 134.424 506.492 134.396 506.735 134.34C506.996 134.284 507.248 134.209 507.491 134.116V136.888C507.173 137.019 506.819 137.112 506.427 137.168C506.053 137.243 505.689 137.28 505.335 137.28ZM509.896 137V116.392H513.396V125.688H513.004C513.434 124.68 514.096 123.915 514.992 123.392C515.888 122.851 516.915 122.58 518.072 122.58C519.752 122.58 521.003 123.056 521.824 124.008C522.646 124.941 523.056 126.369 523.056 128.292V137H519.556V128.46C519.556 127.359 519.342 126.565 518.912 126.08C518.502 125.576 517.839 125.324 516.924 125.324C515.86 125.324 515.002 125.66 514.348 126.332C513.714 126.985 513.396 127.863 513.396 128.964V137H509.896ZM540.499 137.28C538.819 137.28 537.55 136.841 536.691 135.964C535.832 135.087 535.403 133.771 535.403 132.016V125.492H532.687V122.86H535.403V119.248L538.903 118.352V122.86H542.683V125.492H538.903V131.792C538.903 132.763 539.09 133.444 539.463 133.836C539.836 134.228 540.35 134.424 541.003 134.424C541.358 134.424 541.656 134.396 541.899 134.34C542.16 134.284 542.412 134.209 542.655 134.116V136.888C542.338 137.019 541.983 137.112 541.591 137.168C541.218 137.243 540.854 137.28 540.499 137.28ZM545.06 137V116.392H548.56V125.688H548.168C548.598 124.68 549.26 123.915 550.156 123.392C551.052 122.851 552.079 122.58 553.236 122.58C554.916 122.58 556.167 123.056 556.988 124.008C557.81 124.941 558.22 126.369 558.22 128.292V137H554.72V128.46C554.72 127.359 554.506 126.565 554.076 126.08C553.666 125.576 553.003 125.324 552.088 125.324C551.024 125.324 550.166 125.66 549.512 126.332C548.878 126.985 548.56 127.863 548.56 128.964V137H545.06ZM568.763 137.28C566.393 137.28 564.535 136.627 563.191 135.32C561.847 134.013 561.175 132.221 561.175 129.944C561.175 128.469 561.465 127.181 562.043 126.08C562.622 124.979 563.425 124.12 564.451 123.504C565.497 122.888 566.71 122.58 568.091 122.58C569.454 122.58 570.593 122.869 571.507 123.448C572.422 124.027 573.113 124.839 573.579 125.884C574.065 126.929 574.307 128.152 574.307 129.552V130.476H564.003V128.628H571.815L571.339 129.02C571.339 127.713 571.059 126.715 570.499 126.024C569.958 125.333 569.165 124.988 568.119 124.988C566.962 124.988 566.066 125.399 565.431 126.22C564.815 127.041 564.507 128.189 564.507 129.664V130.028C564.507 131.559 564.881 132.707 565.627 133.472C566.393 134.219 567.466 134.592 568.847 134.592C569.65 134.592 570.397 134.489 571.087 134.284C571.797 134.06 572.469 133.705 573.103 133.22L574.139 135.572C573.467 136.113 572.665 136.533 571.731 136.832C570.798 137.131 569.809 137.28 568.763 137.28ZM1.904 172V151.392H5.404V160.688H5.012C5.44133 159.68 6.104 158.915 7 158.392C7.896 157.851 8.92267 157.58 10.08 157.58C11.76 157.58 13.0107 158.056 13.832 159.008C14.6533 159.941 15.064 161.369 15.064 163.292V172H11.564V163.46C11.564 162.359 11.3493 161.565 10.92 161.08C10.5093 160.576 9.84667 160.324 8.932 160.324C7.868 160.324 7.00933 160.66 6.356 161.332C5.72133 161.985 5.404 162.863 5.404 163.964V172H1.904ZM24.2351 172.28C23.0031 172.28 21.9204 171.991 20.9871 171.412C20.0538 170.815 19.3258 169.965 18.8031 168.864C18.2804 167.763 18.0191 166.447 18.0191 164.916C18.0191 163.385 18.2804 162.079 18.8031 160.996C19.3258 159.895 20.0538 159.055 20.9871 158.476C21.9204 157.879 23.0031 157.58 24.2351 157.58C25.4298 157.58 26.4751 157.879 27.3711 158.476C28.2858 159.055 28.8924 159.839 29.1911 160.828H28.8831L29.1911 157.86H32.5511C32.4951 158.439 32.4391 159.027 32.3831 159.624C32.3458 160.221 32.3271 160.809 32.3271 161.388V172H28.8551L28.8271 169.088H29.1631C28.8644 170.059 28.2578 170.833 27.3431 171.412C26.4284 171.991 25.3924 172.28 24.2351 172.28ZM25.2151 169.592C26.3164 169.592 27.2031 169.209 27.8751 168.444C28.5471 167.66 28.8831 166.484 28.8831 164.916C28.8831 163.348 28.5471 162.181 27.8751 161.416C27.2031 160.651 26.3164 160.268 25.2151 160.268C24.1138 160.268 23.2271 160.651 22.5551 161.416C21.8831 162.181 21.5471 163.348 21.5471 164.916C21.5471 166.484 21.8738 167.66 22.5271 168.444C23.1991 169.209 24.0951 169.592 25.2151 169.592ZM36.1104 172V161.472C36.1104 160.875 36.0917 160.268 36.0544 159.652C36.0357 159.036 35.989 158.439 35.9144 157.86H39.3024L39.6944 161.724H39.1344C39.321 160.791 39.629 160.016 40.0584 159.4C40.5064 158.784 41.0477 158.327 41.6824 158.028C42.317 157.729 43.0077 157.58 43.7544 157.58C44.0904 157.58 44.361 157.599 44.5664 157.636C44.7717 157.655 44.977 157.701 45.1824 157.776L45.1544 160.856C44.7997 160.707 44.4917 160.613 44.2304 160.576C43.9877 160.539 43.6797 160.52 43.3064 160.52C42.5037 160.52 41.8224 160.688 41.2624 161.024C40.721 161.36 40.3104 161.827 40.0304 162.424C39.769 163.021 39.6384 163.703 39.6384 164.468V172H36.1104ZM52.3998 172.28C51.1678 172.28 50.0758 171.991 49.1238 171.412C48.1905 170.815 47.4625 169.965 46.9398 168.864C46.4171 167.763 46.1558 166.447 46.1558 164.916C46.1558 163.385 46.4171 162.079 46.9398 160.996C47.4625 159.895 48.1905 159.055 49.1238 158.476C50.0758 157.879 51.1678 157.58 52.3998 157.58C53.5758 157.58 54.6118 157.869 55.5078 158.448C56.4225 159.008 57.0291 159.773 57.3278 160.744H56.9638V151.392H60.4638V172H57.0198V169.004H57.3558C57.0571 170.012 56.4505 170.815 55.5358 171.412C54.6398 171.991 53.5945 172.28 52.3998 172.28ZM53.3798 169.592C54.4811 169.592 55.3678 169.209 56.0398 168.444C56.7118 167.66 57.0478 166.484 57.0478 164.916C57.0478 163.348 56.7118 162.181 56.0398 161.416C55.3678 160.651 54.4811 160.268 53.3798 160.268C52.2785 160.268 51.3825 160.651 50.6918 161.416C50.0198 162.181 49.6838 163.348 49.6838 164.916C49.6838 166.484 50.0198 167.66 50.6918 168.444C51.3825 169.209 52.2785 169.592 53.3798 169.592ZM68.1951 172L62.6791 157.86H66.2911L70.2671 168.864H69.5391L73.5711 157.86H76.0631L80.0671 168.864H79.4231L83.3711 157.86H86.7871L81.2711 172H78.1911L73.9631 160.744H75.4471L71.3031 172H68.1951ZM95.1044 172.28C93.6484 172.28 92.3884 171.981 91.3244 171.384C90.2604 170.787 89.4297 169.937 88.8324 168.836C88.2537 167.735 87.9644 166.428 87.9644 164.916C87.9644 163.404 88.2537 162.107 88.8324 161.024C89.4297 159.923 90.2604 159.073 91.3244 158.476C92.3884 157.879 93.6484 157.58 95.1044 157.58C96.5604 157.58 97.8204 157.879 98.8844 158.476C99.9671 159.073 100.798 159.923 101.376 161.024C101.974 162.107 102.272 163.404 102.272 164.916C102.272 166.428 101.974 167.735 101.376 168.836C100.798 169.937 99.9671 170.787 98.8844 171.384C97.8204 171.981 96.5604 172.28 95.1044 172.28ZM95.1044 169.592C96.2057 169.592 97.0831 169.209 97.7364 168.444C98.3897 167.66 98.7164 166.484 98.7164 164.916C98.7164 163.348 98.3897 162.181 97.7364 161.416C97.0831 160.651 96.2057 160.268 95.1044 160.268C94.0031 160.268 93.1257 160.651 92.4724 161.416C91.8191 162.181 91.4924 163.348 91.4924 164.916C91.4924 166.484 91.8191 167.66 92.4724 168.444C93.1257 169.209 94.0031 169.592 95.1044 169.592ZM105.263 172V161.472C105.263 160.875 105.244 160.268 105.207 159.652C105.188 159.036 105.141 158.439 105.067 157.86H108.455L108.847 161.724H108.287C108.473 160.791 108.781 160.016 109.211 159.4C109.659 158.784 110.2 158.327 110.835 158.028C111.469 157.729 112.16 157.58 112.907 157.58C113.243 157.58 113.513 157.599 113.719 157.636C113.924 157.655 114.129 157.701 114.335 157.776L114.307 160.856C113.952 160.707 113.644 160.613 113.383 160.576C113.14 160.539 112.832 160.52 112.459 160.52C111.656 160.52 110.975 160.688 110.415 161.024C109.873 161.36 109.463 161.827 109.183 162.424C108.921 163.021 108.791 163.703 108.791 164.468V172H105.263ZM116.283 172V151.392H119.783V163.88H119.839L125.579 157.86H129.807L122.667 165.336L122.695 163.936L130.311 172H125.971L119.839 165.672H119.783V172H116.283ZM131.732 172V157.86H135.232V172H131.732ZM131.536 155.2V151.784H135.428V155.2H131.536ZM139.033 172V161.388C139.033 160.809 139.014 160.221 138.977 159.624C138.94 159.027 138.884 158.439 138.809 157.86H142.197L142.477 160.66H142.141C142.589 159.671 143.252 158.915 144.129 158.392C145.006 157.851 146.024 157.58 147.181 157.58C148.842 157.58 150.093 158.047 150.933 158.98C151.773 159.913 152.193 161.369 152.193 163.348V172H148.693V163.516C148.693 162.377 148.469 161.565 148.021 161.08C147.592 160.576 146.938 160.324 146.061 160.324C144.978 160.324 144.12 160.66 143.485 161.332C142.85 162.004 142.533 162.9 142.533 164.02V172H139.033ZM162.456 178.272C161.149 178.272 159.964 178.132 158.9 177.852C157.855 177.572 156.921 177.143 156.1 176.564L156.856 174.044C157.397 174.399 157.957 174.688 158.536 174.912C159.115 175.136 159.712 175.304 160.328 175.416C160.944 175.528 161.569 175.584 162.204 175.584C163.511 175.584 164.481 175.257 165.116 174.604C165.769 173.969 166.096 173.055 166.096 171.86V168.472H166.376C166.077 169.443 165.471 170.217 164.556 170.796C163.66 171.375 162.624 171.664 161.448 171.664C160.179 171.664 159.068 171.384 158.116 170.824C157.183 170.245 156.455 169.424 155.932 168.36C155.409 167.296 155.148 166.045 155.148 164.608C155.148 163.171 155.409 161.929 155.932 160.884C156.455 159.82 157.183 159.008 158.116 158.448C159.068 157.869 160.179 157.58 161.448 157.58C162.643 157.58 163.679 157.869 164.556 158.448C165.452 159.008 166.049 159.773 166.348 160.744L166.096 160.576L166.376 157.86H169.764C169.689 158.439 169.633 159.027 169.596 159.624C169.559 160.221 169.54 160.809 169.54 161.388V171.44C169.54 173.661 168.933 175.351 167.72 176.508C166.525 177.684 164.771 178.272 162.456 178.272ZM162.4 168.976C163.52 168.976 164.407 168.603 165.06 167.856C165.732 167.091 166.068 166.008 166.068 164.608C166.068 163.208 165.732 162.135 165.06 161.388C164.407 160.641 163.52 160.268 162.4 160.268C161.261 160.268 160.356 160.641 159.684 161.388C159.012 162.135 158.676 163.208 158.676 164.608C158.676 166.008 159.012 167.091 159.684 167.856C160.356 168.603 161.261 168.976 162.4 168.976ZM187.502 172.28C186.046 172.28 184.767 171.981 183.666 171.384C182.583 170.787 181.743 169.937 181.146 168.836C180.548 167.716 180.25 166.391 180.25 164.86C180.25 163.329 180.548 162.023 181.146 160.94C181.762 159.857 182.611 159.027 183.694 158.448C184.776 157.869 186.046 157.58 187.502 157.58C188.435 157.58 189.34 157.729 190.218 158.028C191.114 158.308 191.842 158.719 192.402 159.26L191.338 161.696C190.834 161.229 190.264 160.884 189.63 160.66C189.014 160.417 188.407 160.296 187.81 160.296C186.559 160.296 185.579 160.688 184.87 161.472C184.179 162.256 183.834 163.395 183.834 164.888C183.834 166.381 184.179 167.529 184.87 168.332C185.579 169.135 186.559 169.536 187.81 169.536C188.388 169.536 188.986 169.424 189.602 169.2C190.236 168.976 190.815 168.631 191.338 168.164L192.402 170.572C191.823 171.113 191.086 171.533 190.19 171.832C189.312 172.131 188.416 172.28 187.502 172.28ZM195.115 172V151.392H198.615V172H195.115ZM207.512 172.28C205.776 172.28 204.478 171.804 203.62 170.852C202.761 169.9 202.332 168.444 202.332 166.484V157.86H205.832V166.456C205.832 167.501 206.046 168.276 206.476 168.78C206.905 169.265 207.558 169.508 208.436 169.508C209.425 169.508 210.228 169.172 210.844 168.5C211.478 167.828 211.796 166.941 211.796 165.84V157.86H215.296V172H211.88V169.116H212.272C211.861 170.124 211.236 170.908 210.396 171.468C209.574 172.009 208.613 172.28 207.512 172.28ZM227.187 172.28C225.993 172.28 224.947 171.991 224.051 171.412C223.155 170.815 222.558 170.012 222.259 169.004H222.567V172H219.095V151.392H222.595V160.744H222.259C222.577 159.773 223.183 159.008 224.079 158.448C224.975 157.869 226.011 157.58 227.187 157.58C228.438 157.58 229.53 157.879 230.463 158.476C231.397 159.073 232.125 159.923 232.647 161.024C233.17 162.107 233.431 163.413 233.431 164.944C233.431 166.475 233.17 167.791 232.647 168.892C232.125 169.975 231.387 170.815 230.435 171.412C229.502 171.991 228.419 172.28 227.187 172.28ZM226.207 169.592C227.309 169.592 228.195 169.209 228.867 168.444C229.558 167.679 229.903 166.512 229.903 164.944C229.903 163.376 229.558 162.209 228.867 161.444C228.195 160.66 227.309 160.268 226.207 160.268C225.106 160.268 224.219 160.651 223.547 161.416C222.875 162.181 222.539 163.348 222.539 164.916C222.539 166.484 222.875 167.66 223.547 168.444C224.219 169.209 225.106 169.592 226.207 169.592ZM241.499 172.28C240.285 172.28 239.165 172.14 238.139 171.86C237.131 171.561 236.281 171.151 235.591 170.628L236.571 168.276C237.28 168.761 238.064 169.135 238.923 169.396C239.781 169.657 240.649 169.788 241.527 169.788C242.46 169.788 243.151 169.629 243.599 169.312C244.065 168.995 244.299 168.565 244.299 168.024C244.299 167.595 244.149 167.259 243.851 167.016C243.571 166.755 243.113 166.559 242.479 166.428L239.679 165.896C238.484 165.635 237.569 165.187 236.935 164.552C236.319 163.917 236.011 163.087 236.011 162.06C236.011 161.183 236.244 160.408 236.711 159.736C237.196 159.064 237.877 158.541 238.755 158.168C239.651 157.776 240.696 157.58 241.891 157.58C242.936 157.58 243.916 157.72 244.831 158C245.764 158.28 246.548 158.7 247.183 159.26L246.175 161.528C245.596 161.061 244.933 160.697 244.187 160.436C243.44 160.175 242.712 160.044 242.003 160.044C241.032 160.044 240.323 160.221 239.875 160.576C239.427 160.912 239.203 161.351 239.203 161.892C239.203 162.303 239.333 162.648 239.595 162.928C239.875 163.189 240.304 163.385 240.883 163.516L243.683 164.048C244.933 164.291 245.876 164.72 246.511 165.336C247.164 165.933 247.491 166.755 247.491 167.8C247.491 168.733 247.239 169.536 246.735 170.208C246.231 170.88 245.531 171.393 244.635 171.748C243.739 172.103 242.693 172.28 241.499 172.28ZM258.674 166.148L257.582 152.26H261.894L260.802 166.148H258.674ZM257.778 172V168.108H261.698V172H257.778ZM265.619 166.148L264.527 152.26H268.839L267.747 166.148H265.619ZM264.723 172V168.108H268.643V172H264.723ZM272.564 166.148L271.472 152.26H275.784L274.692 166.148H272.564ZM271.668 172V168.108H275.588V172H271.668Z" fill="black"/>
<path d="M371.5 43.5938C383.15 43.5938 392.594 34.1498 392.594 22.5C392.594 10.8502 383.15 1.40625 371.5 1.40625C359.85 1.40625 350.406 10.8502 350.406 22.5C350.406 34.1498 359.85 43.5938 371.5 43.5938Z" fill="#4FD1D9"/>
<path d="M377.406 31.7109V16.1016C377.406 11.1094 373.469 7.03125 368.617 7.03125C366.297 7.03125 364.047 7.94531 362.359 9.70313L365.945 13.3594C366.648 12.6562 367.633 12.2344 368.617 12.2344C370.727 12.2344 372.414 13.9922 372.414 16.1016V31.7109H369.18L374.945 37.9688L380.711 31.7109H377.406Z" fill="white"/>
</svg>
