<svg xmlns="http://www.w3.org/2000/svg" width="817" height="609" fill="none" viewBox="0 0 817 609"><path fill="#FAFAFA" d="M816.327 534.531H0V534.939H816.327V534.531Z"/><path fill="#E0E0E0" d="M690.971 552.294H650.433V552.702H690.971V552.294Z"/><path fill="#E0E0E0" d="M716.653 552.082H702.955V552.49H716.653V552.082Z"/><path fill="#E0E0E0" d="M542.09 554.824H457.208V555.233H542.09V554.824Z"/><path fill="#E0E0E0" d="M437.175 559.249H424.522V559.657H437.175V559.249Z"/><path fill="#E0E0E0" d="M182.776 546.335H160.963V546.743H182.776V546.335Z"/><path fill="#E0E0E0" d="M302.465 546.335H191.837V546.743H302.465V546.335Z"/><path fill="#E0E0E0" d="M208.163 556.196H131.2V556.604H208.163V556.196Z"/><path fill="#E0E0E0" d="M386.939 461.714H71.6898C69.2202 461.71 66.8531 460.726 65.1084 458.978C63.3636 457.23 62.3837 454.861 62.3837 452.392V9.24082C62.4052 6.78535 63.3946 4.43752 65.137 2.7073C66.8795 0.977075 69.2342 0.00420635 71.6898 0H386.939C389.411 0 391.782 0.982184 393.531 2.73048C395.279 4.47878 396.261 6.84998 396.261 9.32245V452.392C396.261 454.864 395.279 457.236 393.531 458.984C391.782 460.732 389.411 461.714 386.939 461.714ZM71.6898 0.326532C69.3284 0.330857 67.0652 1.27194 65.397 2.94323C63.7288 4.61451 62.7918 6.87943 62.7918 9.24082V452.392C62.7918 454.753 63.7288 457.018 65.397 458.689C67.0652 460.361 69.3284 461.302 71.6898 461.306H386.939C389.302 461.302 391.567 460.361 393.237 458.69C394.908 457.02 395.849 454.755 395.853 452.392V9.24082C395.849 6.87793 394.908 4.61305 393.237 2.94223C391.567 1.27141 389.302 0.330848 386.939 0.326532H71.6898Z"/><path fill="#E0E0E0" d="M740.098 461.714H424.833C422.361 461.71 419.993 460.726 418.245 458.979C416.498 457.232 415.515 454.863 415.51 452.392V9.24082C415.536 6.78386 416.529 4.43604 418.274 2.70627C420.019 0.976504 422.376 0.00416047 424.833 0H740.098C742.551 0.00849714 744.901 0.983264 746.64 2.71303C748.379 4.44279 749.366 6.78817 749.388 9.24082V452.392C749.388 454.859 748.41 457.225 746.669 458.972C744.928 460.72 742.565 461.706 740.098 461.714ZM424.833 0.326532C422.47 0.330848 420.205 1.27141 418.534 2.94223C416.863 4.61305 415.923 6.87793 415.918 9.24082V452.392C415.923 454.755 416.863 457.02 418.534 458.69C420.205 460.361 422.47 461.302 424.833 461.306H740.098C742.461 461.302 744.726 460.361 746.397 458.69C748.067 457.02 749.008 454.755 749.012 452.392V9.24082C749.008 6.87793 748.067 4.61305 746.397 2.94223C744.726 1.27141 742.461 0.330848 740.098 0.326532H424.833Z"/><path fill="#E0E0E0" d="M557.959 534.531H615.641V429.845H557.959V534.531Z"/><path fill="#EBEBEB" d="M684.457 429.845H615.641V534.531H684.457V429.845Z"/><g style="mix-blend-mode:multiply" opacity=".7"><path fill="#E0E0E0" d="M557.959 443.445H685.061V438.71H557.959V443.445Z"/></g><path fill="#E0E0E0" d="M554.776 440.686H615.641V418.873H554.776V440.686Z"/><path fill="#EBEBEB" d="M687.641 418.89H615.641V440.702H687.641V418.89Z"/><path fill="#E0E0E0" d="M316.833 31.0041H122.661V262.678H316.833V31.0041Z"/><path fill="#EBEBEB" d="M325.731 31.0041H126.824V262.678H325.731V31.0041Z"/><path fill="#E0E0E0" d="M316.833 262.678H122.661V279.184H316.833V262.678Z"/><path fill="#EBEBEB" d="M340.522 262.678H141.616V279.184H340.522V262.678Z"/><path fill="#F5F5F5" d="M313.29 250.237V43.4449L139.265 43.4449V250.237H313.29Z"/><path fill="#FAFAFA" d="M160.62 250.237L233.616 43.4449H268.065L195.086 250.237H160.62Z"/><path fill="#EBEBEB" d="M145.012 180.082C144.777 180.077 144.553 179.981 144.388 179.813C144.223 179.645 144.131 179.419 144.131 179.184V51.5265C144.131 51.2927 144.224 51.0685 144.389 50.9031C144.554 50.7378 144.778 50.6449 145.012 50.6449C145.248 50.6449 145.474 50.7372 145.641 50.9021C145.809 51.067 145.906 51.2912 145.91 51.5265V179.184C145.91 179.422 145.816 179.65 145.647 179.819C145.479 179.987 145.25 180.082 145.012 180.082Z"/><path fill="#FAFAFA" d="M202.482 250.237L275.478 43.4449H288.914L215.918 250.237H202.482Z"/><path fill="#E0E0E0" d="M313.273 250.237V43.4449H311.69V250.237H313.273Z"/><path fill="#E0E0E0" d="M328.653 59.3469H134.498L133.355 48.2776H327.51L328.653 59.3469Z"/><path fill="#E0E0E0" d="M328.653 67.4612H134.498L133.355 56.3755H327.51L328.653 67.4612Z"/><path fill="#E0E0E0" d="M328.653 77.1918H134.498L133.355 66.1061H327.51L328.653 77.1918Z"/><path fill="#E0E0E0" d="M328.653 88.0163H134.498L133.355 76.9469H327.51L328.653 88.0163Z"/><path fill="#E0E0E0" d="M328.653 100.996H134.498L133.355 89.9102H327.51L328.653 100.996Z"/><path fill="#E0E0E0" d="M328.653 115.576H134.498L133.355 104.506H327.51L328.653 115.576Z"/><path fill="#E0E0E0" d="M669.975 31.0041H475.804V262.678H669.975V31.0041Z"/><path fill="#EBEBEB" d="M678.857 31.0041H479.951V262.678H678.857V31.0041Z"/><path fill="#E0E0E0" d="M669.975 262.678H475.804V279.184H669.975V262.678Z"/><path fill="#EBEBEB" d="M693.665 262.678H494.759V279.184H693.665V262.678Z"/><path fill="#F5F5F5" d="M666.433 250.237V43.4449L492.408 43.4449V250.237H666.433Z"/><path fill="#FAFAFA" d="M513.763 250.237L586.759 43.4449H621.208L548.212 250.237H513.763Z"/><path fill="#EBEBEB" d="M498.155 180.082C497.92 180.077 497.696 179.981 497.531 179.813C497.366 179.645 497.273 179.419 497.273 179.184V51.5265C497.273 51.2927 497.366 51.0685 497.532 50.9031C497.697 50.7378 497.921 50.6449 498.155 50.6449C498.389 50.6449 498.613 50.7378 498.778 50.9031C498.944 51.0685 499.037 51.2927 499.037 51.5265V179.184C499.037 179.419 498.944 179.645 498.78 179.813C498.615 179.981 498.39 180.077 498.155 180.082Z"/><path fill="#FAFAFA" d="M555.625 250.237L628.62 43.4449H642.041L569.061 250.237H555.625Z"/><path fill="#E0E0E0" d="M666.416 250.237V43.4449H664.833V250.237H666.416Z"/><path fill="#E0E0E0" d="M681.796 59.3469H487.641L486.482 48.2776H680.653L681.796 59.3469Z"/><path fill="#E0E0E0" d="M681.796 67.4612H487.641L486.482 56.3755H680.653L681.796 67.4612Z"/><path fill="#E0E0E0" d="M681.796 77.1918H487.641L486.482 66.1061H680.653L681.796 77.1918Z"/><path fill="#E0E0E0" d="M681.796 88.0163H487.641L486.482 76.9469H680.653L681.796 88.0163Z"/><path fill="#E0E0E0" d="M681.796 100.996H487.641L486.482 89.9102H680.653L681.796 100.996Z"/><path fill="#E0E0E0" d="M681.796 115.576H487.641L486.482 104.506H680.653L681.796 115.576Z"/><path fill="#E0E0E0" d="M519.249 387.69H480.473V534.531H519.249V387.69Z"/><path fill="#F5F5F5" d="M511.869 534.531H519.233V516.539H504.147L511.869 534.531Z"/><path fill="#E0E0E0" d="M142.955 387.69H104.18V534.531H142.955V387.69Z"/><path fill="#F5F5F5" d="M519.249 387.69H136.522V524.637H519.249V387.69Z"/><path fill="#E0E0E0" d="M330.351 394.547V492.343H513.535V394.547H330.351Z"/><path fill="#E0E0E0" d="M142.237 394.547V492.343H325.42V394.547H142.237Z"/><path fill="#E0E0E0" d="M513.518 513.012V502.122H330.335V513.012H513.518Z"/><path fill="#E0E0E0" d="M325.404 513.029V502.139H142.22V513.029H325.404Z"/><path fill="#F5F5F5" d="M298.335 400.392H169.355C166.491 400.394 163.657 399.816 161.022 398.694C158.387 397.572 156.007 395.928 154.024 393.861H313.731C311.74 395.936 309.35 397.584 306.703 398.707C304.056 399.829 301.209 400.403 298.335 400.392Z"/><path fill="#F5F5F5" d="M487.135 400.392H358.155C355.291 400.394 352.457 399.816 349.822 398.694C347.187 397.572 344.807 395.928 342.824 393.861H502.531C500.544 395.94 498.154 397.592 495.506 398.715C492.859 399.838 490.01 400.408 487.135 400.392Z"/><path fill="#F5F5F5" d="M143.886 534.531H136.506V516.539H151.592L143.886 534.531Z"/><g style="mix-blend-mode:multiply" opacity=".4"><path fill="#E0E0E0" d="M417.241 297.535H374.073V387.69H417.241V297.535Z"/></g><path fill="#E0E0E0" d="M453.502 387.69H380.441L373.567 290.335H446.612L453.502 387.69Z"/><path fill="#F5F5F5" d="M461.812 387.69H382.514L375.641 290.335H454.922L461.812 387.69Z"/><path fill="#FAFAFA" d="M386.188 383.967L379.837 294.057H451.265L457.633 383.967H386.188Z"/><path fill="#F5F5F5" d="M403.478 363.837L399.967 314.188H433.976L437.486 363.837H403.478Z"/><path fill="#EBEBEB" d="M260.163 371.706C270.641 371.706 279.135 363.212 279.135 352.735C279.135 342.257 270.641 333.763 260.163 333.763C249.686 333.763 241.192 342.257 241.192 352.735C241.192 363.212 249.686 371.706 260.163 371.706Z"/><path fill="#EBEBEB" d="M292.653 380.751C303.131 380.751 311.624 372.257 311.624 361.78C311.624 351.302 303.131 342.808 292.653 342.808C282.175 342.808 273.682 351.302 273.682 361.78C273.682 372.257 282.175 380.751 292.653 380.751Z"/><path fill="#EBEBEB" d="M324.935 365.558C331.397 362.896 334.477 355.501 331.815 349.039C329.153 342.578 321.757 339.498 315.296 342.16C308.835 344.822 305.755 352.217 308.416 358.679C311.078 365.14 318.474 368.22 324.935 365.558Z"/><path fill="#EBEBEB" d="M291.658 343.293C292.776 336.395 288.089 329.897 281.191 328.78C274.293 327.663 267.795 332.349 266.678 339.247C265.561 346.146 270.247 352.643 277.145 353.761C284.043 354.878 290.541 350.192 291.658 343.293Z"/><path fill="#E0E0E0" d="M229.829 358.384C229.829 358.384 231.314 387.69 288.245 387.69C345.176 387.69 346.661 358.384 346.661 358.384H229.829Z"/><path fill="#E0E0E0" d="M177.257 377.649C177.257 377.649 158.71 345.682 184.441 320.229C184.441 320.229 191.151 324.604 190.971 330.498C190.792 336.392 183.771 337.861 185.29 342.776C186.808 347.69 193.453 352.571 189.127 356.571C184.8 360.571 189.829 364.229 189.535 369.208C189.241 374.188 177.257 377.649 177.257 377.649Z"/><path fill="#E0E0E0" d="M178.661 380.571C178.661 380.571 186.171 344.392 153.731 328.327C153.731 328.327 148.735 334.612 150.694 340.163C152.653 345.714 159.837 344.882 159.951 349.959C160.065 355.037 155.216 361.78 160.669 364.245C166.122 366.71 162.416 371.755 164.261 376.376C166.106 380.996 178.661 380.571 178.661 380.571Z"/><path fill="#EBEBEB" d="M150.204 363.837C150.204 363.837 150.825 387.69 174.465 387.69C198.106 387.69 198.727 363.837 198.727 363.837H150.204Z"/><path fill="#F5F5F5" d="M408.163 608.261C582.992 608.261 724.718 599.987 724.718 589.78C724.718 579.572 582.992 571.298 408.163 571.298C233.335 571.298 91.6082 579.572 91.6082 589.78C91.6082 599.987 233.335 608.261 408.163 608.261Z"/><path fill="#407BFF" d="M294.612 355.004C293.644 354.941 292.737 354.511 292.074 353.804C291.41 353.096 291.041 352.162 291.041 351.192C291.041 350.222 291.41 349.288 292.074 348.58C292.737 347.872 293.644 347.443 294.612 347.38C303.951 347.38 311.82 334.008 311.82 318.171C311.884 317.203 312.313 316.296 313.021 315.633C313.729 314.97 314.663 314.601 315.633 314.601C316.603 314.601 317.536 314.97 318.244 315.633C318.952 316.296 319.382 317.203 319.445 318.171C319.445 338.825 308.571 355.004 294.612 355.004Z"/><path fill="#407BFF" d="M352.229 355.004C351.261 354.941 350.353 354.511 349.69 353.804C349.027 353.096 348.658 352.162 348.658 351.192C348.658 350.222 349.027 349.288 349.69 348.58C350.353 347.872 351.261 347.443 352.229 347.38C361.567 347.38 369.437 334.008 369.437 318.171C369.5 317.203 369.929 316.296 370.637 315.633C371.345 314.97 372.279 314.601 373.249 314.601C374.219 314.601 375.153 314.97 375.861 315.633C376.569 316.296 376.998 317.203 377.061 318.171C377.143 338.825 366.155 355.004 352.229 355.004Z"/><path fill="#407BFF" d="M409.796 355.004C408.828 354.941 407.92 354.511 407.257 353.804C406.594 353.096 406.225 352.162 406.225 351.192C406.225 350.222 406.594 349.288 407.257 348.58C407.92 347.872 408.828 347.443 409.796 347.38C419.118 347.38 427.004 334.008 427.004 318.171C427.004 317.163 427.405 316.195 428.118 315.482C428.832 314.768 429.799 314.367 430.808 314.367C431.817 314.367 432.785 314.768 433.498 315.482C434.211 316.195 434.612 317.163 434.612 318.171C434.661 338.825 423.771 355.004 409.796 355.004Z"/><path fill="#407BFF" d="M467.461 355.004C466.94 355.038 466.417 354.965 465.924 354.789C465.432 354.613 464.981 354.337 464.6 353.98C464.218 353.623 463.914 353.191 463.706 352.711C463.498 352.232 463.391 351.715 463.391 351.192C463.391 350.669 463.498 350.152 463.706 349.672C463.914 349.193 464.218 348.761 464.6 348.404C464.981 348.046 465.432 347.771 465.924 347.595C466.417 347.419 466.94 347.345 467.461 347.38C476.784 347.38 484.669 334.008 484.669 318.171C484.669 317.163 485.07 316.195 485.784 315.482C486.497 314.768 487.465 314.367 488.473 314.367C489.482 314.367 490.45 314.768 491.163 315.482C491.877 316.195 492.278 317.163 492.278 318.171C492.278 338.825 481.371 355.004 467.461 355.004Z"/><path fill="#407BFF" d="M525.061 355.004C524.093 354.941 523.186 354.511 522.523 353.804C521.859 353.096 521.49 352.162 521.49 351.192C521.49 350.222 521.859 349.288 522.523 348.58C523.186 347.872 524.093 347.443 525.061 347.38C534.4 347.38 542.269 334.008 542.269 318.171C542.333 317.203 542.762 316.296 543.47 315.633C544.178 314.97 545.112 314.601 546.082 314.601C547.052 314.601 547.985 314.97 548.693 315.633C549.401 316.296 549.83 317.203 549.894 318.171C549.894 338.825 538.988 355.004 525.061 355.004Z"/><path fill="#407BFF" d="M582.678 355.004C581.71 354.941 580.802 354.511 580.139 353.804C579.476 353.096 579.107 352.162 579.107 351.192C579.107 350.222 579.476 349.288 580.139 348.58C580.802 347.872 581.71 347.443 582.678 347.38C592 347.38 599.886 334.008 599.886 318.171C599.949 317.203 600.378 316.296 601.086 315.633C601.794 314.97 602.728 314.601 603.698 314.601C604.668 314.601 605.602 314.97 606.31 315.633C607.018 316.296 607.447 317.203 607.51 318.171C607.51 338.825 596.604 355.004 582.678 355.004Z"/><g opacity=".3"><path fill="#000" d="M294.612 355.004C293.644 354.941 292.737 354.511 292.074 353.804C291.41 353.096 291.041 352.162 291.041 351.192C291.041 350.222 291.41 349.288 292.074 348.58C292.737 347.872 293.644 347.443 294.612 347.38C303.951 347.38 311.82 334.008 311.82 318.171C311.884 317.203 312.313 316.296 313.021 315.633C313.729 314.97 314.663 314.601 315.633 314.601C316.603 314.601 317.536 314.97 318.244 315.633C318.952 316.296 319.382 317.203 319.445 318.171C319.445 338.824 308.571 355.004 294.612 355.004Z" opacity=".3"/><path fill="#000" d="M352.229 355.004C351.261 354.941 350.353 354.511 349.69 353.804C349.027 353.096 348.658 352.162 348.658 351.192C348.658 350.222 349.027 349.288 349.69 348.58C350.353 347.872 351.261 347.443 352.229 347.38C361.567 347.38 369.437 334.008 369.437 318.171C369.5 317.203 369.929 316.296 370.637 315.633C371.345 314.97 372.279 314.601 373.249 314.601C374.219 314.601 375.153 314.97 375.861 315.633C376.569 316.296 376.998 317.203 377.061 318.171C377.143 338.824 366.155 355.004 352.229 355.004Z" opacity=".3"/><path fill="#000" d="M409.796 355.004C408.828 354.941 407.92 354.511 407.257 353.804C406.594 353.096 406.225 352.162 406.225 351.192C406.225 350.222 406.594 349.288 407.257 348.58C407.92 347.872 408.828 347.443 409.796 347.38C419.118 347.38 427.004 334.008 427.004 318.171C427.004 317.163 427.405 316.195 428.118 315.482C428.832 314.768 429.799 314.367 430.808 314.367C431.817 314.367 432.785 314.768 433.498 315.482C434.211 316.195 434.612 317.163 434.612 318.171C434.661 338.824 423.771 355.004 409.796 355.004Z" opacity=".3"/><path fill="#000" d="M467.461 355.004C466.94 355.038 466.417 354.965 465.924 354.789C465.432 354.613 464.981 354.337 464.6 353.98C464.218 353.623 463.914 353.191 463.706 352.711C463.499 352.232 463.391 351.715 463.391 351.192C463.391 350.669 463.499 350.152 463.706 349.672C463.914 349.193 464.218 348.761 464.6 348.404C464.981 348.046 465.432 347.771 465.924 347.595C466.417 347.419 466.94 347.345 467.461 347.38C476.784 347.38 484.669 334.008 484.669 318.171C484.669 317.163 485.07 316.195 485.784 315.482C486.497 314.768 487.465 314.367 488.473 314.367C489.482 314.367 490.45 314.768 491.163 315.482C491.877 316.195 492.278 317.163 492.278 318.171C492.278 338.824 481.371 355.004 467.461 355.004Z" opacity=".3"/><path fill="#000" d="M525.061 355.004C524.093 354.941 523.186 354.511 522.523 353.804C521.859 353.096 521.49 352.162 521.49 351.192C521.49 350.222 521.859 349.288 522.523 348.58C523.186 347.872 524.093 347.443 525.061 347.38C534.4 347.38 542.269 334.008 542.269 318.171C542.333 317.203 542.762 316.296 543.47 315.633C544.178 314.97 545.112 314.601 546.082 314.601C547.052 314.601 547.985 314.97 548.693 315.633C549.401 316.296 549.831 317.203 549.894 318.171C549.894 338.824 538.988 355.004 525.061 355.004Z" opacity=".3"/><path fill="#000" d="M582.678 355.004C581.71 354.941 580.802 354.511 580.139 353.804C579.476 353.096 579.107 352.162 579.107 351.192C579.107 350.222 579.476 349.288 580.139 348.58C580.802 347.872 581.71 347.443 582.678 347.38C592 347.38 599.886 334.008 599.886 318.171C599.949 317.203 600.378 316.296 601.086 315.633C601.794 314.97 602.728 314.601 603.698 314.601C604.668 314.601 605.602 314.97 606.31 315.633C607.018 316.296 607.447 317.203 607.51 318.171C607.51 338.824 596.604 355.004 582.678 355.004Z" opacity=".3"/></g><path fill="#407BFF" d="M258.514 322.073H629.42C634.393 322.173 639.159 324.084 642.823 327.448C646.488 330.811 648.799 335.396 649.322 340.343L669.861 571.902C670.111 574.226 669.865 576.576 669.138 578.797C668.412 581.018 667.223 583.06 665.648 584.787C664.074 586.514 662.151 587.887 660.007 588.815C657.862 589.743 655.545 590.206 653.208 590.171H282.286C277.315 590.065 272.553 588.152 268.89 584.789C265.227 581.427 262.914 576.846 262.384 571.902L241.861 340.343C241.609 338.019 241.853 335.668 242.578 333.445C243.304 331.223 244.493 329.18 246.068 327.453C247.643 325.725 249.567 324.352 251.713 323.425C253.858 322.497 256.177 322.037 258.514 322.073Z"/><path fill="#FAFAFA" d="M258.514 322.073H629.42C634.393 322.173 639.159 324.084 642.823 327.448C646.488 330.811 648.799 335.396 649.322 340.343L669.861 571.902C670.111 574.226 669.865 576.576 669.138 578.797C668.412 581.018 667.223 583.06 665.648 584.787C664.074 586.514 662.151 587.887 660.007 588.815C657.862 589.743 655.545 590.206 653.208 590.171H282.286C277.315 590.065 272.553 588.152 268.89 584.789C265.227 581.427 262.914 576.846 262.384 571.902L241.861 340.343C241.609 338.019 241.853 335.668 242.578 333.445C243.304 331.223 244.493 329.18 246.068 327.453C247.643 325.725 249.567 324.352 251.713 323.425C253.858 322.497 256.177 322.037 258.514 322.073Z" opacity=".4"/><path fill="#407BFF" d="M626.335 322.073H255.412C250.506 322.132 245.805 324.051 242.259 327.442C238.713 330.833 236.587 335.444 236.31 340.343L225.861 571.902C225.737 574.261 226.095 576.621 226.915 578.836C227.734 581.052 228.997 583.077 230.626 584.787C232.256 586.498 234.217 587.857 236.39 588.783C238.564 589.709 240.903 590.181 243.265 590.171H614.22C619.127 590.113 623.828 588.194 627.374 584.803C630.919 581.412 633.046 576.801 633.322 571.902L643.788 340.343C643.91 337.98 643.549 335.618 642.725 333.4C641.902 331.182 640.635 329.156 639 327.445C637.366 325.734 635.4 324.376 633.222 323.452C631.044 322.528 628.7 322.059 626.335 322.073Z"/><path fill="#FAFAFA" d="M626.335 322.073H255.412C250.506 322.132 245.805 324.051 242.259 327.442C238.713 330.833 236.587 335.444 236.31 340.343L225.861 571.902C225.737 574.261 226.095 576.621 226.915 578.836C227.734 581.052 228.997 583.077 230.626 584.787C232.256 586.498 234.217 587.857 236.39 588.783C238.564 589.709 240.903 590.181 243.265 590.171H614.22C619.127 590.113 623.828 588.194 627.374 584.803C630.919 581.412 633.046 576.801 633.322 571.902L643.788 340.343C643.91 337.98 643.549 335.618 642.725 333.4C641.902 331.182 640.635 329.156 639 327.445C637.366 325.734 635.4 324.376 633.222 323.452C631.044 322.528 628.7 322.059 626.335 322.073Z" opacity=".2"/><path fill="#407BFF" d="M262.22 528.98L270.857 337.747C270.961 335.871 271.774 334.105 273.133 332.807C274.491 331.509 276.293 330.777 278.171 330.759H602.792C603.697 330.754 604.593 330.933 605.427 331.286C606.26 331.639 607.012 332.159 607.637 332.813C608.263 333.467 608.748 334.243 609.063 335.091C609.378 335.939 609.516 336.843 609.469 337.747L600.816 528.98C600.713 530.855 599.899 532.622 598.541 533.919C597.182 535.217 595.381 535.949 593.502 535.967H268.898C267.993 535.973 267.096 535.794 266.263 535.441C265.43 535.087 264.678 534.568 264.052 533.913C263.427 533.259 262.942 532.484 262.627 531.636C262.312 530.787 262.174 529.883 262.22 528.98Z"/><path fill="#FAFAFA" d="M262.22 528.98L270.857 337.747C270.961 335.871 271.774 334.105 273.133 332.807C274.491 331.509 276.293 330.777 278.171 330.759H602.792C603.697 330.754 604.593 330.933 605.427 331.286C606.26 331.639 607.012 332.159 607.637 332.813C608.263 333.467 608.748 334.243 609.063 335.091C609.378 335.939 609.516 336.843 609.469 337.747L600.816 528.98C600.713 530.855 599.899 532.622 598.541 533.919C597.182 535.217 595.381 535.949 593.502 535.967H268.898C267.993 535.973 267.096 535.794 266.263 535.441C265.43 535.087 264.678 534.568 264.052 533.913C263.427 533.259 262.942 532.484 262.627 531.636C262.312 530.787 262.174 529.883 262.22 528.98Z" opacity=".1"/><path fill="#000" d="M253.061 544.588L262.122 343.771C262.226 341.802 263.079 339.946 264.505 338.584C265.931 337.221 267.824 336.455 269.796 336.441H610.694C611.644 336.433 612.585 336.619 613.46 336.989C614.335 337.359 615.125 337.904 615.782 338.591C616.438 339.278 616.947 340.092 617.276 340.983C617.606 341.874 617.749 342.823 617.698 343.771L608.62 544.588C608.517 546.556 607.668 548.411 606.245 549.776C604.823 551.141 602.934 551.913 600.963 551.935H260.033C259.083 551.941 258.143 551.752 257.269 551.38C256.396 551.008 255.608 550.461 254.955 549.772C254.301 549.084 253.796 548.268 253.47 547.376C253.145 546.485 253.005 545.535 253.061 544.588Z" opacity=".1"/><path fill="#FAFAFA" d="M244.637 560.784L254.09 351.314C254.217 349.266 255.11 347.341 256.593 345.922C258.075 344.503 260.038 343.694 262.09 343.657H617.698C618.69 343.649 619.673 343.844 620.587 344.231C621.501 344.617 622.326 345.186 623.011 345.904C623.696 346.621 624.228 347.471 624.572 348.402C624.916 349.332 625.066 350.324 625.012 351.314L615.51 560.784C615.383 562.832 614.49 564.757 613.007 566.176C611.525 567.595 609.562 568.404 607.51 568.441H251.951C250.958 568.451 249.974 568.258 249.059 567.872C248.144 567.487 247.318 566.917 246.632 566.199C245.947 565.481 245.416 564.63 245.072 563.699C244.729 562.767 244.581 561.775 244.637 560.784Z"/><path fill="#407BFF" d="M582.629 356.212C581.96 356.213 581.298 356.078 580.684 355.813C580.07 355.549 579.516 355.162 579.057 354.675C578.598 354.189 578.244 353.614 578.016 352.985C577.787 352.357 577.69 351.688 577.731 351.02C577.793 349.711 578.353 348.474 579.297 347.564C580.241 346.653 581.497 346.138 582.808 346.122C583.477 346.121 584.139 346.257 584.753 346.521C585.367 346.786 585.921 347.173 586.38 347.659C586.839 348.146 587.193 348.721 587.421 349.35C587.649 349.978 587.746 350.647 587.706 351.314C587.644 352.624 587.083 353.861 586.14 354.771C585.196 355.682 583.94 356.197 582.629 356.212Z"/><path fill="#407BFF" d="M525.012 356.212C524.344 356.213 523.682 356.078 523.067 355.813C522.453 355.549 521.9 355.162 521.441 354.675C520.982 354.189 520.627 353.614 520.399 352.985C520.171 352.357 520.074 351.688 520.114 351.02C520.177 349.711 520.737 348.474 521.681 347.564C522.625 346.653 523.881 346.138 525.192 346.122C525.861 346.121 526.522 346.257 527.137 346.521C527.751 346.786 528.305 347.173 528.763 347.659C529.222 348.146 529.577 348.721 529.805 349.35C530.033 349.978 530.13 350.647 530.09 351.314C530.031 352.625 529.472 353.864 528.528 354.776C527.583 355.687 526.325 356.201 525.012 356.212Z"/><path fill="#407BFF" d="M467.396 356.212C466.727 356.213 466.065 356.078 465.451 355.813C464.837 355.549 464.283 355.162 463.824 354.675C463.365 354.189 463.011 353.614 462.783 352.985C462.555 352.357 462.458 351.688 462.498 351.02C462.564 349.712 463.126 348.478 464.069 347.568C465.012 346.658 466.265 346.142 467.576 346.122C468.244 346.121 468.906 346.257 469.52 346.521C470.135 346.786 470.688 347.173 471.147 347.659C471.606 348.146 471.96 348.721 472.188 349.35C472.417 349.978 472.514 350.647 472.473 351.314C472.415 352.625 471.856 353.864 470.911 354.776C469.967 355.687 468.708 356.201 467.396 356.212Z"/><path fill="#407BFF" d="M409.796 356.212C409.127 356.213 408.465 356.078 407.851 355.813C407.237 355.549 406.683 355.162 406.224 354.675C405.765 354.189 405.411 353.614 405.183 352.985C404.955 352.357 404.858 351.688 404.898 351.02C404.968 349.71 405.533 348.476 406.479 347.567C407.424 346.658 408.68 346.141 409.992 346.122C410.661 346.121 411.322 346.257 411.937 346.521C412.551 346.786 413.105 347.173 413.563 347.659C414.022 348.146 414.377 348.721 414.605 349.35C414.833 349.978 414.93 350.647 414.89 351.314C414.831 352.628 414.27 353.87 413.322 354.781C412.373 355.693 411.111 356.205 409.796 356.212Z"/><path fill="#407BFF" d="M352.18 356.212C351.511 356.213 350.849 356.078 350.235 355.813C349.621 355.549 349.067 355.162 348.608 354.675C348.149 354.189 347.795 353.614 347.567 352.985C347.339 352.357 347.242 351.688 347.282 351.02C347.344 349.711 347.904 348.474 348.848 347.564C349.792 346.653 351.048 346.138 352.359 346.122C353.028 346.121 353.69 346.257 354.304 346.521C354.918 346.786 355.472 347.173 355.931 347.659C356.39 348.146 356.744 348.721 356.972 349.35C357.2 349.978 357.297 350.647 357.257 351.314C357.195 352.624 356.634 353.861 355.691 354.771C354.747 355.682 353.491 356.197 352.18 356.212Z"/><path fill="#407BFF" d="M294.563 356.212C293.895 356.213 293.233 356.078 292.618 355.813C292.004 355.549 291.451 355.162 290.992 354.675C290.533 354.189 290.178 353.614 289.95 352.985C289.722 352.357 289.625 351.688 289.665 351.02C289.728 349.711 290.288 348.474 291.232 347.564C292.176 346.653 293.432 346.138 294.743 346.122C295.412 346.121 296.073 346.257 296.688 346.521C297.302 346.786 297.856 347.173 298.314 347.659C298.773 348.146 299.128 348.721 299.356 349.35C299.584 349.978 299.681 350.647 299.641 351.314C299.582 352.625 299.023 353.864 298.079 354.776C297.134 355.687 295.876 356.201 294.563 356.212Z"/><g opacity=".1"><path fill="#FAFAFA" d="M582.629 356.212C581.96 356.213 581.298 356.078 580.684 355.813C580.07 355.549 579.516 355.162 579.057 354.675C578.598 354.189 578.244 353.614 578.016 352.985C577.787 352.357 577.69 351.688 577.731 351.02C577.793 349.711 578.353 348.474 579.297 347.564C580.241 346.653 581.497 346.138 582.808 346.122C583.477 346.121 584.139 346.257 584.753 346.521C585.367 346.786 585.921 347.173 586.38 347.659C586.839 348.146 587.193 348.721 587.421 349.35C587.649 349.978 587.746 350.647 587.706 351.314C587.644 352.624 587.083 353.861 586.14 354.771C585.196 355.682 583.94 356.197 582.629 356.212Z" opacity=".1"/><path fill="#FAFAFA" d="M525.012 356.212C524.344 356.213 523.682 356.078 523.067 355.813C522.453 355.549 521.9 355.162 521.441 354.675C520.982 354.189 520.627 353.614 520.399 352.985C520.171 352.357 520.074 351.688 520.114 351.02C520.177 349.711 520.737 348.474 521.681 347.564C522.625 346.653 523.881 346.138 525.192 346.122C525.861 346.121 526.522 346.257 527.137 346.521C527.751 346.786 528.305 347.173 528.763 347.659C529.222 348.146 529.577 348.721 529.805 349.35C530.033 349.978 530.13 350.647 530.09 351.314C530.031 352.626 529.472 353.864 528.528 354.776C527.583 355.687 526.325 356.201 525.012 356.212Z" opacity=".1"/><path fill="#FAFAFA" d="M467.396 356.212C466.727 356.213 466.065 356.078 465.451 355.813C464.837 355.549 464.283 355.162 463.824 354.675C463.365 354.189 463.011 353.614 462.783 352.985C462.555 352.357 462.458 351.688 462.498 351.02C462.564 349.712 463.126 348.478 464.069 347.568C465.012 346.658 466.265 346.142 467.576 346.122C468.244 346.121 468.906 346.257 469.52 346.521C470.135 346.786 470.688 347.173 471.147 347.659C471.606 348.146 471.96 348.721 472.188 349.35C472.417 349.978 472.514 350.647 472.473 351.314C472.415 352.626 471.856 353.864 470.911 354.776C469.967 355.687 468.708 356.201 467.396 356.212Z" opacity=".1"/><path fill="#FAFAFA" d="M409.796 356.212C409.127 356.213 408.465 356.078 407.851 355.813C407.237 355.549 406.683 355.162 406.224 354.675C405.765 354.189 405.411 353.614 405.183 352.985C404.955 352.357 404.858 351.688 404.898 351.02C404.968 349.71 405.533 348.476 406.479 347.567C407.425 346.658 408.68 346.141 409.992 346.122C410.661 346.121 411.322 346.257 411.937 346.521C412.551 346.786 413.105 347.173 413.563 347.659C414.022 348.146 414.377 348.721 414.605 349.35C414.833 349.978 414.93 350.647 414.89 351.314C414.831 352.628 414.27 353.87 413.322 354.781C412.374 355.693 411.111 356.205 409.796 356.212Z" opacity=".1"/><path fill="#FAFAFA" d="M352.18 356.212C351.511 356.213 350.849 356.078 350.235 355.813C349.621 355.549 349.067 355.162 348.608 354.675C348.149 354.189 347.795 353.614 347.567 352.985C347.339 352.357 347.242 351.688 347.282 351.02C347.344 349.711 347.904 348.474 348.848 347.564C349.792 346.653 351.048 346.138 352.359 346.122C353.028 346.121 353.69 346.257 354.304 346.521C354.918 346.786 355.472 347.173 355.931 347.659C356.39 348.146 356.744 348.721 356.972 349.35C357.2 349.978 357.297 350.647 357.257 351.314C357.195 352.624 356.634 353.861 355.691 354.771C354.747 355.682 353.491 356.197 352.18 356.212Z" opacity=".1"/><path fill="#FAFAFA" d="M294.563 356.212C293.895 356.213 293.233 356.078 292.618 355.813C292.004 355.549 291.451 355.162 290.992 354.675C290.533 354.189 290.178 353.614 289.95 352.985C289.722 352.357 289.625 351.688 289.665 351.02C289.728 349.711 290.288 348.474 291.232 347.564C292.176 346.653 293.432 346.138 294.743 346.122C295.412 346.121 296.073 346.257 296.688 346.521C297.302 346.786 297.856 347.173 298.314 347.659C298.773 348.146 299.128 348.721 299.356 349.35C299.584 349.978 299.681 350.647 299.641 351.314C299.582 352.625 299.023 353.864 298.079 354.776C297.134 355.687 295.876 356.201 294.563 356.212Z" opacity=".1"/></g><path fill="#407BFF" d="M308.963 374.465H279.984C279.564 374.469 279.147 374.385 278.761 374.219C278.375 374.054 278.028 373.81 277.741 373.503C277.454 373.196 277.233 372.833 277.094 372.436C276.955 372.04 276.899 371.619 276.931 371.2C276.963 370.344 277.317 369.532 277.923 368.927C278.528 368.321 279.34 367.967 280.196 367.935H309.176C309.596 367.931 310.012 368.015 310.398 368.181C310.784 368.346 311.132 368.59 311.419 368.897C311.706 369.204 311.926 369.567 312.065 369.964C312.205 370.36 312.26 370.781 312.229 371.2C312.196 372.056 311.842 372.868 311.236 373.473C310.631 374.079 309.819 374.433 308.963 374.465Z"/><path fill="#407BFF" d="M366.58 374.465H337.6C337.18 374.469 336.764 374.385 336.377 374.219C335.991 374.054 335.644 373.81 335.357 373.503C335.07 373.196 334.85 372.833 334.71 372.436C334.571 372.04 334.515 371.619 334.547 371.2C334.58 370.331 334.946 369.507 335.569 368.9C336.192 368.292 337.024 367.947 337.894 367.935H366.857C367.278 367.931 367.695 368.015 368.082 368.181C368.469 368.346 368.817 368.59 369.105 368.897C369.394 369.203 369.615 369.566 369.757 369.962C369.898 370.359 369.956 370.78 369.927 371.2C369.893 372.069 369.527 372.893 368.905 373.5C368.282 374.108 367.45 374.453 366.58 374.465Z"/><path fill="#407BFF" d="M424.196 374.465H395.216C394.796 374.469 394.379 374.385 393.992 374.219C393.605 374.054 393.256 373.81 392.968 373.503C392.68 373.197 392.458 372.834 392.317 372.438C392.175 372.041 392.118 371.62 392.147 371.2C392.18 370.331 392.546 369.507 393.169 368.9C393.792 368.292 394.624 367.947 395.494 367.935H424.49C424.91 367.931 425.326 368.015 425.712 368.181C426.098 368.346 426.446 368.59 426.733 368.897C427.02 369.204 427.24 369.567 427.379 369.964C427.519 370.36 427.574 370.781 427.543 371.2C427.513 372.071 427.149 372.897 426.525 373.505C425.902 374.113 425.067 374.457 424.196 374.465Z"/><path fill="#407BFF" d="M481.796 374.465H452.816C452.396 374.469 451.98 374.385 451.594 374.219C451.208 374.054 450.86 373.81 450.573 373.503C450.286 373.196 450.066 372.833 449.927 372.436C449.787 372.04 449.732 371.619 449.763 371.2C449.796 370.344 450.15 369.532 450.755 368.927C451.361 368.321 452.173 367.967 453.029 367.935H482.008C482.428 367.931 482.845 368.015 483.231 368.181C483.617 368.346 483.964 368.59 484.251 368.897C484.538 369.204 484.758 369.567 484.898 369.964C485.037 370.36 485.093 370.781 485.061 371.2C485.029 372.056 484.675 372.868 484.069 373.473C483.464 374.079 482.652 374.433 481.796 374.465Z"/><path fill="#407BFF" d="M539.412 374.465H510.433C510.013 374.469 509.596 374.385 509.21 374.219C508.824 374.054 508.476 373.81 508.19 373.503C507.903 373.196 507.682 372.833 507.543 372.436C507.404 372.04 507.348 371.619 507.38 371.2C507.413 370.331 507.779 369.507 508.402 368.9C509.024 368.292 509.857 367.947 510.727 367.935H539.706C540.126 367.931 540.543 368.015 540.929 368.181C541.315 368.346 541.662 368.59 541.949 368.897C542.236 369.204 542.456 369.567 542.596 369.964C542.735 370.36 542.791 370.781 542.759 371.2C542.726 372.069 542.36 372.893 541.737 373.5C541.114 374.108 540.282 374.453 539.412 374.465Z"/><path fill="#407BFF" d="M597.029 374.465H568.049C567.629 374.469 567.213 374.385 566.826 374.219C566.44 374.054 566.093 373.81 565.806 373.503C565.519 373.196 565.299 372.833 565.159 372.436C565.02 372.04 564.964 371.619 564.996 371.2C565.029 370.331 565.395 369.507 566.018 368.9C566.641 368.292 567.473 367.947 568.343 367.935H597.306C597.727 367.931 598.144 368.015 598.531 368.181C598.918 368.346 599.266 368.59 599.554 368.897C599.843 369.203 600.064 369.566 600.206 369.962C600.347 370.359 600.405 370.78 600.376 371.2C600.342 372.069 599.976 372.893 599.354 373.5C598.731 374.108 597.899 374.453 597.029 374.465Z"/><g opacity=".3"><path fill="#000" d="M308.963 374.465H279.984C279.564 374.469 279.147 374.385 278.761 374.219C278.375 374.054 278.028 373.81 277.741 373.503C277.454 373.196 277.233 372.833 277.094 372.436C276.955 372.04 276.899 371.619 276.931 371.2C276.963 370.344 277.317 369.532 277.923 368.927C278.528 368.321 279.34 367.967 280.196 367.935H309.176C309.596 367.931 310.012 368.015 310.398 368.181C310.784 368.346 311.132 368.59 311.419 368.897C311.706 369.204 311.926 369.567 312.065 369.964C312.205 370.36 312.26 370.781 312.229 371.2C312.196 372.056 311.842 372.868 311.236 373.473C310.631 374.079 309.819 374.433 308.963 374.465Z" opacity=".3"/><path fill="#000" d="M366.58 374.465H337.6C337.18 374.469 336.764 374.385 336.377 374.219C335.991 374.054 335.644 373.81 335.357 373.503C335.07 373.196 334.85 372.833 334.71 372.436C334.571 372.04 334.515 371.619 334.547 371.2C334.58 370.331 334.946 369.507 335.569 368.9C336.192 368.292 337.024 367.947 337.894 367.935H366.857C367.278 367.931 367.695 368.015 368.082 368.181C368.469 368.346 368.817 368.59 369.105 368.897C369.394 369.203 369.615 369.566 369.757 369.962C369.898 370.359 369.956 370.78 369.927 371.2C369.893 372.069 369.527 372.893 368.905 373.5C368.282 374.108 367.45 374.453 366.58 374.465Z" opacity=".3"/><path fill="#000" d="M424.196 374.465H395.216C394.796 374.469 394.379 374.385 393.992 374.219C393.605 374.054 393.256 373.81 392.968 373.503C392.68 373.197 392.458 372.834 392.317 372.438C392.176 372.041 392.118 371.62 392.147 371.2C392.18 370.331 392.546 369.507 393.169 368.9C393.792 368.292 394.624 367.947 395.494 367.935H424.49C424.91 367.931 425.326 368.015 425.712 368.181C426.098 368.346 426.446 368.59 426.733 368.897C427.02 369.204 427.24 369.567 427.379 369.964C427.519 370.36 427.574 370.781 427.543 371.2C427.513 372.071 427.149 372.897 426.525 373.505C425.902 374.113 425.067 374.457 424.196 374.465Z" opacity=".3"/><path fill="#000" d="M481.796 374.465H452.816C452.396 374.469 451.98 374.385 451.594 374.219C451.208 374.054 450.86 373.81 450.573 373.503C450.286 373.196 450.066 372.833 449.927 372.436C449.787 372.04 449.732 371.619 449.763 371.2C449.796 370.344 450.15 369.532 450.755 368.927C451.361 368.321 452.173 367.967 453.029 367.935H482.008C482.428 367.931 482.845 368.015 483.231 368.181C483.617 368.346 483.964 368.59 484.251 368.897C484.538 369.204 484.758 369.567 484.898 369.964C485.037 370.36 485.093 370.781 485.061 371.2C485.029 372.056 484.675 372.868 484.069 373.473C483.464 374.079 482.652 374.433 481.796 374.465Z" opacity=".3"/><path fill="#000" d="M539.412 374.465H510.433C510.013 374.469 509.596 374.385 509.21 374.219C508.824 374.054 508.476 373.81 508.19 373.503C507.903 373.196 507.682 372.833 507.543 372.436C507.404 372.04 507.348 371.619 507.38 371.2C507.413 370.331 507.779 369.507 508.402 368.9C509.024 368.292 509.857 367.947 510.727 367.935H539.706C540.126 367.931 540.543 368.015 540.929 368.181C541.315 368.346 541.662 368.59 541.949 368.897C542.236 369.204 542.456 369.567 542.596 369.964C542.735 370.36 542.791 370.781 542.759 371.2C542.726 372.069 542.36 372.893 541.737 373.5C541.114 374.108 540.282 374.453 539.412 374.465Z" opacity=".3"/><path fill="#000" d="M597.029 374.465H568.049C567.629 374.469 567.213 374.385 566.826 374.219C566.44 374.054 566.093 373.81 565.806 373.503C565.519 373.196 565.299 372.833 565.159 372.436C565.02 372.04 564.964 371.619 564.996 371.2C565.029 370.331 565.395 369.507 566.018 368.9C566.641 368.292 567.473 367.947 568.343 367.935H597.306C597.727 367.931 598.144 368.015 598.531 368.181C598.918 368.346 599.266 368.59 599.554 368.897C599.843 369.203 600.064 369.566 600.206 369.962C600.347 370.359 600.405 370.78 600.376 371.2C600.342 372.069 599.976 372.893 599.354 373.5C598.731 374.108 597.899 374.453 597.029 374.465Z" opacity=".3"/></g><path fill="#407BFF" d="M310.563 436.131H272.816C271.988 436.134 271.169 435.968 270.407 435.644C269.645 435.32 268.957 434.844 268.386 434.245C267.814 433.646 267.371 432.936 267.083 432.16C266.795 431.384 266.668 430.557 266.71 429.731L268.343 391.984C268.442 390.268 269.188 388.654 270.43 387.466C271.672 386.278 273.318 385.606 275.037 385.584H312.784C313.612 385.58 314.431 385.746 315.193 386.07C315.955 386.394 316.642 386.871 317.214 387.47C317.785 388.069 318.229 388.778 318.517 389.554C318.805 390.33 318.932 391.157 318.89 391.984L317.257 429.731C317.154 431.445 316.407 433.057 315.166 434.244C313.925 435.431 312.281 436.105 310.563 436.131Z"/><path fill="#407BFF" d="M368.18 436.131H330.433C329.604 436.136 328.783 435.972 328.02 435.649C327.257 435.325 326.569 434.849 325.997 434.25C325.425 433.65 324.982 432.94 324.694 432.163C324.407 431.386 324.282 430.558 324.326 429.731L325.959 391.984C326.058 390.268 326.804 388.654 328.046 387.466C329.288 386.278 330.935 385.606 332.653 385.584H370.449C371.278 385.581 372.098 385.746 372.861 386.07C373.623 386.394 374.312 386.87 374.885 387.469C375.457 388.068 375.902 388.777 376.192 389.553C376.482 390.329 376.611 391.156 376.571 391.984L374.857 429.731C374.762 431.445 374.02 433.059 372.78 434.247C371.541 435.435 369.896 436.108 368.18 436.131Z"/><path fill="#407BFF" d="M425.78 436.131H388.049C387.22 436.134 386.4 435.968 385.637 435.644C384.875 435.32 384.186 434.844 383.613 434.245C383.041 433.647 382.596 432.938 382.306 432.161C382.016 431.385 381.887 430.558 381.927 429.731L383.559 391.984C383.658 390.268 384.404 388.654 385.646 387.466C386.888 386.278 388.535 385.606 390.253 385.584H427.984C428.812 385.578 429.633 385.742 430.396 386.065C431.159 386.389 431.847 386.865 432.419 387.464C432.991 388.064 433.435 388.774 433.722 389.551C434.009 390.329 434.134 391.156 434.09 391.984L432.457 429.731C432.358 431.444 431.615 433.056 430.376 434.243C429.137 435.43 427.495 436.105 425.78 436.131Z"/><path fill="#407BFF" d="M483.396 436.131H445.714C444.885 436.136 444.063 435.972 443.3 435.649C442.536 435.326 441.846 434.85 441.273 434.251C440.7 433.651 440.255 432.941 439.966 432.164C439.677 431.387 439.55 430.559 439.592 429.731L441.224 391.984C441.32 390.269 442.062 388.655 443.301 387.467C444.541 386.279 446.185 385.606 447.902 385.584H485.649C486.477 385.58 487.297 385.746 488.058 386.07C488.82 386.394 489.508 386.871 490.079 387.47C490.651 388.069 491.094 388.778 491.382 389.554C491.67 390.33 491.797 391.157 491.755 391.984L490.122 429.731C490.023 431.452 489.273 433.071 488.024 434.26C486.774 435.448 485.12 436.117 483.396 436.131Z"/><path fill="#407BFF" d="M541.012 436.131H503.265C502.437 436.134 501.618 435.968 500.856 435.644C500.094 435.32 499.406 434.844 498.835 434.245C498.263 433.646 497.82 432.936 497.532 432.16C497.244 431.384 497.117 430.557 497.159 429.731L498.792 391.984C498.891 390.268 499.637 388.654 500.879 387.466C502.121 386.278 503.767 385.606 505.486 385.584H543.216C544.046 385.578 544.867 385.742 545.631 386.065C546.395 386.389 547.084 386.864 547.657 387.464C548.231 388.063 548.675 388.773 548.965 389.55C549.254 390.327 549.381 391.155 549.339 391.984L547.706 429.731C547.603 431.445 546.856 433.057 545.615 434.244C544.374 435.431 542.73 436.105 541.012 436.131Z"/><path fill="#407BFF" d="M598.612 436.131H560.882C560.053 436.136 559.232 435.972 558.469 435.649C557.706 435.325 557.018 434.849 556.446 434.25C555.874 433.65 555.431 432.94 555.143 432.163C554.856 431.386 554.731 430.558 554.776 429.731L556.408 391.984C556.507 390.268 557.253 388.654 558.495 387.466C559.737 386.278 561.384 385.606 563.102 385.584H600.833C601.661 385.581 602.482 385.746 603.244 386.07C604.007 386.394 604.696 386.87 605.268 387.469C605.841 388.068 606.286 388.777 606.576 389.553C606.866 390.329 606.995 391.156 606.955 391.984L605.241 429.731C605.146 431.437 604.411 433.044 603.182 434.231C601.953 435.418 600.321 436.096 598.612 436.131Z"/><g opacity=".8"><path fill="#FAFAFA" d="M310.563 436.131H272.816C271.988 436.134 271.169 435.968 270.407 435.644C269.645 435.32 268.957 434.844 268.386 434.245C267.814 433.646 267.371 432.936 267.083 432.16C266.795 431.384 266.668 430.557 266.71 429.731L268.343 391.984C268.442 390.268 269.188 388.653 270.43 387.466C271.672 386.278 273.318 385.606 275.037 385.584H312.784C313.612 385.58 314.431 385.746 315.193 386.07C315.955 386.394 316.642 386.871 317.214 387.47C317.785 388.069 318.229 388.778 318.517 389.554C318.805 390.33 318.932 391.157 318.89 391.984L317.257 429.731C317.154 431.445 316.407 433.057 315.166 434.244C313.925 435.431 312.281 436.105 310.563 436.131Z" opacity=".8"/><path fill="#FAFAFA" d="M368.18 436.131H330.433C329.604 436.136 328.783 435.972 328.02 435.649C327.257 435.325 326.569 434.849 325.997 434.25C325.425 433.65 324.982 432.94 324.694 432.163C324.407 431.386 324.282 430.558 324.326 429.731L325.959 391.984C326.058 390.268 326.804 388.654 328.046 387.466C329.288 386.278 330.935 385.606 332.653 385.584H370.449C371.278 385.581 372.098 385.746 372.861 386.07C373.623 386.394 374.312 386.87 374.885 387.469C375.457 388.068 375.902 388.777 376.192 389.553C376.482 390.329 376.611 391.156 376.571 391.984L374.857 429.731C374.762 431.445 374.02 433.059 372.78 434.247C371.541 435.435 369.896 436.108 368.18 436.131Z" opacity=".8"/><path fill="#FAFAFA" d="M425.78 436.131H388.049C387.22 436.134 386.4 435.968 385.637 435.644C384.875 435.32 384.186 434.844 383.613 434.245C383.041 433.647 382.596 432.938 382.306 432.161C382.016 431.385 381.887 430.558 381.927 429.731L383.559 391.984C383.658 390.268 384.404 388.654 385.646 387.466C386.888 386.278 388.535 385.606 390.253 385.584H427.984C428.812 385.578 429.633 385.742 430.396 386.065C431.159 386.389 431.847 386.865 432.419 387.464C432.991 388.064 433.435 388.774 433.722 389.551C434.009 390.329 434.134 391.156 434.09 391.984L432.457 429.731C432.358 431.444 431.615 433.056 430.376 434.243C429.137 435.43 427.495 436.105 425.78 436.131Z" opacity=".8"/><path fill="#FAFAFA" d="M483.396 436.131H445.714C444.885 436.136 444.063 435.972 443.3 435.649C442.536 435.326 441.846 434.85 441.273 434.251C440.7 433.651 440.255 432.941 439.966 432.164C439.677 431.387 439.55 430.559 439.592 429.731L441.224 391.984C441.319 390.269 442.062 388.655 443.301 387.467C444.541 386.279 446.185 385.606 447.902 385.584H485.649C486.477 385.58 487.297 385.746 488.058 386.07C488.82 386.394 489.508 386.871 490.079 387.47C490.651 388.069 491.094 388.778 491.382 389.554C491.67 390.33 491.797 391.157 491.755 391.984L490.122 429.731C490.023 431.452 489.273 433.071 488.024 434.26C486.774 435.448 485.12 436.117 483.396 436.131Z" opacity=".8"/><path fill="#FAFAFA" d="M541.012 436.131H503.265C502.437 436.134 501.618 435.968 500.856 435.644C500.094 435.32 499.406 434.844 498.835 434.245C498.263 433.646 497.82 432.936 497.532 432.16C497.244 431.384 497.117 430.557 497.159 429.731L498.792 391.984C498.891 390.268 499.637 388.654 500.879 387.466C502.121 386.278 503.767 385.606 505.486 385.584H543.216C544.046 385.578 544.867 385.742 545.631 386.065C546.395 386.389 547.084 386.864 547.657 387.464C548.231 388.063 548.675 388.773 548.965 389.55C549.254 390.327 549.381 391.155 549.339 391.984L547.706 429.731C547.603 431.445 546.856 433.057 545.615 434.244C544.374 435.431 542.729 436.105 541.012 436.131Z" opacity=".8"/><path fill="#FAFAFA" d="M598.612 436.131H560.882C560.053 436.136 559.232 435.972 558.469 435.649C557.706 435.325 557.018 434.849 556.446 434.25C555.874 433.65 555.431 432.94 555.143 432.163C554.856 431.386 554.731 430.558 554.775 429.731L556.408 391.984C556.507 390.268 557.253 388.654 558.495 387.466C559.737 386.278 561.384 385.606 563.102 385.584H600.833C601.661 385.581 602.482 385.746 603.244 386.07C604.007 386.394 604.696 386.87 605.268 387.469C605.841 388.068 606.286 388.777 606.576 389.553C606.866 390.329 606.995 391.156 606.955 391.984L605.241 429.731C605.146 431.437 604.411 433.044 603.182 434.231C601.953 435.418 600.32 436.096 598.612 436.131Z" opacity=".8"/></g><path fill="#407BFF" d="M307.918 494.694H270.171C269.344 494.697 268.524 494.532 267.762 494.207C267 493.883 266.313 493.407 265.741 492.808C265.17 492.209 264.726 491.5 264.438 490.724C264.15 489.947 264.023 489.121 264.065 488.294L265.698 450.547C265.801 448.833 266.548 447.22 267.789 446.033C269.03 444.847 270.675 444.173 272.392 444.147H310.204C311.032 444.144 311.852 444.309 312.614 444.633C313.375 444.958 314.063 445.434 314.634 446.033C315.206 446.632 315.649 447.341 315.937 448.117C316.225 448.893 316.352 449.72 316.31 450.547L314.678 488.294C314.574 490.019 313.818 491.641 312.563 492.829C311.307 494.018 309.647 494.685 307.918 494.694Z"/><path fill="#407BFF" d="M365.535 494.694H327.788C326.96 494.697 326.14 494.532 325.378 494.207C324.617 493.883 323.929 493.407 323.357 492.808C322.786 492.209 322.343 491.5 322.054 490.724C321.766 489.947 321.639 489.121 321.682 488.294L323.314 450.547C323.413 448.831 324.159 447.217 325.401 446.029C326.643 444.841 328.29 444.169 330.008 444.147H367.739C368.575 444.141 369.403 444.307 370.172 444.634C370.941 444.961 371.635 445.442 372.21 446.049C372.786 446.655 373.23 447.372 373.517 448.157C373.804 448.942 373.927 449.778 373.878 450.612L372.245 488.294C372.149 490.014 371.403 491.633 370.156 492.822C368.91 494.01 367.257 494.68 365.535 494.694Z"/><path fill="#407BFF" d="M423.135 494.694H385.404C384.576 494.7 383.755 494.536 382.992 494.212C382.229 493.889 381.54 493.413 380.968 492.813C380.396 492.214 379.953 491.503 379.666 490.726C379.379 489.949 379.253 489.121 379.298 488.294L380.931 450.547C381.03 448.831 381.775 447.217 383.018 446.029C384.26 444.841 385.906 444.169 387.624 444.147H425.355C426.184 444.141 427.005 444.305 427.767 444.629C428.53 444.952 429.219 445.428 429.791 446.028C430.363 446.627 430.806 447.337 431.093 448.115C431.381 448.892 431.506 449.72 431.461 450.547L429.829 488.294C429.73 490.01 428.984 491.624 427.742 492.812C426.499 493.999 424.853 494.672 423.135 494.694Z"/><path fill="#407BFF" d="M480.751 494.694H443.02C442.192 494.697 441.371 494.532 440.609 494.207C439.846 493.883 439.157 493.407 438.585 492.809C438.012 492.21 437.567 491.501 437.277 490.725C436.987 489.949 436.858 489.121 436.898 488.294L438.531 450.547C438.626 448.833 439.368 447.218 440.607 446.03C441.847 444.842 443.491 444.169 445.208 444.147H482.955C483.796 444.132 484.63 444.291 485.406 444.614C486.182 444.937 486.883 445.418 487.464 446.025C488.045 446.632 488.495 447.354 488.784 448.143C489.073 448.932 489.195 449.773 489.143 450.612L487.51 488.359C487.394 490.074 486.633 491.682 485.378 492.858C484.124 494.033 482.47 494.69 480.751 494.694Z"/><path fill="#407BFF" d="M538.367 494.694H500.62C499.793 494.697 498.973 494.532 498.211 494.207C497.449 493.883 496.762 493.407 496.19 492.808C495.619 492.209 495.175 491.5 494.887 490.724C494.599 489.947 494.472 489.121 494.514 488.294L496.147 450.547C496.234 448.818 496.976 447.187 498.223 445.986C499.469 444.785 501.126 444.104 502.857 444.082H540.604C541.432 444.078 542.252 444.244 543.014 444.568C543.775 444.892 544.463 445.369 545.034 445.968C545.606 446.567 546.049 447.276 546.337 448.052C546.625 448.828 546.752 449.655 546.71 450.482L545.078 488.229C544.99 489.957 544.248 491.588 543.002 492.789C541.755 493.99 540.098 494.671 538.367 494.694Z"/><path fill="#407BFF" d="M595.918 494.694H558.237C557.408 494.7 556.587 494.536 555.824 494.212C555.062 493.889 554.373 493.413 553.801 492.813C553.229 492.214 552.786 491.503 552.499 490.726C552.211 489.949 552.086 489.121 552.131 488.294L553.763 450.547C553.862 448.831 554.608 447.217 555.85 446.029C557.092 444.841 558.739 444.169 560.457 444.147H598.188C599.016 444.144 599.837 444.309 600.6 444.633C601.362 444.957 602.051 445.433 602.623 446.032C603.196 446.631 603.641 447.34 603.931 448.116C604.221 448.892 604.35 449.719 604.31 450.547L602.596 488.294C602.501 490.008 601.759 491.622 600.519 492.811C599.28 493.999 597.635 494.672 595.918 494.694Z"/><g opacity=".8"><path fill="#FAFAFA" d="M307.918 494.694H270.171C269.344 494.697 268.524 494.532 267.762 494.207C267 493.883 266.313 493.407 265.741 492.808C265.17 492.209 264.726 491.5 264.438 490.724C264.15 489.947 264.023 489.121 264.065 488.294L265.698 450.547C265.801 448.833 266.548 447.22 267.789 446.033C269.03 444.847 270.675 444.173 272.392 444.147H310.204C311.032 444.144 311.852 444.309 312.614 444.633C313.375 444.958 314.063 445.434 314.634 446.033C315.206 446.632 315.649 447.341 315.937 448.117C316.225 448.893 316.352 449.72 316.31 450.547L314.678 488.294C314.574 490.019 313.818 491.641 312.563 492.829C311.307 494.018 309.647 494.685 307.918 494.694Z" opacity=".8"/><path fill="#FAFAFA" d="M365.535 494.694H327.788C326.96 494.697 326.14 494.532 325.378 494.207C324.617 493.883 323.929 493.407 323.357 492.808C322.786 492.209 322.343 491.5 322.054 490.724C321.766 489.947 321.639 489.121 321.682 488.294L323.314 450.547C323.413 448.831 324.159 447.217 325.401 446.029C326.643 444.841 328.29 444.169 330.008 444.147H367.739C368.575 444.141 369.403 444.307 370.172 444.634C370.941 444.961 371.635 445.442 372.21 446.049C372.786 446.655 373.23 447.372 373.517 448.157C373.804 448.942 373.927 449.778 373.878 450.612L372.245 488.294C372.149 490.014 371.403 491.633 370.156 492.822C368.91 494.01 367.257 494.68 365.535 494.694Z" opacity=".8"/><path fill="#FAFAFA" d="M423.135 494.694H385.404C384.575 494.7 383.755 494.536 382.992 494.212C382.229 493.889 381.54 493.413 380.968 492.813C380.396 492.214 379.953 491.503 379.666 490.726C379.379 489.949 379.253 489.121 379.298 488.294L380.931 450.547C381.03 448.831 381.775 447.217 383.018 446.029C384.26 444.841 385.906 444.169 387.624 444.147H425.355C426.184 444.141 427.005 444.305 427.767 444.629C428.53 444.952 429.219 445.428 429.791 446.028C430.363 446.627 430.806 447.337 431.093 448.115C431.381 448.892 431.506 449.72 431.461 450.547L429.829 488.294C429.729 490.01 428.984 491.624 427.742 492.812C426.499 493.999 424.853 494.672 423.135 494.694Z" opacity=".8"/><path fill="#FAFAFA" d="M480.751 494.694H443.02C442.192 494.697 441.371 494.532 440.609 494.207C439.846 493.883 439.157 493.407 438.585 492.809C438.012 492.21 437.567 491.501 437.277 490.725C436.987 489.949 436.858 489.121 436.898 488.294L438.531 450.547C438.626 448.833 439.368 447.218 440.607 446.03C441.847 444.842 443.491 444.169 445.208 444.147H482.955C483.796 444.132 484.63 444.291 485.406 444.614C486.182 444.937 486.883 445.418 487.464 446.025C488.045 446.632 488.495 447.354 488.784 448.143C489.072 448.932 489.195 449.773 489.143 450.612L487.51 488.359C487.394 490.074 486.633 491.682 485.378 492.858C484.124 494.033 482.47 494.689 480.751 494.694Z" opacity=".8"/><path fill="#FAFAFA" d="M538.367 494.694H500.62C499.792 494.697 498.973 494.532 498.211 494.207C497.449 493.883 496.761 493.407 496.19 492.808C495.619 492.209 495.175 491.5 494.887 490.724C494.599 489.947 494.472 489.121 494.514 488.294L496.147 450.547C496.234 448.818 496.976 447.187 498.223 445.986C499.469 444.785 501.126 444.104 502.857 444.082H540.604C541.432 444.078 542.252 444.244 543.013 444.568C543.775 444.892 544.463 445.369 545.034 445.968C545.606 446.567 546.049 447.276 546.337 448.052C546.625 448.828 546.752 449.655 546.71 450.482L545.077 488.229C544.99 489.957 544.248 491.588 543.002 492.789C541.755 493.99 540.098 494.671 538.367 494.694Z" opacity=".8"/><path fill="#FAFAFA" d="M595.918 494.694H558.237C557.408 494.7 556.587 494.536 555.824 494.212C555.062 493.889 554.373 493.413 553.801 492.813C553.229 492.214 552.786 491.503 552.498 490.726C552.211 489.949 552.086 489.121 552.131 488.294L553.763 450.547C553.862 448.831 554.608 447.217 555.85 446.029C557.092 444.841 558.739 444.169 560.457 444.147H598.188C599.016 444.144 599.837 444.309 600.599 444.633C601.362 444.957 602.051 445.433 602.623 446.032C603.196 446.631 603.641 447.34 603.931 448.116C604.221 448.892 604.35 449.719 604.31 450.547L602.596 488.294C602.501 490.008 601.759 491.622 600.519 492.81C599.279 493.999 597.635 494.672 595.918 494.694Z" opacity=".8"/></g><path fill="#407BFF" d="M305.306 553.241H267.527C266.698 553.246 265.877 553.083 265.114 552.759C264.351 552.436 263.663 551.96 263.091 551.36C262.519 550.761 262.076 550.05 261.788 549.273C261.501 548.496 261.376 547.668 261.42 546.841L263.053 509.11C263.152 507.394 263.898 505.78 265.14 504.592C266.382 503.405 268.028 502.732 269.747 502.71H307.494C308.322 502.705 309.143 502.869 309.906 503.192C310.669 503.515 311.358 503.992 311.93 504.591C312.502 505.191 312.945 505.901 313.232 506.678C313.519 507.455 313.645 508.283 313.6 509.11L311.967 546.841C311.873 548.552 311.133 550.164 309.896 551.352C308.66 552.54 307.02 553.214 305.306 553.241Z"/><path fill="#407BFF" d="M362.89 553.241H325.143C324.314 553.246 323.493 553.083 322.731 552.759C321.968 552.436 321.279 551.959 320.707 551.36C320.135 550.76 319.692 550.05 319.405 549.273C319.117 548.496 318.992 547.668 319.037 546.841L320.669 509.11C320.765 507.393 321.509 505.776 322.752 504.588C323.995 503.4 325.644 502.728 327.363 502.71H365.094C365.924 502.702 366.747 502.865 367.511 503.187C368.276 503.509 368.967 503.985 369.54 504.585C370.114 505.185 370.559 505.896 370.847 506.674C371.135 507.452 371.261 508.281 371.216 509.11L369.584 546.841C369.492 548.559 368.749 550.178 367.505 551.367C366.261 552.557 364.611 553.227 362.89 553.241Z"/><path fill="#407BFF" d="M420.49 553.241H382.759C381.931 553.246 381.11 553.083 380.347 552.759C379.584 552.436 378.895 551.96 378.323 551.36C377.751 550.761 377.308 550.05 377.021 549.273C376.734 548.496 376.608 547.668 376.653 546.841L378.286 509.11C378.381 507.393 379.126 505.776 380.369 504.588C381.612 503.4 383.26 502.728 384.98 502.71H422.857C423.686 502.705 424.508 502.869 425.272 503.192C426.035 503.515 426.725 503.991 427.298 504.59C427.871 505.189 428.316 505.899 428.605 506.677C428.895 507.454 429.022 508.282 428.98 509.11L427.265 546.841C427.169 548.572 426.413 550.2 425.153 551.391C423.892 552.581 422.224 553.243 420.49 553.241Z"/><path fill="#407BFF" d="M478.106 553.241H440.376C439.546 553.246 438.725 553.082 437.961 552.759C437.197 552.436 436.508 551.96 435.934 551.361C435.361 550.762 434.916 550.052 434.627 549.274C434.338 548.497 434.211 547.669 434.253 546.841L435.886 509.11C435.977 507.395 436.718 505.778 437.958 504.589C439.199 503.4 440.845 502.729 442.563 502.71H480.31C481.139 502.705 481.96 502.869 482.723 503.192C483.485 503.515 484.174 503.992 484.746 504.591C485.318 505.191 485.761 505.901 486.048 506.678C486.336 507.455 486.461 508.283 486.416 509.11L484.784 546.841C484.689 548.555 483.946 550.169 482.707 551.357C481.467 552.545 479.823 553.219 478.106 553.241Z"/><path fill="#407BFF" d="M535.722 553.241H497.959C497.131 553.246 496.31 553.083 495.547 552.759C494.784 552.436 494.095 551.96 493.523 551.36C492.951 550.761 492.508 550.05 492.221 549.273C491.934 548.496 491.809 547.668 491.853 546.841L493.486 509.11C493.585 507.394 494.331 505.78 495.573 504.592C496.815 503.405 498.461 502.732 500.18 502.71H537.927C538.755 502.705 539.576 502.869 540.339 503.192C541.102 503.515 541.79 503.992 542.362 504.591C542.934 505.191 543.377 505.901 543.665 506.678C543.952 507.455 544.077 508.283 544.033 509.11L542.4 546.841C542.301 548.554 541.558 550.166 540.319 551.353C539.08 552.54 537.438 553.215 535.722 553.241Z"/><path fill="#407BFF" d="M593.339 553.241H555.592C554.763 553.246 553.942 553.083 553.18 552.759C552.417 552.436 551.728 551.96 551.156 551.36C550.584 550.761 550.141 550.05 549.854 549.273C549.566 548.496 549.441 547.668 549.486 546.841L551.118 509.11C551.214 507.393 551.958 505.776 553.201 504.588C554.444 503.4 556.093 502.728 557.812 502.71H595.543C596.372 502.705 597.194 502.869 597.957 503.192C598.721 503.515 599.411 503.991 599.984 504.59C600.557 505.189 601.002 505.899 601.291 506.677C601.58 507.454 601.708 508.282 601.665 509.11L599.951 546.841C599.861 548.545 599.129 550.153 597.902 551.34C596.676 552.527 595.045 553.206 593.339 553.241Z"/><g opacity=".8"><path fill="#FAFAFA" d="M305.306 553.241H267.527C266.698 553.246 265.877 553.082 265.114 552.759C264.351 552.436 263.663 551.959 263.091 551.36C262.519 550.76 262.076 550.05 261.788 549.273C261.501 548.496 261.376 547.668 261.42 546.841L263.053 509.11C263.152 507.394 263.898 505.78 265.14 504.592C266.382 503.405 268.028 502.732 269.747 502.71H307.494C308.322 502.704 309.143 502.868 309.906 503.192C310.669 503.515 311.358 503.991 311.93 504.591C312.502 505.19 312.945 505.901 313.232 506.678C313.519 507.455 313.645 508.283 313.6 509.11L311.967 546.841C311.873 548.552 311.133 550.164 309.896 551.352C308.66 552.539 307.02 553.214 305.306 553.241Z" opacity=".8"/><path fill="#FAFAFA" d="M362.89 553.241H325.143C324.314 553.246 323.493 553.083 322.731 552.759C321.968 552.436 321.279 551.96 320.707 551.36C320.135 550.761 319.692 550.05 319.405 549.273C319.117 548.496 318.992 547.668 319.037 546.841L320.669 509.11C320.765 507.393 321.509 505.776 322.752 504.588C323.995 503.4 325.644 502.728 327.363 502.71H365.094C365.924 502.702 366.747 502.865 367.511 503.187C368.276 503.509 368.967 503.985 369.54 504.585C370.114 505.185 370.559 505.896 370.847 506.674C371.135 507.452 371.261 508.281 371.216 509.11L369.584 546.841C369.492 548.559 368.749 550.178 367.505 551.367C366.261 552.557 364.611 553.227 362.89 553.241Z" opacity=".8"/><path fill="#FAFAFA" d="M420.49 553.241H382.759C381.931 553.246 381.11 553.083 380.347 552.759C379.584 552.436 378.895 551.96 378.323 551.36C377.751 550.761 377.308 550.05 377.021 549.273C376.734 548.496 376.608 547.668 376.653 546.841L378.286 509.11C378.381 507.393 379.126 505.776 380.369 504.588C381.612 503.4 383.26 502.728 384.98 502.71H422.857C423.686 502.705 424.508 502.869 425.272 503.192C426.035 503.515 426.725 503.991 427.298 504.59C427.871 505.189 428.316 505.899 428.605 506.677C428.895 507.454 429.022 508.282 428.98 509.11L427.265 546.841C427.169 548.572 426.413 550.2 425.153 551.391C423.892 552.581 422.224 553.243 420.49 553.241Z" opacity=".8"/><path fill="#FAFAFA" d="M478.106 553.241H440.376C439.546 553.246 438.725 553.082 437.961 552.759C437.197 552.436 436.508 551.96 435.934 551.361C435.361 550.762 434.916 550.052 434.627 549.274C434.338 548.497 434.211 547.669 434.253 546.841L435.886 509.11C435.977 507.395 436.718 505.778 437.958 504.589C439.199 503.4 440.845 502.729 442.563 502.71H480.31C481.139 502.705 481.96 502.869 482.723 503.192C483.485 503.515 484.174 503.992 484.746 504.591C485.318 505.191 485.761 505.901 486.048 506.678C486.336 507.455 486.461 508.283 486.416 509.11L484.784 546.841C484.689 548.555 483.946 550.169 482.707 551.357C481.467 552.546 479.823 553.219 478.106 553.241Z" opacity=".8"/><path fill="#FAFAFA" d="M535.722 553.241H497.959C497.131 553.246 496.31 553.083 495.547 552.759C494.784 552.436 494.095 551.96 493.523 551.36C492.951 550.761 492.508 550.05 492.221 549.273C491.934 548.496 491.809 547.668 491.853 546.841L493.486 509.11C493.585 507.394 494.331 505.78 495.573 504.592C496.815 503.405 498.461 502.732 500.18 502.71H537.927C538.755 502.705 539.576 502.869 540.339 503.192C541.102 503.515 541.79 503.992 542.362 504.591C542.934 505.191 543.377 505.901 543.665 506.678C543.952 507.455 544.077 508.283 544.033 509.11L542.4 546.841C542.301 548.554 541.558 550.166 540.319 551.353C539.08 552.54 537.438 553.215 535.722 553.241Z" opacity=".8"/><path fill="#FAFAFA" d="M593.339 553.241H555.592C554.763 553.246 553.942 553.083 553.18 552.759C552.417 552.436 551.728 551.96 551.156 551.36C550.584 550.761 550.141 550.05 549.854 549.273C549.566 548.496 549.441 547.668 549.486 546.841L551.118 509.11C551.214 507.393 551.958 505.776 553.201 504.588C554.444 503.4 556.093 502.728 557.812 502.71H595.543C596.372 502.705 597.194 502.869 597.957 503.192C598.721 503.515 599.411 503.991 599.984 504.59C600.557 505.189 601.002 505.899 601.291 506.677C601.58 507.454 601.708 508.282 601.665 509.11L599.951 546.841C599.861 548.545 599.129 550.153 597.902 551.34C596.676 552.527 595.045 553.206 593.339 553.241Z" opacity=".8"/></g><path fill="#407BFF" d="M294.612 355.004C280.702 355.004 269.796 338.825 269.796 318.171C269.796 297.518 280.702 281.355 294.612 281.355C308.522 281.355 319.445 297.535 319.445 318.171C319.382 319.139 318.952 320.047 318.244 320.71C317.536 321.373 316.603 321.742 315.633 321.742C314.663 321.742 313.729 321.373 313.021 320.71C312.313 320.047 311.884 319.139 311.82 318.171C311.82 302.351 303.951 288.963 294.612 288.963C285.273 288.963 277.404 302.351 277.404 318.171C277.404 333.992 285.29 347.38 294.612 347.38C295.134 347.345 295.657 347.419 296.149 347.595C296.641 347.771 297.092 348.046 297.474 348.404C297.855 348.761 298.159 349.193 298.367 349.672C298.575 350.152 298.682 350.669 298.682 351.192C298.682 351.715 298.575 352.232 298.367 352.711C298.159 353.191 297.855 353.623 297.474 353.98C297.092 354.337 296.641 354.613 296.149 354.789C295.657 354.965 295.134 355.038 294.612 355.004Z"/><path fill="#407BFF" d="M352.229 355.004C338.318 355.004 327.412 338.825 327.412 318.171C327.412 297.518 338.318 281.355 352.229 281.355C366.139 281.355 377.143 297.535 377.143 318.171C377.079 319.139 376.65 320.047 375.942 320.71C375.234 321.373 374.301 321.742 373.331 321.742C372.361 321.742 371.427 321.373 370.719 320.71C370.011 320.047 369.582 319.139 369.518 318.171C369.518 302.351 361.649 288.963 352.31 288.963C342.971 288.963 335.102 302.351 335.102 318.171C335.102 333.992 342.988 347.38 352.31 347.38C353.278 347.443 354.186 347.872 354.849 348.58C355.512 349.288 355.881 350.222 355.881 351.192C355.881 352.162 355.512 353.096 354.849 353.804C354.186 354.511 353.278 354.941 352.31 355.004H352.229Z"/><path fill="#407BFF" d="M409.796 355.004C395.869 355.004 384.963 338.825 384.963 318.171C384.963 297.518 395.869 281.355 409.796 281.355C423.722 281.355 434.612 297.535 434.612 318.171C434.612 319.18 434.211 320.148 433.498 320.861C432.785 321.575 431.817 321.976 430.808 321.976C429.799 321.976 428.832 321.575 428.118 320.861C427.405 320.148 427.004 319.18 427.004 318.171C427.004 302.351 419.118 288.963 409.796 288.963C400.473 288.963 392.588 302.351 392.588 318.171C392.588 333.992 400.473 347.38 409.796 347.38C410.764 347.443 411.671 347.872 412.335 348.58C412.998 349.288 413.367 350.222 413.367 351.192C413.367 352.162 412.998 353.096 412.335 353.804C411.671 354.511 410.764 354.941 409.796 355.004Z"/><path fill="#407BFF" d="M467.461 355.004C453.535 355.004 442.629 338.825 442.629 318.171C442.629 297.518 453.535 281.355 467.461 281.355C481.388 281.355 492.278 297.535 492.278 318.171C492.278 319.18 491.877 320.148 491.163 320.861C490.45 321.575 489.482 321.976 488.473 321.976C487.465 321.976 486.497 321.575 485.784 320.861C485.07 320.148 484.669 319.18 484.669 318.171C484.669 302.351 476.784 288.963 467.461 288.963C458.139 288.963 450.253 302.351 450.253 318.171C450.253 333.992 458.122 347.38 467.461 347.38C468.429 347.443 469.337 347.872 470 348.58C470.663 349.288 471.032 350.222 471.032 351.192C471.032 352.162 470.663 353.096 470 353.804C469.337 354.511 468.429 354.941 467.461 355.004Z"/><path fill="#407BFF" d="M525.061 355.004C511.151 355.004 500.245 338.825 500.245 318.171C500.245 297.518 511.151 281.355 525.061 281.355C538.971 281.355 549.894 297.535 549.894 318.171C549.83 319.139 549.401 320.047 548.693 320.71C547.985 321.373 547.052 321.742 546.082 321.742C545.112 321.742 544.178 321.373 543.47 320.71C542.762 320.047 542.333 319.139 542.269 318.171C542.269 302.351 534.4 288.963 525.061 288.963C515.722 288.963 507.853 302.351 507.853 318.171C507.853 333.992 515.739 347.38 525.061 347.38C525.583 347.345 526.106 347.419 526.598 347.595C527.09 347.771 527.541 348.046 527.922 348.404C528.304 348.761 528.608 349.193 528.816 349.672C529.024 350.152 529.131 350.669 529.131 351.192C529.131 351.715 529.024 352.232 528.816 352.711C528.608 353.191 528.304 353.623 527.922 353.98C527.541 354.337 527.09 354.613 526.598 354.789C526.106 354.965 525.583 355.038 525.061 355.004Z"/><path fill="#407BFF" d="M582.678 355.004C568.767 355.004 557.861 338.825 557.861 318.171C557.861 297.518 568.767 281.355 582.678 281.355C596.588 281.355 607.51 297.535 607.51 318.171C607.447 319.139 607.018 320.047 606.31 320.71C605.602 321.373 604.668 321.742 603.698 321.742C602.728 321.742 601.794 321.373 601.086 320.71C600.378 320.047 599.949 319.139 599.886 318.171C599.886 302.351 592 288.963 582.678 288.963C573.355 288.963 565.469 302.351 565.469 318.171C565.469 333.992 573.355 347.38 582.678 347.38C583.646 347.443 584.553 347.872 585.216 348.58C585.879 349.288 586.248 350.222 586.248 351.192C586.248 352.162 585.879 353.096 585.216 353.804C584.553 354.511 583.646 354.941 582.678 355.004Z"/><g opacity=".3"><path fill="#000" d="M294.612 355.004C280.702 355.004 269.796 338.825 269.796 318.171C269.796 297.518 280.702 281.355 294.612 281.355C308.522 281.355 319.445 297.535 319.445 318.171C319.382 319.139 318.952 320.047 318.244 320.71C317.536 321.373 316.603 321.742 315.633 321.742C314.663 321.742 313.729 321.373 313.021 320.71C312.313 320.047 311.884 319.139 311.82 318.171C311.82 302.351 303.951 288.963 294.612 288.963C285.273 288.963 277.404 302.351 277.404 318.171C277.404 333.992 285.29 347.38 294.612 347.38C295.134 347.345 295.657 347.419 296.149 347.595C296.641 347.771 297.092 348.046 297.474 348.404C297.855 348.761 298.159 349.193 298.367 349.672C298.575 350.152 298.682 350.669 298.682 351.192C298.682 351.715 298.575 352.232 298.367 352.711C298.159 353.191 297.855 353.623 297.474 353.98C297.092 354.337 296.641 354.613 296.149 354.789C295.657 354.965 295.134 355.038 294.612 355.004Z" opacity=".3"/><path fill="#000" d="M352.229 355.004C338.318 355.004 327.412 338.825 327.412 318.171C327.412 297.518 338.318 281.355 352.229 281.355C366.139 281.355 377.143 297.535 377.143 318.171C377.079 319.139 376.65 320.047 375.942 320.71C375.234 321.373 374.301 321.742 373.331 321.742C372.361 321.742 371.427 321.373 370.719 320.71C370.011 320.047 369.582 319.139 369.518 318.171C369.518 302.351 361.649 288.963 352.31 288.963C342.971 288.963 335.102 302.351 335.102 318.171C335.102 333.992 342.988 347.38 352.31 347.38C353.278 347.443 354.186 347.872 354.849 348.58C355.512 349.288 355.881 350.222 355.881 351.192C355.881 352.162 355.512 353.096 354.849 353.804C354.186 354.511 353.278 354.941 352.31 355.004H352.229Z" opacity=".3"/><path fill="#000" d="M409.796 355.004C395.869 355.004 384.963 338.825 384.963 318.171C384.963 297.518 395.869 281.355 409.796 281.355C423.722 281.355 434.612 297.535 434.612 318.171C434.612 319.18 434.211 320.148 433.498 320.861C432.785 321.575 431.817 321.976 430.808 321.976C429.799 321.976 428.832 321.575 428.118 320.861C427.405 320.148 427.004 319.18 427.004 318.171C427.004 302.351 419.118 288.963 409.796 288.963C400.473 288.963 392.588 302.351 392.588 318.171C392.588 333.992 400.473 347.38 409.796 347.38C410.764 347.443 411.671 347.872 412.335 348.58C412.998 349.288 413.367 350.222 413.367 351.192C413.367 352.162 412.998 353.096 412.335 353.804C411.671 354.511 410.764 354.941 409.796 355.004Z" opacity=".3"/><path fill="#000" d="M467.461 355.004C453.535 355.004 442.629 338.825 442.629 318.171C442.629 297.518 453.535 281.355 467.461 281.355C481.388 281.355 492.278 297.535 492.278 318.171C492.278 319.18 491.877 320.148 491.163 320.861C490.45 321.575 489.482 321.976 488.473 321.976C487.465 321.976 486.497 321.575 485.784 320.861C485.07 320.148 484.669 319.18 484.669 318.171C484.669 302.351 476.784 288.963 467.461 288.963C458.139 288.963 450.253 302.351 450.253 318.171C450.253 333.992 458.122 347.38 467.461 347.38C468.429 347.443 469.337 347.872 470 348.58C470.663 349.288 471.032 350.222 471.032 351.192C471.032 352.162 470.663 353.096 470 353.804C469.337 354.511 468.429 354.941 467.461 355.004Z" opacity=".3"/><path fill="#000" d="M525.061 355.004C511.151 355.004 500.245 338.825 500.245 318.171C500.245 297.518 511.151 281.355 525.061 281.355C538.971 281.355 549.894 297.535 549.894 318.171C549.83 319.139 549.401 320.047 548.693 320.71C547.985 321.373 547.052 321.742 546.082 321.742C545.112 321.742 544.178 321.373 543.47 320.71C542.762 320.047 542.333 319.139 542.269 318.171C542.269 302.351 534.4 288.963 525.061 288.963C515.722 288.963 507.853 302.351 507.853 318.171C507.853 333.992 515.739 347.38 525.061 347.38C525.583 347.345 526.106 347.419 526.598 347.595C527.09 347.771 527.541 348.046 527.922 348.404C528.304 348.761 528.608 349.193 528.816 349.672C529.024 350.152 529.131 350.669 529.131 351.192C529.131 351.715 529.024 352.232 528.816 352.711C528.608 353.191 528.304 353.623 527.922 353.98C527.541 354.338 527.09 354.613 526.598 354.789C526.106 354.965 525.583 355.038 525.061 355.004Z" opacity=".3"/><path fill="#000" d="M582.678 355.004C568.767 355.004 557.861 338.825 557.861 318.171C557.861 297.518 568.767 281.355 582.678 281.355C596.588 281.355 607.51 297.535 607.51 318.171C607.447 319.139 607.018 320.047 606.31 320.71C605.602 321.373 604.668 321.742 603.698 321.742C602.728 321.742 601.794 321.373 601.086 320.71C600.378 320.047 599.949 319.139 599.886 318.171C599.886 302.351 592 288.963 582.678 288.963C573.355 288.963 565.469 302.351 565.469 318.171C565.469 333.992 573.355 347.38 582.678 347.38C583.646 347.443 584.553 347.872 585.216 348.58C585.879 349.288 586.248 350.222 586.248 351.192C586.248 352.162 585.879 353.096 585.216 353.804C584.553 354.511 583.646 354.941 582.678 355.004Z" opacity=".3"/></g><path fill="#407BFF" d="M471.314 438.237C457.992 435.592 443.037 438.678 437.698 452.718C433.404 464.016 438.906 476.261 450.759 479.249C461.208 481.878 479.233 478.661 482.955 466.612C487.216 452.833 469.894 448.359 460.18 447.543C457.257 447.298 457.273 451.869 460.18 452.114C464.604 452.49 469.665 452.735 473.584 455.167C481.747 460.278 478.384 468.473 471.429 472.392C464.473 476.31 453.812 477.29 446.939 472.947C439.429 468.163 439.184 457.649 443.673 450.792C449.567 441.731 460.327 440.718 470.025 442.629C472.898 443.2 474.122 438.792 471.233 438.22L471.314 438.237Z"/><path fill="#FAFAFA" d="M471.314 438.237C457.992 435.592 443.037 438.678 437.698 452.718C433.404 464.016 438.906 476.261 450.759 479.249C461.208 481.878 479.233 478.661 482.955 466.612C487.216 452.833 469.894 448.359 460.18 447.543C457.257 447.298 457.273 451.869 460.18 452.114C464.604 452.49 469.665 452.735 473.584 455.167C481.747 460.278 478.384 468.473 471.429 472.392C464.473 476.31 453.812 477.29 446.939 472.947C439.429 468.163 439.184 457.649 443.673 450.792C449.567 441.731 460.327 440.718 470.025 442.629C472.898 443.2 474.122 438.792 471.233 438.22L471.314 438.237Z" opacity=".1"/><path fill="#407BFF" d="M324.327 385.649C337.067 402.539 351.272 418.273 366.775 432.669C368.931 434.678 372.18 431.445 370.041 429.404C354.803 415.292 340.834 399.87 328.294 383.314C326.547 380.996 322.58 383.314 324.359 385.616L324.327 385.649Z"/><path fill="#407BFF" d="M329.045 430.759C338.678 413.633 355.543 399.02 371.494 387.837C373.877 386.204 371.608 382.188 369.192 383.886C352.604 395.543 335.167 410.596 325.11 428.441C324.834 428.961 324.769 429.567 324.929 430.134C325.089 430.7 325.462 431.183 325.969 431.482C326.476 431.781 327.079 431.872 327.652 431.738C328.225 431.603 328.724 431.253 329.045 430.759Z"/><g opacity=".2"><path fill="#000" d="M324.327 385.649C337.067 402.539 351.272 418.273 366.775 432.669C368.931 434.678 372.18 431.445 370.041 429.404C354.803 415.292 340.834 399.87 328.294 383.314C326.547 380.996 322.58 383.314 324.359 385.616L324.327 385.649Z" opacity=".2"/><path fill="#000" d="M329.045 430.759C338.678 413.633 355.543 399.02 371.494 387.837C373.878 386.204 371.608 382.188 369.192 383.886C352.604 395.543 335.167 410.596 325.11 428.441C324.834 428.961 324.77 429.567 324.929 430.134C325.089 430.7 325.462 431.183 325.969 431.482C326.476 431.781 327.079 431.872 327.652 431.738C328.225 431.603 328.724 431.252 329.045 430.759Z" opacity=".2"/></g><path fill="#407BFF" d="M505.91 400.261H535.706C536.277 400.213 536.809 399.952 537.196 399.53C537.584 399.108 537.799 398.557 537.799 397.984C537.799 397.411 537.584 396.859 537.196 396.437C536.809 396.015 536.277 395.754 535.706 395.706H505.91C505.339 395.754 504.808 396.015 504.42 396.437C504.033 396.859 503.818 397.411 503.818 397.984C503.818 398.557 504.033 399.108 504.42 399.53C504.808 399.952 505.339 400.213 505.91 400.261Z"/><path fill="#407BFF" d="M505.567 408.735H522.841C523.447 408.735 524.028 408.494 524.457 408.065C524.886 407.637 525.127 407.055 525.127 406.449C525.127 405.843 524.886 405.261 524.457 404.833C524.028 404.404 523.447 404.163 522.841 404.163H505.567C504.961 404.163 504.38 404.404 503.951 404.833C503.522 405.261 503.282 405.843 503.282 406.449C503.282 407.055 503.522 407.637 503.951 408.065C504.38 408.494 504.961 408.735 505.567 408.735Z"/><g opacity=".1"><path fill="#FAFAFA" d="M505.91 400.261H535.706C536.277 400.213 536.809 399.952 537.196 399.53C537.584 399.108 537.799 398.557 537.799 397.984C537.799 397.411 537.584 396.859 537.196 396.437C536.809 396.015 536.277 395.754 535.706 395.706H505.91C505.339 395.754 504.808 396.015 504.42 396.437C504.033 396.859 503.817 397.411 503.817 397.984C503.817 398.557 504.033 399.108 504.42 399.53C504.808 399.952 505.339 400.213 505.91 400.261Z" opacity=".1"/><path fill="#FAFAFA" d="M505.567 408.735H522.841C523.447 408.735 524.028 408.494 524.457 408.065C524.886 407.637 525.127 407.055 525.127 406.449C525.127 405.843 524.886 405.261 524.457 404.833C524.028 404.404 523.447 404.163 522.841 404.163H505.567C504.961 404.163 504.38 404.404 503.951 404.833C503.522 405.261 503.282 405.843 503.282 406.449C503.282 407.055 503.522 407.637 503.951 408.065C504.38 408.494 504.961 408.735 505.567 408.735Z" opacity=".1"/></g><path fill="#407BFF" d="M327.445 517.224H352.996C353.602 517.224 354.184 516.984 354.612 516.555C355.041 516.126 355.282 515.545 355.282 514.939C355.282 514.333 355.041 513.751 354.612 513.323C354.184 512.894 353.602 512.653 352.996 512.653H327.445C326.839 512.653 326.257 512.894 325.829 513.323C325.4 513.751 325.159 514.333 325.159 514.939C325.159 515.545 325.4 516.126 325.829 516.555C326.257 516.984 326.839 517.224 327.445 517.224Z"/><path fill="#407BFF" d="M326.531 527.037H359.673C360.28 527.037 360.861 526.796 361.29 526.367C361.718 525.939 361.959 525.357 361.959 524.751C361.959 524.145 361.718 523.563 361.29 523.135C360.861 522.706 360.28 522.465 359.673 522.465H326.531C325.924 522.465 325.343 522.706 324.914 523.135C324.486 523.563 324.245 524.145 324.245 524.751C324.245 525.357 324.486 525.939 324.914 526.367C325.343 526.796 325.924 527.037 326.531 527.037Z"/><path fill="#407BFF" d="M326.531 537.143H343.102C343.708 537.143 344.29 536.902 344.718 536.473C345.147 536.045 345.388 535.463 345.388 534.857C345.388 534.251 345.147 533.67 344.718 533.241C344.29 532.812 343.708 532.571 343.102 532.571H326.531C325.924 532.571 325.343 532.812 324.914 533.241C324.486 533.67 324.245 534.251 324.245 534.857C324.245 535.463 324.486 536.045 324.914 536.473C325.343 536.902 325.924 537.143 326.531 537.143Z"/><g opacity=".1"><path fill="#FAFAFA" d="M327.445 517.224H352.996C353.602 517.224 354.184 516.984 354.612 516.555C355.041 516.126 355.282 515.545 355.282 514.939C355.282 514.333 355.041 513.751 354.612 513.323C354.184 512.894 353.602 512.653 352.996 512.653H327.445C326.839 512.653 326.257 512.894 325.829 513.323C325.4 513.751 325.159 514.333 325.159 514.939C325.159 515.545 325.4 516.126 325.829 516.555C326.257 516.984 326.839 517.224 327.445 517.224Z" opacity=".1"/><path fill="#FAFAFA" d="M326.531 527.037H359.673C360.28 527.037 360.861 526.796 361.29 526.367C361.718 525.939 361.959 525.357 361.959 524.751C361.959 524.145 361.718 523.563 361.29 523.135C360.861 522.706 360.28 522.465 359.673 522.465H326.531C325.924 522.465 325.343 522.706 324.914 523.135C324.486 523.563 324.245 524.145 324.245 524.751C324.245 525.357 324.486 525.939 324.914 526.367C325.343 526.796 325.924 527.037 326.531 527.037Z" opacity=".1"/><path fill="#FAFAFA" d="M326.531 537.143H343.102C343.708 537.143 344.29 536.902 344.718 536.473C345.147 536.045 345.388 535.463 345.388 534.857C345.388 534.251 345.147 533.67 344.718 533.241C344.29 532.812 343.708 532.571 343.102 532.571H326.531C325.924 532.571 325.343 532.812 324.914 533.241C324.486 533.67 324.245 534.251 324.245 534.857C324.245 535.463 324.486 536.045 324.914 536.473C325.343 536.902 325.924 537.143 326.531 537.143Z" opacity=".1"/></g><path fill="#E4897B" d="M147.249 260.882L154.971 260.539L151.478 275.233C148.722 273.346 146.21 271.125 144 268.62C143.363 267.871 143.046 266.901 143.12 265.92C143.193 264.939 143.65 264.026 144.392 263.38L147.249 260.882Z"/><path fill="#E4897B" d="M163.935 268.457L160.474 280.408L151.478 275.2L154.971 260.539L163.935 268.457Z"/><path fill="#407BFF" d="M162.412 197.508L146.61 198.971L182.852 590.391L198.654 588.928L162.412 197.508Z"/><path fill="#000" d="M162.412 197.508L146.61 198.971L182.852 590.391L198.654 588.928L162.412 197.508Z" opacity=".3"/><path fill="#407BFF" d="M194.023 194.574L178.221 196.037L214.463 587.457L230.265 585.994L194.023 194.574Z"/><path fill="#000" d="M194.023 194.574L178.221 196.037L214.463 587.457L230.265 585.994L194.023 194.574Z" opacity=".3"/><path fill="#407BFF" d="M178.225 196.041L162.424 197.504L198.666 588.924L214.467 587.461L178.225 196.041Z"/><path fill="#000" d="M178.225 196.041L162.424 197.504L198.666 588.924L214.467 587.461L178.225 196.041Z" opacity=".1"/><path fill="#407BFF" d="M174.89 168.669L160.669 169.992L146.612 198.971L194.025 194.58L174.89 168.669Z"/><g opacity=".8"><path fill="#FAFAFA" d="M174.89 168.669L160.669 169.992L146.612 198.971L194.025 194.58L174.89 168.669Z" opacity=".8"/></g><path fill="#263238" d="M166.694 157.567L160.669 169.992L174.89 168.669L166.694 157.567Z"/><path fill="#E4897B" d="M286.171 179.69C287.804 181.322 289.159 182.873 290.563 184.588C291.967 186.302 293.306 187.853 294.645 189.486C297.339 192.751 299.853 196.196 302.302 199.706C307.351 206.843 311.61 214.507 315.004 222.563C315.412 223.608 315.788 224.702 316.18 225.829L316.767 227.461C317.091 228.438 317.321 229.444 317.453 230.465C317.808 233.714 317.376 237.001 316.196 240.049C314.434 244.548 311.965 248.737 308.882 252.457C303.431 259.129 297.155 265.081 290.204 270.171L284.049 263.641C288.893 257.585 293.322 251.209 297.306 244.555C299.051 241.713 300.392 238.641 301.29 235.429C301.538 234.64 301.566 233.799 301.371 232.996L300.816 231.788C300.441 230.988 300.114 230.155 299.706 229.371C296.25 222.665 292.207 216.278 287.625 210.286C285.339 207.167 282.922 204.131 280.473 201.094C279.249 199.592 278.008 198.09 276.735 196.62L273.012 192.327L286.171 179.69Z"/><path fill="#E4897B" d="M274.171 268.62L281.127 282.384L287.935 276.522L282.351 266.743L274.171 268.62Z"/><path fill="#E4897B" d="M221.78 187.755C217.546 195.82 213.148 203.793 208.588 211.673C206.351 215.641 204 219.543 201.714 223.478L198.204 229.355L197.322 230.824C196.882 231.527 196.392 232.359 195.951 232.914C195.51 233.469 195.069 234.139 194.645 234.645C194.22 235.151 193.763 235.722 193.339 236.196C190.041 239.789 186.53 243.18 182.825 246.351C179.249 249.404 175.673 252.376 171.984 255.2C164.686 260.898 157.192 266.204 149.42 271.265L143.82 264.212L163.167 245.159C166.335 241.894 169.535 238.824 172.555 235.592C175.523 232.55 178.319 229.345 180.931 225.992C181.246 225.6 181.524 225.224 181.763 224.865C182.041 224.473 182.237 224.147 182.433 223.82C182.602 223.558 182.754 223.285 182.89 223.004L183.641 221.486L186.661 215.331C188.735 211.265 190.759 207.167 192.865 203.135C197.034 195.004 201.388 186.966 205.927 179.02L221.78 187.755Z"/><path fill="#263238" d="M267.608 132.604C267.396 133.551 267.739 134.449 268.343 134.612C268.947 134.776 269.616 134.122 269.829 133.176C270.041 132.229 269.682 131.331 269.078 131.167C268.473 131.004 267.755 131.657 267.608 132.604Z"/><path fill="#DE5753" d="M267.641 134.433C268.152 137.617 269.086 140.719 270.416 143.657C269.665 143.955 268.858 144.084 268.051 144.036C267.244 143.988 266.458 143.764 265.747 143.38L267.641 134.433Z"/><path fill="#263238" d="M270.106 126.857C269.99 126.857 269.876 126.823 269.78 126.759C269.176 126.391 268.493 126.174 267.787 126.129C267.082 126.083 266.376 126.21 265.731 126.498C265.59 126.553 265.433 126.551 265.293 126.494C265.153 126.436 265.041 126.326 264.98 126.188C264.925 126.047 264.926 125.89 264.984 125.75C265.042 125.61 265.151 125.498 265.29 125.437C266.115 125.082 267.014 124.933 267.909 125.001C268.805 125.069 269.671 125.353 270.433 125.829C270.495 125.87 270.548 125.923 270.589 125.985C270.63 126.047 270.658 126.116 270.672 126.189C270.686 126.262 270.685 126.338 270.669 126.41C270.653 126.483 270.623 126.552 270.58 126.612C270.527 126.688 270.456 126.751 270.373 126.793C270.291 126.836 270.199 126.858 270.106 126.857Z"/><path fill="#E4897B" d="M234.58 136.212C236.637 144.996 238.971 161.061 233.061 166.922C233.061 166.922 235.804 175.82 252.114 175.82C270.074 175.82 260.278 166.922 260.278 166.922C250.4 164.588 250.367 157.322 251.804 150.514L234.58 136.212Z"/><path fill="#407BFF" d="M230.841 169.976C229.437 167.167 227.902 163.935 230.841 162.922C234.008 161.812 251.592 160.686 257.747 162.759C259.387 163.198 260.792 164.258 261.663 165.715C262.535 167.172 262.805 168.911 262.416 170.563L230.841 169.976Z"/><path fill="#FAFAFA" d="M230.841 169.976C229.437 167.167 227.902 163.935 230.841 162.922C234.008 161.812 251.592 160.686 257.747 162.759C259.387 163.198 260.792 164.258 261.663 165.715C262.535 167.172 262.805 168.911 262.416 170.563L230.841 169.976Z" opacity=".6"/><path fill="#FAFAFA" d="M207.347 579.592C206.293 579.586 205.243 579.471 204.212 579.249C204.159 579.24 204.111 579.214 204.073 579.176C204.035 579.138 204.009 579.09 204 579.037C203.989 578.982 203.994 578.925 204.014 578.873C204.035 578.821 204.069 578.776 204.114 578.743C204.245 578.645 207.38 576.392 209.208 576.784C209.406 576.818 209.593 576.896 209.757 577.012C209.921 577.128 210.057 577.278 210.155 577.453C210.302 577.648 210.382 577.886 210.382 578.131C210.382 578.375 210.302 578.613 210.155 578.808C209.763 579.445 208.571 579.592 207.347 579.592ZM205.012 578.841C206.808 579.135 209.257 579.135 209.747 578.465C209.747 578.465 209.943 578.204 209.665 577.731C209.606 577.627 209.523 577.537 209.424 577.47C209.325 577.402 209.212 577.357 209.094 577.339C207.611 577.434 206.191 577.969 205.012 578.873V578.841Z"/><path fill="#FAFAFA" d="M204.278 579.298H204.131C204.088 579.274 204.053 579.238 204.03 579.194C204.007 579.151 203.997 579.102 204 579.053C204 578.906 204.147 575.445 205.502 574.302C205.665 574.156 205.857 574.047 206.065 573.982C206.274 573.918 206.494 573.899 206.71 573.927C206.93 573.926 207.144 574.003 207.314 574.143C207.483 574.283 207.599 574.478 207.641 574.694C207.902 576.033 205.616 578.645 204.376 579.314L204.278 579.298ZM206.514 574.4C206.28 574.403 206.054 574.49 205.878 574.645C205.077 575.742 204.632 577.058 204.604 578.416C205.78 577.486 207.233 575.51 207.086 574.727C207.086 574.645 207.086 574.449 206.645 574.4H206.514Z"/><path fill="#FAFAFA" d="M279.38 579.592C278.142 579.591 276.907 579.477 275.69 579.249C275.633 579.24 275.58 579.212 275.539 579.171C275.498 579.13 275.471 579.078 275.461 579.02C275.452 578.964 275.46 578.906 275.483 578.854C275.506 578.802 275.544 578.758 275.592 578.727C276.196 578.384 281.518 575.331 282.808 577.437C282.937 577.621 283.007 577.84 283.007 578.065C283.007 578.29 282.937 578.51 282.808 578.694C282.449 579.412 280.914 579.592 279.38 579.592ZM276.588 578.824C278.841 579.151 281.878 579.102 282.4 578.367C282.4 578.367 282.563 578.139 282.318 577.731C281.6 576.571 278.367 577.959 276.588 578.857V578.824Z"/><path fill="#FAFAFA" d="M275.739 579.298C275.685 579.313 275.629 579.313 275.575 579.298C275.535 579.269 275.502 579.229 275.482 579.183C275.462 579.137 275.455 579.087 275.461 579.037C275.461 578.906 275.657 575.673 277.094 574.416C277.312 574.217 277.571 574.069 277.854 573.985C278.137 573.9 278.435 573.88 278.727 573.927C279.527 574.008 279.755 574.416 279.804 574.743C280.033 576.131 277.306 578.661 275.869 579.314L275.739 579.298ZM278.482 574.4C278.119 574.396 277.769 574.53 277.502 574.776C276.644 575.827 276.146 577.126 276.082 578.482C277.518 577.6 279.347 575.592 279.233 574.759C279.233 574.678 279.233 574.465 278.645 574.4H278.482Z"/><path fill="#E4897B" d="M262.547 579.004H274.547L274.661 551.233H262.678L262.547 579.004Z"/><path fill="#E4897B" d="M190.531 579.004H202.531L207.494 551.233H195.494L190.531 579.004Z"/><path fill="#263238" d="M203.331 577.616H189.861C189.623 577.613 189.392 577.695 189.209 577.848C189.026 578.001 188.904 578.214 188.865 578.449L186.906 589.11C186.866 589.375 186.884 589.645 186.958 589.902C187.033 590.159 187.162 590.396 187.338 590.598C187.513 590.8 187.73 590.961 187.975 591.071C188.219 591.18 188.484 591.236 188.751 591.233C193.453 591.151 195.722 590.873 201.649 590.873C205.29 590.873 212.816 591.265 217.861 591.265C222.906 591.265 223.347 586.367 221.273 585.829C211.951 583.804 208.359 581.012 205.306 578.367C204.761 577.885 204.059 577.618 203.331 577.616Z"/><path fill="#263238" d="M274.416 577.616H261.355C261.117 577.613 260.886 577.695 260.703 577.848C260.52 578.001 260.398 578.214 260.359 578.449L258.4 589.11C258.354 589.373 258.367 589.642 258.438 589.899C258.508 590.156 258.634 590.395 258.807 590.597C258.98 590.8 259.196 590.962 259.439 591.072C259.682 591.182 259.946 591.237 260.212 591.233C264.931 591.151 271.739 590.873 277.682 590.873C284.637 590.873 290.645 591.265 298.792 591.265C303.69 591.265 304.882 586.367 302.808 585.829C293.339 583.771 285.665 583.559 277.371 578.563C276.494 577.978 275.471 577.65 274.416 577.616Z"/><path fill="#407BFF" d="M210.188 169.633C199.037 172.212 187.331 202.857 187.331 202.857L210.498 218.335C215.817 210.27 220.48 201.791 224.441 192.98C230.563 178.955 221.567 167.004 210.188 169.633Z"/><path fill="#000" d="M210.188 169.633C199.037 172.212 187.331 202.857 187.331 202.857L210.498 218.335C215.817 210.27 220.48 201.791 224.441 192.98C230.563 178.955 221.567 167.004 210.188 169.633Z" opacity=".7"/><path fill="#407BFF" d="M218.988 189.176L209.404 217.6L210.498 218.335C210.498 218.335 214.874 211.804 219.527 203.102L218.988 189.176Z"/><path fill="#000" d="M218.988 189.176L209.404 217.6L210.498 218.335C210.498 218.335 214.874 211.804 219.527 203.102L218.988 189.176Z" opacity=".8"/><path fill="#407BFF" d="M285.012 223.216C284.914 236.604 284.114 253.257 282.122 273.927H217.959C217.127 264.131 221.469 216.033 210.188 169.633C217.245 168.265 224.384 167.359 231.559 166.922C240.64 166.4 249.744 166.4 258.825 166.922C265.087 167.531 271.293 168.623 277.388 170.188C277.388 170.188 282.874 176.131 284.539 204C284.865 209.567 285.045 215.902 285.012 223.216Z"/><path fill="#000" d="M285.012 223.216C284.914 236.604 284.114 253.257 282.122 273.927H217.959C217.127 264.131 221.469 216.033 210.188 169.633C217.245 168.265 224.384 167.359 231.559 166.922C240.64 166.4 249.744 166.4 258.825 166.922C265.087 167.531 271.293 168.623 277.388 170.188C277.388 170.188 282.874 176.131 284.539 204C284.865 209.567 285.045 215.902 285.012 223.216Z" opacity=".7"/><path fill="#407BFF" d="M285.012 223.216C281.127 216.131 274.073 201.91 275.069 193.829L284.539 204.082C284.865 209.567 285.045 215.902 285.012 223.216Z"/><path fill="#000" d="M285.012 223.216C281.127 216.131 274.073 201.91 275.069 193.829L284.539 204.082C284.865 209.567 285.045 215.902 285.012 223.216Z" opacity=".8"/><path fill="#407BFF" d="M264.816 181.094C263.804 192.522 289.714 220.016 289.714 220.016L310.482 203.102C305.042 193.923 298.525 185.428 291.069 177.796C278.923 166.057 265.959 168.294 264.816 181.094Z"/><path fill="#000" d="M264.816 181.094C263.804 192.522 289.714 220.016 289.714 220.016L310.482 203.102C305.042 193.923 298.525 185.428 291.069 177.796C278.923 166.057 265.959 168.294 264.816 181.094Z" opacity=".7"/><path fill="#CE6F64" d="M274.661 551.249L274.596 565.551H262.612L262.661 551.249H274.661Z"/><path fill="#CE6F64" d="M195.494 551.249H207.494L204.931 565.551H192.931L195.494 551.249Z"/><path fill="#E4897B" d="M236.735 122.694C234.988 134.514 233.371 141.306 237.91 148.816C239.353 151.248 241.434 153.239 243.927 154.573C246.421 155.907 249.232 156.533 252.056 156.384C254.88 156.234 257.609 155.314 259.948 153.724C262.286 152.134 264.145 149.934 265.322 147.363C270.008 137.567 272.098 119.869 261.796 112.392C259.622 110.713 257.045 109.637 254.323 109.271C251.601 108.904 248.83 109.261 246.29 110.305C243.75 111.35 241.53 113.044 239.852 115.219C238.175 117.394 237.1 119.972 236.735 122.694Z"/><path fill="#263238" d="M272.245 117.094C268.711 119.024 264.824 120.218 260.816 120.604C257.829 134.269 249.878 149.992 237.012 145.469C232.114 143.837 227.216 131.967 226.71 121.437C225.861 122.465 225.29 123.804 224.849 124.359C224.115 119.679 224.645 114.888 226.384 110.482C229.943 100.392 232.31 107.086 236.18 100.963C238.678 96.9143 243.118 94.8245 250.873 94.5633C248.702 95.6898 248.294 97.502 251.51 97.2408C254.727 96.9796 268.457 96.2286 276.457 101.633C271.053 102.857 274.351 111.429 281.567 106.857C278.939 111.118 275.673 115.167 272.245 117.094Z"/><path fill="#E4897B" d="M251.576 130.008C251.621 133.014 252.628 135.926 254.449 138.318C256.882 141.453 259.673 139.951 260.343 136.425C260.931 133.29 260.343 127.869 257.306 125.976C254.269 124.082 251.559 126.416 251.576 130.008Z"/><path fill="#1E2A4C" d="M236.947 102.237C235.318 102.133 233.738 101.633 232.347 100.779C230.955 99.9256 229.794 98.7444 228.963 97.3388C228.963 97.3388 228.751 106.906 236.947 102.237Z"/><path fill="#407BFF" d="M259.347 273.927C259.347 273.927 249.29 365.584 243.135 399.918C236.408 437.469 210.482 562.792 210.482 562.792H188.441C188.441 562.792 204.082 440.555 207.347 403.265C210.857 362.857 218.025 273.861 218.025 273.861L259.347 273.927Z"/><path fill="#FAFAFA" d="M259.347 273.927C259.347 273.927 249.29 365.584 243.135 399.918C236.408 437.469 210.482 562.792 210.482 562.792H188.441C188.441 562.792 204.082 440.555 207.347 403.265C210.857 362.857 218.025 273.861 218.025 273.861L259.347 273.927Z" opacity=".6"/><path fill="#407BFF" d="M213.6 554.694C213.698 554.694 211.657 563.135 211.657 563.135H186.955L187.118 555.608L213.6 554.694Z"/><path fill="#FAFAFA" d="M213.6 554.694C213.698 554.694 211.657 563.135 211.657 563.135H186.955L187.118 555.608L213.6 554.694Z" opacity=".1"/><path fill="#407BFF" d="M252.016 306.58C236.392 309.665 240.327 368.359 243.38 398.547C247.102 377.208 252.163 336.147 255.576 307.004C254.471 306.466 253.217 306.316 252.016 306.58Z"/><path fill="#FAFAFA" d="M252.016 306.58C236.392 309.665 240.327 368.359 243.38 398.547C247.102 377.208 252.163 336.147 255.576 307.004C254.471 306.466 253.217 306.316 252.016 306.58Z" opacity=".4"/><path fill="#407BFF" d="M282.106 273.927C282.106 273.927 287.233 363.592 287.331 400.18C287.445 438.22 278.971 562.792 278.971 562.792H258.645C258.645 562.792 253.176 440.441 250.825 403.086C248.278 362.351 239.935 273.927 239.935 273.927H282.106Z"/><path fill="#FAFAFA" d="M282.106 273.927C282.106 273.927 287.233 363.592 287.331 400.18C287.445 438.22 278.971 562.792 278.971 562.792H258.645C258.645 562.792 253.176 440.441 250.825 403.086C248.278 362.351 239.935 273.927 239.935 273.927H282.106Z" opacity=".6"/><path fill="#E4897B" d="M287.02 262.4L281.322 262.857C280.858 262.896 280.409 263.038 280.006 263.273C279.604 263.507 279.259 263.828 278.996 264.213C278.733 264.598 278.56 265.036 278.488 265.496C278.415 265.956 278.447 266.427 278.58 266.873L280.931 274.792C281.129 275.435 281.48 276.021 281.954 276.5C282.427 276.978 283.009 277.335 283.651 277.541C284.292 277.746 284.973 277.793 285.637 277.678C286.3 277.564 286.926 277.29 287.461 276.882C290.405 274.142 292.515 270.628 293.551 266.743L287.02 262.4Z"/><path fill="#407BFF" d="M274.155 548.196C274.1 548.188 274.05 548.16 274.014 548.118C273.978 548.076 273.959 548.023 273.959 547.967C276.212 513.502 281.437 430.09 281.339 400.18C281.339 369.567 277.616 301.094 276.441 280.833C276.439 280.806 276.442 280.778 276.451 280.753C276.46 280.727 276.474 280.703 276.492 280.683C276.511 280.663 276.533 280.648 276.558 280.637C276.583 280.626 276.61 280.62 276.637 280.62C276.69 280.62 276.742 280.64 276.781 280.677C276.821 280.713 276.845 280.763 276.849 280.816C277.959 301.078 281.6 369.551 281.747 400.18C281.845 430.106 276.62 513.518 274.367 548C274.367 548.027 274.362 548.054 274.351 548.079C274.34 548.104 274.324 548.126 274.304 548.145C274.284 548.163 274.261 548.177 274.235 548.186C274.209 548.195 274.182 548.198 274.155 548.196Z"/><path fill="#FAFAFA" d="M274.155 548.196C274.1 548.188 274.05 548.16 274.014 548.118C273.978 548.076 273.959 548.023 273.959 547.967C276.212 513.502 281.437 430.09 281.339 400.18C281.339 369.567 277.616 301.094 276.441 280.833C276.439 280.806 276.442 280.778 276.451 280.753C276.46 280.727 276.474 280.703 276.492 280.683C276.511 280.663 276.533 280.648 276.558 280.637C276.583 280.626 276.61 280.62 276.637 280.62C276.69 280.62 276.742 280.64 276.781 280.677C276.821 280.713 276.845 280.763 276.849 280.816C277.959 301.078 281.6 369.551 281.747 400.18C281.845 430.106 276.62 513.518 274.367 548C274.367 548.027 274.362 548.054 274.351 548.079C274.34 548.104 274.324 548.126 274.304 548.145C274.284 548.163 274.261 548.177 274.235 548.186C274.209 548.195 274.182 548.198 274.155 548.196Z" opacity=".3"/><path fill="#407BFF" d="M282.563 554.694C282.661 554.694 281.747 563.135 281.747 563.135H257.029L256.065 555.608L282.563 554.694Z"/><path fill="#FAFAFA" d="M282.563 554.694C282.661 554.694 281.747 563.135 281.747 563.135H257.029L256.065 555.608L282.563 554.694Z" opacity=".1"/></svg>