<svg xmlns="http://www.w3.org/2000/svg" xmlns:xlink="http://www.w3.org/1999/xlink" width="500" zoomAndPan="magnify" viewBox="0 0 375 263.99999" height="352" preserveAspectRatio="xMidYMid meet" version="1.0"><defs><clipPath id="299d1946d3"><path d="M 57 0.09375 L 87 0.09375 L 87 240 L 57 240 Z M 57 0.09375 " clip-rule="nonzero"/></clipPath><clipPath id="dbdf4c16ec"><path d="M 280 0.09375 L 310 0.09375 L 310 240 L 280 240 Z M 280 0.09375 " clip-rule="nonzero"/></clipPath></defs><path fill="#b4b5b5" d="M 94.621094 259.886719 L 49.609375 259.886719 C 44.972656 259.886719 41.207031 256.121094 41.207031 251.480469 L 41.207031 243.5625 C 41.207031 238.917969 44.972656 235.152344 49.609375 235.152344 L 94.617188 235.152344 C 99.257812 235.152344 103.023438 238.917969 103.023438 243.558594 L 103.023438 251.476562 C 103.023438 256.121094 99.257812 259.886719 94.621094 259.886719 Z M 94.621094 259.886719 " fill-opacity="1" fill-rule="nonzero"/><path fill="#b4b5b5" d="M 94.621094 259.886719 L 49.609375 259.886719 C 44.972656 259.886719 41.207031 256.121094 41.207031 251.480469 L 41.207031 243.5625 C 41.207031 238.917969 44.972656 235.152344 49.609375 235.152344 L 94.617188 235.152344 C 99.257812 235.152344 103.023438 238.917969 103.023438 243.558594 L 103.023438 251.476562 C 103.023438 256.121094 99.257812 259.886719 94.621094 259.886719 Z M 94.621094 259.886719 " fill-opacity="1" fill-rule="nonzero"/><path fill="#6f7272" d="M 103.023438 243.5625 L 103.023438 251.476562 C 103.023438 256.136719 99.273438 259.886719 94.617188 259.886719 L 49.617188 259.886719 C 44.957031 259.886719 41.207031 256.136719 41.207031 251.476562 L 41.207031 247.519531 L 78.132812 247.519531 C 82.789062 247.519531 86.539062 243.769531 86.539062 239.109375 L 86.539062 235.152344 L 94.617188 235.152344 C 99.273438 235.152344 103.023438 238.902344 103.023438 243.5625 Z M 103.023438 243.5625 " fill-opacity="1" fill-rule="nonzero"/><path fill="#b4b5b5" d="M 61.8125 4.300781 L 82.417969 4.300781 L 82.417969 235.152344 L 61.8125 235.152344 Z M 61.8125 4.300781 " fill-opacity="1" fill-rule="nonzero"/><path fill="#b4b5b5" d="M 317.148438 259.886719 L 272.140625 259.886719 C 267.5 259.886719 263.734375 256.121094 263.734375 251.480469 L 263.734375 243.5625 C 263.734375 238.917969 267.5 235.152344 272.140625 235.152344 L 317.144531 235.152344 C 321.785156 235.152344 325.550781 238.917969 325.550781 243.558594 L 325.550781 251.476562 C 325.550781 256.121094 321.785156 259.886719 317.148438 259.886719 Z M 317.148438 259.886719 " fill-opacity="1" fill-rule="nonzero"/><path fill="#b4b5b5" d="M 284.339844 4.300781 L 304.945312 4.300781 L 304.945312 235.152344 L 284.339844 235.152344 Z M 284.339844 4.300781 " fill-opacity="1" fill-rule="nonzero"/><path fill="#6f7272" d="M 304.945312 207.410156 L 304.945312 235.152344 L 284.339844 235.152344 L 284.339844 222.207031 C 293.160156 220.476562 300.617188 214.953125 304.945312 207.410156 Z M 304.945312 207.410156 " fill-opacity="1" fill-rule="nonzero"/><path fill="#6f7272" d="M 82.417969 207.410156 L 82.417969 235.152344 L 61.8125 235.152344 L 61.8125 222.207031 C 70.632812 220.476562 78.089844 214.953125 82.417969 207.410156 Z M 82.417969 207.410156 " fill-opacity="1" fill-rule="nonzero"/><path fill="#6f7272" d="M 325.550781 243.5625 L 325.550781 251.476562 C 325.550781 256.136719 321.800781 259.886719 317.144531 259.886719 L 272.144531 259.886719 C 267.484375 259.886719 263.734375 256.136719 263.734375 251.476562 L 263.734375 247.519531 L 300.660156 247.519531 C 305.316406 247.519531 309.066406 243.769531 309.066406 239.109375 L 309.066406 235.152344 L 317.144531 235.152344 C 321.800781 235.152344 325.550781 238.902344 325.550781 243.5625 Z M 325.550781 243.5625 " fill-opacity="1" fill-rule="nonzero"/><path fill="#000000" d="M 94.617188 264.007812 L 49.617188 264.007812 C 42.707031 264.007812 37.089844 258.390625 37.089844 251.480469 L 37.089844 243.558594 C 37.089844 236.648438 42.707031 231.03125 49.617188 231.03125 L 94.617188 231.03125 C 101.523438 231.03125 107.144531 236.648438 107.144531 243.558594 L 107.144531 251.480469 C 107.144531 258.390625 101.523438 264.007812 94.617188 264.007812 Z M 49.617188 239.273438 C 47.25 239.273438 45.328125 241.195312 45.328125 243.558594 L 45.328125 251.480469 C 45.328125 253.84375 47.25 255.765625 49.617188 255.765625 L 94.617188 255.765625 C 96.976562 255.765625 98.902344 253.84375 98.902344 251.480469 L 98.902344 243.558594 C 98.902344 241.195312 96.980469 239.273438 94.617188 239.273438 Z M 49.617188 239.273438 " fill-opacity="1" fill-rule="nonzero"/><g clip-path="url(#299d1946d3)"><path fill="#000000" d="M 82.417969 239.273438 L 61.8125 239.273438 C 59.539062 239.273438 57.691406 237.433594 57.691406 235.152344 L 57.691406 210.417969 C 57.691406 208.136719 59.539062 206.296875 61.8125 206.296875 C 64.089844 206.296875 65.933594 208.136719 65.933594 210.417969 L 65.933594 231.03125 L 78.296875 231.03125 L 78.296875 8.421875 L 65.933594 8.421875 L 65.933594 192.28125 C 65.933594 194.558594 64.089844 196.402344 61.8125 196.402344 C 59.539062 196.402344 57.691406 194.558594 57.691406 192.28125 L 57.691406 4.300781 C 57.691406 2.019531 59.539062 0.179688 61.8125 0.179688 L 82.417969 0.179688 C 84.691406 0.179688 86.539062 2.019531 86.539062 4.300781 L 86.539062 235.152344 C 86.539062 237.433594 84.691406 239.273438 82.417969 239.273438 Z M 82.417969 239.273438 " fill-opacity="1" fill-rule="nonzero"/></g><path fill="#000000" d="M 317.148438 264.007812 L 272.140625 264.007812 C 265.230469 264.007812 259.617188 258.390625 259.617188 251.480469 L 259.617188 243.558594 C 259.617188 236.648438 265.230469 231.03125 272.140625 231.03125 L 317.148438 231.03125 C 324.054688 231.03125 329.671875 236.648438 329.671875 243.558594 L 329.671875 251.480469 C 329.671875 258.390625 324.054688 264.007812 317.148438 264.007812 Z M 272.140625 239.273438 C 269.777344 239.273438 267.855469 241.195312 267.855469 243.558594 L 267.855469 251.480469 C 267.855469 253.84375 269.777344 255.765625 272.140625 255.765625 L 317.148438 255.765625 C 319.507812 255.765625 321.429688 253.84375 321.429688 251.480469 L 321.429688 243.558594 C 321.429688 241.195312 319.507812 239.273438 317.148438 239.273438 Z M 272.140625 239.273438 " fill-opacity="1" fill-rule="nonzero"/><g clip-path="url(#dbdf4c16ec)"><path fill="#000000" d="M 304.945312 239.273438 L 284.339844 239.273438 C 282.0625 239.273438 280.21875 237.433594 280.21875 235.152344 L 280.21875 4.300781 C 280.21875 2.019531 282.0625 0.179688 284.339844 0.179688 L 304.945312 0.179688 C 307.222656 0.179688 309.066406 2.019531 309.066406 4.300781 L 309.066406 235.152344 C 309.066406 237.433594 307.222656 239.273438 304.945312 239.273438 Z M 288.460938 231.03125 L 300.824219 231.03125 L 300.824219 8.421875 L 288.460938 8.421875 Z M 288.460938 231.03125 " fill-opacity="1" fill-rule="nonzero"/></g><path fill="#000000" d="M 370.878906 264.007812 L 219.890625 264.007812 C 217.609375 264.007812 215.769531 262.167969 215.769531 259.886719 C 215.769531 257.605469 217.609375 255.765625 219.890625 255.765625 L 370.878906 255.765625 C 373.15625 255.765625 375 257.605469 375 259.886719 C 375 262.167969 373.15625 264.007812 370.878906 264.007812 Z M 370.878906 264.007812 " fill-opacity="1" fill-rule="nonzero"/><path fill="#000000" d="M 124.820312 264.007812 L 4.121094 264.007812 C 1.847656 264.007812 0 262.167969 0 259.886719 C 0 257.605469 1.847656 255.765625 4.121094 255.765625 L 124.820312 255.765625 C 127.097656 255.765625 128.941406 257.605469 128.941406 259.886719 C 128.941406 262.167969 127.097656 264.007812 124.820312 264.007812 Z M 124.820312 264.007812 " fill-opacity="1" fill-rule="nonzero"/><path fill="#000000" d="M 187.089844 264.007812 L 140.109375 264.007812 C 137.835938 264.007812 135.988281 262.167969 135.988281 259.886719 C 135.988281 257.605469 137.835938 255.765625 140.109375 255.765625 L 187.089844 255.765625 C 189.367188 255.765625 191.207031 257.605469 191.207031 259.886719 C 191.207031 262.167969 189.367188 264.007812 187.089844 264.007812 Z M 187.089844 264.007812 " fill-opacity="1" fill-rule="nonzero"/><path fill="#eef9ff" d="M 24.726562 16.667969 L 342.03125 16.667969 L 342.03125 173.316406 L 24.726562 173.316406 Z M 24.726562 16.667969 " fill-opacity="1" fill-rule="nonzero"/><path fill="#213d5e" d="M 67.996094 16.667969 L 30.90625 173.316406 L 24.726562 173.316406 L 24.726562 112.390625 L 47.390625 16.667969 Z M 67.996094 16.667969 " fill-opacity="1" fill-rule="nonzero"/><path fill="#213d5e" d="M 90.246094 173.316406 L 69.644531 173.316406 L 106.730469 16.667969 L 127.335938 16.667969 Z M 90.246094 173.316406 " fill-opacity="1" fill-rule="nonzero"/><path fill="#213d5e" d="M 149.589844 173.316406 L 128.984375 173.316406 L 166.070312 16.667969 L 186.675781 16.667969 Z M 149.589844 173.316406 " fill-opacity="1" fill-rule="nonzero"/><path fill="#213d5e" d="M 208.929688 173.316406 L 188.324219 173.316406 L 225.410156 16.667969 L 246.015625 16.667969 Z M 208.929688 173.316406 " fill-opacity="1" fill-rule="nonzero"/><path fill="#213d5e" d="M 268.269531 173.316406 L 247.664062 173.316406 L 284.753906 16.667969 L 305.355469 16.667969 Z M 268.269531 173.316406 " fill-opacity="1" fill-rule="nonzero"/><path fill="#213d5e" d="M 342.03125 25.367188 L 342.03125 112.390625 L 327.609375 173.316406 L 307.003906 173.316406 Z M 342.03125 25.367188 " fill-opacity="1" fill-rule="nonzero"/><path fill="#000000" d="M 30.90625 177.441406 L 24.726562 177.441406 C 22.449219 177.441406 20.605469 175.597656 20.605469 173.316406 L 20.605469 112.390625 C 20.605469 112.070312 20.640625 111.75 20.714844 111.441406 L 43.378906 15.71875 C 43.820312 13.855469 45.480469 12.546875 47.390625 12.546875 L 67.996094 12.546875 C 69.253906 12.546875 70.445312 13.121094 71.226562 14.113281 C 72.007812 15.097656 72.292969 16.390625 72.003906 17.621094 L 34.917969 174.269531 C 34.476562 176.128906 32.816406 177.441406 30.90625 177.441406 Z M 28.847656 112.871094 L 28.847656 164.136719 L 62.78125 20.789062 L 50.648438 20.789062 Z M 28.847656 112.871094 " fill-opacity="1" fill-rule="nonzero"/><path fill="#000000" d="M 90.246094 177.441406 L 69.644531 177.441406 C 68.382812 177.441406 67.191406 176.863281 66.410156 175.871094 C 65.628906 174.886719 65.34375 173.59375 65.632812 172.363281 L 102.722656 15.714844 C 103.160156 13.855469 104.820312 12.546875 106.730469 12.546875 L 127.335938 12.546875 C 128.597656 12.546875 129.785156 13.121094 130.566406 14.113281 C 131.347656 15.097656 131.632812 16.390625 131.34375 17.621094 L 94.257812 174.269531 C 93.816406 176.128906 92.15625 177.441406 90.246094 177.441406 Z M 74.855469 169.195312 L 86.988281 169.195312 L 122.121094 20.789062 L 109.992188 20.789062 Z M 74.855469 169.195312 " fill-opacity="1" fill-rule="nonzero"/><path fill="#000000" d="M 149.589844 177.441406 L 128.984375 177.441406 C 127.722656 177.441406 126.53125 176.863281 125.753906 175.871094 C 124.96875 174.886719 124.683594 173.59375 124.972656 172.363281 L 162.0625 15.714844 C 162.503906 13.855469 164.160156 12.546875 166.070312 12.546875 L 186.675781 12.546875 C 187.9375 12.546875 189.128906 13.121094 189.90625 14.113281 C 190.683594 15.097656 190.976562 16.390625 190.679688 17.621094 L 153.59375 174.269531 C 153.15625 176.128906 151.496094 177.441406 149.589844 177.441406 Z M 134.191406 169.195312 L 146.324219 169.195312 L 181.457031 20.789062 L 169.328125 20.789062 Z M 134.191406 169.195312 " fill-opacity="1" fill-rule="nonzero"/><path fill="#000000" d="M 208.929688 177.441406 L 188.324219 177.441406 C 187.0625 177.441406 185.871094 176.863281 185.09375 175.871094 C 184.308594 174.886719 184.027344 173.59375 184.316406 172.363281 L 221.402344 15.714844 C 221.84375 13.855469 223.5 12.546875 225.410156 12.546875 L 246.015625 12.546875 C 247.277344 12.546875 248.46875 13.121094 249.246094 14.113281 C 250.027344 15.097656 250.320312 16.390625 250.023438 17.621094 L 212.933594 174.269531 C 212.496094 176.128906 210.839844 177.441406 208.929688 177.441406 Z M 193.535156 169.195312 L 205.667969 169.195312 L 240.804688 20.789062 L 228.671875 20.789062 Z M 193.535156 169.195312 " fill-opacity="1" fill-rule="nonzero"/><path fill="#000000" d="M 268.269531 177.441406 L 247.664062 177.441406 C 246.402344 177.441406 245.214844 176.863281 244.433594 175.871094 C 243.65625 174.886719 243.363281 173.59375 243.660156 172.363281 L 280.746094 15.714844 C 281.179688 13.855469 282.839844 12.546875 284.753906 12.546875 L 305.355469 12.546875 C 306.617188 12.546875 307.808594 13.121094 308.585938 14.113281 C 309.367188 15.097656 309.660156 16.390625 309.363281 17.621094 L 272.273438 174.269531 C 271.839844 176.128906 270.175781 177.441406 268.269531 177.441406 Z M 252.875 169.195312 L 265.003906 169.195312 L 300.140625 20.789062 L 288.007812 20.789062 Z M 252.875 169.195312 " fill-opacity="1" fill-rule="nonzero"/><path fill="#000000" d="M 327.609375 177.441406 L 307.003906 177.441406 C 305.746094 177.441406 304.554688 176.863281 303.773438 175.871094 C 302.996094 174.886719 302.703125 173.59375 302.996094 172.363281 L 338.023438 24.414062 C 338.5 22.378906 340.46875 21.015625 342.511719 21.269531 C 344.589844 21.515625 346.152344 23.277344 346.152344 25.367188 L 346.152344 112.390625 C 346.152344 112.707031 346.117188 113.027344 346.042969 113.335938 L 331.621094 174.265625 C 331.179688 176.128906 329.523438 177.441406 327.609375 177.441406 Z M 312.21875 169.195312 L 324.351562 169.195312 L 337.910156 111.90625 L 337.910156 60.660156 Z M 312.21875 169.195312 " fill-opacity="1" fill-rule="nonzero"/><path fill="#ffb500" d="M 90.660156 37.28125 L 90.660156 49.894531 C 90.660156 67.992188 76.03125 82.625 57.941406 82.625 L 45.328125 82.625 L 45.328125 37.28125 Z M 90.660156 37.28125 " fill-opacity="1" fill-rule="nonzero"/><path fill="#ffb500" d="M 45.328125 37.28125 L 321.429688 37.28125 L 321.429688 152.707031 L 45.328125 152.707031 Z M 45.328125 37.28125 " fill-opacity="1" fill-rule="nonzero"/><path fill="#ef7f06" d="M 321.429688 37.28125 L 321.429688 152.707031 L 45.328125 152.707031 L 45.328125 141.367188 L 237.773438 141.367188 C 275.726562 141.367188 306.46875 110.574219 306.46875 72.648438 L 306.46875 37.28125 Z M 321.429688 37.28125 " fill-opacity="1" fill-rule="nonzero"/><path fill="#ffe98a" d="M 45.328125 37.28125 L 222.527344 37.28125 C 222.527344 46.386719 215.148438 53.769531 206.042969 53.769531 L 45.328125 53.769531 Z M 45.328125 37.28125 " fill-opacity="1" fill-rule="nonzero"/><path fill="#000000" d="M 109.261719 56.789062 C 109.710938 56.789062 110.132812 56.875 110.53125 57.035156 C 110.925781 57.195312 111.28125 57.417969 111.59375 57.699219 C 111.90625 57.976562 112.179688 58.316406 112.402344 58.710938 C 112.625 59.109375 112.789062 59.527344 112.882812 59.980469 L 117.035156 79.257812 L 117.855469 79.257812 C 118.53125 76.117188 119.226562 72.910156 119.933594 69.632812 C 120.644531 66.355469 121.351562 63.140625 122.058594 59.980469 C 122.203125 59.371094 122.421875 58.816406 122.710938 58.316406 C 122.96875 57.894531 123.328125 57.515625 123.785156 57.171875 C 124.246094 56.824219 124.847656 56.652344 125.589844 56.652344 C 126.152344 56.652344 126.648438 56.75 127.070312 56.953125 C 127.496094 57.152344 127.851562 57.410156 128.132812 57.726562 C 128.414062 58.039062 128.625 58.382812 128.761719 58.753906 C 128.898438 59.125 128.96875 59.488281 128.96875 59.839844 C 128.96875 60.035156 128.957031 60.21875 128.941406 60.398438 C 128.925781 60.574219 128.902344 60.726562 128.867188 60.855469 C 128.835938 61.015625 128.800781 61.160156 128.773438 61.289062 L 122.160156 87.566406 C 121.917969 88.117188 121.59375 88.597656 121.195312 89.019531 C 120.855469 89.390625 120.421875 89.722656 119.878906 90.019531 C 119.339844 90.316406 118.667969 90.464844 117.867188 90.464844 L 117.03125 90.464844 C 116.230469 90.464844 115.570312 90.316406 115.054688 90.019531 C 114.539062 89.722656 114.128906 89.390625 113.824219 89.019531 C 113.46875 88.597656 113.203125 88.117188 113.027344 87.566406 L 109.648438 73.414062 L 108.828125 73.414062 C 108.3125 75.699219 107.761719 78.058594 107.175781 80.492188 C 106.589844 82.921875 106.03125 85.28125 105.5 87.566406 C 105.289062 88.117188 105.007812 88.597656 104.652344 89.019531 C 104.332031 89.390625 103.917969 89.722656 103.410156 90.019531 C 102.902344 90.316406 102.246094 90.464844 101.441406 90.464844 L 100.621094 90.464844 C 99.816406 90.464844 99.136719 90.316406 98.578125 90.019531 C 98.023438 89.722656 97.570312 89.390625 97.214844 89.019531 C 96.800781 88.597656 96.464844 88.117188 96.226562 87.566406 L 89.707031 61.289062 C 89.675781 61.160156 89.640625 61.015625 89.609375 60.855469 C 89.574219 60.726562 89.550781 60.574219 89.539062 60.398438 C 89.523438 60.21875 89.515625 60.035156 89.515625 59.839844 C 89.515625 59.488281 89.582031 59.125 89.71875 58.753906 C 89.855469 58.382812 90.066406 58.039062 90.347656 57.726562 C 90.625 57.414062 90.980469 57.152344 91.410156 56.953125 C 91.839844 56.75 92.332031 56.652344 92.894531 56.652344 C 93.632812 56.652344 94.230469 56.824219 94.691406 57.171875 C 95.148438 57.515625 95.503906 57.898438 95.765625 58.316406 C 96.054688 58.816406 96.273438 59.371094 96.417969 59.980469 L 100.621094 79.257812 L 101.441406 79.257812 C 101.746094 77.777344 102.074219 76.21875 102.429688 74.582031 C 102.78125 72.949219 103.140625 71.296875 103.503906 69.632812 C 103.867188 67.964844 104.230469 66.3125 104.59375 64.679688 C 104.953125 63.046875 105.304688 61.480469 105.644531 59.980469 C 105.871094 59.0625 106.300781 58.304688 106.945312 57.699219 C 107.582031 57.097656 108.359375 56.789062 109.261719 56.789062 Z M 109.261719 56.789062 " fill-opacity="1" fill-rule="nonzero"/><path fill="#000000" d="M 131.667969 66.214844 C 131.667969 64.667969 131.894531 63.355469 132.34375 62.265625 C 132.792969 61.175781 133.367188 60.273438 134.070312 59.546875 C 134.769531 58.824219 135.539062 58.253906 136.382812 57.847656 C 137.230469 57.433594 138.050781 57.125 138.847656 56.914062 C 139.644531 56.703125 140.367188 56.578125 141.011719 56.527344 C 141.65625 56.476562 142.128906 56.457031 142.4375 56.457031 L 143.257812 56.457031 C 143.5625 56.457031 144.035156 56.480469 144.683594 56.527344 C 145.328125 56.578125 146.042969 56.703125 146.832031 56.914062 C 147.617188 57.125 148.4375 57.433594 149.28125 57.847656 C 150.128906 58.257812 150.894531 58.824219 151.578125 59.546875 C 152.261719 60.273438 152.828125 61.179688 153.269531 62.265625 C 153.707031 63.355469 153.929688 64.667969 153.929688 66.214844 L 153.929688 80.660156 C 153.929688 82.253906 153.707031 83.605469 153.269531 84.714844 C 152.828125 85.828125 152.261719 86.753906 151.578125 87.492188 C 150.894531 88.234375 150.128906 88.816406 149.28125 89.246094 C 148.4375 89.675781 147.621094 89.992188 146.832031 90.199219 C 146.042969 90.410156 145.328125 90.535156 144.683594 90.585938 C 144.042969 90.636719 143.566406 90.660156 143.257812 90.660156 L 142.4375 90.660156 C 142.132812 90.660156 141.660156 90.636719 141.011719 90.585938 C 140.371094 90.535156 139.648438 90.410156 138.847656 90.199219 C 138.054688 89.988281 137.234375 89.671875 136.382812 89.246094 C 135.535156 88.820312 134.765625 88.234375 134.070312 87.492188 C 133.367188 86.753906 132.792969 85.828125 132.34375 84.714844 C 131.894531 83.601562 131.667969 82.25 131.667969 80.660156 Z M 139.679688 81.574219 C 139.714844 82.171875 139.851562 82.695312 140.09375 83.144531 C 140.304688 83.550781 140.621094 83.910156 141.046875 84.234375 C 141.472656 84.554688 142.078125 84.714844 142.867188 84.714844 C 143.640625 84.714844 144.234375 84.554688 144.65625 84.234375 C 145.074219 83.910156 145.390625 83.550781 145.597656 83.144531 C 145.824219 82.695312 145.960938 82.171875 146.011719 81.574219 L 146.011719 65.828125 C 145.960938 65.246094 145.824219 64.722656 145.597656 64.257812 C 145.390625 63.867188 145.074219 63.511719 144.65625 63.179688 C 144.238281 62.851562 143.640625 62.6875 142.867188 62.6875 C 142.078125 62.6875 141.46875 62.851562 141.046875 63.179688 C 140.621094 63.511719 140.300781 63.867188 140.09375 64.257812 C 139.851562 64.722656 139.714844 65.246094 139.679688 65.828125 Z M 139.679688 81.574219 " fill-opacity="1" fill-rule="nonzero"/><path fill="#000000" d="M 159.820312 62.152344 C 159.820312 61.460938 159.839844 60.785156 159.882812 60.125 C 159.921875 59.464844 160.054688 58.875 160.28125 58.363281 C 160.507812 57.847656 160.867188 57.429688 161.355469 57.117188 C 161.847656 56.804688 162.542969 56.648438 163.445312 56.648438 L 171.417969 56.648438 C 173.394531 56.742188 175.167969 57.160156 176.726562 57.902344 C 177.386719 58.226562 178.035156 58.625 178.671875 59.097656 C 179.308594 59.574219 179.875 60.164062 180.375 60.863281 C 180.875 61.566406 181.277344 62.390625 181.582031 63.339844 C 181.886719 64.289062 182.039062 65.394531 182.039062 66.652344 C 182.039062 66.90625 182.015625 67.253906 181.964844 67.679688 C 181.917969 68.105469 181.8125 68.574219 181.652344 69.078125 C 181.492188 69.585938 181.273438 70.113281 181 70.664062 C 180.730469 71.210938 180.367188 71.734375 179.914062 72.234375 C 179.464844 72.730469 178.914062 73.191406 178.261719 73.609375 C 177.609375 74.03125 176.839844 74.367188 175.957031 74.625 C 176.523438 74.851562 177.089844 75.144531 177.671875 75.507812 C 178.253906 75.871094 178.777344 76.332031 179.242188 76.894531 C 179.707031 77.460938 180.089844 78.136719 180.386719 78.921875 C 180.683594 79.710938 180.832031 80.628906 180.832031 81.675781 L 180.832031 85.105469 C 180.832031 85.300781 180.882812 85.460938 180.976562 85.589844 C 181.070312 85.71875 181.171875 85.832031 181.265625 85.925781 C 181.652344 86.316406 181.878906 86.648438 181.941406 86.929688 C 182.007812 87.210938 182.035156 87.441406 182.035156 87.617188 C 182.035156 88.183594 181.925781 88.65625 181.699219 89.042969 C 181.472656 89.433594 181.179688 89.746094 180.816406 89.988281 C 180.453125 90.230469 180.042969 90.40625 179.582031 90.507812 C 179.125 90.609375 178.652344 90.664062 178.171875 90.664062 C 177.640625 90.664062 177.097656 90.578125 176.554688 90.410156 C 176.007812 90.238281 175.507812 89.992188 175.058594 89.671875 C 174.609375 89.347656 174.242188 88.945312 173.957031 88.464844 C 173.679688 87.980469 173.535156 87.425781 173.535156 86.796875 L 173.535156 81.675781 C 173.535156 80.96875 173.484375 80.316406 173.390625 79.71875 C 173.296875 79.121094 173.109375 78.605469 172.832031 78.171875 C 172.5625 77.742188 172.183594 77.398438 171.699219 77.160156 C 171.21875 76.917969 170.589844 76.796875 169.816406 76.796875 L 167.113281 76.796875 L 167.113281 84.863281 C 167.113281 85.574219 167.09375 86.265625 167.050781 86.941406 C 167.011719 87.617188 166.878906 88.21875 166.652344 88.742188 C 166.425781 89.265625 166.0625 89.6875 165.566406 90 C 165.066406 90.3125 164.355469 90.46875 163.4375 90.46875 C 162.535156 90.46875 161.839844 90.3125 161.347656 90 C 160.859375 89.6875 160.5 89.265625 160.273438 88.742188 C 160.046875 88.21875 159.914062 87.621094 159.875 86.941406 C 159.832031 86.265625 159.8125 85.574219 159.8125 84.863281 L 159.8125 62.152344 Z M 170.398438 71.378906 C 171.203125 71.347656 171.925781 71.152344 172.570312 70.796875 C 172.84375 70.65625 173.109375 70.46875 173.367188 70.242188 C 173.621094 70.015625 173.855469 69.734375 174.066406 69.398438 C 174.277344 69.058594 174.441406 68.664062 174.558594 68.214844 C 174.679688 67.765625 174.742188 67.242188 174.742188 66.644531 C 174.742188 66.113281 174.679688 65.640625 174.558594 65.230469 C 174.441406 64.816406 174.285156 64.457031 174.089844 64.152344 C 173.898438 63.847656 173.675781 63.589844 173.425781 63.378906 C 173.175781 63.167969 172.925781 63 172.664062 62.871094 C 172.054688 62.566406 171.363281 62.390625 170.589844 62.339844 L 167.109375 62.339844 L 167.109375 71.371094 L 170.398438 71.371094 Z M 170.398438 71.378906 " fill-opacity="1" fill-rule="nonzero"/><path fill="#000000" d="M 187.347656 62.152344 C 187.347656 61.460938 187.378906 60.785156 187.441406 60.125 C 187.507812 59.464844 187.660156 58.875 187.898438 58.363281 C 188.140625 57.847656 188.5 57.429688 188.988281 57.117188 C 189.46875 56.804688 190.128906 56.648438 190.964844 56.648438 C 191.820312 56.648438 192.496094 56.804688 192.992188 57.117188 C 193.492188 57.429688 193.867188 57.847656 194.113281 58.363281 C 194.367188 58.875 194.523438 59.464844 194.582031 60.125 C 194.648438 60.785156 194.679688 61.460938 194.679688 62.152344 L 194.679688 70.847656 L 197.429688 70.847656 C 197.964844 69.464844 198.496094 68.101562 199.027344 66.765625 C 199.253906 66.203125 199.484375 65.621094 199.726562 65.015625 C 199.96875 64.414062 200.203125 63.820312 200.441406 63.238281 C 200.675781 62.65625 200.898438 62.101562 201.117188 61.558594 C 201.332031 61.019531 201.539062 60.542969 201.730469 60.121094 C 201.921875 59.671875 202.128906 59.234375 202.34375 58.820312 C 202.5625 58.398438 202.8125 58.03125 203.105469 57.707031 C 203.394531 57.382812 203.71875 57.125 204.082031 56.929688 C 204.445312 56.738281 204.867188 56.640625 205.351562 56.640625 C 205.816406 56.640625 206.277344 56.714844 206.726562 56.859375 C 207.175781 57.003906 207.582031 57.222656 207.933594 57.511719 C 208.289062 57.800781 208.574219 58.15625 208.792969 58.574219 C 209.011719 58.996094 209.117188 59.480469 209.117188 60.027344 C 209.117188 60.441406 209.046875 60.941406 208.910156 61.511719 C 208.777344 62.085938 208.585938 62.648438 208.34375 63.214844 L 203.996094 73.503906 C 204.832031 73.808594 205.574219 74.308594 206.21875 75 C 206.488281 75.289062 206.761719 75.636719 207.023438 76.050781 C 207.289062 76.460938 207.527344 76.941406 207.738281 77.488281 C 207.949219 78.039062 208.117188 78.660156 208.246094 79.359375 C 208.371094 80.0625 208.4375 80.84375 208.4375 81.714844 L 208.4375 85.144531 C 208.4375 85.320312 208.503906 85.464844 208.632812 85.578125 C 208.757812 85.6875 208.886719 85.820312 209.019531 85.964844 C 209.339844 86.335938 209.527344 86.65625 209.574219 86.929688 C 209.625 87.203125 209.648438 87.429688 209.648438 87.605469 C 209.648438 88.1875 209.542969 88.667969 209.324219 89.054688 C 209.105469 89.445312 208.816406 89.757812 208.453125 90 C 208.09375 90.242188 207.675781 90.414062 207.199219 90.507812 C 206.722656 90.601562 206.238281 90.652344 205.738281 90.652344 C 205.207031 90.652344 204.667969 90.570312 204.121094 90.410156 C 203.570312 90.246094 203.074219 90 202.625 89.671875 C 202.175781 89.339844 201.808594 88.925781 201.523438 88.425781 C 201.242188 87.925781 201.097656 87.347656 201.097656 86.6875 L 201.097656 81.71875 C 201.097656 81.027344 201.050781 80.378906 200.953125 79.773438 C 200.859375 79.171875 200.675781 78.648438 200.398438 78.203125 C 200.125 77.761719 199.746094 77.414062 199.265625 77.164062 C 198.78125 76.910156 198.15625 76.789062 197.382812 76.789062 L 194.679688 76.789062 L 194.679688 84.90625 C 194.679688 85.613281 194.644531 86.296875 194.582031 86.957031 C 194.519531 87.617188 194.359375 88.210938 194.113281 88.734375 C 193.867188 89.257812 193.492188 89.679688 192.992188 89.992188 C 192.496094 90.304688 191.820312 90.460938 190.964844 90.460938 C 190.128906 90.460938 189.46875 90.304688 188.988281 89.992188 C 188.503906 89.679688 188.144531 89.257812 187.898438 88.734375 C 187.65625 88.210938 187.503906 87.617188 187.441406 86.957031 C 187.375 86.296875 187.347656 85.613281 187.347656 84.90625 Z M 187.347656 62.152344 " fill-opacity="1" fill-rule="nonzero"/><path fill="#000000" d="M 235.71875 62.203125 C 235.71875 61.511719 235.753906 60.835938 235.824219 60.175781 C 235.898438 59.515625 236.070312 58.921875 236.332031 58.398438 C 236.597656 57.875 236.996094 57.453125 237.527344 57.128906 C 238.058594 56.808594 238.792969 56.648438 239.722656 56.648438 C 240.660156 56.648438 241.390625 56.808594 241.921875 57.128906 C 242.453125 57.449219 242.851562 57.875 243.117188 58.398438 C 243.378906 58.921875 243.546875 59.515625 243.621094 60.175781 C 243.695312 60.835938 243.730469 61.511719 243.730469 62.203125 L 243.730469 84.910156 C 243.730469 85.617188 243.695312 86.304688 243.632812 86.960938 C 243.570312 87.621094 243.402344 88.214844 243.140625 88.738281 C 242.875 89.261719 242.472656 89.683594 241.933594 89.996094 C 241.394531 90.308594 240.65625 90.464844 239.722656 90.464844 C 238.789062 90.464844 238.058594 90.308594 237.527344 89.996094 C 236.996094 89.683594 236.597656 89.261719 236.332031 88.738281 C 236.070312 88.214844 235.898438 87.621094 235.824219 86.960938 C 235.753906 86.304688 235.71875 85.617188 235.71875 84.910156 Z M 235.71875 62.203125 " fill-opacity="1" fill-rule="nonzero"/><path fill="#000000" d="M 269.859375 80.464844 L 270.441406 80.464844 L 270.441406 60.417969 C 270.441406 59.902344 270.472656 59.417969 270.535156 58.960938 C 270.601562 58.5 270.742188 58.101562 270.960938 57.765625 C 271.179688 57.425781 271.5 57.15625 271.925781 56.957031 C 272.347656 56.753906 272.933594 56.65625 273.675781 56.65625 C 274.496094 56.65625 275.144531 56.753906 275.621094 56.957031 C 276.097656 57.15625 276.453125 57.425781 276.695312 57.765625 C 276.941406 58.101562 277.09375 58.5 277.152344 58.960938 C 277.21875 59.417969 277.25 59.902344 277.25 60.417969 L 277.25 84.910156 C 277.25 85.617188 277.226562 86.304688 277.1875 86.960938 C 277.144531 87.621094 277.019531 88.214844 276.800781 88.738281 C 276.582031 89.261719 276.226562 89.683594 275.734375 89.996094 C 275.246094 90.308594 274.558594 90.464844 273.671875 90.464844 L 270.484375 90.464844 C 269.726562 90.464844 269.097656 90.316406 268.589844 90.019531 C 268.082031 89.722656 267.660156 89.363281 267.320312 88.933594 C 266.984375 88.503906 266.714844 88.058594 266.515625 87.59375 C 266.3125 87.128906 266.15625 86.730469 266.042969 86.410156 L 258.753906 66.652344 L 258.171875 66.652344 L 258.171875 86.699219 C 258.171875 87.214844 258.140625 87.699219 258.078125 88.15625 C 258.011719 88.617188 257.871094 89.015625 257.652344 89.351562 C 257.433594 89.691406 257.113281 89.960938 256.691406 90.160156 C 256.261719 90.363281 255.679688 90.460938 254.9375 90.460938 C 254.101562 90.460938 253.441406 90.363281 252.960938 90.160156 C 252.476562 89.960938 252.117188 89.691406 251.871094 89.351562 C 251.628906 89.015625 251.476562 88.617188 251.414062 88.15625 C 251.347656 87.699219 251.320312 87.214844 251.320312 86.699219 L 251.320312 62.207031 C 251.320312 61.515625 251.339844 60.835938 251.382812 60.167969 C 251.421875 59.5 251.554688 58.902344 251.78125 58.378906 C 252.007812 57.855469 252.367188 57.433594 252.855469 57.121094 C 253.347656 56.808594 254.042969 56.652344 254.945312 56.652344 L 258.132812 56.652344 C 258.933594 56.652344 259.589844 56.808594 260.101562 57.121094 C 260.609375 57.433594 261.023438 57.777344 261.347656 58.148438 C 261.699219 58.578125 261.980469 59.082031 262.191406 59.644531 Z M 269.859375 80.464844 " fill-opacity="1" fill-rule="nonzero"/><path fill="#000000" d="M 88.605469 120.003906 L 88.605469 127.828125 C 88.605469 128.519531 88.585938 129.195312 88.546875 129.855469 C 88.503906 130.515625 88.367188 131.105469 88.132812 131.621094 C 87.898438 132.136719 87.53125 132.550781 87.03125 132.863281 C 86.539062 133.183594 85.820312 133.339844 84.890625 133.339844 C 83.988281 133.339844 83.292969 133.183594 82.800781 132.867188 C 82.308594 132.554688 81.953125 132.140625 81.726562 131.625 C 81.5 131.109375 81.367188 130.523438 81.324219 129.859375 C 81.285156 129.199219 81.265625 128.523438 81.265625 127.832031 L 81.265625 105.03125 C 81.265625 104.339844 81.285156 103.660156 81.324219 103.003906 C 81.367188 102.34375 81.5 101.753906 81.726562 101.238281 C 81.953125 100.722656 82.308594 100.308594 82.800781 99.992188 C 83.292969 99.679688 83.988281 99.523438 84.890625 99.523438 L 92.859375 99.523438 C 94.855469 99.621094 96.644531 100.039062 98.222656 100.78125 C 98.898438 101.101562 99.550781 101.507812 100.1875 101.988281 C 100.820312 102.46875 101.394531 103.0625 101.902344 103.765625 C 102.40625 104.464844 102.816406 105.292969 103.121094 106.253906 C 103.425781 107.210938 103.578125 108.320312 103.578125 109.578125 C 103.578125 111.300781 103.304688 112.808594 102.769531 114.109375 C 102.230469 115.402344 101.453125 116.492188 100.429688 117.367188 C 99.40625 118.246094 98.160156 118.90625 96.6875 119.347656 C 95.21875 119.789062 93.550781 120.011719 91.703125 120.011719 L 88.605469 120.011719 Z M 91.890625 114.257812 C 92.695312 114.207031 93.421875 114.011719 94.0625 113.675781 C 94.335938 113.53125 94.601562 113.34375 94.859375 113.117188 C 95.117188 112.890625 95.347656 112.617188 95.558594 112.285156 C 95.769531 111.957031 95.933594 111.566406 96.054688 111.113281 C 96.171875 110.664062 96.234375 110.152344 96.234375 109.570312 C 96.234375 109.019531 96.171875 108.542969 96.054688 108.128906 C 95.933594 107.71875 95.777344 107.363281 95.582031 107.066406 C 95.390625 106.769531 95.171875 106.515625 94.933594 106.304688 C 94.691406 106.09375 94.441406 105.917969 94.183594 105.773438 C 93.574219 105.46875 92.890625 105.28125 92.128906 105.214844 L 88.605469 105.214844 L 88.605469 114.253906 L 91.890625 114.253906 Z M 91.890625 114.257812 " fill-opacity="1" fill-rule="nonzero"/><path fill="#000000" d="M 107.390625 105.03125 C 107.390625 104.339844 107.410156 103.660156 107.453125 103.003906 C 107.492188 102.34375 107.625 101.753906 107.851562 101.238281 C 108.078125 100.722656 108.4375 100.308594 108.925781 99.992188 C 109.417969 99.679688 110.113281 99.523438 111.015625 99.523438 L 118.984375 99.523438 C 120.964844 99.621094 122.734375 100.039062 124.296875 100.78125 C 124.957031 101.101562 125.605469 101.5 126.242188 101.976562 C 126.878906 102.449219 127.445312 103.039062 127.945312 103.742188 C 128.445312 104.441406 128.847656 105.265625 129.152344 106.21875 C 129.457031 107.164062 129.609375 108.269531 129.609375 109.527344 C 129.609375 109.785156 129.585938 110.128906 129.535156 110.554688 C 129.484375 110.984375 129.382812 111.449219 129.222656 111.957031 C 129.0625 112.464844 128.84375 112.992188 128.570312 113.539062 C 128.300781 114.085938 127.9375 114.609375 127.484375 115.109375 C 127.035156 115.609375 126.480469 116.070312 125.832031 116.488281 C 125.179688 116.90625 124.410156 117.246094 123.523438 117.5 C 124.089844 117.726562 124.65625 118.019531 125.238281 118.382812 C 125.820312 118.746094 126.34375 119.207031 126.808594 119.773438 C 127.273438 120.335938 127.65625 121.011719 127.953125 121.800781 C 128.25 122.585938 128.398438 123.507812 128.398438 124.554688 L 128.398438 127.984375 C 128.398438 128.175781 128.449219 128.339844 128.542969 128.464844 C 128.636719 128.59375 128.734375 128.710938 128.832031 128.804688 C 129.21875 129.191406 129.441406 129.527344 129.507812 129.804688 C 129.574219 130.085938 129.601562 130.316406 129.601562 130.496094 C 129.601562 131.058594 129.492188 131.53125 129.265625 131.921875 C 129.035156 132.308594 128.746094 132.621094 128.382812 132.863281 C 128.019531 133.109375 127.605469 133.28125 127.148438 133.382812 C 126.691406 133.488281 126.21875 133.539062 125.734375 133.539062 C 125.203125 133.539062 124.664062 133.453125 124.117188 133.285156 C 123.570312 133.117188 123.070312 132.867188 122.621094 132.546875 C 122.171875 132.226562 121.804688 131.820312 121.519531 131.339844 C 121.242188 130.855469 121.097656 130.300781 121.097656 129.675781 L 121.097656 124.554688 C 121.097656 123.84375 121.046875 123.195312 120.953125 122.597656 C 120.855469 122 120.671875 121.484375 120.394531 121.050781 C 120.121094 120.617188 119.746094 120.273438 119.261719 120.035156 C 118.78125 119.792969 118.148438 119.671875 117.378906 119.671875 L 114.683594 119.671875 L 114.683594 127.742188 C 114.683594 128.449219 114.664062 129.140625 114.621094 129.816406 C 114.582031 130.496094 114.449219 131.097656 114.222656 131.621094 C 113.996094 132.144531 113.632812 132.5625 113.132812 132.878906 C 112.636719 133.191406 111.925781 133.347656 111.007812 133.347656 C 110.105469 133.347656 109.410156 133.191406 108.917969 132.878906 C 108.429688 132.5625 108.070312 132.144531 107.84375 131.621094 C 107.617188 131.097656 107.484375 130.5 107.445312 129.816406 C 107.402344 129.140625 107.382812 128.449219 107.382812 127.742188 L 107.382812 105.03125 Z M 117.96875 114.257812 C 118.773438 114.222656 119.496094 114.03125 120.140625 113.675781 C 120.410156 113.53125 120.679688 113.34375 120.933594 113.117188 C 121.191406 112.890625 121.425781 112.613281 121.636719 112.273438 C 121.847656 111.933594 122.011719 111.539062 122.128906 111.089844 C 122.25 110.640625 122.3125 110.117188 122.3125 109.519531 C 122.3125 108.988281 122.25 108.519531 122.128906 108.105469 C 122.011719 107.695312 121.855469 107.335938 121.660156 107.03125 C 121.46875 106.726562 121.246094 106.464844 120.996094 106.253906 C 120.746094 106.042969 120.496094 105.875 120.234375 105.746094 C 119.625 105.441406 118.933594 105.265625 118.15625 105.214844 L 114.683594 105.214844 L 114.683594 114.253906 L 117.96875 114.253906 Z M 117.96875 114.257812 " fill-opacity="1" fill-rule="nonzero"/><path fill="#000000" d="M 134.046875 109.085938 C 134.046875 107.542969 134.273438 106.226562 134.722656 105.136719 C 135.171875 104.050781 135.75 103.148438 136.449219 102.421875 C 137.152344 101.695312 137.921875 101.128906 138.765625 100.71875 C 139.609375 100.304688 140.429688 99.996094 141.230469 99.785156 C 142.027344 99.578125 142.746094 99.449219 143.390625 99.398438 C 144.03125 99.351562 144.507812 99.324219 144.816406 99.324219 L 145.636719 99.324219 C 145.941406 99.324219 146.414062 99.351562 147.0625 99.398438 C 147.703125 99.449219 148.421875 99.578125 149.214844 99.785156 C 150 99.996094 150.820312 100.304688 151.664062 100.71875 C 152.507812 101.128906 153.277344 101.695312 153.960938 102.421875 C 154.644531 103.148438 155.207031 104.054688 155.648438 105.136719 C 156.089844 106.226562 156.3125 107.542969 156.3125 109.085938 L 156.3125 123.53125 C 156.3125 125.128906 156.089844 126.480469 155.648438 127.589844 C 155.207031 128.699219 154.644531 129.625 153.960938 130.367188 C 153.277344 131.109375 152.507812 131.691406 151.664062 132.117188 C 150.820312 132.546875 150.003906 132.863281 149.214844 133.070312 C 148.425781 133.28125 147.707031 133.410156 147.0625 133.457031 C 146.417969 133.507812 145.945312 133.53125 145.636719 133.53125 L 144.816406 133.53125 C 144.511719 133.53125 144.035156 133.507812 143.390625 133.457031 C 142.746094 133.410156 142.027344 133.28125 141.230469 133.070312 C 140.433594 132.859375 139.609375 132.542969 138.765625 132.117188 C 137.921875 131.691406 137.148438 131.109375 136.449219 130.367188 C 135.75 129.625 135.171875 128.699219 134.722656 127.589844 C 134.273438 126.476562 134.046875 125.121094 134.046875 123.53125 Z M 142.066406 124.449219 C 142.101562 125.046875 142.234375 125.566406 142.480469 126.023438 C 142.691406 126.425781 143.007812 126.789062 143.429688 127.109375 C 143.859375 127.429688 144.464844 127.59375 145.253906 127.59375 C 146.023438 127.59375 146.621094 127.429688 147.042969 127.109375 C 147.460938 126.789062 147.773438 126.425781 147.984375 126.023438 C 148.210938 125.570312 148.347656 125.046875 148.398438 124.449219 L 148.398438 108.703125 C 148.347656 108.121094 148.210938 107.597656 147.984375 107.132812 C 147.773438 106.746094 147.460938 106.386719 147.042969 106.058594 C 146.621094 105.726562 146.027344 105.5625 145.253906 105.5625 C 144.464844 105.5625 143.855469 105.726562 143.429688 106.058594 C 143.003906 106.386719 142.683594 106.746094 142.480469 107.132812 C 142.234375 107.597656 142.101562 108.121094 142.066406 108.703125 Z M 142.066406 124.449219 " fill-opacity="1" fill-rule="nonzero"/><path fill="#000000" d="M 184.65625 131.117188 C 184.65625 131.328125 184.636719 131.566406 184.59375 131.84375 C 184.554688 132.113281 184.449219 132.378906 184.28125 132.625 C 184.113281 132.878906 183.867188 133.085938 183.542969 133.265625 C 183.222656 133.441406 182.785156 133.527344 182.242188 133.527344 C 181.632812 133.527344 181.144531 133.441406 180.792969 133.273438 C 180.4375 133.105469 180.167969 132.894531 179.984375 132.644531 C 179.796875 132.394531 179.679688 132.136719 179.621094 131.859375 C 179.5625 131.585938 179.535156 131.335938 179.535156 131.109375 L 179.535156 129.65625 C 178.757812 130.800781 177.773438 131.730469 176.574219 132.449219 C 175.375 133.164062 173.902344 133.523438 172.144531 133.523438 C 171.839844 133.523438 171.367188 133.5 170.71875 133.449219 C 170.078125 133.402344 169.351562 133.273438 168.546875 133.0625 C 167.746094 132.851562 166.917969 132.539062 166.058594 132.117188 C 165.207031 131.699219 164.425781 131.117188 163.730469 130.367188 C 163.03125 129.617188 162.453125 128.683594 162.003906 127.5625 C 161.554688 126.445312 161.328125 125.082031 161.328125 123.46875 L 161.328125 109.957031 C 161.328125 108.636719 161.488281 107.46875 161.808594 106.453125 C 162.132812 105.4375 162.554688 104.554688 163.078125 103.804688 C 163.601562 103.054688 164.199219 102.429688 164.878906 101.921875 C 165.554688 101.414062 166.25 100.996094 166.957031 100.652344 C 168.597656 99.878906 170.476562 99.4375 172.582031 99.324219 C 174.371094 99.324219 175.898438 99.527344 177.167969 99.925781 C 178.441406 100.332031 179.519531 100.855469 180.402344 101.496094 C 181.289062 102.140625 182 102.871094 182.53125 103.683594 C 183.0625 104.496094 183.472656 105.320312 183.761719 106.160156 C 184.050781 106.996094 184.242188 107.800781 184.332031 108.574219 C 184.417969 109.351562 184.464844 110.019531 184.464844 110.578125 C 184.464844 110.824219 184.441406 111.113281 184.402344 111.460938 C 184.359375 111.808594 184.21875 112.136719 183.976562 112.449219 C 183.734375 112.765625 183.355469 113.03125 182.832031 113.246094 C 182.308594 113.464844 181.5625 113.570312 180.597656 113.570312 C 180.257812 113.570312 179.84375 113.550781 179.351562 113.511719 C 178.863281 113.46875 178.394531 113.371094 177.941406 113.210938 C 177.492188 113.046875 177.101562 112.808594 176.78125 112.496094 C 176.460938 112.183594 176.300781 111.75 176.300781 111.207031 C 176.300781 110.335938 176.246094 109.5625 176.144531 108.871094 C 176.039062 108.1875 175.851562 107.601562 175.574219 107.121094 C 175.300781 106.636719 174.921875 106.269531 174.441406 106.019531 C 173.957031 105.769531 173.335938 105.644531 172.582031 105.644531 C 171.796875 105.644531 171.183594 105.804688 170.761719 106.128906 C 170.335938 106.449219 170.023438 106.804688 169.828125 107.191406 C 169.601562 107.640625 169.476562 108.15625 169.441406 108.738281 L 169.441406 124.195312 C 169.441406 124.710938 169.53125 125.191406 169.71875 125.644531 C 169.902344 126.097656 170.164062 126.492188 170.503906 126.828125 C 170.84375 127.167969 171.242188 127.429688 171.699219 127.625 C 172.15625 127.820312 172.660156 127.914062 173.207031 127.914062 C 173.851562 127.914062 174.4375 127.773438 174.960938 127.488281 C 175.484375 127.207031 175.953125 126.828125 176.375 126.355469 C 176.789062 125.882812 177.164062 125.339844 177.496094 124.738281 C 177.824219 124.136719 178.117188 123.503906 178.375 122.84375 L 176.058594 122.84375 C 175.59375 122.792969 175.183594 122.675781 174.828125 122.480469 C 174.507812 122.320312 174.21875 122.078125 173.972656 121.753906 C 173.71875 121.433594 173.597656 120.992188 173.597656 120.425781 C 173.597656 119.8125 173.71875 119.34375 173.972656 119.011719 C 174.21875 118.683594 174.507812 118.4375 174.828125 118.277344 C 175.183594 118.097656 175.589844 117.996094 176.058594 117.960938 L 182.335938 117.960938 C 182.449219 117.960938 182.628906 117.984375 182.878906 118.023438 C 183.128906 118.066406 183.386719 118.179688 183.65625 118.375 C 183.917969 118.570312 184.152344 118.851562 184.355469 119.230469 C 184.558594 119.613281 184.65625 120.140625 184.65625 120.816406 Z M 184.65625 131.117188 " fill-opacity="1" fill-rule="nonzero"/><path fill="#000000" d="M 190.117188 105.03125 C 190.117188 104.339844 190.136719 103.660156 190.179688 103.003906 C 190.21875 102.34375 190.351562 101.753906 190.578125 101.238281 C 190.804688 100.722656 191.164062 100.308594 191.652344 99.992188 C 192.144531 99.679688 192.839844 99.523438 193.742188 99.523438 L 201.714844 99.523438 C 203.691406 99.621094 205.464844 100.039062 207.023438 100.78125 C 207.683594 101.101562 208.332031 101.5 208.96875 101.976562 C 209.605469 102.449219 210.171875 103.039062 210.671875 103.742188 C 211.171875 104.441406 211.574219 105.265625 211.878906 106.21875 C 212.183594 107.164062 212.335938 108.269531 212.335938 109.527344 C 212.335938 109.785156 212.3125 110.128906 212.261719 110.554688 C 212.214844 110.984375 212.109375 111.449219 211.949219 111.957031 C 211.789062 112.464844 211.570312 112.992188 211.296875 113.539062 C 211.027344 114.085938 210.664062 114.609375 210.210938 115.109375 C 209.761719 115.609375 209.207031 116.070312 208.558594 116.488281 C 207.90625 116.90625 207.136719 117.246094 206.25 117.5 C 206.816406 117.726562 207.382812 118.019531 207.964844 118.382812 C 208.546875 118.746094 209.070312 119.207031 209.535156 119.773438 C 210 120.335938 210.382812 121.011719 210.679688 121.800781 C 210.976562 122.585938 211.125 123.507812 211.125 124.554688 L 211.125 127.984375 C 211.125 128.175781 211.175781 128.339844 211.269531 128.464844 C 211.363281 128.59375 211.464844 128.710938 211.558594 128.804688 C 211.945312 129.191406 212.167969 129.527344 212.234375 129.804688 C 212.300781 130.085938 212.328125 130.316406 212.328125 130.496094 C 212.328125 131.058594 212.21875 131.53125 211.992188 131.921875 C 211.765625 132.308594 211.472656 132.621094 211.109375 132.863281 C 210.746094 133.109375 210.339844 133.28125 209.875 133.382812 C 209.417969 133.488281 208.945312 133.539062 208.464844 133.539062 C 207.929688 133.539062 207.390625 133.453125 206.84375 133.285156 C 206.296875 133.117188 205.796875 132.867188 205.347656 132.546875 C 204.898438 132.226562 204.53125 131.820312 204.246094 131.339844 C 203.96875 130.855469 203.828125 130.300781 203.828125 129.675781 L 203.828125 124.554688 C 203.828125 123.84375 203.777344 123.195312 203.683594 122.597656 C 203.589844 122 203.402344 121.484375 203.125 121.050781 C 202.855469 120.617188 202.476562 120.273438 201.992188 120.035156 C 201.511719 119.792969 200.878906 119.671875 200.109375 119.671875 L 197.40625 119.671875 L 197.40625 127.742188 C 197.40625 128.449219 197.386719 129.140625 197.34375 129.816406 C 197.304688 130.496094 197.171875 131.097656 196.945312 131.621094 C 196.71875 132.144531 196.355469 132.5625 195.855469 132.878906 C 195.359375 133.191406 194.648438 133.347656 193.730469 133.347656 C 192.828125 133.347656 192.132812 133.191406 191.640625 132.878906 C 191.152344 132.5625 190.792969 132.144531 190.566406 131.621094 C 190.339844 131.097656 190.207031 130.5 190.167969 129.816406 C 190.125 129.140625 190.105469 128.449219 190.105469 127.742188 L 190.105469 105.03125 Z M 200.691406 114.257812 C 201.496094 114.222656 202.21875 114.03125 202.863281 113.675781 C 203.132812 113.53125 203.402344 113.34375 203.65625 113.117188 C 203.914062 112.890625 204.148438 112.613281 204.359375 112.273438 C 204.570312 111.933594 204.734375 111.539062 204.851562 111.089844 C 204.972656 110.640625 205.035156 110.117188 205.035156 109.519531 C 205.035156 108.988281 204.972656 108.519531 204.851562 108.105469 C 204.734375 107.695312 204.578125 107.335938 204.382812 107.03125 C 204.191406 106.726562 203.96875 106.464844 203.71875 106.253906 C 203.472656 106.042969 203.21875 105.875 202.960938 105.746094 C 202.347656 105.441406 201.65625 105.265625 200.882812 105.214844 L 197.40625 105.214844 L 197.40625 114.253906 L 200.691406 114.253906 Z M 200.691406 114.257812 " fill-opacity="1" fill-rule="nonzero"/><path fill="#000000" d="M 230.726562 99.523438 C 231.371094 99.523438 232.023438 99.546875 232.683594 99.597656 C 233.34375 99.648438 233.941406 99.78125 234.472656 100.007812 C 235.003906 100.234375 235.4375 100.578125 235.777344 101.035156 C 236.113281 101.492188 236.28125 102.136719 236.28125 102.957031 C 236.28125 103.777344 236.113281 104.417969 235.777344 104.878906 C 235.4375 105.335938 235 105.679688 234.472656 105.90625 C 233.941406 106.132812 233.347656 106.265625 232.683594 106.316406 C 232.027344 106.367188 231.375 106.390625 230.726562 106.390625 L 224.980469 106.390625 L 224.980469 112.960938 L 228.019531 112.960938 C 228.664062 112.960938 229.308594 112.984375 229.964844 113.023438 C 230.621094 113.066406 231.199219 113.191406 231.703125 113.410156 C 232.210938 113.628906 232.628906 113.960938 232.949219 114.402344 C 233.269531 114.839844 233.429688 115.460938 233.429688 116.246094 C 233.429688 117.050781 233.269531 117.671875 232.949219 118.105469 C 232.628906 118.539062 232.210938 118.871094 231.703125 119.082031 C 231.199219 119.300781 230.617188 119.429688 229.964844 119.472656 C 229.316406 119.511719 228.667969 119.53125 228.019531 119.53125 L 224.980469 119.53125 L 224.980469 126.492188 L 230.726562 126.492188 C 231.371094 126.492188 232.023438 126.515625 232.683594 126.566406 C 233.34375 126.613281 233.941406 126.746094 234.472656 126.964844 C 235.003906 127.183594 235.4375 127.523438 235.777344 127.980469 C 236.113281 128.4375 236.28125 129.070312 236.28125 129.875 C 236.28125 130.710938 236.109375 131.363281 235.765625 131.835938 C 235.417969 132.300781 234.980469 132.644531 234.449219 132.871094 C 233.917969 133.101562 233.324219 133.234375 232.660156 133.285156 C 232 133.335938 231.359375 133.359375 230.726562 133.359375 L 221.261719 133.359375 C 220.359375 133.359375 219.664062 133.199219 219.171875 132.878906 C 218.683594 132.554688 218.324219 132.132812 218.097656 131.605469 C 217.871094 131.082031 217.738281 130.488281 217.699219 129.832031 C 217.65625 129.171875 217.636719 128.496094 217.636719 127.800781 L 217.636719 105.097656 C 217.636719 104.402344 217.65625 103.726562 217.699219 103.070312 C 217.738281 102.410156 217.871094 101.816406 218.097656 101.292969 C 218.324219 100.769531 218.683594 100.347656 219.171875 100.023438 C 219.664062 99.699219 220.359375 99.539062 221.261719 99.539062 L 230.726562 99.539062 Z M 230.726562 99.523438 " fill-opacity="1" fill-rule="nonzero"/><path fill="#000000" d="M 247.675781 108.023438 C 247.695312 108.699219 247.890625 109.308594 248.269531 109.84375 C 248.648438 110.386719 249.148438 110.898438 249.765625 111.378906 C 250.382812 111.859375 251.089844 112.332031 251.878906 112.792969 C 252.667969 113.25 253.480469 113.738281 254.308594 114.238281 C 255.136719 114.746094 255.949219 115.300781 256.734375 115.894531 C 257.523438 116.488281 258.230469 117.167969 258.859375 117.921875 C 259.488281 118.679688 259.996094 119.53125 260.382812 120.480469 C 260.769531 121.429688 260.980469 122.507812 261.007812 123.71875 L 261.007812 123.910156 C 261.007812 125.230469 260.847656 126.382812 260.527344 127.367188 C 260.203125 128.347656 259.777344 129.191406 259.246094 129.902344 C 258.714844 130.609375 258.09375 131.191406 257.386719 131.652344 C 256.675781 132.109375 255.929688 132.476562 255.152344 132.753906 C 254.371094 133.023438 253.582031 133.21875 252.785156 133.335938 C 251.992188 133.445312 251.238281 133.511719 250.527344 133.527344 L 250.285156 133.527344 C 248.917969 133.527344 247.71875 133.390625 246.6875 133.117188 C 245.65625 132.839844 244.773438 132.476562 244.03125 132.015625 C 243.289062 131.558594 242.675781 131.03125 242.183594 130.433594 C 241.695312 129.835938 241.300781 129.21875 241.015625 128.585938 C 240.726562 127.949219 240.515625 127.316406 240.386719 126.6875 C 240.257812 126.0625 240.195312 125.472656 240.195312 124.925781 C 240.195312 124.359375 240.289062 123.871094 240.480469 123.453125 C 240.675781 123.03125 240.925781 122.691406 241.246094 122.425781 C 241.558594 122.164062 241.921875 121.964844 242.332031 121.832031 C 242.746094 121.707031 243.171875 121.640625 243.621094 121.640625 C 244.042969 121.640625 244.472656 121.707031 244.914062 121.832031 C 245.351562 121.960938 245.757812 122.160156 246.121094 122.425781 C 246.480469 122.691406 246.777344 123.027344 247.015625 123.441406 C 247.25 123.851562 247.371094 124.332031 247.390625 124.878906 C 247.421875 126.085938 247.695312 126.910156 248.207031 127.355469 C 248.722656 127.796875 249.464844 128.019531 250.429688 128.019531 C 250.914062 128.003906 251.363281 127.941406 251.769531 127.839844 C 252.179688 127.738281 252.53125 127.550781 252.820312 127.28125 C 253.109375 127.019531 253.339844 126.664062 253.507812 126.21875 C 253.675781 125.777344 253.765625 125.21875 253.765625 124.542969 C 253.765625 123.703125 253.574219 122.945312 253.195312 122.269531 C 252.816406 121.59375 252.320312 120.96875 251.710938 120.386719 C 251.101562 119.804688 250.402344 119.257812 249.609375 118.734375 C 248.824219 118.210938 248.015625 117.6875 247.195312 117.164062 C 246.375 116.640625 245.570312 116.089844 244.792969 115.523438 C 244.015625 114.949219 243.308594 114.328125 242.679688 113.648438 C 242.050781 112.972656 241.550781 112.222656 241.171875 111.402344 C 240.792969 110.582031 240.59375 109.648438 240.582031 108.601562 L 240.582031 108.214844 C 240.597656 106.488281 240.824219 105.054688 241.269531 103.914062 C 241.710938 102.773438 242.367188 101.859375 243.226562 101.183594 C 244.089844 100.507812 245.148438 100.03125 246.402344 99.746094 C 247.660156 99.464844 249.097656 99.320312 250.726562 99.320312 L 251.351562 99.320312 C 252.832031 99.320312 254.089844 99.480469 255.121094 99.804688 C 256.148438 100.125 257.007812 100.539062 257.691406 101.035156 C 258.375 101.535156 258.914062 102.097656 259.308594 102.726562 C 259.707031 103.351562 260 103.976562 260.191406 104.585938 C 260.386719 105.195312 260.503906 105.769531 260.554688 106.300781 C 260.605469 106.832031 260.628906 107.257812 260.628906 107.582031 C 260.628906 108.066406 260.539062 108.503906 260.351562 108.898438 C 260.167969 109.292969 259.921875 109.628906 259.601562 109.898438 C 259.289062 110.171875 258.917969 110.386719 258.492188 110.539062 C 258.0625 110.691406 257.601562 110.769531 257.101562 110.769531 C 256.714844 110.769531 256.328125 110.691406 255.945312 110.539062 C 255.554688 110.386719 255.210938 110.1875 254.90625 109.949219 C 254.601562 109.707031 254.347656 109.429688 254.15625 109.117188 C 253.960938 108.800781 253.867188 108.484375 253.867188 108.164062 C 253.867188 106.84375 253.628906 105.925781 253.152344 105.410156 C 252.679688 104.894531 251.984375 104.636719 251.066406 104.636719 C 250.632812 104.636719 250.207031 104.660156 249.796875 104.710938 C 249.382812 104.757812 249.019531 104.890625 248.707031 105.109375 C 248.394531 105.328125 248.144531 105.660156 247.957031 106.109375 C 247.773438 106.566406 247.675781 107.203125 247.675781 108.023438 Z M 247.675781 108.023438 " fill-opacity="1" fill-rule="nonzero"/><path fill="#000000" d="M 272.164062 108.023438 C 272.179688 108.699219 272.378906 109.308594 272.757812 109.84375 C 273.136719 110.386719 273.632812 110.898438 274.253906 111.378906 C 274.871094 111.859375 275.574219 112.332031 276.367188 112.792969 C 277.152344 113.25 277.964844 113.738281 278.792969 114.238281 C 279.621094 114.746094 280.429688 115.300781 281.222656 115.894531 C 282.011719 116.488281 282.71875 117.167969 283.347656 117.921875 C 283.972656 118.679688 284.480469 119.53125 284.867188 120.480469 C 285.253906 121.429688 285.460938 122.507812 285.496094 123.71875 L 285.496094 123.910156 C 285.496094 125.230469 285.332031 126.382812 285.011719 127.367188 C 284.691406 128.347656 284.261719 129.191406 283.730469 129.902344 C 283.199219 130.609375 282.582031 131.191406 281.871094 131.652344 C 281.164062 132.109375 280.421875 132.476562 279.640625 132.753906 C 278.859375 133.023438 278.070312 133.21875 277.273438 133.335938 C 276.476562 133.445312 275.722656 133.511719 275.015625 133.527344 L 274.773438 133.527344 C 273.402344 133.527344 272.203125 133.390625 271.175781 133.117188 C 270.144531 132.839844 269.257812 132.476562 268.515625 132.015625 C 267.773438 131.558594 267.160156 131.03125 266.671875 130.433594 C 266.179688 129.835938 265.789062 129.21875 265.5 128.585938 C 265.210938 127.949219 265 127.316406 264.875 126.6875 C 264.746094 126.0625 264.679688 125.472656 264.679688 124.925781 C 264.679688 124.359375 264.777344 123.871094 264.96875 123.453125 C 265.164062 123.03125 265.414062 122.691406 265.730469 122.425781 C 266.042969 122.164062 266.40625 121.964844 266.820312 121.832031 C 267.230469 121.707031 267.660156 121.640625 268.109375 121.640625 C 268.527344 121.640625 268.957031 121.707031 269.402344 121.832031 C 269.84375 121.960938 270.246094 122.160156 270.609375 122.425781 C 270.972656 122.691406 271.269531 123.027344 271.503906 123.441406 C 271.738281 123.851562 271.863281 124.332031 271.878906 124.878906 C 271.914062 126.085938 272.183594 126.910156 272.699219 127.355469 C 273.214844 127.796875 273.957031 128.019531 274.921875 128.019531 C 275.402344 128.003906 275.851562 127.941406 276.257812 127.839844 C 276.671875 127.738281 277.023438 127.550781 277.308594 127.28125 C 277.597656 127.019531 277.828125 126.664062 278 126.21875 C 278.167969 125.777344 278.25 125.21875 278.25 124.542969 C 278.25 123.703125 278.058594 122.945312 277.679688 122.269531 C 277.300781 121.59375 276.808594 120.96875 276.199219 120.386719 C 275.589844 119.804688 274.886719 119.257812 274.097656 118.734375 C 273.308594 118.210938 272.5 117.6875 271.679688 117.164062 C 270.863281 116.640625 270.058594 116.089844 269.277344 115.523438 C 268.5 114.949219 267.796875 114.328125 267.164062 113.648438 C 266.539062 112.972656 266.035156 112.222656 265.65625 111.402344 C 265.277344 110.582031 265.078125 109.648438 265.0625 108.601562 L 265.0625 108.214844 C 265.078125 106.488281 265.308594 105.054688 265.75 103.914062 C 266.191406 102.773438 266.847656 101.859375 267.707031 101.183594 C 268.570312 100.507812 269.628906 100.03125 270.886719 99.746094 C 272.144531 99.464844 273.582031 99.320312 275.207031 99.320312 L 275.835938 99.320312 C 277.316406 99.320312 278.570312 99.480469 279.601562 99.804688 C 280.632812 100.125 281.488281 100.539062 282.171875 101.035156 C 282.855469 101.535156 283.398438 102.097656 283.792969 102.726562 C 284.1875 103.351562 284.480469 103.976562 284.675781 104.585938 C 284.867188 105.195312 284.988281 105.769531 285.039062 106.300781 C 285.085938 106.832031 285.105469 107.257812 285.105469 107.582031 C 285.105469 108.066406 285.015625 108.503906 284.832031 108.898438 C 284.644531 109.292969 284.398438 109.628906 284.082031 109.898438 C 283.769531 110.171875 283.398438 110.386719 282.972656 110.539062 C 282.542969 110.691406 282.082031 110.769531 281.582031 110.769531 C 281.195312 110.769531 280.808594 110.691406 280.425781 110.539062 C 280.039062 110.386719 279.691406 110.1875 279.386719 109.949219 C 279.082031 109.707031 278.832031 109.429688 278.636719 109.117188 C 278.445312 108.800781 278.347656 108.484375 278.347656 108.164062 C 278.347656 106.84375 278.109375 105.925781 277.636719 105.410156 C 277.164062 104.894531 276.464844 104.636719 275.546875 104.636719 C 275.113281 104.636719 274.691406 104.660156 274.277344 104.710938 C 273.867188 104.757812 273.503906 104.890625 273.191406 105.109375 C 272.875 105.328125 272.625 105.660156 272.441406 106.109375 C 272.253906 106.566406 272.164062 107.203125 272.164062 108.023438 Z M 272.164062 108.023438 " fill-opacity="1" fill-rule="nonzero"/><path fill="#000000" d="M 321.429688 156.828125 L 45.328125 156.828125 C 43.054688 156.828125 41.207031 154.984375 41.207031 152.707031 L 41.207031 37.28125 C 41.207031 35 43.054688 33.15625 45.328125 33.15625 L 131.867188 33.15625 C 134.144531 33.15625 135.988281 35 135.988281 37.28125 C 135.988281 39.558594 134.144531 41.402344 131.867188 41.402344 L 49.449219 41.402344 L 49.449219 148.582031 L 317.308594 148.582031 L 317.308594 41.402344 L 152.472656 41.402344 C 150.199219 41.402344 148.351562 39.558594 148.351562 37.28125 C 148.351562 35 150.199219 33.15625 152.472656 33.15625 L 321.429688 33.15625 C 323.707031 33.15625 325.550781 35 325.550781 37.28125 L 325.550781 152.707031 C 325.550781 154.984375 323.707031 156.828125 321.429688 156.828125 Z M 321.429688 156.828125 " fill-opacity="1" fill-rule="nonzero"/><path fill="#000000" d="M 342.03125 177.441406 L 24.726562 177.441406 C 22.449219 177.441406 20.605469 175.597656 20.605469 173.316406 L 20.605469 16.667969 C 20.605469 14.386719 22.449219 12.546875 24.726562 12.546875 L 342.03125 12.546875 C 344.3125 12.546875 346.152344 14.386719 346.152344 16.667969 L 346.152344 173.316406 C 346.152344 175.597656 344.3125 177.441406 342.03125 177.441406 Z M 28.847656 169.195312 L 337.910156 169.195312 L 337.910156 20.789062 L 28.847656 20.789062 Z M 28.847656 169.195312 " fill-opacity="1" fill-rule="nonzero"/></svg>