<svg width="31" height="31" viewBox="0 0 31 31" fill="none" xmlns="http://www.w3.org/2000/svg">
<path d="M15.4997 0.463867C11.839 0.464019 8.29776 1.76675 5.50966 4.13897C2.72156 6.51118 0.868531 9.79807 0.28213 13.4115C-0.30427 17.025 0.414227 20.7292 2.30906 23.8614C4.2039 26.9935 7.15142 29.3493 10.6242 30.5071C11.3951 30.642 11.6841 30.1795 11.6841 29.7748C11.6841 29.4087 11.6648 28.1946 11.6648 26.9035C7.79138 27.6165 6.7893 25.9592 6.48097 25.092C6.13883 24.2486 5.59647 23.5012 4.90076 22.9144C4.36118 22.6253 3.59034 21.9123 4.88147 21.8931C5.37448 21.9466 5.84732 22.1181 6.25994 22.3932C6.67256 22.6682 7.01279 23.0387 7.2518 23.4732C7.46266 23.852 7.74618 24.1855 8.08613 24.4545C8.42609 24.7235 8.81578 24.9228 9.23289 25.041C9.65 25.1591 10.0863 25.1938 10.5169 25.143C10.9474 25.0923 11.3637 24.957 11.7419 24.7451C11.8086 23.9614 12.1579 23.2286 12.7247 22.6832C9.29451 22.2978 5.71013 20.968 5.71013 15.0712C5.68847 13.539 6.25386 12.0566 7.29034 10.928C6.81903 9.59631 6.87417 8.13491 7.44451 6.84256C7.44451 6.84256 8.73561 6.43786 11.6841 8.42277C14.2067 7.72898 16.8698 7.72898 19.3924 8.42277C22.3408 6.4186 23.632 6.84256 23.632 6.84256C24.2024 8.1349 24.2576 9.59633 23.7862 10.928C24.8258 12.0547 25.3917 13.5384 25.3664 15.0712C25.3664 20.9873 21.7627 22.2978 18.3325 22.6832C18.7004 23.0561 18.9838 23.5038 19.1634 23.9959C19.3429 24.488 19.4145 25.013 19.3732 25.5353C19.3732 27.5973 19.3539 29.2545 19.3539 29.7748C19.3539 30.1796 19.6429 30.6613 20.4138 30.5071C23.8805 29.3399 26.8195 26.9786 28.7063 23.8449C30.593 20.7111 31.3047 17.0088 30.7142 13.3988C30.1238 9.78886 28.2696 6.50623 25.4827 4.1369C22.6958 1.76758 19.1576 0.465771 15.4997 0.463867Z" fill="black"/>
</svg>
