<svg width="192" height="51" viewBox="0 0 192 51" fill="none" xmlns="http://www.w3.org/2000/svg">
<path d="M14.4308 40V28.9364C14.4308 28.1614 14.2037 27.5735 13.7494 27.1726C13.3218 26.745 12.7739 26.5312 12.1059 26.5312C11.6515 26.5312 11.2373 26.6248 10.8632 26.8118C10.5158 26.9989 10.2352 27.2795 10.0214 27.6536C9.83433 28.001 9.7408 28.4286 9.7408 28.9364L6.6943 27.5735C6.6943 25.97 7.0417 24.5938 7.73652 23.4446C8.45806 22.2955 9.43348 21.4136 10.6628 20.799C11.9188 20.1844 13.3351 19.877 14.9118 19.877C16.3282 19.877 17.5842 20.1977 18.6799 20.8391C19.8023 21.4537 20.6842 22.3089 21.3255 23.4046C21.9669 24.4735 22.2876 25.7162 22.2876 27.1325V40H14.4308ZM1.88402 40V20.2779H9.7408V40H1.88402ZM32.9012 49.0593C30.6831 49.0593 28.7189 48.6852 27.0086 47.9369C25.2983 47.2154 23.9755 46.1865 23.0401 44.8504L27.6901 40.2405C28.3047 40.9086 28.9862 41.4297 29.7344 41.8039C30.4827 42.2047 31.3913 42.4051 32.4603 42.4051C33.743 42.4051 34.7451 42.0978 35.4667 41.4832C36.2149 40.8685 36.5891 39.9733 36.5891 38.7974V33.5863L37.8718 29.3372L36.7895 25.1282V20.2779H44.4458V38.4767C44.4458 40.6414 43.9381 42.512 42.9226 44.0887C41.9071 45.6654 40.5308 46.8814 38.7938 47.7365C37.0567 48.6184 35.0925 49.0593 32.9012 49.0593ZM32.5404 39.1983C30.6965 39.1983 29.0663 38.7707 27.65 37.9155C26.2336 37.0604 25.1246 35.8979 24.3229 34.4281C23.5212 32.9583 23.1203 31.3281 23.1203 29.5377C23.1203 27.7204 23.5212 26.0903 24.3229 24.6472C25.1246 23.1774 26.2336 22.0149 27.65 21.1598C29.0663 20.3046 30.6965 19.877 32.5404 19.877C33.6895 19.877 34.7451 20.0775 35.7072 20.4783C36.696 20.8524 37.511 21.3869 38.1524 22.0817C38.8205 22.7766 39.2481 23.5783 39.4351 24.4869V34.5884C39.2481 35.4971 38.8205 36.2988 38.1524 36.9936C37.511 37.6884 36.696 38.2362 35.7072 38.6371C34.7451 39.0112 33.6895 39.1983 32.5404 39.1983ZM33.9835 32.504C34.6249 32.504 35.1727 32.357 35.627 32.0631C36.0813 31.7691 36.4287 31.395 36.6692 30.9407C36.9098 30.4864 37.03 30.0053 37.03 29.4976C37.03 28.9898 36.9098 28.5088 36.6692 28.0545C36.4287 27.6002 36.0813 27.2261 35.627 26.9321C35.1994 26.6381 34.665 26.4912 34.0236 26.4912C33.4089 26.4912 32.8745 26.6381 32.4202 26.9321C31.9659 27.2261 31.6185 27.6135 31.3779 28.0946C31.1374 28.5489 31.0172 29.0165 31.0172 29.4976C31.0172 29.9519 31.1374 30.4195 31.3779 30.9006C31.6185 31.3549 31.9525 31.7424 32.3801 32.0631C32.8344 32.357 33.3689 32.504 33.9835 32.504ZM56.9043 40.481C54.7397 40.481 52.8022 40.0401 51.0919 39.1582C49.4083 38.2496 48.0721 37.0069 47.0834 35.4302C46.1213 33.8535 45.6403 32.0764 45.6403 30.0989C45.6403 28.1213 46.1213 26.3575 47.0834 24.8076C48.0454 23.2576 49.3682 22.0417 51.0518 21.1598C52.7621 20.2512 54.6996 19.7969 56.8642 19.7969C59.0289 19.7969 60.953 20.2512 62.6366 21.1598C64.3202 22.0417 65.643 23.2576 66.605 24.8076C67.5938 26.3575 68.0882 28.1213 68.0882 30.0989C68.0882 32.0764 67.6072 33.8535 66.6451 35.4302C65.6831 37.0069 64.3602 38.2496 62.6767 39.1582C60.9931 40.0401 59.0689 40.481 56.9043 40.481ZM56.8642 33.5863C57.5323 33.5863 58.1069 33.4527 58.5879 33.1854C59.0957 32.8915 59.4832 32.4906 59.7504 31.9829C60.0176 31.4484 60.1513 30.8338 60.1513 30.1389C60.1513 29.4441 60.0043 28.8428 59.7103 28.3351C59.4431 27.8006 59.0689 27.3998 58.5879 27.1325C58.1069 26.8386 57.5323 26.6916 56.8642 26.6916C56.2229 26.6916 55.6483 26.8386 55.1406 27.1325C54.6595 27.4265 54.272 27.8407 53.9781 28.3752C53.7108 28.8829 53.5772 29.4842 53.5772 30.179C53.5772 30.8471 53.7108 31.4484 53.9781 31.9829C54.272 32.4906 54.6595 32.8915 55.1406 33.1854C55.6483 33.4527 56.2229 33.5863 56.8642 33.5863ZM76.7423 40L67.7631 11.4591H75.7402L82.0737 33.426H78.3858L84.6392 11.4591H91.2533L97.5067 33.426H93.8589L100.192 11.4591H108.089L99.1101 40H92.4559L86.2025 18.0732H89.6499L83.3965 40H76.7423Z" fill="#FF5B31"/>
<path d="M130.017 40V20.2779H137.874V40H130.017ZM137.874 29.3372L134.226 26.0903C135.241 23.9524 136.417 22.3891 137.753 21.4003C139.116 20.3848 140.813 19.877 142.844 19.877C143.753 19.877 144.528 19.9839 145.169 20.1977C145.837 20.4115 146.372 20.7188 146.773 21.1197L142.363 27.373C142.176 27.1592 141.896 26.9855 141.521 26.8519C141.174 26.6916 140.76 26.6114 140.279 26.6114C139.477 26.6114 138.876 26.8519 138.475 27.333C138.074 27.7873 137.874 28.4553 137.874 29.3372ZM146.626 40V10.6573H154.483V40H146.626ZM165.588 40.4009C163.637 40.4009 161.927 39.9599 160.457 39.078C159.014 38.1961 157.878 36.9936 157.05 35.4703C156.248 33.9204 155.847 32.1432 155.847 30.1389C155.847 28.1347 156.248 26.3575 157.05 24.8076C157.878 23.2576 159.014 22.055 160.457 21.1999C161.927 20.318 163.637 19.877 165.588 19.877C166.764 19.877 167.873 20.0775 168.915 20.4783C169.957 20.8524 170.839 21.3869 171.561 22.0817C172.309 22.7766 172.776 23.5783 172.964 24.4869V35.3902C172.776 36.2988 172.309 37.1406 171.561 37.9155C170.839 38.6638 169.957 39.2651 168.915 39.7194C167.873 40.1737 166.764 40.4009 165.588 40.4009ZM167.031 33.5061C167.699 33.5061 168.274 33.3725 168.755 33.1053C169.236 32.8113 169.61 32.4105 169.877 31.9027C170.171 31.395 170.318 30.807 170.318 30.1389C170.318 29.4708 170.184 28.8963 169.917 28.4153C169.65 27.9075 169.262 27.5067 168.755 27.2127C168.274 26.9187 167.712 26.7718 167.071 26.7718C166.43 26.7718 165.855 26.9187 165.347 27.2127C164.866 27.5067 164.479 27.9075 164.185 28.4153C163.891 28.923 163.744 29.4976 163.744 30.1389C163.744 30.7803 163.877 31.3549 164.145 31.8626C164.439 32.3704 164.84 32.7712 165.347 33.0652C165.855 33.3592 166.416 33.5061 167.031 33.5061ZM177.734 40H170.077V34.7087L171.16 29.8984L169.877 25.1282V10.6573H177.734V40ZM184.643 40.481C183.387 40.481 182.344 40.0534 181.516 39.1983C180.687 38.3431 180.273 37.3009 180.273 36.0716C180.273 34.8156 180.687 33.76 181.516 32.9048C182.344 32.0497 183.387 31.6221 184.643 31.6221C185.899 31.6221 186.927 32.0497 187.729 32.9048C188.558 33.76 188.972 34.8156 188.972 36.0716C188.972 37.3009 188.558 38.3431 187.729 39.1983C186.927 40.0534 185.899 40.481 184.643 40.481Z" fill="#FF5B31"/>
<path d="M127.956 29.9964C127.956 36.7023 122.512 42.1382 115.796 42.1382C109.08 42.1382 103.636 36.7023 103.636 29.9964C103.636 23.2905 109.08 17.8545 115.796 17.8545C122.512 17.8545 127.956 23.2905 127.956 29.9964Z" fill="#4E77C4"/>
<path d="M113.021 37.8056C110.829 36.1879 108.144 36.9429 106.798 38.164C108.926 40.4995 111.953 42.0022 115.333 42.1288C115.236 40.5473 114.384 38.8113 113.021 37.8056ZM125.391 22.537C123.54 23.343 121.798 25.6743 122.003 29.8119C122.066 31.0992 122.28 32.1374 119.749 32.9355C116.293 34.0242 117.545 38.8239 119.05 41.6979C124.186 40.2772 127.956 35.5768 127.956 29.9964C127.956 27.1838 126.999 24.5956 125.391 22.537ZM116.562 17.8792C116.917 18.9778 116.967 20.1001 116.641 20.9555C115.292 24.4968 110.423 23.6252 112.742 26.4036C113.581 27.4087 116.198 28.6655 114.916 30.6862C113.567 32.8131 109.765 31.1533 108.733 32.872C108.031 34.0405 108.184 36.2 105.507 36.47C104.322 34.5964 103.636 32.3765 103.636 29.9964C103.636 23.2905 109.08 17.8545 115.796 17.8545C116.053 17.8545 116.309 17.8634 116.562 17.8792Z" fill="#ABDC53"/>
<mask id="mask0_229_524" style="mask-type:luminance" maskUnits="userSpaceOnUse" x="103" y="17" width="26" height="26">
<path d="M103.196 17.6904H128.484V42.3052H103.196V17.6904Z" fill="white"/>
</mask>
<g mask="url(#mask0_229_524)">
<path d="M127.929 32.1757C127.804 32.8703 127.621 33.5512 127.38 34.2122C127.583 34.0246 127.725 33.836 127.821 33.6552C128.114 33.1057 128.044 32.5524 127.929 32.1757ZM128.112 33.8102C127.907 34.1938 127.583 34.5285 127.141 34.8133C126.823 35.5604 126.43 36.2776 125.962 36.9564C125.93 37.0032 125.879 37.0284 125.826 37.0284C125.794 37.0284 125.762 37.019 125.733 36.999C125.658 36.9475 125.639 36.8451 125.69 36.7699C126.062 36.2308 126.385 35.6665 126.66 35.0817C125.531 35.6287 123.85 35.9392 121.63 36.0096L120.001 36.7431C119.979 36.7531 119.956 36.7578 119.933 36.7578C119.87 36.7578 119.81 36.7216 119.783 36.6606C119.745 36.5781 119.783 36.4804 119.866 36.4431L120.818 36.0144L119.886 36.018C119.885 36.018 119.885 36.018 119.885 36.018C119.795 36.018 119.721 35.945 119.72 35.8541C119.72 35.7632 119.794 35.6891 119.884 35.6891L120.773 35.6849L119.863 35.3077C119.779 35.273 119.739 35.1768 119.775 35.0928C119.809 35.0087 119.906 34.9688 119.99 35.0035L121.623 35.6807C124.399 35.5919 125.985 35.128 126.882 34.5816C127.48 33.1398 127.791 31.5877 127.791 29.9973C127.791 29.3657 127.742 28.7316 127.644 28.1131C127.63 28.0233 127.691 27.9387 127.781 27.9245C127.871 27.9109 127.955 27.9718 127.97 28.0616C128.07 28.6974 128.121 29.3484 128.121 29.9973C128.121 30.5227 128.088 31.0434 128.023 31.5578C128.132 31.7469 128.668 32.7673 128.112 33.8102ZM127.257 26.4502C127.279 26.5206 127.344 26.5658 127.414 26.5658C127.43 26.5658 127.447 26.5637 127.463 26.5584C127.55 26.5316 127.599 26.4397 127.572 26.3525C127.301 25.4803 126.931 24.6359 126.472 23.8436C126.426 23.7648 126.326 23.738 126.247 23.7832C126.168 23.8289 126.141 23.9298 126.186 24.0086C126.633 24.7794 126.993 25.6011 127.257 26.4502ZM104.223 34.2232C103.979 33.5586 103.791 32.8713 103.665 32.1683C103.548 32.5471 103.475 33.1062 103.771 33.6584C103.869 33.8412 104.013 34.0335 104.223 34.2232ZM123.863 39.0844C123.922 39.1532 123.914 39.2572 123.846 39.3166C121.611 41.2433 118.752 42.3041 115.796 42.3041C113.265 42.3041 110.834 41.5439 108.765 40.1063C106.833 38.7644 105.357 36.9212 104.459 34.8201C104.013 34.5337 103.684 34.1969 103.478 33.8102C102.917 32.7573 103.468 31.7275 103.57 31.5525C103.505 31.0402 103.47 30.5211 103.47 29.9973C103.47 26.7097 104.752 23.6198 107.081 21.2953C109.408 18.9709 112.503 17.6904 115.796 17.6904C118.996 17.6904 122.029 18.9099 124.336 21.1235C124.401 21.1866 124.403 21.2906 124.34 21.3563C124.277 21.4219 124.173 21.424 124.107 21.361C121.862 19.2063 118.91 18.0199 115.796 18.0199C109.182 18.0199 103.8 23.3928 103.8 29.9973C103.8 31.5946 104.12 33.1514 104.718 34.5873C105.617 35.1311 107.201 35.5925 109.967 35.6807L111.6 35.0035C111.684 34.9688 111.78 35.0087 111.816 35.0928C111.85 35.1768 111.81 35.273 111.726 35.3077L110.816 35.6849L111.705 35.6891C111.796 35.6891 111.87 35.7632 111.869 35.8541C111.869 35.945 111.795 36.018 111.705 36.018C111.704 36.018 111.704 36.018 111.704 36.018L110.772 36.0144L111.724 36.4431C111.807 36.4804 111.844 36.5781 111.807 36.6606C111.779 36.7216 111.719 36.7578 111.656 36.7578C111.634 36.7578 111.611 36.7531 111.589 36.7431L109.959 36.0096C107.746 35.9392 106.069 35.6303 104.94 35.087C105.825 36.9675 107.196 38.6152 108.953 39.8363C110.967 41.2349 113.334 41.9747 115.796 41.9747C118.673 41.9747 121.455 40.9423 123.63 39.0676C123.699 39.0082 123.804 39.0156 123.863 39.0844ZM118.897 25.0274C119.068 24.7326 119.386 24.5492 119.725 24.5492C120.065 24.5492 120.383 24.7326 120.554 25.0274C120.584 25.0804 120.64 25.1093 120.697 25.1093C120.725 25.1093 120.753 25.1025 120.779 25.0873C120.858 25.0421 120.885 24.9412 120.839 24.8624C120.61 24.4662 120.182 24.2198 119.725 24.2198C119.268 24.2198 118.841 24.4662 118.612 24.8624C118.566 24.9412 118.592 25.0421 118.671 25.0873C118.751 25.133 118.851 25.1062 118.897 25.0274ZM113.113 24.8624C112.883 24.4662 112.457 24.2198 111.999 24.2198C111.542 24.2198 111.116 24.4662 110.886 24.8624C110.84 24.9412 110.867 25.0421 110.946 25.0873C111.024 25.133 111.126 25.1062 111.171 25.0274C111.342 24.7326 111.66 24.5492 111.999 24.5492C112.339 24.5492 112.657 24.7326 112.828 25.0274C112.859 25.0804 112.914 25.1093 112.971 25.1093C112.999 25.1093 113.027 25.1025 113.053 25.0873C113.132 25.0421 113.159 24.9412 113.113 24.8624ZM119.725 29.2764C120.377 29.2764 120.908 28.7468 120.908 28.0953C120.908 27.4443 120.377 26.9147 119.725 26.9147C119.073 26.9147 118.543 27.4443 118.543 28.0953C118.543 28.7468 119.073 29.2764 119.725 29.2764ZM116.753 29.9863C116.753 30.5132 116.324 30.942 115.796 30.942C115.268 30.942 114.838 30.5132 114.838 29.9863C114.838 29.8948 114.764 29.8213 114.673 29.8213C114.582 29.8213 114.508 29.8948 114.508 29.9863C114.508 30.695 115.086 31.2714 115.796 31.2714C116.505 31.2714 117.083 30.695 117.083 29.9863C117.083 29.8948 117.009 29.8213 116.918 29.8213C116.828 29.8213 116.753 29.8948 116.753 29.9863ZM113.049 28.0953C113.049 28.7468 112.518 29.2764 111.866 29.2764C111.214 29.2764 110.684 28.7468 110.684 28.0953C110.684 27.4443 111.214 26.9147 111.866 26.9147C112.518 26.9147 113.049 27.4443 113.049 28.0953Z" fill="#35142B"/>
</g>
<path d="M121.628 29.9709L120.711 30.8862C120.647 30.9508 120.647 31.0549 120.711 31.1195C120.743 31.1515 120.785 31.1678 120.828 31.1678C120.87 31.1678 120.912 31.1515 120.945 31.1195L121.861 30.2042C121.926 30.1396 121.926 30.0356 121.861 29.9709C121.797 29.9068 121.692 29.9068 121.628 29.9709ZM123.014 29.9709L122.097 30.8862C122.033 30.9508 122.033 31.0549 122.098 31.1195C122.129 31.1515 122.172 31.1678 122.214 31.1678C122.256 31.1678 122.299 31.1515 122.331 31.1195L123.247 30.2042C123.312 30.1396 123.312 30.0356 123.247 29.9709C123.183 29.9068 123.079 29.9068 123.014 29.9709ZM109.495 29.9709C109.431 29.9068 109.326 29.9068 109.261 29.9709L108.344 30.8862C108.28 30.9508 108.28 31.0549 108.344 31.1195C108.377 31.1515 108.419 31.1678 108.461 31.1678C108.504 31.1678 108.546 31.1515 108.578 31.1195L109.495 30.2042C109.559 30.1396 109.559 30.0356 109.495 29.9709ZM110.881 29.9709C110.945 30.0356 110.945 30.1396 110.881 30.2042L109.964 31.1195C109.932 31.1515 109.89 31.1678 109.848 31.1678C109.805 31.1678 109.763 31.1515 109.731 31.1195C109.666 31.0549 109.666 30.9508 109.731 30.8862L110.648 29.9709C110.712 29.9068 110.817 29.9068 110.881 29.9709Z" fill="#F173AC"/>
<path d="M120.744 28.095C120.744 27.5339 120.288 27.0789 119.726 27.0789C119.164 27.0789 118.708 27.5339 118.708 28.095C118.708 28.6567 119.164 29.1112 119.726 29.1112C120.288 29.1112 120.744 28.6567 120.744 28.095ZM121.074 28.095C121.074 28.8369 120.469 29.4406 119.726 29.4406C118.983 29.4406 118.379 28.8369 118.379 28.095C118.379 27.3531 118.983 26.75 119.726 26.75C120.469 26.75 121.074 27.3531 121.074 28.095ZM120 28.2668C119.849 28.2668 119.726 28.3893 119.726 28.5401C119.726 28.6908 119.849 28.8133 120 28.8133C120.151 28.8133 120.274 28.6908 120.274 28.5401C120.274 28.3893 120.151 28.2668 120 28.2668ZM124.65 35.6742C124.574 35.6237 124.472 35.6442 124.421 35.7199C123.624 36.9142 122.561 37.954 121.349 38.7253C121.272 38.7741 121.25 38.8761 121.299 38.9528C121.33 39.0016 121.383 39.0284 121.438 39.0284C121.468 39.0284 121.499 39.02 121.526 39.0027C122.777 38.2072 123.873 37.1348 124.696 35.9022C124.747 35.8265 124.726 35.7246 124.65 35.6742ZM125.841 26.3485C125.813 26.2624 125.719 26.2161 125.633 26.245C125.547 26.2739 125.5 26.3674 125.529 26.4536C125.95 27.7073 126.155 28.8669 126.155 29.997C126.155 31.0269 126.003 32.0441 125.704 33.0208C125.677 33.1075 125.726 33.1995 125.813 33.2262C125.829 33.231 125.846 33.2336 125.861 33.2336C125.932 33.2336 125.998 33.1879 126.019 33.117C126.329 32.1092 126.485 31.0594 126.485 29.997C126.485 28.8301 126.274 27.6369 125.841 26.3485ZM121.786 21.1621C121.711 21.1106 121.608 21.1306 121.557 21.2057C121.506 21.2809 121.526 21.3833 121.601 21.4343C123.075 22.4336 124.247 23.7488 124.991 25.2368C125.02 25.2945 125.079 25.3282 125.139 25.3282C125.164 25.3282 125.189 25.3224 125.213 25.3108C125.294 25.2699 125.328 25.1711 125.287 25.0902C124.517 23.5512 123.307 22.193 121.786 21.1621ZM119.86 27.7272C119.86 27.5239 119.695 27.3589 119.491 27.3589C119.287 27.3589 119.122 27.5239 119.122 27.7272C119.122 27.9306 119.287 28.095 119.491 28.095C119.695 28.095 119.86 27.9306 119.86 27.7272ZM112 27.7272C112 27.5239 111.835 27.3589 111.632 27.3589C111.428 27.3589 111.263 27.5239 111.263 27.7272C111.263 27.9306 111.428 28.095 111.632 28.095C111.835 28.095 112 27.9306 112 27.7272ZM111.867 28.5401C111.867 28.6908 111.99 28.8133 112.141 28.8133C112.292 28.8133 112.414 28.6908 112.414 28.5401C112.414 28.3893 112.292 28.2668 112.141 28.2668C111.99 28.2668 111.867 28.3893 111.867 28.5401ZM111.867 29.1112C112.429 29.1112 112.885 28.6567 112.885 28.095C112.885 27.5339 112.429 27.0789 111.867 27.0789C111.305 27.0789 110.849 27.5339 110.849 28.095C110.849 28.6567 111.305 29.1112 111.867 29.1112ZM111.867 29.4406C111.124 29.4406 110.52 28.8369 110.52 28.095C110.52 27.3531 111.124 26.75 111.867 26.75C112.61 26.75 113.215 27.3531 113.215 28.095C113.215 28.8369 112.61 29.4406 111.867 29.4406ZM106.556 35.6258C105.929 35.4834 105.392 35.3027 104.94 35.0852C105.825 36.9662 107.196 38.6144 108.954 39.836C110.821 41.1333 112.992 41.8631 115.262 41.9624C111.472 41.313 108.282 38.9128 106.556 35.6258ZM115.262 18.0322C109.533 19.0137 105.172 23.9962 105.172 29.997C105.172 31.8733 105.599 33.6503 106.361 35.236C105.65 35.0531 105.117 34.8282 104.719 34.5871C104.121 33.1511 103.801 31.5943 103.801 29.997C103.801 23.5717 108.895 18.3128 115.262 18.0322Z" fill="white"/>
</svg>
