<svg width="1028" height="692" viewBox="0 0 1028 692" fill="none" xmlns="http://www.w3.org/2000/svg">
<g opacity="0.8">
<path d="M1028 607.787H0V608.251H1028V607.787Z" fill="#EBEBEB"/>
<path d="M924.994 637.656H856.9V638.12H924.994V637.656Z" fill="#EBEBEB"/>
<path d="M680.988 642.706H663.122V643.17H680.988V642.706Z" fill="#EBEBEB"/>
<path d="M854.844 620.429H815.389V620.893H854.844V620.429Z" fill="#EBEBEB"/>
<path d="M196.656 623.547H107.858V624.012H196.656V623.547Z" fill="#EBEBEB"/>
<path d="M227.99 623.547H214.975V624.012H227.99V623.547Z" fill="#EBEBEB"/>
<path d="M462.908 631.382H270.302V631.846H462.908V631.382Z" fill="#EBEBEB"/>
<path d="M487.272 524.991H90.279C87.1689 524.986 84.1882 523.867 81.991 521.88C79.7938 519.892 78.5597 517.199 78.5598 514.391V10.5072C78.5868 7.71526 79.8328 5.04567 82.0271 3.07832C84.2213 1.11098 87.1867 0.00478282 90.279 0H487.272C490.386 0 493.372 1.11679 495.573 3.10469C497.775 5.09259 499.012 7.78875 499.012 10.6001V514.391C499.012 517.202 497.775 519.898 495.573 521.886C493.372 523.874 490.386 524.991 487.272 524.991ZM90.279 0.371282C87.3053 0.3762 84.4552 1.44626 82.3544 3.34659C80.2536 5.24692 79.0737 7.82223 79.0738 10.5072V514.391C79.0737 517.076 80.2536 519.651 82.3544 521.552C84.4552 523.452 87.3053 524.522 90.279 524.527H487.272C490.248 524.522 493.1 523.453 495.204 521.553C497.308 519.653 498.492 517.078 498.498 514.391V10.5072C498.492 7.82053 497.308 5.24526 495.204 3.34546C493.1 1.44566 490.248 0.376189 487.272 0.371282H90.279Z" fill="#EBEBEB"/>
<path d="M932.005 524.991H534.992C531.88 524.986 528.897 523.868 526.697 521.881C524.496 519.894 523.257 517.201 523.252 514.391V10.5072C523.284 7.71357 524.535 5.04399 526.733 3.07716C528.93 1.11033 531.898 0.00473066 534.992 0H932.005C935.094 0.00966165 938.054 1.11802 940.244 3.08484C942.434 5.05166 943.677 7.71847 943.704 10.5072V514.391C943.704 517.196 942.473 519.886 940.28 521.873C938.087 523.86 935.112 524.981 932.005 524.991ZM534.992 0.371282C532.016 0.376189 529.164 1.44566 527.06 3.34546C524.956 5.24526 523.771 7.82053 523.766 10.5072V514.391C523.771 517.078 524.956 519.653 527.06 521.553C529.164 523.453 532.016 524.522 534.992 524.527H932.005C934.981 524.522 937.833 523.453 939.937 521.553C942.041 519.653 943.226 517.078 943.231 514.391V10.5072C943.226 7.82053 942.041 5.24526 939.937 3.34546C937.833 1.44566 934.981 0.376189 932.005 0.371282H534.992Z" fill="#EBEBEB"/>
<path d="M175.582 339.295H187.158L187.158 119.311H175.582L175.582 339.295Z" fill="#E0E0E0"/>
<path d="M402.544 119.33H182.264V339.314H402.544V119.33Z" fill="#E0E0E0"/>
<path d="M409.576 119.33H181.092V339.314H409.576V119.33Z" fill="#F0F0F0"/>
<path d="M399.913 126.347H190.406V329.196H399.913V126.347Z" fill="white"/>
<path d="M399.912 126.347H393.847V329.196H399.912V126.347Z" fill="#E0E0E0"/>
<path d="M189.851 272.205V277.681H394.485V272.205H189.851Z" fill="#E0E0E0"/>
<path d="M399.913 263.034H187.158V272.223H399.913V263.034Z" fill="#F0F0F0"/>
<path d="M562.748 604.352H865.823V257.817L562.748 257.817V604.352Z" fill="#F0F0F0"/>
<path d="M573.46 344.53L855.111 344.53V270.422H573.46V344.53Z" fill="#E0E0E0"/>
<path d="M839.095 344.53H855.09V282.433H839.095V344.53Z" fill="#EBEBEB"/>
<path d="M761.727 344.53H777.723V282.433H761.727V344.53Z" fill="#EBEBEB"/>
<path d="M662.236 342.074L677.999 344.527L689.681 283.333L673.918 280.879L662.236 342.074Z" fill="#EBEBEB"/>
<path d="M819.295 344.53H835.291V290.601H819.295V344.53Z" fill="#EBEBEB"/>
<path d="M782.493 344.53H798.489V290.601H782.493V344.53Z" fill="#EBEBEB"/>
<path d="M689.665 344.53H705.66V290.601H689.665V344.53Z" fill="#EBEBEB"/>
<path d="M727.796 341.394L743.411 344.528L756.368 291.883L740.754 288.75L727.796 341.394Z" fill="#EBEBEB"/>
<path d="M805.458 344.53H813.456V279.333H805.458V344.53Z" fill="#EBEBEB"/>
<path d="M710.286 344.53H718.284V279.333H710.286V344.53Z" fill="#EBEBEB"/>
<path d="M855.09 356.281H573.439V430.389H855.09V356.281Z" fill="#E0E0E0"/>
<path d="M589.435 368.273H573.439V430.37H589.435V368.273Z" fill="#EBEBEB"/>
<path d="M666.802 368.273H650.806V430.37H666.802V368.273Z" fill="#EBEBEB"/>
<path d="M754.64 366.702L738.877 369.156L750.559 430.35L766.322 427.897L754.64 366.702Z" fill="#EBEBEB"/>
<path d="M609.275 376.46H593.279V430.389H609.275V376.46Z" fill="#EBEBEB"/>
<path d="M646.036 376.46H630.041V430.389H646.036V376.46Z" fill="#EBEBEB"/>
<path d="M738.865 376.46H722.869V430.389H738.865V376.46Z" fill="#EBEBEB"/>
<path d="M687.843 374.582L672.228 377.715L685.186 430.359L700.801 427.226L687.843 374.582Z" fill="#EBEBEB"/>
<path d="M623.112 365.192H615.114V430.389H623.112V365.192Z" fill="#EBEBEB"/>
<path d="M718.264 365.192H710.266V430.389H718.264V365.192Z" fill="#EBEBEB"/>
<path d="M839.095 430.37H855.09V368.273H839.095V430.37Z" fill="#EBEBEB"/>
<path d="M819.295 430.37H835.291V376.442H819.295V430.37Z" fill="#EBEBEB"/>
<path d="M782.493 430.37H798.489V376.442H782.493V430.37Z" fill="#EBEBEB"/>
<path d="M805.458 430.37H813.456V365.173H805.458V430.37Z" fill="#EBEBEB"/>
<path d="M573.46 516.21H855.111V442.103H573.46V516.21Z" fill="#E0E0E0"/>
<path d="M677.432 516.21H693.427V454.114H677.432V516.21Z" fill="#EBEBEB"/>
<path d="M577.947 513.732L593.71 516.186L605.392 454.991L589.629 452.538L577.947 513.732Z" fill="#EBEBEB"/>
<path d="M734.999 516.21H750.995V462.282H734.999V516.21Z" fill="#EBEBEB"/>
<path d="M698.218 516.21H714.213V462.282H698.218V516.21Z" fill="#EBEBEB"/>
<path d="M605.369 516.21H621.364V462.282H605.369V516.21Z" fill="#EBEBEB"/>
<path d="M643.514 513.051L659.129 516.185L672.087 463.541L656.472 460.407L643.514 513.051Z" fill="#EBEBEB"/>
<path d="M721.163 516.21H729.16V451.013H721.163V516.21Z" fill="#EBEBEB"/>
<path d="M625.99 516.21H633.988V451.013H625.99V516.21Z" fill="#EBEBEB"/>
<path d="M762.022 513.736L777.786 516.189L789.468 454.995L773.705 452.542L762.022 513.736Z" fill="#EBEBEB"/>
<path d="M789.463 516.21H805.458V462.282H789.463V516.21Z" fill="#EBEBEB"/>
<path d="M827.593 513.045L843.208 516.178L856.165 463.534L840.551 460.401L827.593 513.045Z" fill="#EBEBEB"/>
<path d="M810.043 516.21H818.041V451.013H810.043V516.21Z" fill="#EBEBEB"/>
<path d="M362.678 391.293H186.767C182.225 391.286 177.726 392.087 173.527 393.651C169.328 395.214 165.511 397.51 162.296 400.407C159.08 403.303 156.529 406.744 154.787 410.531C153.045 414.319 152.147 418.379 152.144 422.48V546.525H397.24V422.48C397.24 418.383 396.346 414.326 394.609 410.541C392.871 406.756 390.325 403.317 387.116 400.421C383.906 397.525 380.096 395.228 375.903 393.661C371.71 392.095 367.216 391.29 362.678 391.293Z" fill="#E6E6E6"/>
<path d="M449.256 483.222H417.779C412.326 483.222 407.097 485.178 403.241 488.659C399.385 492.141 397.219 496.862 397.219 501.786V604.352H469.755V501.767C469.749 496.857 467.589 492.148 463.747 488.672C459.906 485.196 454.695 483.237 449.256 483.222Z" fill="#E0E0E0"/>
<path d="M449.257 483.222H448.578C443.125 483.222 437.896 485.178 434.04 488.659C430.184 492.141 428.018 496.862 428.018 501.786V604.352H469.734V501.767C469.729 496.86 467.572 492.154 463.734 488.679C459.897 485.203 454.692 483.241 449.257 483.222Z" fill="#EBEBEB"/>
<path d="M419.28 557.218H177.844V604.334H419.28V557.218Z" fill="#E6E6E6"/>
<path d="M419.609 514.131H186.767C175.242 514.131 165.899 522.567 165.899 532.974V544.725C165.899 555.131 175.242 563.567 186.767 563.567H419.609C431.134 563.567 440.477 555.131 440.477 544.725V532.974C440.477 522.567 431.134 514.131 419.609 514.131Z" fill="#F5F5F5"/>
<path d="M216.045 514.131H187.158C175.632 514.131 166.289 522.567 166.289 532.974V544.725C166.289 555.131 175.632 563.567 187.158 563.567H216.045C227.57 563.567 236.913 555.131 236.913 544.725V532.974C236.913 522.567 227.57 514.131 216.045 514.131Z" fill="#E0E0E0"/>
<path d="M184.033 483.222H152.555C147.102 483.222 141.873 485.178 138.017 488.659C134.161 492.141 131.995 496.862 131.995 501.786V604.352H204.572V501.767C204.567 496.85 202.401 492.136 198.55 488.659C194.699 485.182 189.478 483.227 184.033 483.222Z" fill="#E0E0E0"/>
<path d="M184.033 483.222H183.375C177.922 483.222 172.692 485.178 168.837 488.659C164.981 492.141 162.815 496.862 162.815 501.786V604.352H204.572V501.767C204.567 496.85 202.401 492.136 198.55 488.659C194.699 485.182 189.478 483.227 184.033 483.222Z" fill="#F0F0F0"/>
<path d="M706.606 175.486C729.725 175.486 748.466 158.564 748.466 137.69C748.466 116.815 729.725 99.8931 706.606 99.8931C683.487 99.8931 664.746 116.815 664.746 137.69C664.746 158.564 683.487 175.486 706.606 175.486Z" fill="#E0E0E0"/>
<path d="M741.772 142.85C744.921 125.332 731.746 108.826 712.344 105.982C692.943 103.139 674.662 115.035 671.513 132.553C668.363 150.071 681.538 166.577 700.94 169.421C720.341 172.264 738.622 160.368 741.772 142.85Z" fill="#F0F0F0"/>
<path d="M704.941 115.635V138.098L688.452 129.67" fill="#F0F0F0"/>
<path d="M704.941 139.713C704.629 139.714 704.323 139.637 704.057 139.49L687.609 131.081C687.222 130.858 686.945 130.509 686.836 130.107C686.726 129.705 686.791 129.28 687.018 128.921C687.245 128.561 687.616 128.293 688.055 128.174C688.494 128.054 688.967 128.091 689.377 128.278L703.193 135.35V115.635C703.24 115.239 703.448 114.873 703.776 114.607C704.105 114.34 704.53 114.193 704.972 114.193C705.413 114.193 705.838 114.34 706.167 114.607C706.495 114.873 706.703 115.239 706.75 115.635V138.098C706.752 138.38 706.671 138.657 706.516 138.902C706.36 139.146 706.136 139.349 705.866 139.49C705.588 139.644 705.266 139.721 704.941 139.713Z" fill="#E0E0E0"/>
<path d="M514 691.64C734.162 691.64 912.638 680.196 912.638 666.078C912.638 651.96 734.162 640.515 514 640.515C293.838 640.515 115.362 651.96 115.362 666.078C115.362 680.196 293.838 691.64 514 691.64Z" fill="#F5F5F5"/>
<path d="M799.085 279.983H743.573C738.518 279.983 733.67 281.796 730.096 285.023C726.522 288.25 724.514 292.628 724.514 297.192V317.946C724.514 322.51 726.522 326.888 730.096 330.115C733.67 333.342 738.518 335.155 743.573 335.155H767.299L773.673 353.329L780.108 335.155H798.982C804.037 335.155 808.885 333.342 812.459 330.115C816.033 326.888 818.041 322.51 818.041 317.946V297.192C818.041 292.644 816.047 288.281 812.495 285.056C808.943 281.831 804.122 280.007 799.085 279.983Z" fill="#407BFF"/>
<path d="M749.782 306.307C749.782 306.993 749.557 307.664 749.134 308.235C748.712 308.806 748.111 309.251 747.409 309.514C746.706 309.777 745.933 309.845 745.187 309.711C744.442 309.577 743.756 309.247 743.219 308.761C742.681 308.276 742.315 307.657 742.167 306.984C742.018 306.31 742.094 305.612 742.385 304.978C742.676 304.344 743.169 303.802 743.801 303.42C744.434 303.039 745.177 302.835 745.937 302.835C746.442 302.835 746.942 302.925 747.409 303.099C747.875 303.274 748.299 303.53 748.656 303.852C749.013 304.174 749.296 304.557 749.489 304.978C749.683 305.399 749.782 305.851 749.782 306.307ZM762.899 302.835C762.139 302.835 761.396 303.039 760.763 303.42C760.131 303.802 759.638 304.344 759.347 304.978C759.056 305.612 758.98 306.31 759.129 306.984C759.277 307.657 759.643 308.276 760.181 308.761C760.718 309.247 761.404 309.577 762.149 309.711C762.895 309.845 763.668 309.777 764.371 309.514C765.073 309.251 765.674 308.806 766.096 308.235C766.519 307.664 766.744 306.993 766.744 306.307C766.723 305.399 766.308 304.535 765.589 303.9C764.871 303.265 763.905 302.909 762.899 302.909V302.835ZM779.861 302.835C779.101 302.835 778.358 303.039 777.725 303.42C777.093 303.802 776.6 304.344 776.309 304.978C776.018 305.612 775.942 306.31 776.091 306.984C776.239 307.657 776.605 308.276 777.143 308.761C777.68 309.247 778.366 309.577 779.111 309.711C779.857 309.845 780.63 309.777 781.333 309.514C782.035 309.251 782.636 308.806 783.058 308.235C783.481 307.664 783.706 306.993 783.706 306.307C783.685 305.399 783.27 304.535 782.551 303.9C781.833 303.265 780.867 302.909 779.861 302.909V302.835ZM796.823 302.835C796.063 302.835 795.32 303.039 794.687 303.42C794.055 303.802 793.562 304.344 793.271 304.978C792.98 305.612 792.904 306.31 793.053 306.984C793.201 307.657 793.567 308.276 794.105 308.761C794.642 309.247 795.328 309.577 796.073 309.711C796.819 309.845 797.592 309.777 798.295 309.514C798.997 309.251 799.598 308.806 800.02 308.235C800.443 307.664 800.668 306.993 800.668 306.307C800.647 305.399 800.232 304.535 799.513 303.9C798.795 303.265 797.829 302.909 796.823 302.909V302.835Z" fill="white"/>
<path d="M229.244 341.244H173.835C171.332 341.244 168.854 341.689 166.541 342.554C164.229 343.419 162.128 344.687 160.358 346.284C158.588 347.882 157.184 349.78 156.226 351.867C155.269 353.955 154.776 356.193 154.776 358.453V379.208C154.776 383.772 156.784 388.149 160.358 391.376C163.932 394.603 168.78 396.416 173.835 396.416H197.561L203.935 414.572L210.37 396.416H229.244C234.299 396.416 239.147 394.603 242.721 391.376C246.295 388.149 248.303 383.772 248.303 379.208V358.453C248.303 356.193 247.81 353.955 246.852 351.867C245.895 349.78 244.491 347.882 242.721 346.284C240.951 344.687 238.85 343.419 236.538 342.554C234.225 341.689 231.747 341.244 229.244 341.244Z" fill="#407BFF"/>
<path d="M179.941 367.568C179.941 368.255 179.716 368.926 179.293 369.497C178.871 370.067 178.27 370.512 177.568 370.775C176.865 371.038 176.092 371.107 175.346 370.973C174.6 370.839 173.915 370.508 173.378 370.023C172.84 369.537 172.474 368.919 172.326 368.245C172.177 367.572 172.253 366.874 172.544 366.239C172.835 365.605 173.328 365.063 173.96 364.682C174.593 364.3 175.336 364.097 176.096 364.097C177.116 364.097 178.094 364.462 178.815 365.113C179.536 365.764 179.941 366.647 179.941 367.568ZM193.058 364.097C192.298 364.097 191.555 364.3 190.922 364.682C190.29 365.063 189.797 365.605 189.506 366.239C189.215 366.874 189.139 367.572 189.288 368.245C189.436 368.919 189.802 369.537 190.34 370.023C190.877 370.508 191.562 370.839 192.308 370.973C193.054 371.107 193.827 371.038 194.53 370.775C195.232 370.512 195.833 370.067 196.255 369.497C196.678 368.926 196.903 368.255 196.903 367.568C196.887 366.659 196.474 365.792 195.754 365.156C195.034 364.52 194.066 364.166 193.058 364.171V364.097ZM210.02 364.097C209.258 364.089 208.511 364.286 207.873 364.663C207.236 365.04 206.736 365.58 206.439 366.214C206.142 366.847 206.06 367.546 206.203 368.222C206.347 368.898 206.71 369.52 207.246 370.009C207.782 370.498 208.467 370.833 209.214 370.97C209.961 371.107 210.736 371.04 211.441 370.779C212.146 370.517 212.749 370.072 213.173 369.5C213.597 368.929 213.824 368.256 213.824 367.568C213.808 366.665 213.401 365.804 212.69 365.169C211.979 364.534 211.02 364.175 210.02 364.171V364.097ZM226.982 364.097C226.222 364.097 225.479 364.3 224.846 364.682C224.214 365.063 223.721 365.605 223.43 366.239C223.139 366.874 223.063 367.572 223.212 368.245C223.36 368.919 223.726 369.537 224.264 370.023C224.801 370.508 225.486 370.839 226.232 370.973C226.978 371.107 227.751 371.038 228.454 370.775C229.156 370.512 229.757 370.067 230.179 369.497C230.602 368.926 230.827 368.255 230.827 367.568C230.811 366.659 230.398 365.792 229.678 365.156C228.958 364.52 227.99 364.166 226.982 364.171V364.097Z" fill="white"/>
<path d="M849.128 668.677H588.18C539.433 668.677 536.308 616.846 576.379 592.453C583.705 588.054 591.814 584.827 600.352 582.911C679.693 564.068 791.169 437.406 869.688 490.406L869.914 490.555C948.124 543.926 893.455 668.677 849.128 668.677Z" fill="#263238"/>
<path opacity="0.5" d="M849.128 668.677H588.18C539.433 668.677 536.308 616.846 576.379 592.453C583.705 588.054 591.814 584.827 600.352 582.911C679.693 564.068 791.169 437.406 869.688 490.406L869.914 490.555C948.124 543.926 893.455 668.677 849.128 668.677Z" fill="white"/>
<path opacity="0.2" d="M869.482 490.313C862.903 489.924 854.926 491.594 846.332 498.092C824.024 514.985 857.948 596.314 804.595 630.138C774.824 649.017 646.386 657.334 603.518 634.185C571.876 617.087 571.465 606.339 576.379 592.453C583.705 588.054 591.814 584.827 600.352 582.911C679.59 563.975 791.067 437.313 869.482 490.313Z" fill="black"/>
<path d="M666.596 474.979L651.032 465.085L662.669 454.336C662.669 454.336 674.615 459.905 673.484 469.837L666.596 474.979Z" fill="#E4897B"/>
<path d="M644.926 454.169L655.72 448.043L662.669 454.336L651.032 465.085L644.926 454.169Z" fill="#E4897B"/>
<path d="M743.162 449.417C728.42 453.334 721.163 476.743 708.991 498.853L673.566 467.071L662.299 476.093C662.299 476.093 694.743 522.633 710.06 522.633C729.181 522.633 749.021 474.682 749.021 474.682L743.162 449.417Z" fill="#263238"/>
<path opacity="0.1" d="M749.021 474.682C749.021 474.682 745.876 482.275 740.797 491.39C735.966 500.264 729.387 510.604 722.293 516.86C718.284 520.369 714.069 522.596 709.957 522.596C694.64 522.596 662.196 476.056 662.196 476.056L673.463 467.034L708.888 498.816C721.06 476.706 728.297 453.297 743.08 449.38L749.021 474.682Z" fill="white"/>
<path opacity="0.2" d="M740.88 491.427C736.048 500.301 729.469 510.641 722.376 516.897C723.136 495.678 734.712 474.979 734.712 474.979C737.903 480.06 739.996 485.641 740.88 491.427Z" fill="black"/>
<path d="M729.058 578.734C729.058 578.734 603.95 562.509 597.33 587.292C590.36 613.504 690.816 631.177 750.851 633.034C810.886 634.89 828.116 621.895 818.473 555.065H736.233L729.058 578.734Z" fill="#407BFF"/>
<path opacity="0.6" d="M729.058 578.734C729.058 578.734 603.95 562.509 597.33 587.292C590.36 613.504 690.816 631.177 750.851 633.034C810.886 634.89 828.116 621.895 818.473 555.065H736.233L729.058 578.734Z" fill="white"/>
<path d="M659.38 630.416L633.166 630.435L620.583 630.453L619.082 618.479L630.719 617.069L659.154 613.653L659.38 630.416Z" fill="#E4897B"/>
<path d="M621.919 616.976L625.106 630.639C625.151 630.818 625.155 631.004 625.117 631.185C625.08 631.366 625.002 631.538 624.889 631.691C624.775 631.844 624.628 631.974 624.457 632.074C624.286 632.174 624.094 632.242 623.893 632.273L616.348 633.498C616.348 633.498 606.335 635.8 603.518 634.185C595.294 629.432 587.399 599.396 590.75 597.168C591.963 596.351 594.081 597.595 595.15 598.579C598.522 601.679 605.698 610.348 608.555 612.91C611.866 615.918 617.766 616.011 620.357 615.881C620.719 615.865 621.076 615.967 621.362 616.168C621.649 616.368 621.846 616.655 621.919 616.976Z" fill="#263238"/>
<path opacity="0.2" d="M659.38 630.416L633.166 630.435L630.719 617.069L659.154 613.653L659.38 630.416Z" fill="black"/>
<path d="M697.704 609.29L722.581 616.772L734.527 620.354L731.751 632.124L720.217 630.138L692.05 625.274L697.704 609.29Z" fill="#E4897B"/>
<path d="M728.544 632.737L730.291 618.869C730.317 618.688 730.381 618.512 730.482 618.353C730.583 618.194 730.717 618.054 730.877 617.942C731.038 617.83 731.221 617.748 731.417 617.7C731.613 617.652 731.817 617.639 732.018 617.663L739.605 618.665C739.605 618.665 749.885 619.333 751.941 621.672C758.109 628.523 755.066 659.283 751.118 660.434C749.659 660.861 748.096 659.079 747.418 657.854C745.362 653.937 741.538 643.652 739.728 640.422C737.672 636.617 732.059 634.853 729.572 634.222C729.233 634.124 728.944 633.921 728.756 633.649C728.568 633.377 728.493 633.054 728.544 632.737Z" fill="#263238"/>
<path opacity="0.2" d="M697.704 609.29L722.581 616.772L720.217 630.138L692.05 625.274L697.704 609.29Z" fill="black"/>
<path d="M715.899 632.217L708.806 632.83L713.041 610.664L721.183 614.544L715.899 632.217Z" fill="#407BFF"/>
<path opacity="0.6" d="M715.899 632.217L708.806 632.83L713.041 610.664L721.183 614.544L715.899 632.217Z" fill="white"/>
<path d="M739.646 640.255C739.83 641.259 739.665 642.291 739.173 643.207C738.974 643.481 738.698 643.703 738.373 643.85C738.048 643.997 737.685 644.063 737.323 644.042C737.103 644.051 736.886 644.007 736.691 643.916C736.496 643.825 736.331 643.689 736.212 643.522C735.143 641.889 737.652 636.858 737.96 636.301C737.979 636.239 738.024 636.185 738.085 636.151C738.146 636.116 738.218 636.104 738.289 636.115C738.367 636.121 738.441 636.15 738.501 636.197C738.56 636.243 738.601 636.306 738.618 636.375C739.105 637.634 739.45 638.934 739.646 640.255ZM736.685 642.668C736.699 642.833 736.756 642.991 736.85 643.133C736.888 643.204 736.951 643.262 737.029 643.299C737.106 643.335 737.195 643.349 737.282 643.337C737.531 643.363 737.783 643.325 738.009 643.226C738.235 643.128 738.425 642.973 738.556 642.78C739.155 641.014 739.046 639.115 738.248 637.415C737.382 639.067 736.853 640.847 736.685 642.668Z" fill="#407BFF"/>
<path d="M738.68 636.412V636.561C738.001 638.176 734.917 641.369 733.17 641.146C732.884 641.101 732.623 640.97 732.429 640.775C732.235 640.58 732.119 640.331 732.1 640.069C732.022 639.809 732.006 639.537 732.056 639.27C732.106 639.004 732.219 638.751 732.388 638.529C733.663 636.672 738.083 636.078 738.33 636.097C738.398 636.085 738.469 636.093 738.532 636.12C738.594 636.146 738.646 636.19 738.68 636.245C738.695 636.3 738.695 636.358 738.68 636.412ZM732.758 639.81V639.958C732.882 640.422 733.087 640.441 733.19 640.478C734.218 640.608 736.583 638.529 737.611 636.932C735.857 637.125 734.223 637.836 732.964 638.956C732.789 639.211 732.709 639.51 732.738 639.81H732.758Z" fill="#407BFF"/>
<path d="M635.551 615.342C635.551 615.342 751.941 574.501 787.592 581.333C823.243 588.164 823.407 605.002 805.335 620.707C787.263 636.412 760.268 630.36 760.268 630.36C760.268 630.36 781.486 618.888 780.005 611.796C778.525 604.705 765.038 620.911 765.038 620.911C765.038 620.911 694.702 636.449 636.62 632.347L635.551 615.342Z" fill="#407BFF"/>
<path d="M609.357 613.133C608.682 612.324 608.307 611.343 608.288 610.33C608.321 610.004 608.448 609.691 608.657 609.424C608.867 609.156 609.151 608.944 609.481 608.808C609.673 608.712 609.888 608.661 610.108 608.661C610.327 608.661 610.543 608.712 610.735 608.808C612.503 609.829 612.791 615.342 612.791 615.973C612.799 616.037 612.784 616.101 612.746 616.155C612.709 616.209 612.652 616.25 612.585 616.27C612.521 616.309 612.446 616.329 612.369 616.329C612.293 616.329 612.217 616.309 612.153 616.27C611.103 615.316 610.165 614.264 609.357 613.133ZM610.755 609.754C610.651 609.621 610.518 609.507 610.365 609.42C610.295 609.376 610.213 609.353 610.128 609.353C610.044 609.353 609.961 609.376 609.892 609.42C609.655 609.498 609.447 609.635 609.294 609.816C609.141 609.997 609.049 610.214 609.028 610.441C609.396 612.257 610.468 613.896 612.051 615.064C611.971 613.239 611.532 611.441 610.755 609.754Z" fill="#407BFF"/>
<path d="M612.153 616.14V615.973C611.948 614.265 613.037 610.144 614.723 609.606C615.002 609.527 615.302 609.536 615.574 609.63C615.846 609.724 616.075 609.899 616.224 610.126C616.611 610.538 616.803 611.072 616.759 611.611C616.553 613.783 612.935 616.14 612.647 616.252C612.589 616.287 612.521 616.306 612.452 616.306C612.382 616.306 612.314 616.287 612.256 616.252C612.212 616.223 612.177 616.185 612.153 616.14ZM615.69 610.664V610.534C615.361 610.181 615.155 610.256 615.052 610.274C614.065 610.571 612.996 613.393 612.996 615.249C614.004 614.488 615.957 612.892 616.08 611.537C616.101 611.235 616.015 610.936 615.834 610.683L615.69 610.664Z" fill="#407BFF"/>
<path opacity="0.7" d="M635.551 615.342C635.551 615.342 751.941 574.501 787.592 581.333C823.243 588.164 823.407 605.002 805.335 620.707C787.263 636.412 760.268 630.36 760.268 630.36C760.268 630.36 781.486 618.888 780.005 611.796C778.525 604.705 765.038 620.911 765.038 620.911C765.038 620.911 694.702 636.449 636.62 632.347L635.551 615.342Z" fill="white"/>
<path d="M634.132 615.026L640.67 612.316L644.433 634.426L635.345 633.089L634.132 615.026Z" fill="#407BFF"/>
<path opacity="0.6" d="M634.132 615.026L640.67 612.316L644.433 634.426L635.345 633.089L634.132 615.026Z" fill="white"/>
<path d="M826.738 452.963C814.176 516.08 818.74 556.921 818.74 556.921C818.74 556.921 760.288 556.197 736.274 554.972C723.465 478.47 743.162 449.398 743.162 449.398C749.442 448.262 755.793 447.475 762.18 447.041C763.516 446.948 764.894 446.892 766.292 446.836C777.62 446.83 788.94 447.406 800.195 448.563C802.251 448.767 804.492 449.027 806.589 449.305C817.301 450.772 826.738 452.963 826.738 452.963Z" fill="#263238"/>
<path opacity="0.1" d="M826.738 452.962C825.176 460.797 823.88 468.296 822.811 475.388C821.125 486.526 819.994 496.848 819.254 506.018C819.028 508.785 818.823 511.476 818.679 514.038C818.082 523.432 817.918 531.47 817.938 537.967C817.938 550.182 818.74 556.921 818.74 556.921C818.74 556.921 760.288 556.197 736.274 554.972C723.445 478.47 743.182 449.398 743.182 449.398C749.455 448.261 755.8 447.474 762.18 447.041C763.516 446.948 764.894 446.892 766.292 446.836C777.62 446.82 788.94 447.397 800.195 448.563C802.251 448.767 804.492 449.027 806.589 449.305C817.301 450.753 826.738 452.962 826.738 452.962Z" fill="white"/>
<path opacity="0.2" d="M774.536 522.633C789.515 521.027 804.294 518.155 818.679 514.057C818.082 523.45 817.918 531.488 817.938 537.986C790.039 540.306 778.648 535.461 778.648 535.461L774.536 522.633Z" fill="black"/>
<path opacity="0.2" d="M822.811 475.406C821.125 486.545 819.994 496.866 819.254 506.037C811.256 491.334 817.198 473.699 817.198 473.699L822.811 475.406Z" fill="black"/>
<path d="M777.703 548.549H735.184C734.358 548.537 733.567 548.247 732.966 547.735C732.365 547.223 731.997 546.527 731.936 545.783L726.015 494.824C725.974 494.482 726.014 494.136 726.132 493.809C726.251 493.482 726.444 493.182 726.701 492.927C726.957 492.673 727.271 492.47 727.62 492.333C727.97 492.196 728.348 492.128 728.729 492.133H771.247C772.056 492.147 772.832 492.429 773.427 492.925C774.021 493.421 774.394 494.097 774.475 494.824L780.416 545.783C780.47 546.131 780.439 546.485 780.327 546.821C780.214 547.157 780.023 547.467 779.765 547.73C779.507 547.993 779.189 548.202 778.833 548.343C778.477 548.485 778.091 548.555 777.703 548.549Z" fill="#263238"/>
<path opacity="0.6" d="M777.703 548.549H735.184C734.358 548.537 733.567 548.247 732.966 547.735C732.365 547.223 731.997 546.527 731.936 545.783L726.015 494.824C725.974 494.482 726.014 494.136 726.132 493.809C726.251 493.482 726.444 493.182 726.701 492.927C726.957 492.673 727.271 492.47 727.62 492.333C727.97 492.196 728.348 492.128 728.729 492.133H771.247C772.056 492.147 772.832 492.429 773.427 492.925C774.021 493.421 774.394 494.097 774.475 494.824L780.416 545.783C780.47 546.131 780.439 546.485 780.327 546.821C780.214 547.157 780.023 547.467 779.765 547.73C779.507 547.993 779.189 548.202 778.833 548.343C778.477 548.485 778.091 548.555 777.703 548.549Z" fill="white"/>
<path opacity="0.2" d="M775.934 548.549H735.184C734.358 548.537 733.567 548.247 732.966 547.735C732.365 547.223 731.997 546.527 731.936 545.783L726.015 494.824C725.974 494.482 726.014 494.136 726.132 493.809C726.251 493.482 726.444 493.182 726.701 492.927C726.957 492.673 727.271 492.47 727.62 492.333C727.97 492.196 728.348 492.128 728.729 492.133H769.479C770.288 492.147 771.064 492.429 771.658 492.925C772.253 493.421 772.626 494.097 772.706 494.824L778.648 545.783C778.702 546.131 778.671 546.485 778.559 546.821C778.446 547.157 778.254 547.467 777.997 547.73C777.739 547.993 777.421 548.202 777.065 548.343C776.709 548.485 776.323 548.555 775.934 548.549Z" fill="white"/>
<path d="M751.139 516.21C750.553 516.206 749.973 516.315 749.437 516.53C748.901 516.745 748.423 517.061 748.033 517.456C747.644 517.852 747.353 518.318 747.179 518.823C747.006 519.329 746.954 519.862 747.027 520.387C747.148 521.514 747.725 522.56 748.646 523.327C749.568 524.094 750.77 524.528 752.023 524.545C752.607 524.549 753.186 524.441 753.72 524.227C754.254 524.013 754.731 523.699 755.12 523.306C755.509 522.912 755.801 522.448 755.976 521.945C756.151 521.442 756.205 520.911 756.135 520.387C754.88 520.365 753.678 519.927 752.757 519.157C751.835 518.387 751.26 517.338 751.139 516.21Z" fill="#263238"/>
<path opacity="0.3" d="M760.35 496.254H737.878C737.326 496.247 736.786 496.101 736.321 495.832C735.856 495.563 735.484 495.182 735.246 494.732L733.91 492.207H763.557L762.776 494.732C762.623 495.196 762.3 495.6 761.859 495.877C761.418 496.154 760.886 496.287 760.35 496.254Z" fill="black"/>
<path d="M773.549 521L763.722 520.276L764.133 532.082L772.357 535.981L791.313 534.422L792.855 526.458C786.626 518.215 773.549 521 773.549 521Z" fill="#E4897B"/>
<path d="M826.738 452.963C836.833 455.71 851.143 508.655 848.861 520.35C846.579 532.045 821.68 537.058 790.039 536.408V522.596L826.738 512.924L820.57 492.504C820.57 492.504 815.471 477.486 817.753 466.978C819.006 461.557 822.156 456.644 826.738 452.963Z" fill="#263238"/>
<path opacity="0.1" d="M826.738 452.963C836.833 455.71 851.143 508.655 848.861 520.35C846.579 532.045 821.68 537.058 790.039 536.408V522.596L826.738 512.924L820.57 492.504C820.57 492.504 815.471 477.486 817.753 466.978C819.006 461.557 822.156 456.644 826.738 452.963Z" fill="white"/>
<path d="M795.302 447.969C790.182 452.795 782.144 456.842 769.252 456.415C759.363 456.063 757.986 450.456 759.713 447.375C765.716 446.261 768.43 443.903 769.273 440.896C770.116 437.889 768.944 433.842 767.217 430.092L783.891 417.412L786.708 415.259C786.708 415.983 786.605 416.744 786.564 417.542C786.37 420.485 786.37 423.436 786.564 426.379C787.119 434.677 789.298 443.681 795.302 447.969Z" fill="#E4897B"/>
<path opacity="0.2" d="M786.584 426.379C783.48 432.115 778.032 439.04 769.273 440.896C770.178 437.703 768.944 433.842 767.217 430.092L783.891 417.412C784.775 417.412 785.68 417.412 786.564 417.542C786.377 420.486 786.383 423.436 786.584 426.379Z" fill="black"/>
<path d="M748.384 392.202C745.937 397.252 745.629 408.093 754.141 405.401C762.653 402.71 752.496 383.533 748.384 392.202Z" fill="#263238"/>
<path d="M789.154 403.397C788.414 416.911 788.764 424.875 781.28 431.837C770.013 442.307 751.427 436.143 747.644 422.666C744.272 410.507 746.04 390.439 760.638 385.018C763.876 383.821 767.397 383.384 770.873 383.748C774.348 384.112 777.665 385.266 780.513 387.102C783.361 388.937 785.648 391.394 787.159 394.244C788.67 397.094 789.356 400.242 789.154 403.397Z" fill="#E4897B"/>
<path d="M766.456 407.221C766.456 408.316 765.84 409.226 765.038 409.226C764.236 409.226 763.578 408.335 763.557 407.221C763.537 406.107 764.195 405.234 764.976 405.234C765.757 405.234 766.436 406.125 766.456 407.221Z" fill="#263238"/>
<path d="M752.64 407.258C752.64 408.353 752.023 409.244 751.221 409.244C750.419 409.244 749.762 408.353 749.762 407.258C749.762 406.163 750.378 405.271 751.18 405.271C751.982 405.271 752.64 406.144 752.64 407.258Z" fill="#263238"/>
<path d="M757.04 407.796C755.585 411.057 753.634 414.119 751.242 416.893C752.091 417.397 753.047 417.735 754.049 417.885C755.051 418.035 756.077 417.994 757.06 417.765L757.04 407.796Z" fill="#DE5753"/>
<path d="M770.65 403.192C770.527 403.209 770.401 403.195 770.285 403.153C770.169 403.11 770.068 403.041 769.993 402.951C769.461 402.291 768.765 401.753 767.962 401.379C767.159 401.005 766.27 400.806 765.367 400.798C765.177 400.808 764.99 400.752 764.844 400.642C764.699 400.531 764.606 400.374 764.585 400.204C764.577 400.118 764.587 400.032 764.616 399.95C764.644 399.869 764.69 399.793 764.752 399.727C764.813 399.662 764.888 399.608 764.972 399.568C765.056 399.529 765.149 399.505 765.243 399.498C766.386 399.492 767.513 399.729 768.535 400.19C769.557 400.651 770.444 401.324 771.123 402.153C771.24 402.288 771.293 402.46 771.27 402.631C771.246 402.801 771.15 402.956 771 403.062C770.898 403.132 770.777 403.177 770.65 403.192Z" fill="#263238"/>
<path d="M746.636 402.988C746.502 403.023 746.36 403.023 746.225 402.988C746.14 402.951 746.064 402.898 746.001 402.834C745.938 402.77 745.89 402.695 745.86 402.614C745.829 402.533 745.817 402.447 745.823 402.361C745.829 402.276 745.854 402.192 745.896 402.116C746.352 401.171 747.053 400.341 747.941 399.694C748.829 399.048 749.877 398.605 750.995 398.403C751.09 398.392 751.186 398.399 751.277 398.423C751.369 398.446 751.455 398.486 751.529 398.539C751.604 398.593 751.666 398.659 751.712 398.734C751.758 398.81 751.787 398.893 751.797 398.978C751.812 399.061 751.808 399.146 751.785 399.228C751.763 399.309 751.723 399.386 751.667 399.454C751.612 399.521 751.542 399.578 751.462 399.62C751.382 399.663 751.293 399.691 751.201 399.702C750.318 399.852 749.49 400.197 748.791 400.705C748.091 401.214 747.542 401.87 747.192 402.617C747.138 402.714 747.06 402.798 746.963 402.863C746.867 402.927 746.755 402.97 746.636 402.988Z" fill="#263238"/>
<path d="M765.634 392.555C765.634 392.555 769.746 389.882 771.637 392.759C773.529 395.637 773.406 403.304 773.406 403.304L774.228 401.949C774.228 401.949 779.553 419.027 787.263 414.721C794.973 410.414 806.301 393.075 788.291 384.238C788.291 384.238 786.379 380.117 774.475 378.075C762.57 376.033 748.178 382.679 745.691 389.789C743.203 396.899 746.678 400.928 746.678 400.928C747.059 399.38 747.841 397.936 748.96 396.714C749.119 397.438 749.475 398.116 749.995 398.686C750.515 399.256 751.184 399.701 751.941 399.981C751.819 398.528 752.154 397.074 752.907 395.785C753.301 397.049 754.003 398.216 754.963 399.201C755.827 391.887 761.337 390.402 763.064 390.457C763.682 390.519 764.263 390.755 764.724 391.131C765.185 391.508 765.504 392.006 765.634 392.555Z" fill="#263238"/>
<path d="M795.096 414.591C794.546 416.199 793.649 417.693 792.456 418.986C791.263 420.28 789.799 421.348 788.147 422.128C783.706 424.188 780.458 420.791 780.828 416.558C781.157 412.716 783.85 407.016 788.723 406.738C789.789 406.695 790.85 406.89 791.812 407.306C792.774 407.722 793.608 408.346 794.239 409.123C794.869 409.9 795.278 410.806 795.427 411.76C795.577 412.714 795.463 413.686 795.096 414.591Z" fill="#E4897B"/>
<path d="M757.533 422.295C758.816 423.507 759.999 424.804 761.07 426.175L761.954 425.785C765.922 423.928 767.114 421.942 767.217 420.216C767.243 419.383 767.053 418.556 766.662 417.802C766.453 417.372 766.176 416.972 765.839 416.614C763.945 418.721 761.567 420.431 758.87 421.626C758.068 422.072 757.533 422.295 757.533 422.295Z" fill="#263238"/>
<path d="M758.87 421.664L759.959 422.777C763.681 421.069 766.127 419.399 766.662 417.839C766.453 417.41 766.176 417.009 765.839 416.651C763.945 418.758 761.567 420.468 758.87 421.664Z" fill="white"/>
<path d="M761.954 425.785C765.922 423.928 767.114 421.942 767.217 420.216C765.722 420.932 764.379 421.881 763.249 423.019C762.504 423.794 762.05 424.762 761.954 425.785Z" fill="#A24E3F"/>
<path d="M399.707 466.292L400.776 476.595C400.776 476.595 467.555 485.765 478.246 495.159C488.937 504.552 526.871 653.12 526.871 653.12L511.574 654.976C511.574 654.976 458.488 545.449 455.651 529.595C455.651 529.595 408.897 531.173 376.988 531.173C345.079 531.173 341.275 466.199 341.275 466.199L399.707 466.292Z" fill="#407BFF"/>
<path opacity="0.3" d="M526.871 653.139L511.574 654.995C511.574 654.995 489.863 610.2 473.476 573.759C464.204 553.208 456.658 535.313 455.651 529.595C455.651 529.595 423.289 530.672 393.971 531.043C388.049 531.043 382.272 531.154 376.906 531.154C344.997 531.154 341.193 466.18 341.193 466.18H399.625L400.694 476.483C400.694 476.483 467.493 485.635 478.164 495.047C488.835 504.459 526.871 653.139 526.871 653.139Z" fill="white"/>
<path d="M538.672 666.449C528.392 666.449 527.014 666.3 521.217 666.115C516.262 665.966 515.049 666.523 511.101 666.449C507.77 666.449 507.894 663.497 508.922 660.193C509.436 658.522 510.217 655.014 510.978 652.34L526.069 651.338C528.125 655.051 532.977 660.23 538.775 660.935C544.573 661.641 542.784 666.449 538.672 666.449Z" fill="#263238"/>
<path opacity="0.2" d="M473.476 573.833C464.204 553.283 456.658 535.387 455.651 529.669C455.651 529.669 423.289 530.746 393.971 531.117L390.805 480.642C390.805 480.642 432.089 485.988 459.845 507.578C463.361 510.251 470.207 551.593 473.476 573.833Z" fill="black"/>
<path d="M459.084 540.826H339.61V534.199C339.61 531.988 340.583 529.868 342.314 528.305C344.045 526.742 346.393 525.864 348.842 525.864H449.853C452.301 525.864 454.649 526.742 456.38 528.305C458.112 529.868 459.084 531.988 459.084 534.199V540.826Z" fill="#263238"/>
<path opacity="0.2" d="M459.084 540.826H339.61V534.199C339.61 531.988 340.583 529.868 342.314 528.305C344.045 526.742 346.393 525.864 348.842 525.864H449.853C452.301 525.864 454.649 526.742 456.38 528.305C458.112 529.868 459.084 531.988 459.084 534.199V540.826Z" fill="white"/>
<path d="M454.931 637.823L408.877 634.203V579.588H392.696V634.185L346.477 637.897C344.512 638.073 342.689 638.901 341.363 640.222C340.037 641.543 339.302 643.262 339.302 645.045V650.614H462.127V645.045C462.147 643.246 461.418 641.506 460.086 640.169C458.753 638.832 456.914 637.995 454.931 637.823Z" fill="#263238"/>
<path d="M354.187 657.39C354.187 659.281 353.566 661.129 352.403 662.701C351.239 664.274 349.586 665.499 347.651 666.223C345.716 666.946 343.587 667.135 341.533 666.767C339.479 666.398 337.592 665.487 336.112 664.15C334.631 662.813 333.622 661.109 333.214 659.255C332.805 657.4 333.015 655.478 333.816 653.731C334.618 651.984 335.975 650.491 337.716 649.44C339.457 648.39 341.505 647.829 343.599 647.829C346.407 647.829 349.1 648.837 351.086 650.629C353.072 652.422 354.187 654.854 354.187 657.39Z" fill="#263238"/>
<path d="M457.789 666.95C463.637 666.95 468.377 662.67 468.377 657.39C468.377 652.11 463.637 647.829 457.789 647.829C451.941 647.829 447.201 652.11 447.201 657.39C447.201 662.67 451.941 666.95 457.789 666.95Z" fill="#263238"/>
<path d="M389.9 537.262H411.673V583.839C411.673 585.666 410.869 587.417 409.439 588.709C408.008 590.001 406.068 590.726 404.045 590.726H397.548C395.525 590.726 393.585 590.001 392.155 588.709C390.724 587.417 389.92 585.666 389.92 583.839V537.262H389.9Z" fill="#263238"/>
<path opacity="0.2" d="M389.9 537.262H411.673V583.839C411.673 585.666 410.869 587.417 409.439 588.709C408.008 590.001 406.068 590.726 404.045 590.726H397.548C395.525 590.726 393.585 590.001 392.155 588.709C390.724 587.417 389.92 585.666 389.92 583.839V537.262H389.9Z" fill="white"/>
<path d="M338.767 542.553H459.907C461.962 542.553 463.628 541.048 463.628 539.192V538.431C463.628 536.576 461.962 535.071 459.907 535.071H338.767C336.712 535.071 335.046 536.576 335.046 538.431V539.192C335.046 541.048 336.712 542.553 338.767 542.553Z" fill="#263238"/>
<path opacity="0.2" d="M354.187 657.39C354.187 659.281 353.566 661.129 352.403 662.701C351.239 664.274 349.586 665.499 347.651 666.223C345.716 666.946 343.587 667.135 341.533 666.767C339.479 666.398 337.592 665.487 336.112 664.15C334.631 662.813 333.622 661.109 333.214 659.255C332.805 657.4 333.015 655.478 333.816 653.731C334.618 651.984 335.975 650.491 337.716 649.44C339.457 648.39 341.505 647.829 343.599 647.829C346.407 647.829 349.1 648.837 351.086 650.629C353.072 652.422 354.187 654.854 354.187 657.39Z" fill="white"/>
<path opacity="0.2" d="M457.789 666.95C463.637 666.95 468.377 662.67 468.377 657.39C468.377 652.11 463.637 647.829 457.789 647.829C451.941 647.829 447.201 652.11 447.201 657.39C447.201 662.67 451.941 666.95 457.789 666.95Z" fill="white"/>
<path d="M469.241 448.99H432.336C421.521 448.99 413.708 440.209 414.901 429.405L416.463 414.962C417.656 404.139 427.36 395.358 438.175 395.358H475.08C485.895 395.358 493.707 404.139 492.535 414.962L490.952 429.405C489.78 440.209 480.055 448.99 469.241 448.99Z" fill="#263238"/>
<path opacity="0.2" d="M469.241 448.99H432.336C421.521 448.99 413.708 440.209 414.901 429.405L416.463 414.962C417.656 404.139 427.36 395.358 438.175 395.358H475.08C485.895 395.358 493.707 404.139 492.535 414.962L490.952 429.405C489.78 440.209 480.055 448.99 469.241 448.99Z" fill="white"/>
<path d="M465.848 441.954H444.096C437.702 441.954 433.076 436.775 433.816 430.37L434.762 421.849C435.44 415.445 441.197 410.265 447.591 410.265H469.385C475.779 410.265 480.405 415.445 479.665 421.849L478.719 430.37C477.979 436.775 472.243 441.954 465.848 441.954Z" fill="#263238"/>
<path d="M448.537 429.219C448.537 429.219 443.561 519.533 422.015 535.034H445.062C445.062 535.034 465.622 504.274 467.123 429.219H448.537Z" fill="#263238"/>
<path d="M467.082 391.59L471.05 389.733C471.795 389.39 472.619 389.21 473.456 389.21C474.292 389.21 475.117 389.39 475.861 389.733L482.975 392.889C484.376 393.511 485.59 394.427 486.517 395.561C487.444 396.695 488.055 398.014 488.3 399.405L488.629 401.169C482.276 404.77 472.489 404.436 472.489 404.436L469.673 404.64C469.098 404.694 468.518 404.644 467.965 404.494C467.412 404.343 466.897 404.095 466.452 403.763C466.006 403.431 465.638 403.023 465.368 402.562C465.099 402.1 464.934 401.595 464.882 401.076L464.389 396.064C464.295 395.161 464.501 394.253 464.981 393.456C465.46 392.66 466.192 392.01 467.082 391.59Z" fill="#B97964"/>
<path opacity="0.2" d="M467.082 391.59L471.05 389.733C471.795 389.39 472.619 389.21 473.456 389.21C474.292 389.21 475.117 389.39 475.861 389.733L482.975 392.889C484.376 393.511 485.59 394.427 486.517 395.561C487.444 396.695 488.055 398.014 488.3 399.405L488.629 401.169C482.276 404.77 472.489 404.436 472.489 404.436L469.673 404.64C469.098 404.694 468.518 404.644 467.965 404.494C467.412 404.343 466.897 404.095 466.452 403.763C466.006 403.431 465.638 403.023 465.368 402.562C465.099 402.1 464.934 401.595 464.882 401.076L464.389 396.064C464.295 395.161 464.501 394.253 464.981 393.456C465.46 392.66 466.192 392.01 467.082 391.59Z" fill="black"/>
<path d="M437.928 396.008L423.536 412.437H409.843L411.632 389.511C421.994 391.311 437.928 396.008 437.928 396.008Z" fill="#407BFF"/>
<path opacity="0.2" d="M422.323 412.437H410.48L417.841 396.008C417.841 396.008 422.056 401.781 422.323 412.437Z" fill="black"/>
<path d="M400.591 472.492L340.33 467.443C342.221 461.651 343.887 455.97 345.285 450.494C347.053 443.792 348.451 437.369 349.561 431.373C350.671 425.376 351.617 419.807 352.275 414.758L352.46 413.328C352.46 412.53 352.666 411.75 352.748 411.008C353.344 406.125 353.714 401.874 353.961 398.366C354.475 391.516 354.475 387.561 354.475 387.561C375.122 383.992 396.429 385.134 416.463 390.884C425.428 413.681 400.591 472.492 400.591 472.492Z" fill="#407BFF"/>
<path d="M400.385 394.523C399.47 396.235 398.071 397.699 396.328 398.767C394.586 399.835 392.562 400.469 390.462 400.604C388.362 400.74 386.259 400.372 384.366 399.539C382.473 398.706 380.857 397.437 379.682 395.86L377.07 392.351L373.863 387.988C379.25 385.111 381.367 375.903 382.087 367.995C382.313 365.507 382.395 363.168 382.395 361.182L395.924 377.89C394.978 379.659 394.287 381.531 393.868 383.459C393.697 384.253 393.628 385.063 393.662 385.872C393.683 389.121 395.472 392.128 400.385 394.523Z" fill="#B97964"/>
<path opacity="0.2" d="M395.883 377.982C394.936 379.752 394.245 381.623 393.827 383.552C390.27 387.673 384.739 392.035 377.112 392.314L373.863 387.988C379.25 385.111 381.367 375.903 382.087 367.995C382.313 365.507 382.395 363.168 382.395 361.182L395.883 377.982Z" fill="black"/>
<path d="M363.377 350.081C363.377 350.081 356.695 347.816 358.669 343.639C360.643 339.462 363.028 339.499 363.028 339.499C362.018 337.791 361.469 335.892 361.426 333.957C361.384 332.021 361.848 330.104 362.781 328.361C366.091 322.792 373.411 325.056 373.411 325.056C373.44 323.307 374.127 321.619 375.361 320.269C376.594 318.919 378.299 317.989 380.196 317.631C382.131 317.342 384.119 317.631 385.856 318.455C387.593 319.28 388.984 320.594 389.818 322.198C389.818 322.198 394.423 316.795 401.167 318.281C407.91 319.766 409.267 328.249 409.267 328.249C411.109 327.707 413.112 327.827 414.858 328.584C416.604 329.342 417.96 330.678 418.643 332.315C419.56 334.024 419.943 335.926 419.751 337.817C419.559 339.708 418.799 341.515 417.553 343.045C417.553 343.045 421.85 341.189 423.269 347.445C424.687 353.701 417.45 359.196 417.45 359.196C417.45 359.196 421.357 359.623 419.342 364.245C417.327 368.868 410.974 368.942 410.974 368.942C410.974 368.942 413.441 370.074 408.774 373.88C404.107 377.685 389.077 372.246 389.077 372.246L363.377 350.081Z" fill="#263238"/>
<path d="M381.758 340.167C367.366 340.836 363.254 348.001 362.905 361.423C362.555 378.131 367.346 389.845 385.089 385.427C409.144 379.43 405.608 339.035 381.758 340.167Z" fill="#B97964"/>
<path d="M372.136 360.254C371.1 362.243 369.802 364.113 368.271 365.823C368.724 366.34 369.327 366.735 370.012 366.964C370.697 367.193 371.439 367.248 372.157 367.122L372.136 360.254Z" fill="#A24E3F"/>
<path d="M380.874 358.769C380.874 359.845 381.573 360.625 382.354 360.625C383.136 360.625 383.752 359.734 383.732 358.657C383.711 357.58 383.033 356.801 382.231 356.801C381.429 356.801 380.833 357.71 380.874 358.769Z" fill="#263238"/>
<path d="M382.56 356.857L379.969 356.003C379.969 356.003 381.306 357.933 382.56 356.857Z" fill="#263238"/>
<path d="M366.174 358.936C366.174 360.012 366.873 360.792 367.674 360.792C368.476 360.792 369.073 359.901 369.031 358.824C368.99 357.748 368.332 356.968 367.551 356.968C366.77 356.968 366.153 357.878 366.174 358.936Z" fill="#263238"/>
<path d="M367.88 357.005L365.269 356.17C365.269 356.17 366.626 358.082 367.88 357.005Z" fill="#263238"/>
<path d="M386.836 352.03C386.751 352.031 386.665 352.015 386.587 351.983C386.509 351.951 386.439 351.904 386.384 351.844C385.608 351.219 384.685 350.76 383.684 350.503C382.684 350.246 381.631 350.197 380.607 350.359C380.527 350.372 380.445 350.372 380.366 350.357C380.287 350.341 380.212 350.312 380.145 350.271C380.078 350.23 380.021 350.177 379.977 350.115C379.932 350.054 379.902 349.985 379.887 349.914C379.863 349.771 379.901 349.626 379.993 349.508C380.085 349.39 380.224 349.31 380.381 349.282C381.613 349.079 382.88 349.141 384.081 349.464C385.281 349.786 386.38 350.36 387.289 351.139C387.402 351.243 387.465 351.383 387.465 351.529C387.465 351.674 387.402 351.814 387.289 351.918C387.159 352.006 386.997 352.046 386.836 352.03Z" fill="#263238"/>
<path d="M364.364 351.64C364.271 351.64 364.178 351.621 364.093 351.586C364.008 351.551 363.932 351.5 363.871 351.436C363.773 351.318 363.731 351.169 363.754 351.023C363.777 350.877 363.863 350.745 363.994 350.656C364.838 350.016 365.831 349.555 366.898 349.308C367.966 349.061 369.081 349.033 370.162 349.227C370.241 349.248 370.314 349.283 370.378 349.33C370.442 349.377 370.494 349.435 370.532 349.501C370.571 349.567 370.594 349.639 370.601 349.713C370.608 349.787 370.599 349.861 370.573 349.932C370.522 350.068 370.414 350.181 370.272 350.247C370.13 350.313 369.965 350.326 369.813 350.285C368.909 350.138 367.981 350.175 367.095 350.393C366.209 350.612 365.389 351.006 364.693 351.547C364.595 351.605 364.481 351.637 364.364 351.64Z" fill="#263238"/>
<path d="M398.72 361.275C398.72 361.275 391.38 350.935 391.935 342.711C391.935 342.711 362.863 333.559 362.966 359.697C362.966 359.697 358.854 336.677 383.526 334.988C408.198 333.299 409.966 365.916 397.774 376.237C397.754 376.2 403.264 367.735 398.72 361.275Z" fill="#263238"/>
<path d="M396.541 364.134C396.559 363.384 396.742 362.644 397.078 361.958C397.414 361.272 397.896 360.652 398.498 360.135C399.1 359.617 399.809 359.212 400.584 358.943C401.36 358.673 402.186 358.545 403.017 358.564C407.499 358.806 410.09 366.955 399.131 369.462C397.569 369.851 396.582 368.496 396.541 364.134Z" fill="#B97964"/>
<path d="M375.611 374.678C375.2 374.705 374.788 374.705 374.377 374.678C374.297 374.665 374.222 374.637 374.154 374.597C374.086 374.557 374.027 374.506 373.981 374.445C373.936 374.385 373.903 374.317 373.887 374.246C373.87 374.174 373.869 374.1 373.884 374.028C373.896 373.957 373.924 373.889 373.966 373.828C374.008 373.767 374.064 373.714 374.129 373.672C374.194 373.631 374.268 373.601 374.346 373.586C374.424 373.571 374.504 373.569 374.583 373.583C376.131 373.829 377.727 373.596 379.111 372.922C380.495 372.249 381.587 371.173 382.21 369.87C382.24 369.802 382.285 369.739 382.341 369.687C382.397 369.634 382.465 369.592 382.539 369.562C382.614 369.533 382.694 369.517 382.775 369.516C382.856 369.514 382.937 369.528 383.012 369.554C383.088 369.581 383.157 369.621 383.215 369.672C383.274 369.723 383.321 369.784 383.353 369.851C383.386 369.918 383.403 369.991 383.405 370.064C383.406 370.137 383.392 370.21 383.362 370.278C382.731 371.645 381.648 372.801 380.26 373.589C378.872 374.377 377.248 374.757 375.611 374.678Z" fill="#263238"/>
<path d="M404.004 356.541C400.571 340.446 374.213 326.931 364.323 345.644C365.981 340.954 369.188 336.834 373.514 333.837C373.514 333.837 400.242 326.95 404.95 354.443L404.004 356.541Z" fill="#407BFF"/>
<path d="M389.962 666.449C379.682 666.449 378.304 666.3 372.506 666.115C367.551 665.966 366.338 666.523 362.391 666.449C359.06 666.449 359.183 663.497 360.211 660.193C360.725 658.522 361.506 655.014 362.267 652.34L377.358 651.338C379.414 655.051 384.266 660.23 390.064 660.935C395.862 661.641 394.053 666.449 389.962 666.449Z" fill="#263238"/>
<path d="M341.296 466.292C341.296 466.292 320.736 493.896 331.88 516.581C343.023 539.267 399.378 529.019 399.378 529.019L362.247 652.396L380.011 655.051C380.011 655.051 442.986 532.769 444.59 511.922C446.193 491.075 378.201 477.69 378.201 477.69L341.296 466.292Z" fill="#407BFF"/>
<path opacity="0.3" d="M341.296 466.292C341.296 466.292 320.736 493.896 331.88 516.581C343.023 539.267 399.378 529.019 399.378 529.019L362.247 652.396L380.011 655.051C380.011 655.051 442.986 532.769 444.59 511.922C446.193 491.075 378.201 477.69 378.201 477.69L341.296 466.292Z" fill="white"/>
<path opacity="0.2" d="M404.004 402.84C404.004 402.84 375.22 421.144 352.46 413.273C352.46 412.474 352.666 411.695 352.748 410.952C353.344 406.07 353.714 401.819 353.961 398.31C361.337 395.267 368.994 392.813 376.844 390.977C384.925 396.535 394.162 400.57 404.004 402.84Z" fill="black"/>
<path d="M363.912 387.599C376.577 393.168 389.653 400.092 403.449 402.635C411.385 402.171 420.267 399.257 428.244 397.289L452.156 390.754C453.18 390.463 454.287 390.527 455.262 390.934C456.237 391.34 457.009 392.06 457.428 392.953C457.846 393.846 457.882 394.848 457.526 395.763C457.171 396.678 456.451 397.44 455.507 397.902C448.044 401.614 440.519 405.03 432.726 408.149C423.104 411.713 414.222 415.872 403.367 416.763C399.471 416.722 395.598 416.21 391.853 415.24C379.214 411.893 367.044 407.239 355.585 401.373C353.762 400.296 352.453 398.64 351.917 396.733C351.381 394.827 351.658 392.807 352.691 391.076C353.725 389.344 355.441 388.026 357.5 387.382C359.559 386.738 361.811 386.815 363.809 387.599H363.912Z" fill="#B97864"/>
<path d="M357.107 385.538C346.025 387.914 345.655 405.086 355.832 413.143L380.504 394.337C380.504 394.337 370.244 382.716 357.107 385.538Z" fill="#407BFF"/>
<path d="M452.793 390.847L466.465 390.55L460.297 403.044C460.297 403.044 447.961 402.654 448.558 396.973L452.793 390.847Z" fill="#B97964"/>
<path d="M478.205 396.658L468.83 405.773L460.256 403.044L466.465 390.55L478.205 396.658Z" fill="#B97964"/>
<path d="M661.785 541.16C671.346 559.019 680.557 576.877 686.786 595.998C689.644 608.993 690.179 622.211 691.248 635.113C691.988 645.787 692.42 656.443 692.584 667.154L681.996 668.157C678.644 653.101 675.499 636.301 672.579 621.116C671.181 614.247 670.112 607.49 668.2 600.881C660.922 583.858 650.827 566.333 642.459 549.588L661.785 541.16Z" fill="#DC897C"/>
<path d="M677.575 564.532L660.819 571.772L650.416 576.321L644.104 562.62L637.504 548.27L643.076 522.114C660.182 528.871 677.575 564.532 677.575 564.532Z" fill="#407BFF"/>
<path opacity="0.2" d="M660.819 571.772L650.416 576.321L644.104 562.62C645.399 554.861 646.489 548.27 646.489 548.27C646.489 548.27 658.66 558.128 660.819 571.772Z" fill="black"/>
<path d="M610.632 474.682C610.817 475.796 611.619 476.539 612.421 476.539C613.223 476.539 613.716 475.444 613.531 474.33C613.346 473.216 612.524 472.473 611.722 472.473C610.92 472.473 610.324 473.587 610.632 474.682Z" fill="#263238"/>
<path d="M611.393 476.613C613.431 479.791 615.942 482.702 618.856 485.264C618.117 485.928 617.226 486.438 616.246 486.759C615.266 487.079 614.22 487.203 613.181 487.12L611.393 476.613Z" fill="#DE5753"/>
<path d="M604.978 469.169C604.794 469.163 604.619 469.097 604.485 468.983C604.351 468.859 604.277 468.692 604.277 468.519C604.277 468.346 604.351 468.18 604.485 468.055C605.289 467.31 606.282 466.752 607.377 466.428C608.473 466.105 609.639 466.026 610.776 466.199C610.87 466.216 610.958 466.251 611.037 466.299C611.116 466.348 611.183 466.411 611.235 466.483C611.286 466.556 611.321 466.637 611.338 466.722C611.355 466.807 611.352 466.894 611.331 466.978C611.312 467.063 611.274 467.143 611.219 467.214C611.165 467.285 611.096 467.346 611.016 467.392C610.935 467.439 610.845 467.471 610.751 467.486C610.657 467.501 610.561 467.499 610.468 467.48C609.564 467.363 608.642 467.444 607.78 467.716C606.918 467.987 606.141 468.441 605.513 469.039C605.437 469.091 605.351 469.13 605.26 469.152C605.168 469.175 605.072 469.18 604.978 469.169Z" fill="#263238"/>
<path d="M614.456 491.464C614.062 495.946 611.946 500.162 608.473 503.382C606.179 505.51 603.361 507.119 600.249 508.079C597.271 509.013 594.082 509.262 590.97 508.805C587.858 508.348 584.921 507.199 582.424 505.462C573.624 499.558 572.473 491.52 569.224 478.061C568.424 474.941 568.522 471.688 569.506 468.611C570.491 465.534 572.33 462.736 574.849 460.481C577.369 458.227 580.484 456.592 583.901 455.731C587.317 454.87 590.921 454.811 594.369 455.562C610.077 458.922 615.587 478.804 614.456 491.464Z" fill="#E4897B"/>
<path d="M574.878 500.022C581.046 503.531 604.361 493.673 600.516 477.096C600.516 477.096 609.707 468.018 609.254 457.566C608.802 447.115 601.03 442.715 592.56 444.683C585.035 446.335 585.055 450.029 585.055 450.029C585.055 450.029 549.774 452.276 556.6 465.475C541.592 478.952 567.292 495.66 574.878 500.022Z" fill="#263238"/>
<path d="M594.184 479.676C595.017 483.019 597.048 486.02 599.961 488.216C603.806 491.074 606.931 488.55 606.87 484.503C606.87 480.79 604.813 474.905 600.352 473.624C595.89 472.343 593.32 475.648 594.184 479.676Z" fill="#E4897B"/>
<path opacity="0.2" d="M613.387 496.142C612.361 498.854 610.683 501.326 608.473 503.382C606.179 505.51 603.361 507.119 600.249 508.079C598.158 507.124 596.151 506.025 594.246 504.793L597.371 497.869C597.371 497.869 606.952 502.102 613.387 496.142Z" fill="black"/>
<path d="M579.895 517.008L577.263 500.728C577.263 500.728 589.003 493.302 601.298 498.296L619.802 518.438L579.895 517.008Z" fill="#E4897B"/>
<path d="M621.94 516.433L617.643 510.622C617.643 510.622 586.474 500.208 572.884 513.556C572.884 513.556 603.292 528.073 621.94 516.433Z" fill="#407BFF"/>
<path opacity="0.2" d="M621.94 516.433L617.643 510.622C617.643 510.622 586.474 500.208 572.884 513.556C572.884 513.556 603.292 528.073 621.94 516.433Z" fill="black"/>
<path d="M502.26 674.283L490.52 667.451L495.023 661.381L507.256 644.896L519.017 651.728L505.488 669.939L502.26 674.283Z" fill="#E4897B"/>
<path d="M491.384 666.579L507.832 666.43C508.099 666.436 508.357 666.521 508.565 666.672C508.773 666.823 508.92 667.032 508.983 667.266L511.738 678.052C511.839 678.516 511.74 678.997 511.461 679.397C511.182 679.797 510.744 680.086 510.237 680.205H509.806C504.501 680.205 500.657 679.908 494.016 679.964C489.904 679.964 477.568 680.502 471.934 680.539C466.301 680.576 465.478 675.564 467.822 675.081C478.102 672.946 485.956 670.05 489.246 667.322C489.834 666.846 490.595 666.582 491.384 666.579Z" fill="#263238"/>
<path d="M494.55 657.278L516.056 662.513L632.796 582.54L572.904 570.696C568.627 569.87 564.172 570.239 560.132 571.754C556.092 573.27 552.659 575.86 550.288 579.179L494.55 657.278Z" fill="#263238"/>
<path opacity="0.2" d="M494.55 657.278L516.056 662.513L632.796 582.54L572.904 570.696C568.627 569.87 564.172 570.239 560.132 571.754C556.092 573.27 552.659 575.86 550.288 579.179L494.55 657.278Z" fill="black"/>
<path d="M430.732 674.673L418.602 668.417L422.755 662.142L434.001 645.1L446.131 651.356L433.693 670.18L430.732 674.673Z" fill="#E4897B"/>
<path d="M419.074 666.319H435.522C435.79 666.321 436.05 666.405 436.259 666.556C436.468 666.708 436.614 666.919 436.674 667.154L439.326 677.977C439.419 678.444 439.312 678.924 439.025 679.321C438.738 679.718 438.294 680.001 437.784 680.112H437.352C432.068 680.112 428.203 679.741 421.562 679.741C417.45 679.741 405.114 680.131 399.481 680.131C393.847 680.131 393.087 675.081 395.369 674.561C405.649 672.519 413.564 669.698 416.895 667.006C417.507 666.548 418.28 666.304 419.074 666.319Z" fill="#263238"/>
<path d="M660.963 624.531L579.34 624.717C577.284 618.182 574.693 595.442 566.716 567.317C564.557 559.687 561.987 551.668 558.965 543.444C556.454 536.006 553.405 528.726 549.836 521.649C557.221 517.619 565.337 514.797 573.809 513.314C609.933 507.745 643.076 522.114 643.076 522.114C643.076 522.114 657.406 558.128 660.963 624.531Z" fill="#407BFF"/>
<path opacity="0.2" d="M566.716 567.317C564.557 559.687 561.987 551.667 558.965 543.444L564.66 541.364C564.66 541.364 573.624 559.613 566.716 567.317Z" fill="black"/>
<path d="M531.003 579.941L540.481 583.987L544.1 569.582C544.1 569.582 536.534 567.187 530.859 570.677L531.003 579.941Z" fill="#E4897B"/>
<path d="M554.071 588.87L554.503 575.745L544.1 569.582L540.481 583.988L554.071 588.87Z" fill="#E4897B"/>
<path d="M560.548 544.205C544.778 551.909 526.768 559.056 513.054 569.136C512.746 569.378 512.849 569.489 513.198 568.412C513.264 567.727 513.165 567.037 512.91 566.389C512.683 565.683 512.179 565.076 511.492 564.681C511.224 564.588 511.389 564.811 511.759 565.034C512.273 565.323 512.817 565.565 513.383 565.758C519.716 567.93 528.495 568.654 535.588 569.47L536.657 579.031C534.416 579.606 532.319 579.996 530.119 580.367C521.895 581.648 513.363 582.558 504.707 579.978C500.987 578.968 497.848 576.69 495.956 573.627C494.064 570.563 493.567 566.955 494.571 563.567C498.806 549.997 537.13 533.066 551.193 526.773L560.548 544.223V544.205Z" fill="#DC897C"/>
<path d="M575.495 609.03L571.835 617.496C571.835 617.496 528.104 568.709 503.987 565.925C479.87 563.14 423.803 655.849 423.803 655.849L445.062 661.66L504.892 612.65C529.564 651.523 559.068 680.038 594.143 680.038H628.396C666.699 680.038 667.131 641.462 659.565 608.752L575.495 609.03Z" fill="#263238"/>
<path d="M549.836 521.649C536.123 526.179 520.004 539.916 520.004 539.916C520.004 539.916 533.573 561.154 534.93 560.337C536.287 559.52 564.125 552.317 564.125 552.317C564.125 552.317 569.8 545.671 565.441 534.422C564.307 531.245 562.269 528.393 559.53 526.151C556.792 523.91 553.448 522.357 549.836 521.649Z" fill="#407BFF"/>
<path d="M687.547 660.75L702.453 661.418L694.578 674.561C694.578 674.561 681.317 673.243 682.366 667.136L687.547 660.75Z" fill="#E4897B"/>
<path d="M714.666 668.918L703.666 678.144L694.578 674.561L702.453 661.418L714.666 668.918Z" fill="#E4897B"/>
<path d="M225.584 527.627C235.576 536.723 245.425 546.915 257.391 553.802C257.391 553.802 258.131 554.155 258.192 554.211C257.87 554.103 257.528 554.052 257.185 554.062C256.877 554.062 257.37 554.062 257.905 554.062C271.556 550.572 284.242 542.534 296.804 536.352C297.777 535.823 298.93 535.636 300.046 535.825C301.162 536.015 302.161 536.568 302.854 537.379C303.548 538.191 303.886 539.204 303.805 540.227C303.725 541.249 303.231 542.209 302.417 542.924C292.63 551.111 266.252 572.998 252.395 568.412C243.924 565.609 236.851 560.337 230.19 555.269C223.683 550.176 217.55 544.707 211.83 538.895C203.996 530.486 217.072 519.775 225.584 527.646V527.627Z" fill="#E9B376"/>
<path d="M242.772 540.473C241.025 552.28 230.436 563.864 230.436 563.864L228.216 562.49L217.401 556.012C217.401 556.012 217.196 555.455 216.887 554.471C216.579 553.487 216.188 552.336 215.716 550.758C213.228 542.887 208.746 528.166 208.191 522.058C221.616 521.779 227.661 527.553 242.772 540.473Z" fill="#407BFF"/>
<path opacity="0.7" d="M242.772 540.473C241.025 552.28 230.436 563.864 230.436 563.864L228.216 562.49L217.401 556.012C217.401 556.012 217.196 555.455 216.887 554.471C216.579 553.487 216.188 552.336 215.716 550.758C213.228 542.887 208.746 528.166 208.191 522.058C221.616 521.779 227.661 527.553 242.772 540.473Z" fill="white"/>
<path opacity="0.2" d="M228.216 562.49L217.401 556.012C217.401 556.012 217.196 555.455 216.887 554.471C217.289 551.482 217.893 548.519 218.697 545.597C221.546 547.621 223.873 550.18 225.517 553.097C227.161 556.014 228.082 559.22 228.216 562.49Z" fill="black"/>
<path d="M215.058 598.69L224.289 613.282C248.961 608.084 328.281 597.168 338.006 621.728C350.116 652.229 262.675 676.566 214.297 678.051C165.919 679.537 123.71 669.141 154.303 605.448L215.058 598.69Z" fill="#263238"/>
<path opacity="0.2" d="M215.058 598.69L224.289 613.282C248.961 608.084 328.281 597.168 338.006 621.728C350.116 652.229 262.675 676.566 214.297 678.051C165.919 679.537 123.71 669.141 154.303 605.448L215.058 598.69Z" fill="black"/>
<path d="M324.005 664.853C323.95 664.884 323.885 664.9 323.82 664.9C323.755 664.9 323.69 664.884 323.635 664.853C323.606 664.811 323.59 664.763 323.59 664.713C323.59 664.664 323.606 664.616 323.635 664.574C323.799 664.091 325.403 659.896 327.027 659.45C327.198 659.413 327.376 659.415 327.545 659.457C327.714 659.5 327.869 659.58 327.994 659.692C328.217 659.862 328.387 660.081 328.488 660.328C328.589 660.576 328.617 660.842 328.569 661.103C328.304 661.892 327.772 662.586 327.048 663.089C326.104 663.77 325.084 664.361 324.005 664.853ZM324.416 664.054C325.927 663.461 327.148 662.392 327.85 661.047C327.896 660.872 327.883 660.688 327.813 660.52C327.744 660.351 327.621 660.205 327.459 660.1C327.413 660.049 327.352 660.011 327.282 659.991C327.213 659.971 327.138 659.97 327.068 659.989C326.931 660.034 326.806 660.104 326.698 660.193C325.684 661.344 324.911 662.653 324.416 664.054Z" fill="#263238"/>
<path d="M323.902 664.908C323.862 664.938 323.811 664.955 323.758 664.955C323.706 664.955 323.655 664.938 323.614 664.908C323.45 664.797 321.229 662.254 321.558 660.527C321.598 660.313 321.686 660.108 321.817 659.926C321.947 659.744 322.119 659.589 322.319 659.469C322.493 659.327 322.713 659.24 322.946 659.22C323.18 659.199 323.414 659.248 323.614 659.358C324.786 660.119 324.642 663.516 324.067 664.815V664.945L323.902 664.908ZM322.648 659.933C322.443 660.082 322.304 660.293 322.257 660.527C322.319 661.813 322.846 663.046 323.758 664.036C324.108 662.588 324.005 660.193 323.306 659.766C323.306 659.766 323.1 659.617 322.751 659.766V659.859L322.648 659.933Z" fill="#263238"/>
<path d="M238.948 672.018C238.98 671.972 239.026 671.934 239.081 671.911C239.136 671.888 239.197 671.88 239.257 671.888C239.312 671.892 239.364 671.912 239.405 671.946C239.447 671.979 239.474 672.024 239.483 672.074C239.606 672.575 240.449 676.956 239.277 678.051C239.145 678.158 238.985 678.231 238.811 678.264C238.638 678.296 238.458 678.287 238.29 678.237C238.001 678.194 237.73 678.079 237.509 677.906C237.287 677.732 237.124 677.506 237.036 677.253C236.833 676.456 236.927 675.621 237.304 674.877C237.74 673.875 238.291 672.917 238.948 672.018ZM238.948 672.909C237.947 674.087 237.444 675.548 237.53 677.03C237.586 677.209 237.701 677.368 237.858 677.487C238.016 677.606 238.209 677.68 238.414 677.699C238.471 677.734 238.54 677.753 238.609 677.753C238.679 677.753 238.747 677.734 238.804 677.699C238.897 677.601 238.967 677.487 239.01 677.365C239.318 675.892 239.318 674.381 239.01 672.909H238.948Z" fill="#263238"/>
<path d="M270.611 649.908L250.709 656.313L241.148 659.395L243.595 668.844L252.847 667.062L275.463 662.699L270.611 649.908Z" fill="#EBB376"/>
<path d="M246.206 669.289L244.52 658.151C244.498 658.004 244.443 657.862 244.359 657.735C244.275 657.607 244.164 657.496 244.031 657.408C243.899 657.32 243.749 657.256 243.589 657.221C243.43 657.186 243.264 657.18 243.101 657.204L236.933 658.132C236.933 658.132 228.709 658.819 227.003 660.75C222.192 666.319 225.194 691.083 228.401 691.956C229.573 692.272 230.807 690.824 231.321 689.821C232.945 686.628 235.803 678.293 237.201 675.657C238.804 672.557 243.369 671.053 245.26 670.515C245.558 670.452 245.82 670.293 245.994 670.066C246.169 669.84 246.244 669.563 246.206 669.289Z" fill="#407BFF"/>
<path d="M238.989 672.018C239.035 671.989 239.088 671.974 239.144 671.974C239.199 671.974 239.253 671.989 239.298 672.018C239.483 672.018 242.814 673.318 243.41 674.97C243.482 675.177 243.509 675.396 243.488 675.612C243.466 675.829 243.398 676.039 243.287 676.232C243.221 676.438 243.079 676.617 242.884 676.738C242.689 676.86 242.454 676.917 242.217 676.901C240.799 676.752 239.092 673.708 238.907 672.334V672.018C238.934 672.013 238.962 672.013 238.989 672.018ZM242.773 675.824C242.854 675.594 242.854 675.348 242.773 675.118C242.382 674.06 240.531 673.132 239.586 672.705C240.038 674.134 241.416 676.177 242.259 676.251C242.259 676.251 242.505 676.251 242.69 675.935V675.824H242.773Z" fill="#263238"/>
<path opacity="0.2" d="M270.611 649.908L250.709 656.313L252.847 667.062L275.463 662.699L270.611 649.908Z" fill="black"/>
<path d="M256.383 668.677L262.099 669.048L258.275 651.264L251.778 654.494L256.383 668.677Z" fill="#407BFF"/>
<path opacity="0.6" d="M256.383 668.677L262.099 669.048L258.275 651.264L251.778 654.494L256.383 668.677Z" fill="white"/>
<path opacity="0.2" d="M173.341 599.618L203.153 629.469C203.153 629.469 236.049 628.801 276.141 646.474C276.141 646.474 319.091 630.453 323.039 617.143C328.22 599.711 224.351 613.337 224.351 613.337L173.341 599.618Z" fill="black"/>
<path d="M214.749 611.555L153.953 605.188C155.118 599.519 155.805 593.778 156.009 588.016C156.253 579.804 155.896 571.588 154.94 563.419C154.097 555.603 152.884 546.618 150.828 536.074C150.417 534.188 150.478 532.243 151.007 530.382C151.536 528.52 152.52 526.789 153.886 525.315C155.252 523.842 156.966 522.662 158.902 521.864C160.838 521.066 162.948 520.669 165.076 520.703C167.523 520.703 170.093 520.814 172.724 520.963C182.034 521.339 191.303 522.313 200.46 523.877C203.421 524.416 206.484 525.084 209.424 525.734C219.971 528.203 226.509 540.195 225.605 549.867C225.249 557.383 224.329 564.87 222.85 572.274C220.979 583.189 218.779 593.845 214.749 611.555Z" fill="#407BFF"/>
<path opacity="0.7" d="M214.749 611.555L153.953 605.188C155.118 599.519 155.805 593.778 156.009 588.016C156.253 579.804 155.896 571.588 154.94 563.419C154.097 555.603 152.884 546.618 150.828 536.074C150.417 534.188 150.478 532.243 151.007 530.382C151.536 528.52 152.52 526.789 153.886 525.315C155.252 523.842 156.966 522.662 158.902 521.864C160.838 521.066 162.948 520.669 165.076 520.703C167.523 520.703 170.093 520.814 172.724 520.963C182.034 521.339 191.303 522.313 200.46 523.877C203.421 524.416 206.484 525.084 209.424 525.734C219.971 528.203 226.509 540.195 225.605 549.867C225.249 557.383 224.329 564.87 222.85 572.274C220.979 583.189 218.779 593.845 214.749 611.555Z" fill="white"/>
<path opacity="0.2" d="M156.05 588.035C156.294 579.823 155.937 571.606 154.981 563.437C162.588 555.325 169.784 548.586 169.784 548.586C169.784 548.586 181.709 576.302 156.05 588.035Z" fill="black"/>
<path d="M165.652 545.579C166.351 557.33 166.228 575.615 168.592 586.846L167.975 585.473C167.564 584.934 167.811 585.473 168.242 585.77C168.799 586.267 169.389 586.732 170.011 587.162C178.235 592.731 188.103 597.019 197.376 601.456L209.075 606.896C210.089 607.355 210.881 608.135 211.3 609.087C211.719 610.039 211.736 611.096 211.347 612.059C210.959 613.021 210.192 613.822 209.193 614.307C208.194 614.793 207.033 614.93 205.929 614.692C201.467 613.727 197.191 612.576 192.853 611.388C180.517 607.675 167.852 604.111 157.243 596.852C155.171 595.4 153.561 593.479 152.576 591.283C147.826 576.061 147.456 561.358 147.107 545.838C147.539 535.016 164.891 534.811 165.611 545.634L165.652 545.579Z" fill="#E9B376"/>
<path d="M225.481 606.227L221.781 603.795C221.095 603.347 220.3 603.054 219.463 602.941C218.626 602.828 217.771 602.898 216.97 603.146L209.362 605.448C207.863 605.906 206.506 606.68 205.405 607.707C204.304 608.734 203.489 609.983 203.03 611.351L202.454 613.077C208.293 617.458 218.183 618.331 218.183 618.331L220.958 618.851C221.527 618.975 222.117 618.995 222.694 618.912C223.272 618.828 223.825 618.642 224.322 618.364C224.819 618.086 225.251 617.722 225.591 617.292C225.931 616.863 226.173 616.377 226.304 615.862L227.537 610.887C227.736 610.014 227.647 609.107 227.281 608.279C226.916 607.451 226.29 606.738 225.481 606.227Z" fill="#EBB376"/>
<path d="M160.101 521.464C148.217 525.307 144.804 534.663 144.557 554.174C150.725 559.242 169.456 559.52 169.456 559.52C169.456 559.52 172.704 529.929 160.101 521.464Z" fill="#407BFF"/>
<path d="M304.062 616.976V621.394C304.062 622.526 302.582 622.991 301.327 622.991H203.544C202.269 622.991 200.768 622.526 200.768 621.394V616.976H304.062Z" fill="#263238"/>
<path opacity="0.4" d="M304.062 616.976V621.394C304.062 622.526 302.582 622.991 301.327 622.991H203.544C202.269 622.991 200.768 622.526 200.768 621.394V616.976H304.062Z" fill="white"/>
<path opacity="0.2" d="M304.062 616.976V621.394C304.062 622.526 302.582 622.991 301.327 622.991H236.769C235.515 622.991 234.014 622.526 234.014 621.394V616.976H304.062Z" fill="black"/>
<path d="M320.448 571.048L308.791 618.777C308.575 619.54 308.088 620.218 307.405 620.707C306.722 621.197 305.88 621.471 305.008 621.487H241.272C240.875 621.477 240.486 621.385 240.136 621.217C239.785 621.048 239.483 620.809 239.252 620.518C239.021 620.227 238.867 619.891 238.804 619.537C238.741 619.184 238.769 618.822 238.887 618.479L250.524 571.123C250.761 570.4 251.267 569.773 251.956 569.347C252.645 568.922 253.475 568.723 254.307 568.784H318.043C319.749 568.784 320.736 569.489 320.448 571.048Z" fill="#263238"/>
<path opacity="0.4" d="M320.448 571.048L308.791 618.777C308.575 619.54 308.088 620.218 307.405 620.707C306.722 621.197 305.88 621.471 305.008 621.487H243.492C243.095 621.476 242.706 621.383 242.355 621.215C242.005 621.047 241.701 620.809 241.469 620.518C241.236 620.228 241.081 619.893 241.015 619.539C240.948 619.186 240.973 618.823 241.087 618.479L252.744 571.123C252.982 570.4 253.488 569.773 254.176 569.347C254.865 568.922 255.695 568.723 256.527 568.784H318.043C319.749 568.784 320.736 569.489 320.448 571.048Z" fill="white"/>
<path opacity="0.2" d="M289.053 595.293C288.85 597.229 287.893 599.036 286.354 600.396C284.815 601.755 282.792 602.578 280.644 602.719C277.087 602.719 274.969 599.396 275.997 595.293C277.025 591.19 280.541 588.016 284.016 587.867C283.008 591.952 285.188 595.293 288.724 595.293H289.053Z" fill="black"/>
<path d="M299.148 544.446L312.841 544.762L306.673 532.25C306.673 532.25 294.46 532.639 294.933 538.32L299.148 544.446Z" fill="#EBB376"/>
<path d="M324.581 538.673L315.205 529.539L306.632 532.25L312.841 544.762L324.581 538.673Z" fill="#EBB376"/>
<path d="M169.723 520.833C168.325 520.74 172.601 536.241 193.367 540.065C214.132 543.889 212.529 526.643 210.904 522.318C210.904 522.318 183.601 521.649 169.723 520.833Z" fill="#EBB376"/>
<path d="M175.418 460.221C175.418 460.221 187.322 448.303 209.095 454.448C230.868 460.592 229.943 495.678 218.882 508.413C201.559 507.864 184.229 509.324 167.317 512.757C167.317 512.757 156.832 487.306 162.033 472.343C167.235 457.381 175.418 460.221 175.418 460.221Z" fill="#263238"/>
<path d="M179.797 495.214C181.175 503.494 182.244 518.494 175.685 523.246C175.685 523.246 184.238 522.986 200.83 534.83C206.854 528.667 203.297 526.123 203.297 526.123C193.49 522.949 194.045 516.266 196.04 510.158L179.797 495.214Z" fill="#EBB376"/>
<path opacity="0.2" d="M186.459 501.322L196.142 510.158C195.654 511.589 195.303 513.055 195.094 514.539C191.331 513.648 186.294 509.323 186.068 505.666C185.908 504.208 186.041 502.737 186.459 501.322Z" fill="black"/>
<path d="M174.267 478.321C175.295 491.557 175.438 497.164 182.82 504.311C193.942 514.929 211.604 511.736 214.79 498.742C217.772 487.009 215.572 467.331 201.344 461.521C198.343 460.179 195 459.585 191.66 459.8C188.319 460.015 185.103 461.032 182.343 462.744C179.583 464.456 177.38 466.803 175.96 469.541C174.54 472.28 173.956 475.311 174.267 478.321Z" fill="#EBB376"/>
<path d="M192.318 482.387C192.318 483.519 192.997 484.429 193.799 484.466C194.6 484.503 195.176 483.612 195.156 482.498C195.135 481.384 194.456 480.456 193.675 480.437C192.894 480.419 192.277 481.273 192.318 482.387Z" fill="#263238"/>
<path d="M207.656 482.535C207.656 483.649 208.355 484.577 209.136 484.614C209.918 484.651 210.514 483.76 210.493 482.646C210.473 481.533 209.794 480.604 209.013 480.586C208.232 480.567 207.656 481.421 207.656 482.535Z" fill="#263238"/>
<path d="M208.602 480.623L211.46 479.955C211.46 479.955 210.041 481.997 208.602 480.623Z" fill="#263238"/>
<path d="M203.009 484.818C204.159 487.404 205.665 489.849 207.491 492.095C206.876 492.474 206.173 492.723 205.436 492.822C204.699 492.922 203.947 492.87 203.236 492.671L203.009 484.818Z" fill="#D58745"/>
<path d="M189.851 475.332C189.944 475.346 190.038 475.339 190.128 475.314C190.217 475.288 190.298 475.243 190.365 475.184C191.007 474.647 191.787 474.265 192.634 474.07C193.482 473.876 194.37 473.875 195.217 474.07C195.304 474.095 195.395 474.104 195.485 474.096C195.575 474.088 195.663 474.063 195.742 474.023C195.821 473.983 195.89 473.928 195.945 473.863C196 473.798 196.039 473.723 196.06 473.643C196.111 473.471 196.086 473.287 195.99 473.131C195.895 472.975 195.735 472.859 195.546 472.808C194.473 472.548 193.345 472.537 192.266 472.778C191.188 473.018 190.194 473.501 189.378 474.181C189.246 474.303 189.172 474.466 189.172 474.636C189.172 474.806 189.246 474.969 189.378 475.091C189.496 475.223 189.665 475.309 189.851 475.332Z" fill="#263238"/>
<path d="M213.618 475.444C213.784 475.501 213.967 475.501 214.132 475.444C214.212 475.398 214.281 475.339 214.335 475.269C214.389 475.2 214.426 475.121 214.445 475.038C214.465 474.954 214.465 474.868 214.447 474.785C214.428 474.702 214.391 474.623 214.338 474.552C213.773 473.637 212.982 472.851 212.027 472.255C211.071 471.659 209.977 471.27 208.828 471.118C208.736 471.113 208.645 471.125 208.559 471.154C208.473 471.182 208.394 471.227 208.328 471.285C208.262 471.342 208.211 471.412 208.176 471.489C208.142 471.566 208.126 471.648 208.129 471.731C208.132 471.904 208.205 472.071 208.333 472.201C208.461 472.33 208.637 472.414 208.828 472.436C209.737 472.561 210.601 472.874 211.354 473.351C212.106 473.827 212.726 474.455 213.166 475.184C213.219 475.252 213.286 475.31 213.364 475.354C213.441 475.399 213.528 475.429 213.618 475.444Z" fill="#263238"/>
<path d="M193.264 480.474L196.122 479.825C196.122 479.825 194.765 481.848 193.264 480.474Z" fill="#263238"/>
<path d="M177.309 486.266C177.309 486.266 188.617 478.247 186.047 465.697C186.047 465.697 206.279 458.476 214.256 476.836C214.256 476.836 215.942 461.094 196.924 458.012C177.906 454.93 155.393 478.21 176.939 495.864L177.309 486.266Z" fill="#263238"/>
<path d="M169.599 489.014C170.333 490.242 171.328 491.327 172.528 492.206C173.728 493.085 175.108 493.742 176.59 494.138C180.435 495.084 182.162 491.669 180.928 488.141C179.797 484.967 176.446 480.716 172.704 481.254C168.962 481.793 167.687 485.877 169.599 489.014Z" fill="#EBB376"/>
<path d="M216.476 484.633C216.384 484.632 216.294 484.605 216.22 484.555C216.146 484.505 216.091 484.434 216.065 484.354C208.807 461.279 184.855 466.032 184.608 466.069C184.556 466.08 184.501 466.081 184.448 466.073C184.394 466.065 184.343 466.048 184.298 466.022C184.252 465.996 184.212 465.962 184.181 465.922C184.149 465.883 184.127 465.838 184.115 465.79C184.103 465.743 184.101 465.694 184.11 465.645C184.119 465.597 184.138 465.551 184.167 465.51C184.195 465.469 184.233 465.433 184.277 465.404C184.321 465.376 184.371 465.356 184.423 465.345C184.67 465.345 209.404 460.388 216.867 484.15C216.882 484.198 216.887 484.248 216.881 484.297C216.875 484.346 216.858 484.394 216.831 484.437C216.805 484.48 216.768 484.518 216.725 484.549C216.682 484.579 216.632 484.601 216.579 484.614L216.476 484.633Z" fill="#263238"/>
<path d="M203.955 496.514C203.238 498.031 202.647 499.595 202.187 501.192H201.221C196.883 500.765 195.053 499.336 194.271 497.758C193.921 497.008 193.773 496.193 193.84 495.381C193.871 494.92 193.968 494.465 194.128 494.026C196.686 495.363 199.533 496.186 202.475 496.44C203.38 496.477 203.955 496.514 203.955 496.514Z" fill="#263238"/>
<path d="M202.475 496.365L201.92 497.72C197.808 497.331 194.991 496.551 193.84 495.307C193.871 494.846 193.968 494.391 194.128 493.952C196.686 495.289 199.533 496.112 202.475 496.365Z" fill="white"/>
<path d="M201.221 501.118C196.883 500.691 195.053 499.261 194.271 497.683C195.919 497.876 197.519 498.322 199 499.001C199.965 499.482 200.741 500.222 201.221 501.118Z" fill="#DE5753"/>
<path d="M200.522 558.369C200.456 558.373 200.391 558.363 200.33 558.341C200.27 558.318 200.216 558.283 200.172 558.239C189.248 547.663 181.01 535.062 176.035 521.315C176.003 521.202 176.022 521.082 176.088 520.982C176.153 520.881 176.26 520.807 176.384 520.777C176.445 520.763 176.508 520.76 176.57 520.769C176.632 520.777 176.692 520.797 176.745 520.826C176.799 520.855 176.845 520.894 176.882 520.94C176.919 520.986 176.946 521.038 176.96 521.093C181.803 534.462 189.767 546.737 200.316 557.088C201.55 553.375 206.669 535.74 198.959 522.225C198.922 522.124 198.925 522.015 198.969 521.917C199.012 521.818 199.094 521.737 199.198 521.688C199.302 521.638 199.422 521.624 199.537 521.648C199.651 521.672 199.753 521.731 199.823 521.817C208.643 537.28 201.056 557.868 200.974 558.072C200.947 558.144 200.901 558.208 200.84 558.26C200.779 558.312 200.705 558.349 200.625 558.369H200.522Z" fill="#263238"/>
<path d="M201.159 557.589L202.722 559.446C202.862 559.604 202.938 559.8 202.938 560.003C202.938 560.205 202.862 560.402 202.722 560.56L201.138 562.416C201.044 562.518 200.926 562.599 200.793 562.655C200.66 562.711 200.514 562.74 200.367 562.74C200.221 562.74 200.075 562.711 199.942 562.655C199.809 562.599 199.691 562.518 199.596 562.416L198.116 560.894C197.986 560.739 197.916 560.55 197.916 560.356C197.916 560.161 197.986 559.972 198.116 559.817L199.432 557.664C199.518 557.529 199.64 557.416 199.787 557.336C199.934 557.255 200.101 557.209 200.273 557.201C200.445 557.194 200.616 557.225 200.771 557.293C200.926 557.361 201.059 557.463 201.159 557.589Z" fill="white"/>
<path opacity="0.7" d="M160.101 521.464C148.217 525.307 144.804 534.663 144.557 554.174C150.725 559.242 169.456 559.52 169.456 559.52C169.456 559.52 172.704 529.929 160.101 521.464Z" fill="white"/>
<path d="M284.427 670.366L305.275 673.466L315.288 674.951L318.207 665.614L309.161 663.126L287.038 657.056L284.427 670.366Z" fill="#EBB376"/>
<path d="M316.172 664.091L311.669 674.561C311.61 674.702 311.582 674.851 311.587 675.001C311.593 675.151 311.631 675.298 311.7 675.434C311.769 675.571 311.867 675.694 311.989 675.795C312.11 675.897 312.253 675.976 312.409 676.028L318.228 677.884C318.228 677.884 325.855 680.892 328.323 679.927C335.539 677.123 346.169 654.16 343.825 652.08C342.961 651.282 341.111 652.08 340.124 652.674C336.999 654.754 330.029 660.787 327.397 662.495C324.313 664.5 319.605 663.869 317.57 663.479C317.294 663.413 317.002 663.439 316.745 663.551C316.489 663.664 316.285 663.855 316.172 664.091Z" fill="#407BFF"/>
<path opacity="0.2" d="M284.427 670.366L305.275 673.466L309.161 663.126L287.038 657.056L284.427 670.366Z" fill="black"/>
<path d="M305.563 661.177C305.563 661.177 220.568 618.034 191.208 619.259C161.848 620.484 157.654 643.838 169.743 658.448C181.833 673.058 204.202 676.622 204.202 676.622C204.202 676.622 189.008 657.167 191.208 651.746C193.408 646.325 202.002 653.9 202.002 653.9C202.002 653.9 255.458 669.493 302.273 673.076L305.563 661.177Z" fill="#263238"/>
<path d="M306.94 659.989L302.129 657.074L295.941 674.209H303.363L306.94 659.989Z" fill="#407BFF"/>
<path opacity="0.6" d="M306.94 659.989L302.129 657.074L295.941 674.209H303.363L306.94 659.989Z" fill="white"/>
</g>
</svg>
