<svg xmlns="http://www.w3.org/2000/svg" xmlns:xlink="http://www.w3.org/1999/xlink" width="100" height="100" preserveAspectRatio="xMidYMid meet" version="1.0" viewBox="0 0 75 75" zoomAndPan="magnify"><path fill="#007c73" fill-opacity="1" fill-rule="nonzero" d="M 22.5 60 C 18.355469 60 15.039062 63.355469 15.039062 67.5 C 15.039062 71.644531 18.355469 75 22.5 75 C 26.644531 75 30 71.644531 30 67.5 C 30 63.355469 26.644531 60 22.5 60 Z M 0 0 L 0 7.5 L 7.5 7.5 L 20.980469 35.945312 L 15.917969 45.132812 C 15.335938 46.21875 15 47.4375 15 48.75 C 15 52.894531 18.355469 56.25 22.5 56.25 L 67.5 56.25 L 67.5 48.75 L 24.09375 48.75 C 23.570312 48.75 23.15625 48.335938 23.15625 47.8125 C 23.15625 47.644531 23.195312 47.492188 23.269531 47.363281 L 26.625 41.25 L 54.5625 41.25 C 57.375 41.25 59.832031 39.695312 61.125 37.386719 L 74.53125 13.050781 C 74.832031 12.523438 75 11.90625 75 11.25 C 75 9.167969 73.3125 7.5 71.25 7.5 L 15.804688 7.5 L 12.242188 0 Z M 60 60 C 55.855469 60 52.539062 63.355469 52.539062 67.5 C 52.539062 71.644531 55.855469 75 60 75 C 64.144531 75 67.5 71.644531 67.5 67.5 C 67.5 63.355469 64.144531 60 60 60 Z M 60 60"/></svg>